<?xml version="1.0" encoding="UTF-8"?>
<!DOCTYPE svg PUBLIC "-//W3C//DTD SVG 1.1//EN" "http://www.w3.org/Graphics/SVG/1.1/DTD/svg11.dtd">
<svg xmlns="http://www.w3.org/2000/svg" version="1.1" width="160px" height="150px" style="shape-rendering:geometricPrecision; text-rendering:geometricPrecision; image-rendering:optimizeQuality; fill-rule:evenodd; clip-rule:evenodd" xmlns:xlink="http://www.w3.org/1999/xlink">
<g><path style="opacity:0.995" fill="#ffcc02" d="M 58.5,58.5 C 91.5017,58.3334 124.502,58.5 157.5,59C 169.086,78.169 180.419,97.5023 191.5,117C 180.419,136.498 169.086,155.831 157.5,175C 124.502,175.5 91.5017,175.667 58.5,175.5C 58.5,136.5 58.5,97.5 58.5,58.5 Z"/></g>
<g><path style="opacity:0.816" fill="#000000" d="M 213.5,59.5 C 215.966,58.3659 218.633,58.1993 221.5,59C 224.805,65.1223 228.472,70.9557 232.5,76.5C 236.042,70.5824 239.708,64.7491 243.5,59C 245.902,58.1859 248.235,58.3526 250.5,59.5C 245.415,67.3339 240.582,75.3339 236,83.5C 235.5,89.8246 235.334,96.1579 235.5,102.5C 233.167,102.5 230.833,102.5 228.5,102.5C 228.666,95.825 228.5,89.1583 228,82.5C 223.142,74.769 218.309,67.1023 213.5,59.5 Z"/></g>
<g><path style="opacity:0.832" fill="#000000" d="M 341.5,58.5 C 343.5,58.5 345.5,58.5 347.5,58.5C 347.5,73.1667 347.5,87.8333 347.5,102.5C 345.5,102.5 343.5,102.5 341.5,102.5C 341.649,101.448 341.483,100.448 341,99.5C 335.209,104.18 329.042,104.68 322.5,101C 315.564,92.7996 314.73,83.9663 320,74.5C 326.752,68.4279 333.752,68.0945 341,73.5C 341.499,68.5111 341.666,63.5111 341.5,58.5 Z M 329.5,75.5 C 340.056,76.5973 343.556,82.264 340,92.5C 337.459,97.0685 333.625,98.5685 328.5,97C 323.787,92.9038 322.287,87.7371 324,81.5C 325.36,78.9774 327.193,76.9774 329.5,75.5 Z"/></g>
<g><path style="opacity:0.824" fill="#000000" d="M 257.5,69.5 C 263.182,69.1323 268.348,70.4657 273,73.5C 274.193,83.0991 275.027,92.7658 275.5,102.5C 273.5,102.5 271.5,102.5 269.5,102.5C 269.719,101.325 269.386,100.325 268.5,99.5C 262.298,104.803 256.131,104.803 250,99.5C 247.236,93.6427 248.402,88.8094 253.5,85C 258.413,83.6552 263.413,82.8219 268.5,82.5C 268.016,76.2052 264.683,74.0385 258.5,76C 256.112,76.3034 253.945,77.1367 252,78.5C 250.699,76.6354 250.365,74.6354 251,72.5C 253.166,71.2685 255.333,70.2685 257.5,69.5 Z M 258.5,88.5 C 261.833,88.5 265.167,88.5 268.5,88.5C 267.94,96.1226 263.94,98.7892 256.5,96.5C 256.167,95.6667 255.833,94.8333 255.5,94C 255.863,91.8077 256.863,89.9744 258.5,88.5 Z"/></g>
<g><path style="opacity:0.785" fill="#000000" d="M 297.5,69.5 C 302.591,69.1347 306.758,70.8013 310,74.5C 311.386,83.7662 311.886,93.0995 311.5,102.5C 309.167,102.5 306.833,102.5 304.5,102.5C 304.666,94.16 304.5,85.8267 304,77.5C 299.176,74.663 294.843,75.3297 291,79.5C 290.5,87.1594 290.334,94.8261 290.5,102.5C 288.167,102.5 285.833,102.5 283.5,102.5C 283.5,91.8333 283.5,81.1667 283.5,70.5C 285.5,70.5 287.5,70.5 289.5,70.5C 289.343,71.8734 289.51,73.2068 290,74.5C 292.17,72.1769 294.67,70.5103 297.5,69.5 Z"/></g>
<g><path style="opacity:0.825" fill="#000000" d="M 366.5,69.5 C 379.502,69.1718 385.168,75.5051 383.5,88.5C 376.167,88.5 368.833,88.5 361.5,88.5C 361.924,94.5855 365.257,97.5855 371.5,97.5C 374.86,97.4911 377.86,96.4911 380.5,94.5C 383.893,99.3749 382.56,102.208 376.5,103C 358.15,104.642 351.317,96.4753 356,78.5C 358.463,74.1977 361.963,71.1977 366.5,69.5 Z M 367.5,75.5 C 373.264,74.8724 376.597,77.3724 377.5,83C 372.136,83.8295 366.802,83.6628 361.5,82.5C 362.49,79.185 364.49,76.8517 367.5,75.5 Z"/></g>
<g><path style="opacity:0.796" fill="#000000" d="M 387.5,70.5 C 390.247,70.1866 392.914,70.52 395.5,71.5C 397.473,74.6397 399.64,77.6397 402,80.5C 404.29,77.4201 406.457,74.2534 408.5,71C 410.833,70.3333 413.167,70.3333 415.5,71C 412.29,75.9203 408.957,80.7537 405.5,85.5C 408.795,91.258 412.461,96.758 416.5,102C 413.833,102.667 411.167,102.667 408.5,102C 405.877,98.588 403.377,95.088 401,91.5C 398.132,94.7359 395.632,98.2359 393.5,102C 391.167,102.667 388.833,102.667 386.5,102C 389.92,96.4928 393.586,91.1595 397.5,86C 393.523,81.2014 390.19,76.0347 387.5,70.5 Z"/></g>
<g><path style="opacity:1" fill="#fffefa" d="M 113.5,121.5 C 112.791,122.404 111.791,122.737 110.5,122.5C 109.109,116.491 107.609,110.491 106,104.5C 92.934,102.703 88.934,95.7026 94,83.5C 98.9373,79.2776 104.437,78.4442 110.5,81C 115.211,85.1396 116.711,90.3062 115,96.5C 113.183,99.3158 111.017,101.816 108.5,104C 110.248,109.829 111.915,115.663 113.5,121.5 Z"/></g>
<g><path style="opacity:1" fill="#ff1100" d="M 130.5,125.5 C 130.427,127.027 131.094,128.027 132.5,128.5C 138.661,138.362 137.328,147.195 128.5,155C 115.494,161.219 105.994,157.719 100,144.5C 98.7451,138.574 99.9118,133.241 103.5,128.5C 104.401,127.71 105.068,126.71 105.5,125.5C 107.434,124.89 109.101,123.89 110.5,122.5C 111.791,122.737 112.791,122.404 113.5,121.5C 116.5,121.5 119.5,121.5 122.5,121.5C 123.852,115.425 125.519,109.425 127.5,103.5C 116.866,95.5755 116.866,87.7422 127.5,80C 139.783,77.9496 145.283,83.1163 144,95.5C 141.204,101.556 136.538,104.889 130,105.5C 128.422,110.978 126.922,116.478 125.5,122C 126.77,123.775 128.436,124.942 130.5,125.5 Z"/></g>
<g><path style="opacity:1" fill="#fffcf6" d="M 105.5,125.5 C 105.068,126.71 104.401,127.71 103.5,128.5C 99.369,124.87 95.369,121.037 91.5,117C 79.9978,119.167 75.8311,114.667 79,103.5C 82.4186,100.152 86.252,99.6519 90.5,102C 91.7014,102.903 92.5348,104.069 93,105.5C 93.4559,108.572 93.4559,111.572 93,114.5C 96.7417,118.747 100.908,122.414 105.5,125.5 Z"/></g>
<g><path style="opacity:1" fill="#fffcf6" d="M 132.5,128.5 C 131.094,128.027 130.427,127.027 130.5,125.5C 135.092,122.414 139.258,118.747 143,114.5C 142.544,111.572 142.544,108.572 143,105.5C 146.855,99.6648 151.522,98.9981 157,103.5C 160.188,114.648 156.022,119.148 144.5,117C 140.605,121.065 136.605,124.898 132.5,128.5 Z"/></g>
<g><path style="opacity:0.808" fill="#000000" d="M 233.5,130.5 C 239.123,130.049 244.456,131.049 249.5,133.5C 250.641,135.421 250.808,137.421 250,139.5C 249.586,139.957 249.086,140.291 248.5,140.5C 242.33,136.487 235.996,135.987 229.5,139C 226.894,140.938 225.061,143.438 224,146.5C 223.333,151.167 223.333,155.833 224,160.5C 229.588,170.693 237.588,173.026 248,167.5C 250.386,169.046 250.886,171.046 249.5,173.5C 229.925,180.716 218.592,174.049 215.5,153.5C 215.684,141.01 221.684,133.343 233.5,130.5 Z"/></g>
<g><path style="opacity:0.837" fill="#000000" d="M 313.5,131.5 C 320.175,131.334 326.842,131.5 333.5,132C 340.014,134.189 342.514,138.689 341,145.5C 340.482,148.508 338.982,150.841 336.5,152.5C 341.438,154.27 343.772,157.77 343.5,163C 343.573,167.858 341.573,171.525 337.5,174C 329.585,175.401 321.585,175.901 313.5,175.5C 313.5,160.833 313.5,146.167 313.5,131.5 Z M 320.5,137.5 C 323.85,137.335 327.183,137.502 330.5,138C 334.738,140.172 335.572,143.338 333,147.5C 329.078,149.312 324.911,149.979 320.5,149.5C 320.5,145.5 320.5,141.5 320.5,137.5 Z M 320.5,156.5 C 324.514,156.334 328.514,156.501 332.5,157C 337.556,160.617 337.723,164.45 333,168.5C 328.889,169.404 324.722,169.737 320.5,169.5C 320.5,165.167 320.5,160.833 320.5,156.5 Z"/></g>
<g><path style="opacity:0.804" fill="#000000" d="M 289.5,136.5 C 291.833,136.5 294.167,136.5 296.5,136.5C 296.5,138.833 296.5,141.167 296.5,143.5C 299.5,143.5 302.5,143.5 305.5,143.5C 305.5,145.167 305.5,146.833 305.5,148.5C 302.5,148.5 299.5,148.5 296.5,148.5C 296.334,155.508 296.5,162.508 297,169.5C 299.466,170.788 301.966,170.788 304.5,169.5C 306.419,174.417 304.753,176.75 299.5,176.5C 295.929,176.63 293.096,175.297 291,172.5C 289.637,164.571 289.137,156.571 289.5,148.5C 288.5,148.5 287.5,148.5 286.5,148.5C 286.5,146.833 286.5,145.167 286.5,143.5C 287.5,143.5 288.5,143.5 289.5,143.5C 289.5,141.167 289.5,138.833 289.5,136.5 Z"/></g>
<g><path style="opacity:0.804" fill="#000000" d="M 452.5,136.5 C 454.833,136.5 457.167,136.5 459.5,136.5C 459.5,138.833 459.5,141.167 459.5,143.5C 462.5,143.5 465.5,143.5 468.5,143.5C 468.5,145.167 468.5,146.833 468.5,148.5C 465.5,148.5 462.5,148.5 459.5,148.5C 459.334,155.508 459.5,162.508 460,169.5C 462.466,170.788 464.966,170.788 467.5,169.5C 469.419,174.417 467.753,176.75 462.5,176.5C 458.929,176.63 456.096,175.297 454,172.5C 452.637,164.571 452.137,156.571 452.5,148.5C 451.5,148.5 450.5,148.5 449.5,148.5C 449.5,146.833 449.5,145.167 449.5,143.5C 450.5,143.5 451.5,143.5 452.5,143.5C 452.5,141.167 452.5,138.833 452.5,136.5 Z"/></g>
<g><path style="opacity:0.824" fill="#000000" d="M 263.5,142.5 C 269.182,142.132 274.348,143.466 279,146.5C 280.193,156.099 281.027,165.766 281.5,175.5C 279.5,175.5 277.5,175.5 275.5,175.5C 275.719,174.325 275.386,173.325 274.5,172.5C 268.298,177.803 262.131,177.803 256,172.5C 253.236,166.643 254.402,161.809 259.5,158C 264.413,156.655 269.413,155.822 274.5,155.5C 274.016,149.205 270.683,147.039 264.5,149C 262.112,149.303 259.945,150.137 258,151.5C 256.699,149.635 256.365,147.635 257,145.5C 259.166,144.269 261.333,143.269 263.5,142.5 Z M 264.5,161.5 C 267.833,161.5 271.167,161.5 274.5,161.5C 273.94,169.123 269.94,171.789 262.5,169.5C 262.167,168.667 261.833,167.833 261.5,167C 261.863,164.808 262.863,162.974 264.5,161.5 Z"/></g>
<g><path style="opacity:0.812" fill="#000000" d="M 360.5,142.5 C 376.511,142.841 382.677,150.841 379,166.5C 373.308,176.617 365.141,179.117 354.5,174C 348.045,166.629 346.878,158.463 351,149.5C 353.505,146.147 356.671,143.814 360.5,142.5 Z M 361.5,148.5 C 371.069,148.937 374.902,153.937 373,163.5C 370.86,169.487 366.693,171.654 360.5,170C 358.667,168.833 357.167,167.333 356,165.5C 353.959,158.351 355.792,152.685 361.5,148.5 Z"/></g>
<g><path style="opacity:0.812" fill="#000000" d="M 395.5,142.5 C 411.511,142.841 417.677,150.841 414,166.5C 408.308,176.617 400.141,179.117 389.5,174C 383.045,166.629 381.878,158.463 386,149.5C 388.505,146.147 391.671,143.814 395.5,142.5 Z M 396.5,148.5 C 406.069,148.937 409.902,153.937 408,163.5C 405.86,169.487 401.693,171.654 395.5,170C 393.667,168.833 392.167,167.333 391,165.5C 388.959,158.351 390.792,152.685 396.5,148.5 Z"/></g>
<g><path style="opacity:0.79" fill="#000000" d="M 430.5,142.5 C 435.455,142.239 440.122,143.239 444.5,145.5C 444.047,147.565 443.047,149.232 441.5,150.5C 435.969,147.393 430.969,147.893 426.5,152C 427.167,153.333 428.167,154.333 429.5,155C 433.608,156.027 437.608,157.36 441.5,159C 447.009,164.636 446.676,169.969 440.5,175C 433.693,177.21 427.027,176.877 420.5,174C 420.146,172.374 420.146,170.541 420.5,168.5C 424.492,169.497 428.492,170.497 432.5,171.5C 435.474,171.146 437.474,169.646 438.5,167C 438.415,165.893 438.081,164.893 437.5,164C 432.632,162.933 427.966,161.266 423.5,159C 418.504,150.485 420.838,144.985 430.5,142.5 Z"/></g>
</svg>
