<?xml version="1.0" encoding="UTF-8"?>
<!DOCTYPE svg PUBLIC "-//W3C//DTD SVG 1.1//EN" "http://www.w3.org/Graphics/SVG/1.1/DTD/svg11.dtd">
<svg xmlns="http://www.w3.org/2000/svg" version="1.1" width="100px" height="100px" style="shape-rendering:geometricPrecision; text-rendering:geometricPrecision; image-rendering:optimizeQuality; fill-rule:evenodd; clip-rule:evenodd" xmlns:xlink="http://www.w3.org/1999/xlink">
<g><path style="opacity:0.294" fill="#161110" d="M 23.5,-0.5 C 24.1667,-0.5 24.8333,-0.5 25.5,-0.5C 29.3528,1.0065 33.3528,2.33983 37.5,3.5C 37.8025,6.8735 38.8025,10.0402 40.5,13C 40.5607,14.7106 39.8941,16.044 38.5,17C 40.6705,18.5862 43.0038,19.9196 45.5,21C 46.3366,22.0113 46.67,23.1779 46.5,24.5C 45.8333,24.1667 45.1667,23.8333 44.5,23.5C 44.1667,22.5 43.5,21.8333 42.5,21.5C 40.2118,18.8574 37.8784,18.8574 35.5,21.5C 35.5,21.1667 35.5,20.8333 35.5,20.5C 36.625,19.3478 36.625,18.3478 35.5,17.5C 36.9678,16.1943 38.3012,14.6943 39.5,13C 38.9056,12.5357 38.2389,12.369 37.5,12.5C 37.7678,10.901 37.4345,9.56764 36.5,8.5C 35.7281,7.30646 34.7281,6.30646 33.5,5.5C 31.7496,4.13022 29.7496,3.13022 27.5,2.5C 25.0521,1.52693 22.3854,1.1936 19.5,1.5C 20.8333,0.833333 22.1667,0.166667 23.5,-0.5 Z"/></g>
<g><path style="opacity:1" fill="#cdb983" d="M 19.5,1.5 C 22.3854,1.1936 25.0521,1.52693 27.5,2.5C 27.4326,3.95875 27.7659,5.29208 28.5,6.5C 27.2617,6.81001 27.2617,7.31001 28.5,8C 27.552,8.48278 26.552,8.64945 25.5,8.5C 22.6717,7.50333 20.005,7.50333 17.5,8.5C 17.1667,8.5 16.8333,8.5 16.5,8.5C 15.5084,8.67158 14.8417,8.33825 14.5,7.5C 15.92,5.29113 17.5867,3.29113 19.5,1.5 Z"/></g>
<g><path style="opacity:1" fill="#e59217" d="M 27.5,2.5 C 29.7496,3.13022 31.7496,4.13022 33.5,5.5C 33.7678,7.09903 33.4345,8.43236 32.5,9.5C 31.5,8.83333 30.5,8.16667 29.5,7.5C 29.5,6.83333 29.1667,6.5 28.5,6.5C 27.7659,5.29208 27.4326,3.95875 27.5,2.5 Z"/></g>
<g><path style="opacity:0.525" fill="#171613" d="M 19.5,1.5 C 17.5867,3.29113 15.92,5.29113 14.5,7.5C 12.2417,7.22494 11.9084,6.22494 13.5,4.5C 15.0712,2.58499 17.0712,1.58499 19.5,1.5 Z"/></g>
<g><path style="opacity:0.996" fill="#a15f35" d="M 33.5,5.5 C 34.7281,6.30646 35.7281,7.30646 36.5,8.5C 37.2436,11.9496 35.9103,13.6162 32.5,13.5C 32.5,12.1667 32.5,10.8333 32.5,9.5C 33.4345,8.43236 33.7678,7.09903 33.5,5.5 Z"/></g>
<g><path style="opacity:0.145" fill="#211916" d="M 16.5,8.5 C 16.8333,8.5 17.1667,8.5 17.5,8.5C 17.8333,9.16667 18.1667,9.83333 18.5,10.5C 18.8799,12.698 18.2132,14.3646 16.5,15.5C 16.5,15.1667 16.5,14.8333 16.5,14.5C 15.6987,12.2071 15.032,12.5404 14.5,15.5C 13.5,15.8333 12.8333,16.5 12.5,17.5C 11.8333,17.8333 11.1667,18.1667 10.5,18.5C 10.6309,17.6236 10.2975,16.9569 9.5,16.5C 8.27359,17.3629 6.94026,17.3629 5.5,16.5C 7.76118,14.745 10.4278,13.5784 13.5,13C 14.2225,11.2495 15.2225,9.74947 16.5,8.5 Z"/></g>
<g><path style="opacity:0.996" fill="#ea9839" d="M 25.5,8.5 C 25.5,8.83333 25.5,9.16667 25.5,9.5C 20.5325,9.86588 20.8658,10.3659 26.5,11C 29.17,13.4149 29.17,14.5816 26.5,14.5C 26.5,13.8333 26.1667,13.5 25.5,13.5C 23.4293,12.0549 21.096,11.0549 18.5,10.5C 18.1667,9.83333 17.8333,9.16667 17.5,8.5C 20.005,7.50333 22.6717,7.50333 25.5,8.5 Z"/></g>
<g><path style="opacity:1" fill="#976422" d="M 28.5,6.5 C 29.1667,6.5 29.5,6.83333 29.5,7.5C 29.8333,8.83333 30.1667,10.1667 30.5,11.5C 28.9505,10.5592 27.2838,9.89254 25.5,9.5C 25.5,9.16667 25.5,8.83333 25.5,8.5C 26.552,8.64945 27.552,8.48278 28.5,8C 27.2617,7.31001 27.2617,6.81001 28.5,6.5 Z"/></g>
<g><path style="opacity:0.996" fill="#9a6340" d="M 16.5,14.5 C 15.8333,14.8333 15.1667,15.1667 14.5,15.5C 15.032,12.5404 15.6987,12.2071 16.5,14.5 Z"/></g>
<g><path style="opacity:1" fill="#d98b7f" d="M 25.5,9.5 C 27.2838,9.89254 28.9505,10.5592 30.5,11.5C 30.8493,14.4629 29.8493,16.7962 27.5,18.5C 26.5713,17.3112 26.238,15.9778 26.5,14.5C 29.17,14.5816 29.17,13.4149 26.5,11C 20.8658,10.3659 20.5325,9.86588 25.5,9.5 Z"/></g>
<g><path style="opacity:1" fill="#cd6270" d="M 18.5,10.5 C 21.096,11.0549 23.4293,12.0549 25.5,13.5C 26.3875,18.4068 24.3875,21.0734 19.5,21.5C 19.5,20.8333 19.5,20.1667 19.5,19.5C 19.2294,17.5695 18.2294,16.2362 16.5,15.5C 18.2132,14.3646 18.8799,12.698 18.5,10.5 Z"/></g>
<g><path style="opacity:0.984" fill="#b04159" d="M 37.5,12.5 C 38.2389,12.369 38.9056,12.5357 39.5,13C 38.3012,14.6943 36.9678,16.1943 35.5,17.5C 34.0222,17.762 32.6888,17.4287 31.5,16.5C 33.5343,15.1678 35.5343,13.8344 37.5,12.5 Z"/></g>
<g><path style="opacity:1" fill="#cf90b4" d="M 16.5,14.5 C 16.5,14.8333 16.5,15.1667 16.5,15.5C 18.2294,16.2362 19.2294,17.5695 19.5,19.5C 18.3523,18.105 17.3523,18.2716 16.5,20C 14.8333,20.6667 13.1667,20.6667 11.5,20C 12.999,19.1618 13.3324,18.3285 12.5,17.5C 12.8333,16.5 13.5,15.8333 14.5,15.5C 15.1667,15.1667 15.8333,14.8333 16.5,14.5 Z"/></g>
<g><path style="opacity:0.984" fill="#44282c" d="M 29.5,7.5 C 30.5,8.16667 31.5,8.83333 32.5,9.5C 32.5,10.8333 32.5,12.1667 32.5,13.5C 35.9103,13.6162 37.2436,11.9496 36.5,8.5C 37.4345,9.56764 37.7678,10.901 37.5,12.5C 35.5343,13.8344 33.5343,15.1678 31.5,16.5C 32.6888,17.4287 34.0222,17.762 35.5,17.5C 33.2209,18.6515 30.8876,19.6515 28.5,20.5C 26.847,20.6596 25.5137,21.3263 24.5,22.5C 21.7938,22.5751 19.1272,22.9084 16.5,23.5C 16.5,23.1667 16.5,22.8333 16.5,22.5C 17.609,22.4431 18.609,22.1098 19.5,21.5C 24.3875,21.0734 26.3875,18.4068 25.5,13.5C 26.1667,13.5 26.5,13.8333 26.5,14.5C 26.238,15.9778 26.5713,17.3112 27.5,18.5C 29.8493,16.7962 30.8493,14.4629 30.5,11.5C 30.1667,10.1667 29.8333,8.83333 29.5,7.5 Z"/></g>
<g><path style="opacity:0.973" fill="#996167" d="M 5.5,16.5 C 6.94026,17.3629 8.27359,17.3629 9.5,16.5C 10.2975,16.9569 10.6309,17.6236 10.5,18.5C 10.6716,19.4916 10.3382,20.1583 9.5,20.5C 7.90097,20.7678 6.56764,20.4345 5.5,19.5C 5.5,18.8333 5.5,18.1667 5.5,17.5C 5.5,17.1667 5.5,16.8333 5.5,16.5 Z"/></g>
<g><path style="opacity:0.992" fill="#774a89" d="M 5.5,19.5 C 6.56764,20.4345 7.90097,20.7678 9.5,20.5C 9.34332,21.8734 9.50999,23.2068 10,24.5C 12.154,23.7699 14.3206,23.1032 16.5,22.5C 16.5,22.8333 16.5,23.1667 16.5,23.5C 16.5,23.8333 16.5,24.1667 16.5,24.5C 10.0552,24.2894 6.38852,27.2894 5.5,33.5C 4.83333,33.5 4.5,33.8333 4.5,34.5C 3.66175,34.1583 3.32842,33.4916 3.5,32.5C 3.39592,30.5983 4.06259,28.5983 5.5,26.5C 5.19921,24.5784 4.53254,22.9117 3.5,21.5C 3.83333,20.5 4.5,19.8333 5.5,19.5 Z"/></g>
<g><path style="opacity:1" fill="#bb73d5" d="M 12.5,17.5 C 13.3324,18.3285 12.999,19.1618 11.5,20C 13.1667,20.6667 14.8333,20.6667 16.5,20C 17.3523,18.2716 18.3523,18.105 19.5,19.5C 19.5,20.1667 19.5,20.8333 19.5,21.5C 18.609,22.1098 17.609,22.4431 16.5,22.5C 14.3206,23.1032 12.154,23.7699 10,24.5C 9.50999,23.2068 9.34332,21.8734 9.5,20.5C 10.3382,20.1583 10.6716,19.4916 10.5,18.5C 11.1667,18.1667 11.8333,17.8333 12.5,17.5 Z"/></g>
<g><path style="opacity:1" fill="#a23d51" d="M 42.5,21.5 C 40.283,22.3686 37.9496,22.702 35.5,22.5C 35.5,22.1667 35.5,21.8333 35.5,21.5C 37.8784,18.8574 40.2118,18.8574 42.5,21.5 Z"/></g>
<g><path style="opacity:0.929" fill="#22171b" d="M 5.5,17.5 C 5.5,18.1667 5.5,18.8333 5.5,19.5C 4.5,19.8333 3.83333,20.5 3.5,21.5C 1.59025,24.4525 0.590249,27.7858 0.5,31.5C 0.402065,33.5529 1.06873,35.2196 2.5,36.5C 4.09082,39.4309 6.09082,42.0976 8.5,44.5C 4.87388,42.5407 1.87388,39.874 -0.5,36.5C -0.5,31.1667 -0.5,25.8333 -0.5,20.5C 1.94678,20.385 3.94678,19.385 5.5,17.5 Z"/></g>
<g><path style="opacity:1" fill="#c77aa3" d="M 28.5,20.5 C 29.2341,21.7079 29.5674,23.0413 29.5,24.5C 28.0413,24.4326 26.7079,24.7659 25.5,25.5C 25.7373,24.209 25.404,23.209 24.5,22.5C 25.5137,21.3263 26.847,20.6596 28.5,20.5 Z"/></g>
<g><path style="opacity:0.996" fill="#d38b90" d="M 35.5,17.5 C 36.625,18.3478 36.625,19.3478 35.5,20.5C 33.7541,22.2516 31.7541,23.5849 29.5,24.5C 29.5674,23.0413 29.2341,21.7079 28.5,20.5C 30.8876,19.6515 33.2209,18.6515 35.5,17.5 Z"/></g>
<g><path style="opacity:1" fill="#d94e69" d="M 42.5,21.5 C 43.5,21.8333 44.1667,22.5 44.5,23.5C 42.9577,24.1408 41.6243,25.1408 40.5,26.5C 41.3202,28.1112 42.6536,28.7778 44.5,28.5C 44.3505,27.448 44.5172,26.448 45,25.5C 45.4955,27.4727 45.6621,29.4727 45.5,31.5C 38.8333,32.1667 38.8333,32.8333 45.5,33.5C 45.5,34.5 45.5,35.5 45.5,36.5C 42.6333,36.3692 40.9666,37.7026 40.5,40.5C 39.8444,39.7222 39.0111,39.0556 38,38.5C 37.2352,38.5699 36.7352,38.9033 36.5,39.5C 36.6716,40.4916 36.3382,41.1583 35.5,41.5C 35.1788,39.9519 34.1788,39.2852 32.5,39.5C 32.4552,34.1217 29.7886,31.4551 24.5,31.5C 24.7148,29.8212 24.0481,28.8212 22.5,28.5C 27.1569,27.2774 31.4903,25.2774 35.5,22.5C 37.9496,22.702 40.283,22.3686 42.5,21.5 Z"/></g>
<g><path style="opacity:1" fill="#a669ae" d="M 24.5,22.5 C 25.404,23.209 25.7373,24.209 25.5,25.5C 23.4348,25.953 21.7682,26.953 20.5,28.5C 20.1667,28.5 19.8333,28.5 19.5,28.5C 16.6461,27.6192 13.6461,27.4525 10.5,28C 12.8791,27.2838 14.8791,26.1172 16.5,24.5C 16.5,24.1667 16.5,23.8333 16.5,23.5C 19.1272,22.9084 21.7938,22.5751 24.5,22.5 Z"/></g>
<g><path style="opacity:0.988" fill="#5d323d" d="M 35.5,20.5 C 35.5,20.8333 35.5,21.1667 35.5,21.5C 35.5,21.8333 35.5,22.1667 35.5,22.5C 31.4903,25.2774 27.1569,27.2774 22.5,28.5C 21.8333,28.5 21.1667,28.5 20.5,28.5C 21.7682,26.953 23.4348,25.953 25.5,25.5C 26.7079,24.7659 28.0413,24.4326 29.5,24.5C 31.7541,23.5849 33.7541,22.2516 35.5,20.5 Z"/></g>
<g><path style="opacity:0.992" fill="#412336" d="M 19.5,28.5 C 19.8333,28.5 20.1667,28.5 20.5,28.5C 18.614,29.9301 16.9473,31.5968 15.5,33.5C 15.8333,32.1667 16.1667,30.8333 16.5,29.5C 17.391,28.8902 18.391,28.5569 19.5,28.5 Z"/></g>
<g><path style="opacity:0.986" fill="#833a46" d="M 44.5,23.5 C 45.1667,23.8333 45.8333,24.1667 46.5,24.5C 46.8333,24.5 47.1667,24.5 47.5,24.5C 47.5,26.8333 47.5,29.1667 47.5,31.5C 47.1667,31.5 46.8333,31.5 46.5,31.5C 46.1667,31.5 45.8333,31.5 45.5,31.5C 45.6621,29.4727 45.4955,27.4727 45,25.5C 44.5172,26.448 44.3505,27.448 44.5,28.5C 42.6536,28.7778 41.3202,28.1112 40.5,26.5C 41.6243,25.1408 42.9577,24.1408 44.5,23.5 Z"/></g>
<g><path style="opacity:0.982" fill="#9b5fbc" d="M 3.5,21.5 C 4.53254,22.9117 5.19921,24.5784 5.5,26.5C 4.06259,28.5983 3.39592,30.5983 3.5,32.5C 2.39105,32.4431 1.39105,32.1098 0.5,31.5C 0.590249,27.7858 1.59025,24.4525 3.5,21.5 Z"/></g>
<g><path style="opacity:0.996" fill="#a967d4" d="M 16.5,24.5 C 14.8791,26.1172 12.8791,27.2838 10.5,28C 13.6461,27.4525 16.6461,27.6192 19.5,28.5C 18.391,28.5569 17.391,28.8902 16.5,29.5C 12.1576,29.2779 8.49089,30.6112 5.5,33.5C 6.38852,27.2894 10.0552,24.2894 16.5,24.5 Z"/></g>
<g><path style="opacity:1" fill="#dd4f6d" d="M 20.5,28.5 C 21.1667,28.5 21.8333,28.5 22.5,28.5C 24.0481,28.8212 24.7148,29.8212 24.5,31.5C 29.7886,31.4551 32.4552,34.1217 32.5,39.5C 34.1788,39.2852 35.1788,39.9519 35.5,41.5C 36.1667,42.1667 36.8333,42.8333 37.5,43.5C 33.7238,44.8248 29.5572,45.4915 25,45.5C 19.4737,45.3925 13.9737,45.0592 8.5,44.5C 6.09082,42.0976 4.09082,39.4309 2.5,36.5C 3.77765,36.7822 4.77765,37.4489 5.5,38.5C 6.65225,39.625 7.65225,39.625 8.5,38.5C 8.45727,33.8235 10.1239,32.8235 13.5,35.5C 14.7133,35.2528 15.38,34.5862 15.5,33.5C 16.9473,31.5968 18.614,29.9301 20.5,28.5 Z"/></g>
<g><path style="opacity:1" fill="#a25cab" d="M 16.5,29.5 C 16.1667,30.8333 15.8333,32.1667 15.5,33.5C 15.38,34.5862 14.7133,35.2528 13.5,35.5C 10.1239,32.8235 8.45727,33.8235 8.5,38.5C 7.26315,37.0351 6.26315,35.3684 5.5,33.5C 8.49089,30.6112 12.1576,29.2779 16.5,29.5 Z"/></g>
<g><path style="opacity:1" fill="#c1558f" d="M 0.5,31.5 C 1.39105,32.1098 2.39105,32.4431 3.5,32.5C 3.32842,33.4916 3.66175,34.1583 4.5,34.5C 5.23411,35.7079 5.56745,37.0413 5.5,38.5C 4.77765,37.4489 3.77765,36.7822 2.5,36.5C 1.06873,35.2196 0.402065,33.5529 0.5,31.5 Z"/></g>
<g><path style="opacity:1" fill="#522a3f" d="M 5.5,33.5 C 6.26315,35.3684 7.26315,37.0351 8.5,38.5C 7.65225,39.625 6.65225,39.625 5.5,38.5C 5.56745,37.0413 5.23411,35.7079 4.5,34.5C 4.5,33.8333 4.83333,33.5 5.5,33.5 Z"/></g>
<g><path style="opacity:1" fill="#e7a02d" d="M 45.5,36.5 C 46.4511,37.9187 46.7845,39.5853 46.5,41.5C 44.2646,41.7947 42.2646,41.4614 40.5,40.5C 40.9666,37.7026 42.6333,36.3692 45.5,36.5 Z"/></g>
<g><path style="opacity:0.973" fill="#833640" d="M 36.5,39.5 C 36.7352,38.9033 37.2352,38.5699 38,38.5C 39.0111,39.0556 39.8444,39.7222 40.5,40.5C 42.2646,41.4614 44.2646,41.7947 46.5,41.5C 45.708,43.2572 44.3747,44.5905 42.5,45.5C 40.0626,43.7297 38.0626,41.7297 36.5,39.5 Z"/></g>
<g><path style="opacity:0.584" fill="#4a2028" d="M 37.5,43.5 C 38.3382,43.8417 38.6716,44.5084 38.5,45.5C 29.3425,46.6576 20.0092,46.8243 10.5,46C 9.5842,45.7216 8.91753,45.2216 8.5,44.5C 13.9737,45.0592 19.4737,45.3925 25,45.5C 29.5572,45.4915 33.7238,44.8248 37.5,43.5 Z"/></g>
<g><path style="opacity:0.298" fill="#251616" d="M 45.5,31.5 C 45.8333,31.5 46.1667,31.5 46.5,31.5C 46.2322,33.099 46.5655,34.4324 47.5,35.5C 47.5,38.5 47.5,41.5 47.5,44.5C 45.5956,44.7376 44.2623,45.7376 43.5,47.5C 42.8333,47.5 42.1667,47.5 41.5,47.5C 41.0269,46.0937 40.0269,45.427 38.5,45.5C 38.6716,44.5084 38.3382,43.8417 37.5,43.5C 36.8333,42.8333 36.1667,42.1667 35.5,41.5C 36.3382,41.1583 36.6716,40.4916 36.5,39.5C 38.0626,41.7297 40.0626,43.7297 42.5,45.5C 44.3747,44.5905 45.708,43.2572 46.5,41.5C 46.7845,39.5853 46.4511,37.9187 45.5,36.5C 45.5,35.5 45.5,34.5 45.5,33.5C 38.8333,32.8333 38.8333,32.1667 45.5,31.5 Z"/></g>
</svg>
