<?xml version="1.0" encoding="UTF-8"?>
<!DOCTYPE svg PUBLIC "-//W3C//DTD SVG 1.1//EN" "http://www.w3.org/Graphics/SVG/1.1/DTD/svg11.dtd">
<svg xmlns="http://www.w3.org/2000/svg" version="1.1" width="643px" height="218px" style="shape-rendering:geometricPrecision; text-rendering:geometricPrecision; image-rendering:optimizeQuality; fill-rule:evenodd; clip-rule:evenodd" xmlns:xlink="http://www.w3.org/1999/xlink">
<g><path style="opacity:1" fill="#fefefe" d="M -0.5,-0.5 C 213.833,-0.5 428.167,-0.5 642.5,-0.5C 642.5,74.5 642.5,149.5 642.5,224.5C 428.167,224.5 213.833,224.5 -0.5,224.5C -0.5,149.5 -0.5,74.5 -0.5,-0.5 Z"/></g>
<g><path style="opacity:1" fill="#088dcc" d="M 154.5,17.5 C 156.033,19.2451 158.033,20.2451 160.5,20.5C 164.953,22.5607 169.287,24.8941 173.5,27.5C 174.585,29.5869 176.251,30.9202 178.5,31.5C 182.473,34.8062 186.14,38.4729 189.5,42.5C 190.419,45.0892 192.086,47.0892 194.5,48.5C 197.556,50.9485 199.889,53.9485 201.5,57.5C 201.427,59.0269 202.094,60.0269 203.5,60.5C 204.674,61.5137 205.34,62.847 205.5,64.5C 205.427,66.0269 206.094,67.0269 207.5,67.5C 208.537,68.9303 209.204,70.597 209.5,72.5C 209.755,74.9674 210.755,76.9674 212.5,78.5C 213.485,82.0756 214.152,85.7423 214.5,89.5C 215.796,94.062 216.462,98.7286 216.5,103.5C 216.698,111.534 216.365,119.534 215.5,127.5C 215.5,128.833 215.5,130.167 215.5,131.5C 214.35,136.44 213.35,141.44 212.5,146.5C 210.229,148.612 208.896,151.279 208.5,154.5C 207.89,155.391 207.557,156.391 207.5,157.5C 205.75,158.659 204.75,160.326 204.5,162.5C 204.167,163.167 203.833,163.833 203.5,164.5C 201.75,165.659 200.75,167.326 200.5,169.5C 196.53,174.476 192.53,179.476 188.5,184.5C 186.251,185.08 184.585,186.413 183.5,188.5C 178.809,192.197 174.142,195.864 169.5,199.5C 167.368,199.554 166.035,200.554 165.5,202.5C 164.833,202.5 164.167,202.5 163.5,202.5C 161.973,202.427 160.973,203.094 160.5,204.5C 155.495,206.501 150.495,208.501 145.5,210.5C 142.848,210.41 140.515,211.076 138.5,212.5C 137.833,212.5 137.167,212.5 136.5,212.5C 135.167,212.5 133.833,212.5 132.5,212.5C 117.127,213.965 101.793,213.631 86.5,211.5C 83.9164,209.528 80.9164,208.528 77.5,208.5C 77.1667,208.5 76.8333,208.5 76.5,208.5C 76.0269,207.094 75.0269,206.427 73.5,206.5C 72.8333,206.5 72.1667,206.5 71.5,206.5C 71.0269,205.094 70.0269,204.427 68.5,204.5C 66.847,204.34 65.5137,203.674 64.5,202.5C 64.0269,201.094 63.0269,200.427 61.5,200.5C 59.6316,199.737 57.9649,198.737 56.5,197.5C 56.0269,196.094 55.0269,195.427 53.5,195.5C 50.2157,193.883 47.5491,191.55 45.5,188.5C 44.0892,186.086 42.0892,184.419 39.5,183.5C 35.2488,178.643 31.2488,173.643 27.5,168.5C 27.573,166.973 26.9063,165.973 25.5,165.5C 24.351,162.706 23.0177,160.039 21.5,157.5C 21.573,155.973 20.9063,154.973 19.5,154.5C 19.5,154.167 19.5,153.833 19.5,153.5C 19.0075,151.181 18.0075,149.181 16.5,147.5C 16.5,146.167 16.5,144.833 16.5,143.5C 16.6646,140.482 16.498,137.482 16,134.5C 15,131.833 14,129.167 13,126.5C 12.5002,117.84 12.3336,109.173 12.5,100.5C 13.0696,94.4157 14.0696,88.4157 15.5,82.5C 15.5,82.1667 15.5,81.8333 15.5,81.5C 17.2132,80.3646 17.8799,78.698 17.5,76.5C 18.3627,74.5786 19.0293,72.5786 19.5,70.5C 22.4152,68.3494 24.0819,65.3494 24.5,61.5C 26.405,58.4432 28.905,55.7765 32,53.5C 32.6077,51.8455 33.1077,50.1789 33.5,48.5C 33.8333,47.8333 34.1667,47.1667 34.5,46.5C 37.1667,45.8333 38.8333,44.1667 39.5,41.5C 42.1667,40.8333 43.8333,39.1667 44.5,36.5C 46.7488,35.9202 48.4154,34.5869 49.5,32.5C 53.1773,31.7384 55.844,29.7384 57.5,26.5C 59.0269,26.573 60.0269,25.9063 60.5,24.5C 62.0269,24.573 63.0269,23.9063 63.5,22.5C 64.1667,22.1667 64.8333,21.8333 65.5,21.5C 70.6889,20.4463 75.3556,18.4463 79.5,15.5C 81.403,15.2041 83.0697,14.5375 84.5,13.5C 108.284,7.13493 131.618,8.46826 154.5,17.5 Z"/></g>
<g><path style="opacity:1" fill="#9bd2eb" d="M 84.5,13.5 C 83.0697,14.5375 81.403,15.2041 79.5,15.5C 80.6354,13.7868 82.302,13.1201 84.5,13.5 Z"/></g>
<g><path style="opacity:1" fill="#65b8e1" d="M 79.5,15.5 C 75.3556,18.4463 70.6889,20.4463 65.5,21.5C 69.6444,18.5537 74.3111,16.5537 79.5,15.5 Z"/></g>
<g><path style="opacity:1" fill="#8fcde9" d="M 154.5,17.5 C 156.967,17.7549 158.967,18.7549 160.5,20.5C 158.033,20.2451 156.033,19.2451 154.5,17.5 Z"/></g>
<g><path style="opacity:1" fill="#79c3e6" d="M 63.5,22.5 C 63.0269,23.9063 62.0269,24.573 60.5,24.5C 60.9731,23.0937 61.9731,22.427 63.5,22.5 Z"/></g>
<g><path style="opacity:1" fill="#6bbce2" d="M 60.5,24.5 C 60.0269,25.9063 59.0269,26.573 57.5,26.5C 57.9731,25.0937 58.9731,24.427 60.5,24.5 Z"/></g>
<g><path style="opacity:1" fill="#b1dcef" d="M 173.5,27.5 C 175.749,28.0798 177.415,29.4131 178.5,31.5C 176.251,30.9202 174.585,29.5869 173.5,27.5 Z"/></g>
<g><path style="opacity:1" fill="#4cacdc" d="M 57.5,26.5 C 55.844,29.7384 53.1773,31.7384 49.5,32.5C 51.4426,29.5293 54.1092,27.5293 57.5,26.5 Z"/></g>
<g><path style="opacity:1" fill="#5db5df" d="M 49.5,32.5 C 48.4154,34.5869 46.7488,35.9202 44.5,36.5C 45.5846,34.4131 47.2512,33.0798 49.5,32.5 Z"/></g>
<g><path style="opacity:1" fill="#44abdb" d="M 44.5,36.5 C 43.8333,39.1667 42.1667,40.8333 39.5,41.5C 40.8333,39.5 42.5,37.8333 44.5,36.5 Z"/></g>
<g><path style="opacity:1" fill="#4caedd" d="M 189.5,42.5 C 191.914,43.9108 193.581,45.9108 194.5,48.5C 192.086,47.0892 190.419,45.0892 189.5,42.5 Z"/></g>
<g><path style="opacity:1" fill="#078fce" d="M 596.5,42.5 C 597.167,42.5 597.833,42.5 598.5,42.5C 602.5,42.5 606.5,42.5 610.5,42.5C 610.174,51.0168 610.507,59.3501 611.5,67.5C 618.313,68.4912 625.313,68.8245 632.5,68.5C 632.5,72.1667 632.5,75.8333 632.5,79.5C 625.557,78.5733 618.557,78.24 611.5,78.5C 611.169,99.3401 611.503,120.007 612.5,140.5C 612.5,141.833 612.5,143.167 612.5,144.5C 616.649,145.08 620.316,144.414 623.5,142.5C 624.75,142.423 625.583,141.756 626,140.5C 626.499,136.179 626.666,131.846 626.5,127.5C 628.5,127.5 630.5,127.5 632.5,127.5C 632.687,133.212 632.354,138.879 631.5,144.5C 629.071,145.265 627.738,146.931 627.5,149.5C 625.567,149.729 623.9,150.562 622.5,152C 614.445,152.822 606.445,152.488 598.5,151C 597.193,148.52 595.193,147.02 592.5,146.5C 592.167,145.5 591.5,144.833 590.5,144.5C 589.976,142.694 589.309,141.028 588.5,139.5C 588.5,119.167 588.5,98.8333 588.5,78.5C 584.03,77.5139 579.363,77.1805 574.5,77.5C 574.5,75.1667 574.5,72.8333 574.5,70.5C 577.388,71.0102 579.721,70.3435 581.5,68.5C 584.14,67.5515 586.807,66.5515 589.5,65.5C 590.496,65.5858 591.329,65.2524 592,64.5C 596.159,57.8177 597.659,50.4843 596.5,42.5 Z"/></g>
<g><path style="opacity:1" fill="#6dbce5" d="M 598.5,42.5 C 602.97,41.5139 607.637,41.1805 612.5,41.5C 612.5,50.1667 612.5,58.8333 612.5,67.5C 612.167,67.5 611.833,67.5 611.5,67.5C 610.507,59.3501 610.174,51.0168 610.5,42.5C 606.5,42.5 602.5,42.5 598.5,42.5 Z"/></g>
<g><path style="opacity:1" fill="#5cb4de" d="M 39.5,41.5 C 38.8333,44.1667 37.1667,45.8333 34.5,46.5C 35.8333,44.5 37.5,42.8333 39.5,41.5 Z"/></g>
<g><path style="opacity:1" fill="#6abae3" d="M 596.5,42.5 C 597.659,50.4843 596.159,57.8177 592,64.5C 591.329,65.2524 590.496,65.5858 589.5,65.5C 594.584,58.628 596.918,50.9613 596.5,42.5 Z"/></g>
<g><path style="opacity:1" fill="#57b0dd" d="M 33.5,48.5 C 33.1077,50.1789 32.6077,51.8455 32,53.5C 28.905,55.7765 26.405,58.4432 24.5,61.5C 26.3375,56.3346 29.3375,52.0013 33.5,48.5 Z"/></g>
<g><path style="opacity:1" fill="#7dc5e6" d="M 201.5,57.5 C 202.906,57.9731 203.573,58.9731 203.5,60.5C 202.094,60.0269 201.427,59.0269 201.5,57.5 Z"/></g>
<g><path style="opacity:1" fill="#60b6e1" d="M 532.5,65.5 C 523.161,65.3335 513.827,65.5002 504.5,66C 502.846,66.6077 501.179,67.1077 499.5,67.5C 501.667,65.4887 504.334,64.3221 507.5,64C 514.5,63.3333 521.5,63.3333 528.5,64C 530.058,64.21 531.391,64.71 532.5,65.5 Z"/></g>
<g><path style="opacity:1" fill="#b5ddf1" d="M 423.5,66.5 C 417.642,66.1778 411.975,66.5111 406.5,67.5C 405.833,67.5 405.167,67.5 404.5,67.5C 407.258,66.1818 410.424,65.5152 414,65.5C 417.352,65.5018 420.518,65.8351 423.5,66.5 Z"/></g>
<g><path style="opacity:1" fill="#92cfea" d="M 205.5,64.5 C 206.906,64.9731 207.573,65.9731 207.5,67.5C 206.094,67.0269 205.427,66.0269 205.5,64.5 Z"/></g>
<g><path style="opacity:1" fill="#0b90ce" d="M 532.5,65.5 C 532.833,65.5 533.167,65.5 533.5,65.5C 536.254,66.9459 539.254,67.9459 542.5,68.5C 542.973,69.9063 543.973,70.573 545.5,70.5C 549.904,73.5736 553.237,77.5736 555.5,82.5C 555.427,84.0269 556.094,85.0269 557.5,85.5C 558.943,89.6151 559.943,93.9484 560.5,98.5C 560.5,101.833 560.5,105.167 560.5,108.5C 538.66,108.169 516.994,108.503 495.5,109.5C 495.194,112.385 495.527,115.052 496.5,117.5C 496.859,129.392 502.192,138.225 512.5,144C 517.155,144.499 521.821,144.666 526.5,144.5C 529.555,143.964 532.555,143.131 535.5,142C 537.544,141.502 538.878,140.335 539.5,138.5C 541.564,135.456 543.564,132.456 545.5,129.5C 546.141,127.958 547.141,126.624 548.5,125.5C 550.071,126.309 551.738,126.643 553.5,126.5C 553.833,126.5 554.167,126.5 554.5,126.5C 556.786,128.075 557.119,130.075 555.5,132.5C 555.029,134.579 554.363,136.579 553.5,138.5C 552.094,138.973 551.427,139.973 551.5,141.5C 550.5,141.833 549.833,142.5 549.5,143.5C 547.167,145.167 545.167,147.167 543.5,149.5C 541.216,149.975 539.216,150.975 537.5,152.5C 533.647,154.005 529.647,155.005 525.5,155.5C 518.465,155.674 511.465,155.341 504.5,154.5C 503.041,154.567 501.708,154.234 500.5,153.5C 495.947,151.519 491.947,148.686 488.5,145C 487.207,144.51 485.873,144.343 484.5,144.5C 483.5,142.833 482.167,141.5 480.5,140.5C 479.833,139.167 479.167,137.833 478.5,136.5C 477.414,131.405 475.747,126.738 473.5,122.5C 472.003,112.775 472.336,103.109 474.5,93.5C 476.834,91.8243 477.834,89.491 477.5,86.5C 478.906,86.0269 479.573,85.0269 479.5,83.5C 481.893,82.6473 483.226,80.9806 483.5,78.5C 484.833,75.1667 487.167,72.8333 490.5,71.5C 493.621,71.2639 495.954,69.9305 497.5,67.5C 498.167,67.5 498.833,67.5 499.5,67.5C 501.179,67.1077 502.846,66.6077 504.5,66C 513.827,65.5002 523.161,65.3335 532.5,65.5 Z"/></g>
<g><path style="opacity:1" fill="#cce7f5" d="M 533.5,65.5 C 537.155,64.925 540.155,65.925 542.5,68.5C 539.254,67.9459 536.254,66.9459 533.5,65.5 Z"/></g>
<g><path style="opacity:1" fill="#67b8e0" d="M 24.5,61.5 C 24.0819,65.3494 22.4152,68.3494 19.5,70.5C 20.4097,67.0078 22.0764,64.0078 24.5,61.5 Z"/></g>
<g><path style="opacity:1" fill="#51b2de" d="M 275.5,77.5 C 275.5,74.5 275.5,71.5 275.5,68.5C 258.833,68.5 242.167,68.5 225.5,68.5C 225.5,71.5 225.5,74.5 225.5,77.5C 224.521,74.3752 224.187,71.0419 224.5,67.5C 241.833,67.5 259.167,67.5 276.5,67.5C 276.813,71.0419 276.479,74.3752 275.5,77.5 Z"/></g>
<g><path style="opacity:1" fill="#59b6e1" d="M 325.5,68.5 C 312.833,68.5 300.167,68.5 287.5,68.5C 287.5,71.5 287.5,74.5 287.5,77.5C 285.598,74.6627 284.931,71.3293 285.5,67.5C 299.01,67.1711 312.344,67.5044 325.5,68.5 Z"/></g>
<g><path style="opacity:1" fill="#5cb7e1" d="M 380.5,67.5 C 380.334,72.5111 380.501,77.5111 381,82.5C 381.383,81.944 381.883,81.6107 382.5,81.5C 382.179,83.0481 381.179,83.7148 379.5,83.5C 379.5,78.5 379.5,73.5 379.5,68.5C 367.167,68.5 354.833,68.5 342.5,68.5C 342.5,71.5 342.5,74.5 342.5,77.5C 341.521,74.3752 341.187,71.0419 341.5,67.5C 354.5,67.5 367.5,67.5 380.5,67.5 Z"/></g>
<g><path style="opacity:1" fill="#098fcd" d="M 423.5,66.5 C 425.565,66.5172 427.565,66.8505 429.5,67.5C 430.598,68.397 430.598,69.2303 429.5,70C 432.74,70.7187 435.74,71.8854 438.5,73.5C 439.5,73.8333 440.167,74.5 440.5,75.5C 440.427,77.0269 441.094,78.0269 442.5,78.5C 443.048,98.3268 443.714,117.993 444.5,137.5C 444.833,138.5 445.5,139.167 446.5,139.5C 447.262,141.262 448.596,142.262 450.5,142.5C 452.279,144.344 454.612,145.01 457.5,144.5C 457.5,146.833 457.5,149.167 457.5,151.5C 442.167,151.5 426.833,151.5 411.5,151.5C 411.5,148.833 411.5,146.167 411.5,143.5C 412.791,143.737 413.791,143.404 414.5,142.5C 414.833,142.5 415.167,142.5 415.5,142.5C 417.38,142.771 418.713,142.104 419.5,140.5C 420.117,140.389 420.617,140.056 421,139.5C 421.667,122.5 421.667,105.5 421,88.5C 420.617,87.944 420.117,87.6107 419.5,87.5C 418.943,84.9501 417.61,82.9501 415.5,81.5C 415.027,80.0937 414.027,79.427 412.5,79.5C 409.696,78.3622 406.696,78.1955 403.5,79C 401.68,79.2004 400.347,80.0337 399.5,81.5C 392.267,84.7336 386.6,89.7336 382.5,96.5C 381.778,96.9175 381.278,97.5842 381,98.5C 380.173,112.34 380.339,126.006 381.5,139.5C 382.262,141.262 383.596,142.262 385.5,142.5C 386.919,143.451 388.585,143.784 390.5,143.5C 390.5,146.167 390.5,148.833 390.5,151.5C 374.833,151.5 359.167,151.5 343.5,151.5C 343.5,149.167 343.5,146.833 343.5,144.5C 346.553,144.889 349.22,144.223 351.5,142.5C 352.5,142.167 353.167,141.5 353.5,140.5C 354.79,139.942 355.623,138.942 356,137.5C 356.667,119.167 356.667,100.833 356,82.5C 355.283,81.9558 354.783,81.2891 354.5,80.5C 354.167,79.5 353.5,78.8333 352.5,78.5C 350.402,76.3314 347.902,74.6648 345,73.5C 344.667,74.1667 344.333,74.8333 344,75.5C 343.505,73.5273 343.338,71.5273 343.5,69.5C 355.167,69.5 366.833,69.5 378.5,69.5C 378.181,74.3633 378.514,79.03 379.5,83.5C 381.179,83.7148 382.179,83.0481 382.5,81.5C 385.764,79.9059 388.431,77.5725 390.5,74.5C 395.876,72.1566 401.209,69.8232 406.5,67.5C 411.975,66.5111 417.642,66.1778 423.5,66.5 Z"/></g>
<g><path style="opacity:1" fill="#45aedd" d="M 611.5,67.5 C 611.833,67.5 612.167,67.5 612.5,67.5C 619.5,67.5 626.5,67.5 633.5,67.5C 633.5,71.5 633.5,75.5 633.5,79.5C 633.167,79.5 632.833,79.5 632.5,79.5C 632.5,75.8333 632.5,72.1667 632.5,68.5C 625.313,68.8245 618.313,68.4912 611.5,67.5 Z"/></g>
<g><path style="opacity:1" fill="#67abd8" d="M 68.5,69.5 C 55.7836,69.2051 43.117,69.5385 30.5,70.5C 30.6107,69.8826 30.944,69.3826 31.5,69C 44.0069,68.1735 56.3403,68.3401 68.5,69.5 Z"/></g>
<g><path style="opacity:1" fill="#cde1f0" d="M 114.5,70.5 C 105.106,69.0595 95.7724,69.3929 86.5,71.5C 91.0521,68.4021 96.2188,67.0688 102,67.5C 106.641,67.0668 110.808,68.0668 114.5,70.5 Z"/></g>
<g><path style="opacity:1" fill="#cee2f0" d="M 174.5,70.5 C 164.768,69.0156 155.101,69.3489 145.5,71.5C 150.052,68.4021 155.219,67.0688 161,67.5C 165.942,67.1104 170.442,68.1104 174.5,70.5 Z"/></g>
<g><path style="opacity:1" fill="#169ad7" d="M 379.5,83.5 C 378.514,79.03 378.181,74.3633 378.5,69.5C 366.833,69.5 355.167,69.5 343.5,69.5C 343.338,71.5273 343.505,73.5273 344,75.5C 344.333,74.8333 344.667,74.1667 345,73.5C 347.902,74.6648 350.402,76.3314 352.5,78.5C 352.167,78.5 351.833,78.5 351.5,78.5C 348.545,77.8413 345.545,77.5079 342.5,77.5C 342.5,74.5 342.5,71.5 342.5,68.5C 354.833,68.5 367.167,68.5 379.5,68.5C 379.5,73.5 379.5,78.5 379.5,83.5 Z"/></g>
<g><path style="opacity:1" fill="#d5edf7" d="M 380.5,67.5 C 381.167,71.8333 381.833,76.1667 382.5,80.5C 382.5,80.8333 382.5,81.1667 382.5,81.5C 381.883,81.6107 381.383,81.944 381,82.5C 380.501,77.5111 380.334,72.5111 380.5,67.5 Z"/></g>
<g><path style="opacity:1" fill="#45a8dc" d="M 404.5,67.5 C 405.167,67.5 405.833,67.5 406.5,67.5C 401.209,69.8232 395.876,72.1566 390.5,74.5C 394.193,70.3815 398.859,68.0482 404.5,67.5 Z"/></g>
<g><path style="opacity:1" fill="#70bde4" d="M 497.5,67.5 C 495.954,69.9305 493.621,71.2639 490.5,71.5C 492.336,69.412 494.669,68.0787 497.5,67.5 Z"/></g>
<g><path style="opacity:1" fill="#fcfdfe" d="M 68.5,69.5 C 68.5,69.8333 68.5,70.1667 68.5,70.5C 68.1725,75.544 68.5059,80.544 69.5,85.5C 71.9608,84.7086 73.2941,83.0419 73.5,80.5C 74.5794,78.457 76.246,77.1237 78.5,76.5C 80.4044,76.2624 81.7377,75.2624 82.5,73.5C 83.5137,72.3263 84.847,71.6596 86.5,71.5C 95.7724,69.3929 105.106,69.0595 114.5,70.5C 120.833,72.1667 124.833,76.1667 126.5,82.5C 127.053,84.5518 128.053,84.8852 129.5,83.5C 132.333,79.8348 135.666,76.6682 139.5,74C 141.407,72.878 143.407,72.0447 145.5,71.5C 155.101,69.3489 164.768,69.0156 174.5,70.5C 180.593,72.9252 184.593,77.2585 186.5,83.5C 186.333,102.836 186.5,122.17 187,141.5C 187.383,142.056 187.883,142.389 188.5,142.5C 189.167,142.833 189.833,143.167 190.5,143.5C 190.62,144.586 191.287,145.253 192.5,145.5C 195.115,146.269 197.781,146.603 200.5,146.5C 200.5,149.5 200.5,152.5 200.5,155.5C 184.5,155.5 168.5,155.5 152.5,155.5C 152.5,152.5 152.5,149.5 152.5,146.5C 153.5,145.833 154.5,145.167 155.5,144.5C 157.514,144.608 159.18,143.942 160.5,142.5C 161.117,142.389 161.617,142.056 162,141.5C 162.667,124.833 162.667,108.167 162,91.5C 161.722,90.5842 161.222,89.9175 160.5,89.5C 159.797,87.2843 158.464,85.451 156.5,84C 153.167,83.3333 149.833,83.3333 146.5,84C 145.584,84.2784 144.918,84.7784 144.5,85.5C 142.973,85.427 141.973,86.0937 141.5,87.5C 136.068,91.4334 131.901,96.4334 129,102.5C 128.333,115.167 128.333,127.833 129,140.5C 130.945,144.39 134.112,146.057 138.5,145.5C 138.5,148.833 138.5,152.167 138.5,155.5C 123.5,155.5 108.5,155.5 93.5,155.5C 93.5,152.167 93.5,148.833 93.5,145.5C 95.5273,145.662 97.5273,145.495 99.5,145C 100.056,144.617 100.389,144.117 100.5,143.5C 101.906,143.027 102.573,142.027 102.5,140.5C 103.662,124.339 103.828,108.005 103,91.5C 102.79,89.9419 102.29,88.6085 101.5,87.5C 100.282,86.2689 98.949,85.1022 97.5,84C 94.1667,83.3333 90.8333,83.3333 87.5,84C 86.5842,84.2784 85.9175,84.7784 85.5,85.5C 83.9731,85.427 82.9731,86.0937 82.5,87.5C 78.1243,89.5775 75.1243,92.9108 73.5,97.5C 71.7497,98.6594 70.7497,100.326 70.5,102.5C 69.8826,102.611 69.3826,102.944 69,103.5C 68.1737,115.674 68.3403,127.674 69.5,139.5C 70.1667,142.167 71.8333,143.833 74.5,144.5C 75.6354,146.213 77.302,146.88 79.5,146.5C 79.5,149.5 79.5,152.5 79.5,155.5C 63.5,155.5 47.5,155.5 31.5,155.5C 31.5,152.5 31.5,149.5 31.5,146.5C 34.4282,146.435 37.0948,145.768 39.5,144.5C 40.8333,143.5 42.1667,142.5 43.5,141.5C 44.8317,132.525 45.4984,123.191 45.5,113.5C 45.4998,103.994 45.1665,94.6606 44.5,85.5C 40.5351,82.4306 36.0351,80.7639 31,80.5C 30.5017,77.1832 30.335,73.8499 30.5,70.5C 43.117,69.5385 55.7836,69.2051 68.5,69.5 Z"/></g>
<g><path style="opacity:1" fill="#3fa4da" d="M 429.5,67.5 C 433.408,68.2773 436.408,70.2773 438.5,73.5C 435.74,71.8854 432.74,70.7187 429.5,70C 430.598,69.2303 430.598,68.397 429.5,67.5 Z"/></g>
<g><path style="opacity:1" fill="#acd9ef" d="M 542.5,68.5 C 544.027,68.427 545.027,69.0937 545.5,70.5C 543.973,70.573 542.973,69.9063 542.5,68.5 Z"/></g>
<g><path style="opacity:1" fill="#098fce" d="M 275.5,77.5 C 272.482,77.3354 269.482,77.502 266.5,78C 265.209,79.2917 265.209,80.4583 266.5,81.5C 269.486,85.817 272.82,89.817 276.5,93.5C 276.427,95.0269 277.094,96.0269 278.5,96.5C 279.738,97.4124 281.072,97.5791 282.5,97C 285.369,93.9621 288.369,91.1288 291.5,88.5C 293.914,87.0892 295.581,85.0892 296.5,82.5C 296.714,80.8561 296.38,79.3561 295.5,78C 292.854,77.5026 290.187,77.3359 287.5,77.5C 287.5,74.5 287.5,71.5 287.5,68.5C 300.167,68.5 312.833,68.5 325.5,68.5C 325.5,71.5 325.5,74.5 325.5,77.5C 321.511,77.1164 317.845,77.783 314.5,79.5C 311.911,80.4194 309.911,82.086 308.5,84.5C 305.167,87.5 301.833,90.5 298.5,93.5C 296.738,94.2623 295.738,95.5956 295.5,97.5C 294.833,97.8333 294.167,98.1667 293.5,98.5C 291.738,99.2623 290.738,100.596 290.5,102.5C 289.833,102.833 289.167,103.167 288.5,103.5C 285.978,105.002 285.978,106.335 288.5,107.5C 288.833,108.167 289.167,108.833 289.5,109.5C 290.419,112.089 292.086,114.089 294.5,115.5C 296.833,117.167 298.833,119.167 300.5,121.5C 300.731,124.063 302.065,125.73 304.5,126.5C 309.86,131.528 315.193,136.528 320.5,141.5C 321.5,142.167 322.5,142.833 323.5,143.5C 324.919,144.451 326.585,144.784 328.5,144.5C 328.5,146.833 328.5,149.167 328.5,151.5C 311.167,151.5 293.833,151.5 276.5,151.5C 276.5,148.833 276.5,146.167 276.5,143.5C 280.514,143.666 284.514,143.499 288.5,143C 290.077,140.14 289.41,137.973 286.5,136.5C 281.347,130.18 276.014,124.013 270.5,118C 267.879,118.427 265.879,119.927 264.5,122.5C 262.5,123.833 260.833,125.5 259.5,127.5C 257.5,128.833 255.833,130.5 254.5,132.5C 254.167,133.167 253.833,133.833 253.5,134.5C 251.5,134.5 250.5,135.5 250.5,137.5C 249.193,139.223 249.193,141.057 250.5,143C 254.486,143.499 258.486,143.666 262.5,143.5C 262.5,146.167 262.5,148.833 262.5,151.5C 248.833,151.5 235.167,151.5 221.5,151.5C 221.5,148.833 221.5,146.167 221.5,143.5C 222.791,143.737 223.791,143.404 224.5,142.5C 225.167,142.5 225.833,142.5 226.5,142.5C 227.833,142.167 229.167,141.833 230.5,141.5C 232.848,141.408 234.514,140.408 235.5,138.5C 240.167,135.833 243.833,132.167 246.5,127.5C 252.776,122.893 258.443,117.559 263.5,111.5C 263.378,108.708 262.044,106.708 259.5,105.5C 259.573,103.973 258.906,102.973 257.5,102.5C 255.194,99.5271 252.527,96.8605 249.5,94.5C 248.581,91.9108 246.914,89.9108 244.5,88.5C 243.833,87.5 243.167,86.5 242.5,85.5C 241.522,80.5186 238.522,78.1852 233.5,78.5C 230.833,78.1667 228.167,77.8333 225.5,77.5C 225.5,74.5 225.5,71.5 225.5,68.5C 242.167,68.5 258.833,68.5 275.5,68.5C 275.5,71.5 275.5,74.5 275.5,77.5 Z"/></g>
<g><path style="opacity:1" fill="#54b5e2" d="M 581.5,68.5 C 579.721,70.3435 577.388,71.0102 574.5,70.5C 574.5,72.8333 574.5,75.1667 574.5,77.5C 579.363,77.1805 584.03,77.5139 588.5,78.5C 583.5,78.5 578.5,78.5 573.5,78.5C 573.5,75.5 573.5,72.5 573.5,69.5C 576.167,69.1667 578.833,68.8333 581.5,68.5 Z"/></g>
<g><path style="opacity:1" fill="#d4e6f2" d="M 68.5,70.5 C 69.1664,74.6845 69.8331,79.0178 70.5,83.5C 71.2876,82.2299 72.2876,81.2299 73.5,80.5C 73.2941,83.0419 71.9608,84.7086 69.5,85.5C 68.5059,80.544 68.1725,75.544 68.5,70.5 Z"/></g>
<g><path style="opacity:1" fill="#84c9e8" d="M 524.5,74.5 C 519.341,74.1817 514.341,74.8483 509.5,76.5C 510.058,75.2101 511.058,74.3768 512.5,74C 516.689,73.1881 520.689,73.3547 524.5,74.5 Z"/></g>
<g><path style="opacity:1" fill="#b7d6ea" d="M 82.5,73.5 C 81.7377,75.2624 80.4044,76.2624 78.5,76.5C 79.2623,74.7376 80.5956,73.7376 82.5,73.5 Z"/></g>
<g><path style="opacity:1" fill="#acd9ef" d="M 209.5,72.5 C 211.245,74.0326 212.245,76.0326 212.5,78.5C 210.755,76.9674 209.755,74.9674 209.5,72.5 Z"/></g>
<g><path style="opacity:1" fill="#b6def0" d="M 19.5,70.5 C 19.0293,72.5786 18.3627,74.5786 17.5,76.5C 17.1667,76.5 16.8333,76.5 16.5,76.5C 16.7549,74.0326 17.7549,72.0326 19.5,70.5 Z"/></g>
<g><path style="opacity:1" fill="#fbfdfe" d="M 524.5,74.5 C 529.04,76.3676 532.707,79.3676 535.5,83.5C 535.427,85.0269 536.094,86.0269 537.5,86.5C 539.054,90.5667 539.72,94.9 539.5,99.5C 525.5,99.5 511.5,99.5 497.5,99.5C 497.616,96.1401 497.949,92.8067 498.5,89.5C 499.665,83.0054 503.331,78.6721 509.5,76.5C 514.341,74.8483 519.341,74.1817 524.5,74.5 Z"/></g>
<g><path style="opacity:1" fill="#85c9e8" d="M 440.5,75.5 C 441.906,75.9731 442.573,76.9731 442.5,78.5C 441.094,78.0269 440.427,77.0269 440.5,75.5 Z"/></g>
<g><path style="opacity:1" fill="#43a7db" d="M 233.5,78.5 C 238.522,78.1852 241.522,80.5186 242.5,85.5C 239.642,82.9138 236.642,80.5805 233.5,78.5 Z"/></g>
<g><path style="opacity:1" fill="#d1eaf6" d="M 275.5,77.5 C 272.5,78.8333 269.5,80.1667 266.5,81.5C 265.209,80.4583 265.209,79.2917 266.5,78C 269.482,77.502 272.482,77.3354 275.5,77.5 Z"/></g>
<g><path style="opacity:1" fill="#96d0eb" d="M 325.5,77.5 C 322.026,78.5249 318.36,79.1916 314.5,79.5C 317.845,77.783 321.511,77.1164 325.5,77.5 Z"/></g>
<g><path style="opacity:1" fill="#4baedf" d="M 390.5,74.5 C 388.431,77.5725 385.764,79.9059 382.5,81.5C 382.5,81.1667 382.5,80.8333 382.5,80.5C 384.902,78.0908 387.569,76.0908 390.5,74.5 Z"/></g>
<g><path style="opacity:1" fill="#5fbae3" d="M 412.5,79.5 C 409.615,79.1936 406.948,79.5269 404.5,80.5C 402.784,80.6287 401.117,80.962 399.5,81.5C 400.347,80.0337 401.68,79.2004 403.5,79C 406.696,78.1955 409.696,78.3622 412.5,79.5 Z"/></g>
<g><path style="opacity:1" fill="#94cfea" d="M 351.5,78.5 C 351.833,78.5 352.167,78.5 352.5,78.5C 353.5,78.8333 354.167,79.5 354.5,80.5C 352.973,80.573 351.973,79.9063 351.5,78.5 Z"/></g>
<g><path style="opacity:1" fill="#aad9ef" d="M 404.5,80.5 C 406.948,79.5269 409.615,79.1936 412.5,79.5C 414.027,79.427 415.027,80.0937 415.5,81.5C 411.901,80.6561 408.234,80.3227 404.5,80.5 Z"/></g>
<g><path style="opacity:1" fill="#a7d8ef" d="M 632.5,79.5 C 632.833,79.5 633.167,79.5 633.5,79.5C 626.701,79.7335 619.701,79.7335 612.5,79.5C 612.5,99.8333 612.5,120.167 612.5,140.5C 611.503,120.007 611.169,99.3401 611.5,78.5C 618.557,78.24 625.557,78.5733 632.5,79.5 Z"/></g>
<g><path style="opacity:1" fill="#75c1e4" d="M 16.5,76.5 C 16.8333,76.5 17.1667,76.5 17.5,76.5C 17.8799,78.698 17.2132,80.3646 15.5,81.5C 15.366,79.7085 15.6993,78.0418 16.5,76.5 Z"/></g>
<g><path style="opacity:1" fill="#c3e4f3" d="M 573.5,78.5 C 578.5,78.5 583.5,78.5 588.5,78.5C 588.5,98.8333 588.5,119.167 588.5,139.5C 587.503,119.674 587.17,99.6736 587.5,79.5C 582.637,79.8195 577.97,79.4861 573.5,78.5 Z"/></g>
<g><path style="opacity:1" fill="#59b1df" d="M 483.5,78.5 C 483.226,80.9806 481.893,82.6473 479.5,83.5C 480.136,81.2054 481.469,79.5387 483.5,78.5 Z"/></g>
<g><path style="opacity:1" fill="#cbe7f4" d="M 314.5,79.5 C 313.089,81.914 311.089,83.5806 308.5,84.5C 309.911,82.086 311.911,80.4194 314.5,79.5 Z"/></g>
<g><path style="opacity:1" fill="#87bcdd" d="M 126.5,82.5 C 127.391,83.1098 128.391,83.4431 129.5,83.5C 128.053,84.8852 127.053,84.5518 126.5,82.5 Z"/></g>
<g><path style="opacity:1" fill="#91ceeb" d="M 555.5,82.5 C 556.906,82.9731 557.573,83.9731 557.5,85.5C 556.094,85.0269 555.427,84.0269 555.5,82.5 Z"/></g>
<g><path style="opacity:1" fill="#6fbfe6" d="M 296.5,82.5 C 295.581,85.0892 293.914,87.0892 291.5,88.5C 292.419,85.9108 294.086,83.9108 296.5,82.5 Z"/></g>
<g><path style="opacity:1" fill="#83c7e7" d="M 479.5,83.5 C 479.573,85.0269 478.906,86.0269 477.5,86.5C 477.427,84.9731 478.094,83.9731 479.5,83.5 Z"/></g>
<g><path style="opacity:1" fill="#81c7e8" d="M 535.5,83.5 C 536.906,83.9731 537.573,84.9731 537.5,86.5C 536.094,86.0269 535.427,85.0269 535.5,83.5 Z"/></g>
<g><path style="opacity:1" fill="#77b2db" d="M 85.5,85.5 C 85.0269,86.9063 84.0269,87.573 82.5,87.5C 82.9731,86.0937 83.9731,85.427 85.5,85.5 Z"/></g>
<g><path style="opacity:1" fill="#7db8dd" d="M 144.5,85.5 C 144.027,86.9063 143.027,87.573 141.5,87.5C 141.973,86.0937 142.973,85.427 144.5,85.5 Z"/></g>
<g><path style="opacity:1" fill="#deeff7" d="M 443.5,81.5 C 444.117,81.6107 444.617,81.944 445,82.5C 445.191,101.543 445.691,120.543 446.5,139.5C 445.5,139.167 444.833,138.5 444.5,137.5C 444.808,118.787 444.474,100.12 443.5,81.5 Z"/></g>
<g><path style="opacity:1" fill="#cce3f0" d="M 44.5,85.5 C 45.1665,94.6606 45.4998,103.994 45.5,113.5C 45.4984,123.191 44.8317,132.525 43.5,141.5C 44.4744,122.88 44.8078,104.213 44.5,85.5 Z"/></g>
<g><path style="opacity:1" fill="#c3e4f3" d="M 244.5,88.5 C 246.914,89.9108 248.581,91.9108 249.5,94.5C 247.086,93.0892 245.419,91.0892 244.5,88.5 Z"/></g>
<g><path style="opacity:1" fill="#4db2e1" d="M 442.5,78.5 C 443.404,79.209 443.737,80.209 443.5,81.5C 444.474,100.12 444.808,118.787 444.5,137.5C 443.714,117.993 443.048,98.3268 442.5,78.5 Z"/></g>
<g><path style="opacity:1" fill="#70bee4" d="M 477.5,86.5 C 477.834,89.491 476.834,91.8243 474.5,93.5C 474.935,90.8427 475.935,88.5093 477.5,86.5 Z"/></g>
<g><path style="opacity:1" fill="#9fc8e4" d="M 186.5,83.5 C 187.19,103.039 187.857,122.705 188.5,142.5C 187.883,142.389 187.383,142.056 187,141.5C 186.5,122.17 186.333,102.836 186.5,83.5 Z"/></g>
<g><path style="opacity:1" fill="#7cc5e8" d="M 276.5,93.5 C 277.906,93.9731 278.573,94.9731 278.5,96.5C 277.094,96.0269 276.427,95.0269 276.5,93.5 Z"/></g>
<g><path style="opacity:1" fill="#b6dff2" d="M 298.5,93.5 C 298.262,95.4044 297.262,96.7377 295.5,97.5C 295.738,95.5956 296.738,94.2623 298.5,93.5 Z"/></g>
<g><path style="opacity:1" fill="#7cc4e6" d="M 419.5,87.5 C 420.117,87.6107 420.617,87.944 421,88.5C 421.667,105.5 421.667,122.5 421,139.5C 420.617,140.056 420.117,140.389 419.5,140.5C 420.833,122.833 420.833,105.167 419.5,87.5 Z"/></g>
<g><path style="opacity:1" fill="#aedbef" d="M 498.5,89.5 C 497.949,92.8067 497.616,96.1401 497.5,99.5C 511.5,99.5 525.5,99.5 539.5,99.5C 539.5,99.8333 539.5,100.167 539.5,100.5C 525.167,100.5 510.833,100.5 496.5,100.5C 496.5,98.8333 496.5,97.1667 496.5,95.5C 496.595,93.2143 497.262,91.2143 498.5,89.5 Z"/></g>
<g><path style="opacity:1" fill="#52aad7" d="M 101.5,87.5 C 102.29,88.6085 102.79,89.9419 103,91.5C 103.828,108.005 103.662,124.339 102.5,140.5C 102.714,122.817 102.381,105.15 101.5,87.5 Z"/></g>
<g><path style="opacity:1" fill="#b7dff2" d="M 293.5,98.5 C 293.262,100.404 292.262,101.738 290.5,102.5C 290.738,100.596 291.738,99.2623 293.5,98.5 Z"/></g>
<g><path style="opacity:1" fill="#49b1df" d="M 496.5,95.5 C 496.5,97.1667 496.5,98.8333 496.5,100.5C 510.833,100.5 525.167,100.5 539.5,100.5C 525.01,101.496 510.343,101.829 495.5,101.5C 495.205,99.2646 495.539,97.2646 496.5,95.5 Z"/></g>
<g><path style="opacity:1" fill="#66abd8" d="M 73.5,97.5 C 73.4077,99.8477 72.4077,101.514 70.5,102.5C 70.7497,100.326 71.7497,98.6594 73.5,97.5 Z"/></g>
<g><path style="opacity:1" fill="#81bcdf" d="M 160.5,89.5 C 161.222,89.9175 161.722,90.5842 162,91.5C 162.667,108.167 162.667,124.833 162,141.5C 161.617,142.056 161.117,142.389 160.5,142.5C 161.806,124.852 161.806,107.186 160.5,89.5 Z"/></g>
<g><path style="opacity:1" fill="#96d0ea" d="M 214.5,89.5 C 217.09,93.6932 218.09,98.3599 217.5,103.5C 217.167,103.5 216.833,103.5 216.5,103.5C 216.462,98.7286 215.796,94.062 214.5,89.5 Z"/></g>
<g><path style="opacity:1" fill="#d4ecf7" d="M 382.5,96.5 C 381.569,110.804 381.236,125.137 381.5,139.5C 380.339,126.006 380.173,112.34 381,98.5C 381.278,97.5842 381.778,96.9175 382.5,96.5 Z"/></g>
<g><path style="opacity:1" fill="#addbf0" d="M 257.5,102.5 C 258.906,102.973 259.573,103.973 259.5,105.5C 258.094,105.027 257.427,104.027 257.5,102.5 Z"/></g>
<g><path style="opacity:1" fill="#d5e5f1" d="M 70.5,102.5 C 69.5396,114.783 69.2062,127.117 69.5,139.5C 68.3403,127.674 68.1737,115.674 69,103.5C 69.3826,102.944 69.8826,102.611 70.5,102.5 Z"/></g>
<g><path style="opacity:1" fill="#99d2ec" d="M 288.5,103.5 C 287.595,104.964 287.595,106.298 288.5,107.5C 285.978,106.335 285.978,105.002 288.5,103.5 Z"/></g>
<g><path style="opacity:1" fill="#54b5e3" d="M 560.5,98.5 C 561.833,102.167 561.833,105.833 560.5,109.5C 538.833,109.5 517.167,109.5 495.5,109.5C 516.994,108.503 538.66,108.169 560.5,108.5C 560.5,105.167 560.5,101.833 560.5,98.5 Z"/></g>
<g><path style="opacity:1" fill="#92cde9" d="M 15.5,82.5 C 14.0696,88.4157 13.0696,94.4157 12.5,100.5C 11.5073,108.65 11.1739,116.983 11.5,125.5C 10.342,116.009 10.1754,106.342 11,96.5C 11.6963,91.4505 13.1963,86.7838 15.5,82.5 Z"/></g>
<g><path style="opacity:1" fill="#b8e0f3" d="M 495.5,109.5 C 517.167,109.5 538.833,109.5 560.5,109.5C 539.34,110.497 518.007,110.831 496.5,110.5C 496.5,112.833 496.5,115.167 496.5,117.5C 495.527,115.052 495.194,112.385 495.5,109.5 Z"/></g>
<g><path style="opacity:1" fill="#6bbde3" d="M 216.5,103.5 C 216.833,103.5 217.167,103.5 217.5,103.5C 217.5,110.5 217.5,117.5 217.5,124.5C 216.833,125.5 216.167,126.5 215.5,127.5C 216.365,119.534 216.698,111.534 216.5,103.5 Z"/></g>
<g><path style="opacity:1" fill="#62b8e3" d="M 289.5,109.5 C 291.914,110.911 293.581,112.911 294.5,115.5C 292.086,114.089 290.419,112.089 289.5,109.5 Z"/></g>
<g><path style="opacity:1" fill="#5db6e2" d="M 263.5,111.5 C 258.443,117.559 252.776,122.893 246.5,127.5C 251.557,121.441 257.224,116.107 263.5,111.5 Z"/></g>
<g><path style="opacity:1" fill="#5db6e3" d="M 300.5,121.5 C 302.587,122.585 303.92,124.251 304.5,126.5C 302.065,125.73 300.731,124.063 300.5,121.5 Z"/></g>
<g><path style="opacity:1" fill="#87cae9" d="M 550.5,124.5 C 551.5,125.167 552.5,125.833 553.5,126.5C 551.738,126.643 550.071,126.309 548.5,125.5C 547.141,126.624 546.141,127.958 545.5,129.5C 544.833,125.5 546.5,123.833 550.5,124.5 Z"/></g>
<g><path style="opacity:1" fill="#cbe8f5" d="M 550.5,124.5 C 553.167,124.833 555.833,125.167 558.5,125.5C 558.768,127.099 558.434,128.432 557.5,129.5C 557.5,128.5 557.5,127.5 557.5,126.5C 556.5,126.5 555.5,126.5 554.5,126.5C 554.167,126.5 553.833,126.5 553.5,126.5C 552.5,125.833 551.5,125.167 550.5,124.5 Z"/></g>
<g><path style="opacity:1" fill="#abdaef" d="M 625.5,126.5 C 628.287,125.523 631.287,125.19 634.5,125.5C 634.819,130.363 634.486,135.03 633.5,139.5C 633.5,135.167 633.5,130.833 633.5,126.5C 630.833,126.5 628.167,126.5 625.5,126.5 Z"/></g>
<g><path style="opacity:1" fill="#c5e5f4" d="M 264.5,122.5 C 263.833,125.167 262.167,126.833 259.5,127.5C 260.833,125.5 262.5,123.833 264.5,122.5 Z"/></g>
<g><path style="opacity:1" fill="#57b2e0" d="M 473.5,122.5 C 475.747,126.738 477.414,131.405 478.5,136.5C 475.677,132.372 474.01,127.705 473.5,122.5 Z"/></g>
<g><path style="opacity:1" fill="#37a9de" d="M 625.5,126.5 C 628.167,126.5 630.833,126.5 633.5,126.5C 633.5,130.833 633.5,135.167 633.5,139.5C 633.5,140.5 633.5,141.5 633.5,142.5C 632.833,143.167 632.167,143.833 631.5,144.5C 632.354,138.879 632.687,133.212 632.5,127.5C 630.5,127.5 628.5,127.5 626.5,127.5C 626.666,131.846 626.499,136.179 626,140.5C 625.583,141.756 624.75,142.423 623.5,142.5C 625.264,137.361 625.931,132.028 625.5,126.5 Z"/></g>
<g><path style="opacity:1" fill="#a6d6ed" d="M 217.5,124.5 C 217.829,127.228 217.163,129.562 215.5,131.5C 215.5,130.167 215.5,128.833 215.5,127.5C 216.167,126.5 216.833,125.5 217.5,124.5 Z"/></g>
<g><path style="opacity:1" fill="#bee2f3" d="M 259.5,127.5 C 258.833,130.167 257.167,131.833 254.5,132.5C 255.833,130.5 257.5,128.833 259.5,127.5 Z"/></g>
<g><path style="opacity:1" fill="#65bbe4" d="M 554.5,126.5 C 555.5,126.5 556.5,126.5 557.5,126.5C 557.5,127.5 557.5,128.5 557.5,129.5C 557.573,131.027 556.906,132.027 555.5,132.5C 557.119,130.075 556.786,128.075 554.5,126.5 Z"/></g>
<g><path style="opacity:1" fill="#52b1e0" d="M 246.5,127.5 C 243.833,132.167 240.167,135.833 235.5,138.5C 238.833,134.5 242.5,130.833 246.5,127.5 Z"/></g>
<g><path style="opacity:1" fill="#2b9fd7" d="M 12.5,100.5 C 12.3336,109.173 12.5002,117.84 13,126.5C 14,129.167 15,131.833 16,134.5C 16.498,137.482 16.6646,140.482 16.5,143.5C 15.8333,142.5 15.1667,141.5 14.5,140.5C 14.5,140.167 14.5,139.833 14.5,139.5C 14.5905,136.848 13.9238,134.515 12.5,132.5C 12.552,130.097 12.2186,127.764 11.5,125.5C 11.1739,116.983 11.5073,108.65 12.5,100.5 Z"/></g>
<g><path style="opacity:1" fill="#addaf0" d="M 253.5,134.5 C 252.833,135.833 251.833,136.833 250.5,137.5C 250.5,135.5 251.5,134.5 253.5,134.5 Z"/></g>
<g><path style="opacity:1" fill="#a4d5ed" d="M 12.5,132.5 C 13.9238,134.515 14.5905,136.848 14.5,139.5C 13.0762,137.485 12.4095,135.152 12.5,132.5 Z"/></g>
<g><path style="opacity:1" fill="#66b6e1" d="M 539.5,138.5 C 538.878,140.335 537.544,141.502 535.5,142C 532.555,143.131 529.555,143.964 526.5,144.5C 530.551,142.137 534.885,140.137 539.5,138.5 Z"/></g>
<g><path style="opacity:1" fill="#59b3df" d="M 235.5,138.5 C 234.514,140.408 232.848,141.408 230.5,141.5C 230.5,141.167 230.5,140.833 230.5,140.5C 232.05,139.559 233.716,138.893 235.5,138.5 Z"/></g>
<g><path style="opacity:1" fill="#aedbf0" d="M 553.5,138.5 C 553.573,140.027 552.906,141.027 551.5,141.5C 551.427,139.973 552.094,138.973 553.5,138.5 Z"/></g>
<g><path style="opacity:1" fill="#abdaef" d="M 230.5,140.5 C 230.5,140.833 230.5,141.167 230.5,141.5C 229.167,141.833 227.833,142.167 226.5,142.5C 227.287,140.896 228.62,140.229 230.5,140.5 Z"/></g>
<g><path style="opacity:1" fill="#84c8e8" d="M 353.5,140.5 C 353.167,141.5 352.5,142.167 351.5,142.5C 351.167,142.5 350.833,142.5 350.5,142.5C 350.973,141.094 351.973,140.427 353.5,140.5 Z"/></g>
<g><path style="opacity:1" fill="#7ec6e7" d="M 419.5,140.5 C 418.713,142.104 417.38,142.771 415.5,142.5C 416.514,141.326 417.847,140.66 419.5,140.5 Z"/></g>
<g><path style="opacity:1" fill="#bbe0f2" d="M 480.5,140.5 C 482.167,141.5 483.5,142.833 484.5,144.5C 484.5,144.833 484.5,145.167 484.5,145.5C 482.413,144.415 481.08,142.749 480.5,140.5 Z"/></g>
<g><path style="opacity:1" fill="#a9d8ee" d="M 286.5,136.5 C 289.41,137.973 290.077,140.14 288.5,143C 284.514,143.499 280.514,143.666 276.5,143.5C 276.167,143.5 275.833,143.5 275.5,143.5C 279.031,142.77 282.697,142.104 286.5,141.5C 287.434,139.905 287.434,138.239 286.5,136.5 Z"/></g>
<g><path style="opacity:1" fill="#7ec6e8" d="M 320.5,141.5 C 323.727,141.676 326.727,142.343 329.5,143.5C 327.5,143.5 325.5,143.5 323.5,143.5C 322.5,142.833 321.5,142.167 320.5,141.5 Z"/></g>
<g><path style="opacity:1" fill="#c7e5f3" d="M 613.5,141.5 C 616.43,142.299 619.43,142.632 622.5,142.5C 620.034,143.634 617.367,143.801 614.5,143C 613.944,142.617 613.611,142.117 613.5,141.5 Z"/></g>
<g><path style="opacity:1" fill="#bae0f1" d="M 14.5,140.5 C 15.1667,141.5 15.8333,142.5 16.5,143.5C 16.5,144.833 16.5,146.167 16.5,147.5C 15.0762,145.485 14.4095,143.152 14.5,140.5 Z"/></g>
<g><path style="opacity:1" fill="#33a5db" d="M 612.5,140.5 C 613.167,140.5 613.5,140.833 613.5,141.5C 613.611,142.117 613.944,142.617 614.5,143C 617.367,143.801 620.034,143.634 622.5,142.5C 622.833,142.5 623.167,142.5 623.5,142.5C 620.316,144.414 616.649,145.08 612.5,144.5C 612.5,143.167 612.5,141.833 612.5,140.5 Z"/></g>
<g><path style="opacity:1" fill="#acd0e7" d="M 100.5,143.5 C 100.389,144.117 100.056,144.617 99.5,145C 97.5273,145.495 95.5273,145.662 93.5,145.5C 95.6568,144.593 97.9902,143.927 100.5,143.5 Z"/></g>
<g><path style="opacity:1" fill="#46a7db" d="M 484.5,145.5 C 484.5,145.167 484.5,144.833 484.5,144.5C 485.873,144.343 487.207,144.51 488.5,145C 491.947,148.686 495.947,151.519 500.5,153.5C 494.352,152.426 489.019,149.76 484.5,145.5 Z"/></g>
<g><path style="opacity:1" fill="#aedbf0" d="M 590.5,144.5 C 591.5,144.833 592.167,145.5 592.5,146.5C 592.5,146.833 592.5,147.167 592.5,147.5C 591.094,147.027 590.427,146.027 590.5,144.5 Z"/></g>
<g><path style="opacity:1" fill="#c6deee" d="M 39.5,144.5 C 37.0948,145.768 34.4282,146.435 31.5,146.5C 31.5,149.5 31.5,152.5 31.5,155.5C 31.5,155.833 31.5,156.167 31.5,156.5C 30.3567,153.024 30.1901,149.358 31,145.5C 33.7191,144.556 36.5525,144.223 39.5,144.5 Z"/></g>
<g><path style="opacity:1" fill="#c5e5f4" d="M 549.5,143.5 C 548.5,146.5 546.5,148.5 543.5,149.5C 545.167,147.167 547.167,145.167 549.5,143.5 Z"/></g>
<g><path style="opacity:1" fill="#bae0f2" d="M 633.5,142.5 C 633.975,145.313 632.975,147.313 630.5,148.5C 630.833,147.167 631.167,145.833 631.5,144.5C 632.167,143.833 632.833,143.167 633.5,142.5 Z"/></g>
<g><path style="opacity:1" fill="#83bddf" d="M 155.5,144.5 C 154.5,145.167 153.5,145.833 152.5,146.5C 151.521,149.625 151.187,152.958 151.5,156.5C 150.357,153.024 150.19,149.358 151,145.5C 152.356,144.62 153.856,144.286 155.5,144.5 Z"/></g>
<g><path style="opacity:1" fill="#c8e6f4" d="M 16.5,147.5 C 18.0075,149.181 19.0075,151.181 19.5,153.5C 17.0311,152.393 16.0311,150.393 16.5,147.5 Z"/></g>
<g><path style="opacity:1" fill="#b8def0" d="M 212.5,146.5 C 212.104,149.721 210.771,152.388 208.5,154.5C 208.896,151.279 210.229,148.612 212.5,146.5 Z"/></g>
<g><path style="opacity:1" fill="#4fb1e1" d="M 224.5,142.5 C 223.791,143.404 222.791,143.737 221.5,143.5C 221.5,146.167 221.5,148.833 221.5,151.5C 235.167,151.5 248.833,151.5 262.5,151.5C 262.5,148.833 262.5,146.167 262.5,143.5C 263.479,146.625 263.813,149.958 263.5,153.5C 249.167,153.5 234.833,153.5 220.5,153.5C 220.5,149.833 220.5,146.167 220.5,142.5C 221.833,142.5 223.167,142.5 224.5,142.5 Z"/></g>
<g><path style="opacity:1" fill="#4bafe1" d="M 275.5,143.5 C 275.833,143.5 276.167,143.5 276.5,143.5C 276.5,146.167 276.5,148.833 276.5,151.5C 293.833,151.5 311.167,151.5 328.5,151.5C 328.5,149.167 328.5,146.833 328.5,144.5C 326.585,144.784 324.919,144.451 323.5,143.5C 325.5,143.5 327.5,143.5 329.5,143.5C 329.5,146.833 329.5,150.167 329.5,153.5C 311.5,153.5 293.5,153.5 275.5,153.5C 275.5,150.167 275.5,146.833 275.5,143.5 Z"/></g>
<g><path style="opacity:1" fill="#20a3dd" d="M 450.5,142.5 C 451.167,142.5 451.833,142.5 452.5,142.5C 454.265,143.461 456.265,143.795 458.5,143.5C 458.5,146.5 458.5,149.5 458.5,152.5C 453.5,152.5 448.5,152.5 443.5,152.5C 432.5,152.5 421.5,152.5 410.5,152.5C 410.19,149.287 410.523,146.287 411.5,143.5C 411.5,146.167 411.5,148.833 411.5,151.5C 426.833,151.5 442.167,151.5 457.5,151.5C 457.5,149.167 457.5,146.833 457.5,144.5C 454.612,145.01 452.279,144.344 450.5,142.5 Z"/></g>
<g><path style="opacity:1" fill="#81c9e9" d="M 347.5,142.5 C 346.081,143.451 344.415,143.784 342.5,143.5C 342.5,146.5 342.5,149.5 342.5,152.5C 358.675,152.83 374.675,152.496 390.5,151.5C 390.5,148.833 390.5,146.167 390.5,143.5C 388.585,143.784 386.919,143.451 385.5,142.5C 387.5,142.5 389.5,142.5 391.5,142.5C 391.5,146.167 391.5,149.833 391.5,153.5C 374.833,153.5 358.167,153.5 341.5,153.5C 341.5,149.833 341.5,146.167 341.5,142.5C 343.5,142.5 345.5,142.5 347.5,142.5 Z"/></g>
<g><path style="opacity:1" fill="#22a3dc" d="M 347.5,142.5 C 348.5,142.5 349.5,142.5 350.5,142.5C 350.833,142.5 351.167,142.5 351.5,142.5C 349.22,144.223 346.553,144.889 343.5,144.5C 343.5,146.833 343.5,149.167 343.5,151.5C 359.167,151.5 374.833,151.5 390.5,151.5C 374.675,152.496 358.675,152.83 342.5,152.5C 342.5,149.5 342.5,146.5 342.5,143.5C 344.415,143.784 346.081,143.451 347.5,142.5 Z"/></g>
<g><path style="opacity:1" fill="#80c9e9" d="M 414.5,142.5 C 413.791,143.404 412.791,143.737 411.5,143.5C 410.523,146.287 410.19,149.287 410.5,152.5C 421.5,152.5 432.5,152.5 443.5,152.5C 443.5,152.833 443.5,153.167 443.5,153.5C 432.167,153.5 420.833,153.5 409.5,153.5C 409.5,149.833 409.5,146.167 409.5,142.5C 411.167,142.5 412.833,142.5 414.5,142.5 Z"/></g>
<g><path style="opacity:1" fill="#5db9e3" d="M 452.5,142.5 C 454.833,142.5 457.167,142.5 459.5,142.5C 459.5,146.167 459.5,149.833 459.5,153.5C 454.167,153.5 448.833,153.5 443.5,153.5C 443.5,153.167 443.5,152.833 443.5,152.5C 448.5,152.5 453.5,152.5 458.5,152.5C 458.5,149.5 458.5,146.5 458.5,143.5C 456.265,143.795 454.265,143.461 452.5,142.5 Z"/></g>
<g><path style="opacity:1" fill="#2fa1da" d="M 631.5,144.5 C 631.167,145.833 630.833,147.167 630.5,148.5C 628.611,149.604 626.945,150.937 625.5,152.5C 616.857,155.075 608.19,155.075 599.5,152.5C 596.907,151.246 594.573,149.58 592.5,147.5C 592.5,147.167 592.5,146.833 592.5,146.5C 595.193,147.02 597.193,148.52 598.5,151C 606.445,152.488 614.445,152.822 622.5,152C 623.9,150.562 625.567,149.729 627.5,149.5C 627.738,146.931 629.071,145.265 631.5,144.5 Z"/></g>
<g><path style="opacity:1" fill="#d5ecf6" d="M 599.5,152.5 C 608.19,155.075 616.857,155.075 625.5,152.5C 624.653,153.966 623.32,154.8 621.5,155C 615.5,155.667 609.5,155.667 603.5,155C 601.68,154.8 600.347,153.966 599.5,152.5 Z"/></g>
<g><path style="opacity:1" fill="#d3e6f2" d="M 74.5,144.5 C 76.4672,144.261 78.3005,144.594 80,145.5C 80.7927,149.423 80.626,153.256 79.5,157C 63.328,157.828 47.328,157.661 31.5,156.5C 31.5,156.167 31.5,155.833 31.5,155.5C 47.5,155.5 63.5,155.5 79.5,155.5C 79.5,152.5 79.5,149.5 79.5,146.5C 77.302,146.88 75.6354,146.213 74.5,144.5 Z"/></g>
<g><path style="opacity:1" fill="#d6e8f3" d="M 93.5,145.5 C 93.5,148.833 93.5,152.167 93.5,155.5C 108.5,155.5 123.5,155.5 138.5,155.5C 138.5,152.167 138.5,148.833 138.5,145.5C 139.821,149.233 139.821,153.066 138.5,157C 123.5,157.667 108.5,157.667 93.5,157C 92.179,153.066 92.179,149.233 93.5,145.5 Z"/></g>
<g><path style="opacity:1" fill="#d3e5f2" d="M 190.5,143.5 C 194.045,144.046 197.545,144.713 201,145.5C 201.793,149.423 201.626,153.256 200.5,157C 183.995,157.828 167.661,157.662 151.5,156.5C 151.187,152.958 151.521,149.625 152.5,146.5C 152.5,149.5 152.5,152.5 152.5,155.5C 168.5,155.5 184.5,155.5 200.5,155.5C 200.5,152.5 200.5,149.5 200.5,146.5C 197.781,146.603 195.115,146.269 192.5,145.5C 191.287,145.253 190.62,144.586 190.5,143.5 Z"/></g>
<g><path style="opacity:1" fill="#8ecdea" d="M 504.5,154.5 C 511.465,155.341 518.465,155.674 525.5,155.5C 525.5,155.833 525.5,156.167 525.5,156.5C 519.158,156.666 512.825,156.5 506.5,156C 505.584,155.722 504.918,155.222 504.5,154.5 Z"/></g>
<g><path style="opacity:1" fill="#c2e4f3" d="M 537.5,152.5 C 537.53,153.497 537.03,154.164 536,154.5C 532.553,155.489 529.053,156.156 525.5,156.5C 525.5,156.167 525.5,155.833 525.5,155.5C 529.647,155.005 533.647,154.005 537.5,152.5 Z"/></g>
<g><path style="opacity:1" fill="#92cee9" d="M 19.5,154.5 C 20.9063,154.973 21.573,155.973 21.5,157.5C 20.0937,157.027 19.427,156.027 19.5,154.5 Z"/></g>
<g><path style="opacity:1" fill="#c0e2f2" d="M 207.5,157.5 C 207.408,159.848 206.408,161.514 204.5,162.5C 204.75,160.326 205.75,158.659 207.5,157.5 Z"/></g>
<g><path style="opacity:1" fill="#a5d6ee" d="M 203.5,164.5 C 203.25,166.674 202.25,168.341 200.5,169.5C 200.75,167.326 201.75,165.659 203.5,164.5 Z"/></g>
<g><path style="opacity:1" fill="#97d1eb" d="M 25.5,165.5 C 26.9063,165.973 27.573,166.973 27.5,168.5C 26.0937,168.027 25.427,167.027 25.5,165.5 Z"/></g>
<g><path style="opacity:1" fill="#60b6e0" d="M 39.5,183.5 C 42.0892,184.419 44.0892,186.086 45.5,188.5C 42.9108,187.581 40.9108,185.914 39.5,183.5 Z"/></g>
<g><path style="opacity:1" fill="#a3d5ec" d="M 188.5,184.5 C 187.415,186.587 185.749,187.92 183.5,188.5C 184.585,186.413 186.251,185.08 188.5,184.5 Z"/></g>
<g><path style="opacity:1" fill="#71c0e4" d="M 53.5,195.5 C 55.0269,195.427 56.0269,196.094 56.5,197.5C 54.9731,197.573 53.9731,196.906 53.5,195.5 Z"/></g>
<g><path style="opacity:1" fill="#cbe7f4" d="M 169.5,199.5 C 168.965,201.446 167.632,202.446 165.5,202.5C 166.035,200.554 167.368,199.554 169.5,199.5 Z"/></g>
<g><path style="opacity:1" fill="#70bfe4" d="M 61.5,200.5 C 63.0269,200.427 64.0269,201.094 64.5,202.5C 62.9731,202.573 61.9731,201.906 61.5,200.5 Z"/></g>
<g><path style="opacity:1" fill="#a0d4eb" d="M 163.5,202.5 C 163.027,203.906 162.027,204.573 160.5,204.5C 160.973,203.094 161.973,202.427 163.5,202.5 Z"/></g>
<g><path style="opacity:1" fill="#a0d5ec" d="M 68.5,204.5 C 70.0269,204.427 71.0269,205.094 71.5,206.5C 69.9731,206.573 68.9731,205.906 68.5,204.5 Z"/></g>
<g><path style="opacity:1" fill="#83c7e7" d="M 73.5,206.5 C 75.0269,206.427 76.0269,207.094 76.5,208.5C 74.9731,208.573 73.9731,207.906 73.5,206.5 Z"/></g>
<g><path style="opacity:1" fill="#6cbbe1" d="M 77.5,208.5 C 80.9164,208.528 83.9164,209.528 86.5,211.5C 83.145,211.31 80.145,210.31 77.5,208.5 Z"/></g>
<g><path style="opacity:1" fill="#a7d8ed" d="M 145.5,210.5 C 143.485,211.924 141.152,212.59 138.5,212.5C 140.515,211.076 142.848,210.41 145.5,210.5 Z"/></g>
<g><path style="opacity:1" fill="#31a2d8" d="M 86.5,211.5 C 101.793,213.631 117.127,213.965 132.5,212.5C 131.5,213.167 130.5,213.833 129.5,214.5C 118.162,214.667 106.828,214.5 95.5,214C 92.2578,213.594 89.2578,212.761 86.5,211.5 Z"/></g>
<g><path style="opacity:1" fill="#a8d7ed" d="M 132.5,212.5 C 133.833,212.5 135.167,212.5 136.5,212.5C 134.485,213.924 132.152,214.59 129.5,214.5C 130.5,213.833 131.5,213.167 132.5,212.5 Z"/></g>
</svg>
