<?xml version="1.0" encoding="UTF-8"?>
<!DOCTYPE svg PUBLIC "-//W3C//DTD SVG 1.1//EN" "http://www.w3.org/Graphics/SVG/1.1/DTD/svg11.dtd">
<svg xmlns="http://www.w3.org/2000/svg" version="1.1" width="400px" height="400px" style="shape-rendering:geometricPrecision; text-rendering:geometricPrecision; image-rendering:optimizeQuality; fill-rule:evenodd; clip-rule:evenodd" xmlns:xlink="http://www.w3.org/1999/xlink">
<g><path style="opacity:0.987" fill="#fe6d70" d="M 222.5,94.5 C 292.926,92.6379 346.093,121.638 382,181.5C 409.61,236.177 408.943,290.51 380,344.5C 342.665,403.587 288.832,431.087 218.5,427C 156.374,418.526 111.207,386.359 83,330.5C 55.9955,263.22 65.9955,202.22 113,147.5C 143.124,116.856 179.624,99.1889 222.5,94.5 Z"/></g>
<g><path style="opacity:1" fill="#f8efeb" d="M 184.5,222.5 C 190.833,222.5 197.167,222.5 203.5,222.5C 203.17,241.674 203.503,260.674 204.5,279.5C 205.687,281.975 207.687,282.975 210.5,282.5C 204.872,283.829 198.872,284.496 192.5,284.5C 186.5,284.333 180.5,284.167 174.5,284C 176.866,283.56 179.199,283.06 181.5,282.5C 184.883,282.743 188.049,282.076 191,280.5C 191.667,262.833 191.667,245.167 191,227.5C 189.211,225.771 187.044,225.104 184.5,225.5C 184.5,224.5 184.5,223.5 184.5,222.5 Z"/></g>
<g><path style="opacity:1" fill="#f9e1de" d="M 184.5,222.5 C 190.979,221.509 197.646,221.176 204.5,221.5C 204.5,240.833 204.5,260.167 204.5,279.5C 203.503,260.674 203.17,241.674 203.5,222.5C 197.167,222.5 190.833,222.5 184.5,222.5 Z"/></g>
<g><path style="opacity:1" fill="#f9d4d2" d="M 338.5,222.5 C 345.648,221.508 352.981,221.175 360.5,221.5C 360.5,240.833 360.5,260.167 360.5,279.5C 359.503,260.674 359.17,241.674 359.5,222.5C 352.5,222.5 345.5,222.5 338.5,222.5 Z"/></g>
<g><path style="opacity:1" fill="#f8efeb" d="M 124.5,280.5 C 127.477,280.902 130.143,281.902 132.5,283.5C 127.171,286.275 121.504,287.108 115.5,286C 112.591,284.594 110.591,282.428 109.5,279.5C 109.5,269.167 109.5,258.833 109.5,248.5C 107.833,248.5 106.167,248.5 104.5,248.5C 103.475,248.103 103.308,247.437 104,246.5C 111.531,243.468 117.364,238.468 121.5,231.5C 122.492,235.783 122.826,240.116 122.5,244.5C 125.833,244.5 129.167,244.5 132.5,244.5C 132.5,245.833 132.5,247.167 132.5,248.5C 129.167,248.5 125.833,248.5 122.5,248.5C 122.334,258.506 122.5,268.506 123,278.5C 123.278,279.416 123.778,280.082 124.5,280.5 Z"/></g>
<g><path style="opacity:1" fill="#facbc9" d="M 241.5,244.5 C 236.463,244.413 231.463,244.746 226.5,245.5C 226.918,244.778 227.584,244.278 228.5,244C 233.02,243.186 237.354,243.353 241.5,244.5 Z"/></g>
<g><path style="opacity:1" fill="#fd8788" d="M 346.5,228.5 C 347.167,228.5 347.5,228.833 347.5,229.5C 347.5,234.833 347.5,240.167 347.5,245.5C 346.209,245.737 345.209,245.404 344.5,244.5C 346.446,239.604 347.113,234.271 346.5,228.5 Z"/></g>
<g><path style="opacity:1" fill="#fad7d4" d="M 278.5,249.5 C 278.44,250.043 278.107,250.376 277.5,250.5C 276.548,248.955 276.215,247.288 276.5,245.5C 270.463,245.171 264.463,245.504 258.5,246.5C 258.863,247.183 259.196,247.85 259.5,248.5C 257.824,247.817 257.157,246.483 257.5,244.5C 264.167,244.5 270.833,244.5 277.5,244.5C 277.216,246.415 277.549,248.081 278.5,249.5 Z"/></g>
<g><path style="opacity:1" fill="#fadcd9" d="M 347.5,229.5 C 348.489,234.975 348.822,240.642 348.5,246.5C 346.219,246.077 344.552,246.744 343.5,248.5C 341.167,248.5 338.833,248.5 336.5,248.5C 337.808,247.768 339.142,246.934 340.5,246C 336.036,245.053 331.702,244.886 327.5,245.5C 327.918,244.778 328.584,244.278 329.5,244C 334.584,243.222 339.584,243.389 344.5,244.5C 345.209,245.404 346.209,245.737 347.5,245.5C 347.5,240.167 347.5,234.833 347.5,229.5 Z"/></g>
<g><path style="opacity:1" fill="#f8ece9" d="M 181.5,282.5 C 179.199,283.06 176.866,283.56 174.5,284C 180.5,284.167 186.5,284.333 192.5,284.5C 198.872,284.496 204.872,283.829 210.5,282.5C 211.404,283.209 211.737,284.209 211.5,285.5C 196.163,285.667 180.83,285.5 165.5,285C 164.929,283.795 164.262,282.628 163.5,281.5C 157.94,285.973 151.607,287.473 144.5,286C 138.092,282.677 135.925,277.511 138,270.5C 143.478,264.504 150.312,261.504 158.5,261.5C 160.167,261.5 161.833,261.5 163.5,261.5C 163.815,257.629 163.482,253.962 162.5,250.5C 156.79,246.026 151.623,246.693 147,252.5C 146.503,254.81 146.337,257.143 146.5,259.5C 139.32,258.143 137.654,254.31 141.5,248C 151.169,242.822 161.169,242.155 171.5,246C 174,247.167 175.833,249 177,251.5C 177.333,261.167 177.667,270.833 178,280.5C 179.302,281.085 180.469,281.751 181.5,282.5 Z"/></g>
<g><path style="opacity:1" fill="#f8eeea" d="M 241.5,244.5 C 248.187,244.862 252.521,248.195 254.5,254.5C 254.5,257.5 254.5,260.5 254.5,263.5C 245.167,263.5 235.833,263.5 226.5,263.5C 226.205,265.735 226.539,267.735 227.5,269.5C 229.879,279.697 236.213,283.197 246.5,280C 248.527,278.121 250.86,276.954 253.5,276.5C 251.934,281.888 248.267,285.055 242.5,286C 221.532,289.359 211.698,280.526 213,259.5C 215.02,252.316 219.52,247.649 226.5,245.5C 231.463,244.746 236.463,244.413 241.5,244.5 Z"/></g>
<g><path style="opacity:1" fill="#f8f0ec" d="M 338.5,222.5 C 345.5,222.5 352.5,222.5 359.5,222.5C 359.17,241.674 359.503,260.674 360.5,279.5C 361.687,281.975 363.687,282.975 366.5,282.5C 366.5,283.5 366.5,284.5 366.5,285.5C 360.491,285.666 354.491,285.499 348.5,285C 347.953,284.075 347.287,283.242 346.5,282.5C 340.708,286.239 334.375,287.405 327.5,286C 321.043,283.241 317.377,278.408 316.5,271.5C 316.392,266.13 316.725,260.797 317.5,255.5C 319.189,250.478 322.522,247.144 327.5,245.5C 331.702,244.886 336.036,245.053 340.5,246C 339.142,246.934 337.808,247.768 336.5,248.5C 333.471,250.372 331.305,253.039 330,256.5C 329.333,261.833 329.333,267.167 330,272.5C 333.644,281.08 339.311,282.746 347,277.5C 347.667,268.833 347.667,260.167 347,251.5C 345.855,250.364 344.688,249.364 343.5,248.5C 344.552,246.744 346.219,246.077 348.5,246.5C 348.822,240.642 348.489,234.975 347.5,229.5C 347.5,228.833 347.167,228.5 346.5,228.5C 344.383,226.345 341.716,225.345 338.5,225.5C 338.5,224.5 338.5,223.5 338.5,222.5 Z"/></g>
<g><path style="opacity:1" fill="#f8efeb" d="M 282.5,282.5 C 279.062,283.823 275.229,284.49 271,284.5C 266.771,284.49 262.938,283.823 259.5,282.5C 260.5,282.5 261.5,282.5 262.5,282.5C 263.496,282.586 264.329,282.252 265,281.5C 265.825,271.325 265.658,261.325 264.5,251.5C 263.599,249.273 261.933,248.273 259.5,248.5C 259.196,247.85 258.863,247.183 258.5,246.5C 264.463,245.504 270.463,245.171 276.5,245.5C 276.215,247.288 276.548,248.955 277.5,250.5C 278.107,250.376 278.44,250.043 278.5,249.5C 286.047,243.077 294.381,241.91 303.5,246C 305.041,247.579 306.208,249.413 307,251.5C 307.333,261.167 307.667,270.833 308,280.5C 309.444,282.155 311.278,282.822 313.5,282.5C 313.5,283.5 313.5,284.5 313.5,285.5C 305.167,285.5 296.833,285.5 288.5,285.5C 288.384,282.09 290.05,280.756 293.5,281.5C 293.666,271.494 293.5,261.494 293,251.5C 291.874,250.056 290.374,249.39 288.5,249.5C 284.55,250.225 281.05,251.892 278,254.5C 277.333,263.167 277.333,271.833 278,280.5C 279.11,282.037 280.61,282.703 282.5,282.5 Z"/></g>
<g><path style="opacity:1" fill="#fe7174" d="M 241.5,254.5 C 241.5,256.5 241.5,258.5 241.5,260.5C 236.381,261.103 231.715,260.436 227.5,258.5C 227.529,250.967 231.196,247.467 238.5,248C 240.451,249.734 241.451,251.901 241.5,254.5 Z"/></g>
<g><path style="opacity:1" fill="#fe7173" d="M 336.5,248.5 C 338.833,248.5 341.167,248.5 343.5,248.5C 344.688,249.364 345.855,250.364 347,251.5C 347.667,260.167 347.667,268.833 347,277.5C 339.311,282.746 333.644,281.08 330,272.5C 329.333,267.167 329.333,261.833 330,256.5C 331.305,253.039 333.471,250.372 336.5,248.5 Z"/></g>
<g><path style="opacity:1" fill="#fca9a8" d="M 104.5,248.5 C 106.167,248.5 107.833,248.5 109.5,248.5C 109.5,258.833 109.5,269.167 109.5,279.5C 108.506,269.681 108.173,259.681 108.5,249.5C 106.901,249.768 105.568,249.434 104.5,248.5 Z"/></g>
<g><path style="opacity:1" fill="#f9dbd8" d="M 264.5,251.5 C 265.658,261.325 265.825,271.325 265,281.5C 264.329,282.252 263.496,282.586 262.5,282.5C 262.783,281.711 263.283,281.044 264,280.5C 264.5,270.839 264.666,261.172 264.5,251.5 Z"/></g>
<g><path style="opacity:1" fill="#fd8f90" d="M 162.5,250.5 C 163.482,253.962 163.815,257.629 163.5,261.5C 161.833,261.5 160.167,261.5 158.5,261.5C 159.568,260.566 160.901,260.232 162.5,260.5C 162.5,257.167 162.5,253.833 162.5,250.5 Z"/></g>
<g><path style="opacity:1" fill="#faccc9" d="M 241.5,254.5 C 242.468,256.607 242.802,258.941 242.5,261.5C 237.167,261.5 231.833,261.5 226.5,261.5C 226.263,260.209 226.596,259.209 227.5,258.5C 231.715,260.436 236.381,261.103 241.5,260.5C 241.5,258.5 241.5,256.5 241.5,254.5 Z"/></g>
<g><path style="opacity:1" fill="#f9dbd8" d="M 254.5,254.5 C 255.479,257.625 255.813,260.958 255.5,264.5C 246.167,264.5 236.833,264.5 227.5,264.5C 227.5,266.167 227.5,267.833 227.5,269.5C 226.539,267.735 226.205,265.735 226.5,263.5C 235.833,263.5 245.167,263.5 254.5,263.5C 254.5,260.5 254.5,257.5 254.5,254.5 Z"/></g>
<g><path style="opacity:1" fill="#ff7476" d="M 158.5,264.5 C 160.167,264.5 161.833,264.5 163.5,264.5C 163.827,269.214 163.493,273.88 162.5,278.5C 159.532,280.662 156.366,280.995 153,279.5C 149.816,272.551 151.65,267.551 158.5,264.5 Z"/></g>
<g><path style="opacity:1" fill="#fac8c7" d="M 317.5,255.5 C 316.725,260.797 316.392,266.13 316.5,271.5C 315.837,269.527 315.504,267.361 315.5,265C 315.328,261.523 315.994,258.356 317.5,255.5 Z"/></g>
<g><path style="opacity:1" fill="#fbcdca" d="M 132.5,283.5 C 130.143,281.902 127.477,280.902 124.5,280.5C 127.86,280.384 131.193,280.051 134.5,279.5C 134.771,281.38 134.104,282.713 132.5,283.5 Z"/></g>
<g><path style="opacity:1" fill="#fadcd9" d="M 259.5,282.5 C 262.938,283.823 266.771,284.49 271,284.5C 275.229,284.49 279.062,283.823 282.5,282.5C 283.404,283.209 283.737,284.209 283.5,285.5C 275.167,285.5 266.833,285.5 258.5,285.5C 258.263,284.209 258.596,283.209 259.5,282.5 Z"/></g>
</svg>
