<?xml version="1.0" encoding="UTF-8"?>
<!DOCTYPE svg PUBLIC "-//W3C//DTD SVG 1.1//EN" "http://www.w3.org/Graphics/SVG/1.1/DTD/svg11.dtd">
<svg xmlns="http://www.w3.org/2000/svg" version="1.1" width="400px" height="400px" style="shape-rendering:geometricPrecision; text-rendering:geometricPrecision; image-rendering:optimizeQuality; fill-rule:evenodd; clip-rule:evenodd" xmlns:xlink="http://www.w3.org/1999/xlink">
<g><path style="opacity:0.962" fill="#fcfdfe" d="M 24.5,-0.5 C 28.5,-0.5 32.5,-0.5 36.5,-0.5C 44.5194,4.0407 48.186,10.874 47.5,20C 51.4435,21.6104 54.4435,24.2771 56.5,28C 71.8537,28.9236 77.8537,36.757 74.5,51.5C 76.949,53.7756 78.7823,56.4423 80,59.5C 82.4626,56.0354 85.2959,52.8688 88.5,50C 86.5704,47.7417 85.0704,45.2417 84,42.5C 80.8782,33.0293 79.2116,23.3627 79,13.5C 80.1667,11 82,9.16667 84.5,8C 90.5183,5.88264 96.6849,4.38264 103,3.5C 107.641,3.90908 111.975,5.24241 116,7.5C 121.87,4.15617 128.037,3.65617 134.5,6C 136.587,6.79217 138.421,7.95884 140,9.5C 141.994,8.33582 144.161,7.66915 146.5,7.5C 153.821,8.26769 161.155,8.43435 168.5,8C 172.333,9.16667 174.833,11.6667 176,15.5C 178.317,12.198 181.483,10.0314 185.5,9C 194.241,6.50765 202.575,7.50765 210.5,12C 213.462,14.2866 215.629,17.1199 217,20.5C 219.157,11.997 224.657,7.66365 233.5,7.5C 236.59,7.75193 239.59,8.4186 242.5,9.5C 248.36,4.83349 255.027,3.33349 262.5,5C 269.888,7.91934 273.721,13.4193 274,21.5C 280.216,18.1073 286.716,17.6073 293.5,20C 297.621,22.5614 300.287,26.228 301.5,31C 306.672,31.6228 311.339,33.4561 315.5,36.5C 320.367,33.8721 325.2,33.8721 330,36.5C 333.861,25.9779 341.361,19.8112 352.5,18C 362.656,8.17217 374.656,4.83883 388.5,8C 394.829,11.3114 397.829,16.6448 397.5,24C 397.117,33.8307 393.283,41.9974 386,48.5C 385.517,49.448 385.351,50.448 385.5,51.5C 391.562,52.0536 397.062,54.0536 402,57.5C 404.045,61.9034 405.045,66.5701 405,71.5C 405.852,72.5707 406.685,73.5707 407.5,74.5C 407.5,77.8333 407.5,81.1667 407.5,84.5C 406.157,91.6582 402.823,97.8248 397.5,103C 400.164,107.22 399.997,111.387 397,115.5C 386.667,133.126 374.667,134.126 361,118.5C 360,116.833 359,115.167 358,113.5C 348.285,120.97 337.452,123.803 325.5,122C 323.714,121.215 322.214,120.049 321,118.5C 305.385,133.111 288.218,135.277 269.5,125C 265.631,121.466 262.131,117.633 259,113.5C 244.518,123.718 229.852,124.052 215,114.5C 208.774,123.372 200.274,128.872 189.5,131C 179.494,132.966 169.494,132.966 159.5,131C 151.965,128.798 147.132,123.965 145,116.5C 133.131,125.366 119.964,127.866 105.5,124C 99.8592,122.429 94.6925,119.929 90,116.5C 86.0435,122.461 80.8768,126.961 74.5,130C 70.8333,130.667 67.1667,130.667 63.5,130C 59.6756,126.921 55.6756,124.088 51.5,121.5C 48.4333,125.287 45.6,129.287 43,133.5C 41.1879,134.977 39.3545,136.31 37.5,137.5C 34.1667,137.5 30.8333,137.5 27.5,137.5C 23.0541,134.774 18.3874,132.274 13.5,130C 7.72621,125.631 6.22621,120.131 9,113.5C 12.1667,107.833 15.3333,102.167 18.5,96.5C 11.8232,91.1531 5.48982,85.4865 -0.5,79.5C -0.5,76.1667 -0.5,72.8333 -0.5,69.5C 3.46801,65.3605 7.30134,61.0272 11,56.5C 11.6667,53.8333 11.6667,51.1667 11,48.5C 1.57987,39.8037 1.07987,30.6371 9.5,21C 11.0806,20.2935 12.5806,19.4601 14,18.5C 13.8974,10.0277 17.3974,3.69441 24.5,-0.5 Z M 215.5,23.5 C 216.362,30.3629 220.029,35.1962 226.5,38C 216.547,42.6898 213.547,50.1898 217.5,60.5C 216.451,62.1123 214.951,63.1123 213,63.5C 209.862,60.0336 206.362,56.8669 202.5,54C 214.637,50.0657 217.97,42.399 212.5,31C 214.202,28.7646 215.202,26.2646 215.5,23.5 Z"/></g>
<g><path style="opacity:1" fill="#9c9c9c" d="M 97.5,9.5 C 112.436,7.6003 118.603,13.9336 116,28.5C 110.948,35.2501 104.115,38.2501 95.5,37.5C 94.2102,29.9334 92.5435,22.4334 90.5,15C 90.8333,14.1667 91.1667,13.3333 91.5,12.5C 93.78,11.8641 95.78,10.8641 97.5,9.5 Z"/></g>
<g><path style="opacity:1" fill="#9b9b9b" d="M 123.5,10.5 C 126.187,10.3359 128.854,10.5026 131.5,11C 134.23,14.8463 136.397,19.0129 138,23.5C 140.463,20.0354 143.296,16.8688 146.5,14C 149.157,13.8253 151.824,13.9919 154.5,14.5C 152.78,23.1004 151.447,31.7671 150.5,40.5C 147.794,40.4249 145.127,40.0916 142.5,39.5C 143.199,34.3975 144.032,29.3975 145,24.5C 143.088,26.6572 141.421,28.9906 140,31.5C 138,32.8333 136,32.8333 134,31.5C 133.125,28.3723 131.958,25.3723 130.5,22.5C 129.507,27.1196 129.173,31.7863 129.5,36.5C 126.833,36.5 124.167,36.5 121.5,36.5C 122.227,27.8385 122.893,19.1718 123.5,10.5 Z"/></g>
<g><path style="opacity:1" fill="#9d9d9d" d="M 158.5,13.5 C 161.167,13.5 163.833,13.5 166.5,13.5C 166.988,18.8675 167.654,24.2008 168.5,29.5C 171.086,30.48 173.753,30.8134 176.5,30.5C 176.833,33.1667 177.167,35.8333 177.5,38.5C 171.855,39.1342 166.189,39.4676 160.5,39.5C 159.833,30.8333 159.167,22.1667 158.5,13.5 Z"/></g>
<g><path style="opacity:1" fill="#9b9b9b" d="M 189.5,13.5 C 193.182,13.3347 196.848,13.5014 200.5,14C 206.465,15.8922 206.965,18.7255 202,22.5C 198.966,20.5232 195.8,20.1899 192.5,21.5C 189.872,25.0349 189.872,28.5349 192.5,32C 196.213,32.4052 199.879,32.4052 203.5,32C 205.652,36.8734 203.985,39.54 198.5,40C 185.346,40.8403 179.846,34.6736 182,21.5C 183.69,17.9791 186.19,15.3124 189.5,13.5 Z"/></g>
<g><path style="opacity:1" fill="#fafafa" d="M 99.5,16.5 C 107.742,16.2429 110.242,19.9096 107,27.5C 105.416,28.8613 103.582,29.528 101.5,29.5C 101.252,25.0938 100.585,20.7604 99.5,16.5 Z"/></g>
<g><path style="opacity:1" fill="#3cbdff" d="M 29.5,4.5 C 37.8666,4.33074 40.1999,7.83074 36.5,15C 38.0406,17.9156 39.7073,20.7489 41.5,23.5C 46.8661,24.1993 49.8661,27.1993 50.5,32.5C 54.4901,35.5267 58.8234,36.6934 63.5,36C 68.2852,39.26 68.6185,42.9266 64.5,47C 57.1898,48.0262 54.5231,45.0262 56.5,38C 48.3376,32.5805 44.3376,34.7472 44.5,44.5C 50.0759,44.9736 52.2426,47.9736 51,53.5C 47.3333,57.5 43.6667,57.5 40,53.5C 40.594,48.6025 41.4273,43.6025 42.5,38.5C 41.2137,36.7099 39.7137,35.0432 38,33.5C 37.336,30.4841 37.836,27.6508 39.5,25C 36.1718,14.9734 31.6718,14.1401 26,22.5C 25.5,23.5 25,24.5 24.5,25.5C 29.3813,33.4786 27.0479,36.9786 17.5,36C 13.9234,29.8196 15.5901,25.8196 22.5,24C 27.0753,19.2825 28.5753,13.7825 27,7.5C 28.045,6.62656 28.8783,5.62656 29.5,4.5 Z"/></g>
<g><path style="opacity:1" fill="#f3fbff" d="M 42.5,26.5 C 47.6677,27.3385 48.6677,29.8385 45.5,34C 38.9337,33.8051 37.9337,31.3051 42.5,26.5 Z"/></g>
<g><path style="opacity:1" fill="#f6fcff" d="M 18.5,27.5 C 23.0057,26.5272 25.1724,28.1939 25,32.5C 18.6446,36.2008 16.4779,34.5342 18.5,27.5 Z"/></g>
<g><path style="opacity:1" fill="#f4fbff" d="M 30.5,6.5 C 36.4877,6.66395 37.821,9.16395 34.5,14C 28.4034,14.1475 27.0701,11.6475 30.5,6.5 Z"/></g>
<g><path style="opacity:1" fill="#39bbff" d="M 372.5,12.5 C 377.099,12.2 381.599,12.5333 386,13.5C 388.762,24.02 385.762,32.3533 377,38.5C 376.48,47.2564 372.314,53.2564 364.5,56.5C 364.643,54.7376 364.309,53.0709 363.5,51.5C 361.269,51.1133 358.936,50.9466 356.5,51C 353.333,48.5 350.5,45.6667 348,42.5C 347.666,40.1527 347.833,37.8194 348.5,35.5C 345.944,35.8678 343.944,35.0345 342.5,33C 346.564,26.2958 352.564,22.6291 360.5,22C 363.8,17.8573 367.8,14.6906 372.5,12.5 Z"/></g>
<g><path style="opacity:1" fill="#f0faff" d="M 353.5,25.5 C 354.873,25.3433 356.207,25.51 357.5,26C 354.958,28.7112 352.291,31.2112 349.5,33.5C 348.062,33.2811 346.729,32.7811 345.5,32C 348.053,29.5748 350.72,27.4081 353.5,25.5 Z"/></g>
<g><path style="opacity:1" fill="#f8fdff" d="M 369.5,16.5 C 370.873,16.3433 372.207,16.51 373.5,17C 377.093,20.0852 380.093,23.5852 382.5,27.5C 382.281,28.938 381.781,30.2713 381,31.5C 375.333,36.5 369.667,41.5 364,46.5C 360.167,42.6667 356.333,38.8333 352.5,35C 358.061,28.6112 363.728,22.4446 369.5,16.5 Z"/></g>
<g><path style="opacity:1" fill="#f5fbff" d="M 374.5,15.5 C 383.492,11.9876 386.659,14.9876 384,24.5C 380.964,21.2956 377.797,18.2956 374.5,15.5 Z"/></g>
<g><path style="opacity:1" fill="#41beff" d="M 366.5,22.5 C 373.655,22.1527 376.821,25.486 376,32.5C 371.155,38.0789 366.822,37.7456 363,31.5C 362.481,27.8679 363.647,24.8679 366.5,22.5 Z"/></g>
<g><path style="opacity:1" fill="#f9fdff" d="M 366.5,25.5 C 373.158,24.3445 375.158,26.8445 372.5,33C 365.75,34.4689 363.75,31.9689 366.5,25.5 Z"/></g>
<g><path style="opacity:1" fill="#f1faff" d="M 59.5,37.5 C 65.4877,37.664 66.821,40.164 63.5,45C 57.4034,45.1475 56.0701,42.6475 59.5,37.5 Z"/></g>
<g><path style="opacity:1" fill="#3cbdff" d="M 283.5,23.5 C 289.328,24.1683 292.161,27.5016 292,33.5C 294.667,35.5 297.333,37.5 300,39.5C 304.09,37.5977 307.257,38.5977 309.5,42.5C 314.523,43.936 319.357,43.6026 324,41.5C 329.928,42.6892 331.595,46.0226 329,51.5C 322.238,55.2407 318.738,53.2407 318.5,45.5C 308.969,43.5677 305.636,47.2344 308.5,56.5C 317.99,55.1377 320.657,58.6377 316.5,67C 311.431,69.1326 308.097,67.466 306.5,62C 308.56,55.1501 306.227,50.8168 299.5,49C 297.464,46.4998 297.13,43.8331 298.5,41C 295.64,38.6397 292.64,36.473 289.5,34.5C 287.929,35.3094 286.262,35.6427 284.5,35.5C 283.57,41.6829 285.07,47.0162 289,51.5C 289.428,55.5932 287.594,58.2598 283.5,59.5C 277.909,58.3493 276.075,55.016 278,49.5C 282.975,44.3902 283.642,38.7235 280,32.5C 278.959,28.5904 280.125,25.5904 283.5,23.5 Z"/></g>
<g><path style="opacity:1" fill="#f8fcff" d="M 282.5,26.5 C 284.604,26.2011 286.604,26.5344 288.5,27.5C 289.659,32.666 287.659,34.3327 282.5,32.5C 281.377,30.5184 281.377,28.5184 282.5,26.5 Z"/></g>
<g><path style="opacity:1" fill="#f2faff" d="M 301.5,40.5 C 307.488,40.664 308.821,43.164 305.5,48C 299.403,48.1475 298.07,45.6475 301.5,40.5 Z"/></g>
<g><path style="opacity:1" fill="#d5f2ff" d="M 353.5,40.5 C 354.376,40.3691 355.043,40.7025 355.5,41.5C 352.709,45.5888 352.042,45.2554 353.5,40.5 Z"/></g>
<g><path style="opacity:1" fill="#f6fcff" d="M 322.5,43.5 C 324.144,43.2865 325.644,43.6198 327,44.5C 328.67,51.1798 326.67,52.8465 321,49.5C 320.252,47.1599 320.752,45.1599 322.5,43.5 Z"/></g>
<g><path style="opacity:1" fill="#f3fbff" d="M 371.5,42.5 C 372.376,42.3691 373.043,42.7025 373.5,43.5C 372.591,47.6527 370.424,50.986 367,53.5C 365.813,51.9556 365.48,50.2889 366,48.5C 368.04,46.6298 369.873,44.6298 371.5,42.5 Z"/></g>
<g><path style="opacity:1" fill="#53c3ff" d="M 344.5,45.5 C 348.208,46.5509 348.041,47.8842 344,49.5C 343.5,49.1667 343,48.8333 342.5,48.5C 343.193,47.4822 343.859,46.4822 344.5,45.5 Z"/></g>
<g><path style="opacity:1" fill="#d4f1ff" d="M 356.5,43.5 C 357.376,43.3691 358.043,43.7025 358.5,44.5C 354.75,47.3034 354.084,46.9701 356.5,43.5 Z"/></g>
<g><path style="opacity:1" fill="#3abcff" d="M 254.5,9.5 C 262.242,9.06289 264.742,12.3962 262,19.5C 254.034,22.7656 251.534,28.4322 254.5,36.5C 250.29,42.9035 250.79,48.9035 256,54.5C 256.909,59.105 255.076,62.105 250.5,63.5C 244.378,61.4283 243.045,57.5949 246.5,52C 247.793,51.51 249.127,51.3433 250.5,51.5C 250.183,41.9484 246.016,39.615 238,44.5C 238.344,46.2576 238.844,48.0909 239.5,50C 238.458,55.0232 235.458,56.6899 230.5,55C 227.713,52.8328 226.88,49.9994 228,46.5C 232.526,44.4541 237.026,42.2874 241.5,40C 241.442,33.891 244.442,30.391 250.5,29.5C 251.74,26.6066 253.074,23.7733 254.5,21C 253.257,19.8455 252.257,18.5122 251.5,17C 247.871,17.1097 244.204,17.2764 240.5,17.5C 240.19,23.3034 237.19,25.4701 231.5,24C 227.908,21.0293 227.575,17.696 230.5,14C 233.758,11.8964 236.758,12.2297 239.5,15C 245.879,16.446 250.879,14.6126 254.5,9.5 Z"/></g>
<g><path style="opacity:1" fill="#f6fcff" d="M 230.5,46.5 C 235.006,45.5272 237.172,47.1939 237,51.5C 230.645,55.2008 228.478,53.5342 230.5,46.5 Z"/></g>
<g><path style="opacity:1" fill="#f8fcff" d="M 246.5,32.5 C 251.378,32.5349 252.711,34.8682 250.5,39.5C 247.208,41.1773 245.208,40.1773 244.5,36.5C 244.752,34.9271 245.418,33.5938 246.5,32.5 Z"/></g>
<g><path style="opacity:1" fill="#f6fcff" d="M 231.5,15.5 C 238.19,14.3306 239.857,16.4973 236.5,22C 231.262,22.5941 229.595,20.4274 231.5,15.5 Z"/></g>
<g><path style="opacity:1" fill="#f1faff" d="M 255.5,11.5 C 261.488,11.664 262.821,14.164 259.5,19C 253.403,19.1475 252.07,16.6475 255.5,11.5 Z"/></g>
<g><path style="opacity:1" fill="#f6fcff" d="M 42.5,47.5 C 49.1904,46.3306 50.8571,48.4973 47.5,54C 42.2616,54.5941 40.5949,52.4274 42.5,47.5 Z"/></g>
<g><path style="opacity:1" fill="#0969c7" d="M 108.5,48.5 C 121.643,46.7438 133.477,49.7438 144,57.5C 143.222,63.3835 140.555,68.3835 136,72.5C 130.021,67.6296 123.188,65.7963 115.5,67C 106.146,71.8764 102.979,79.3764 106,89.5C 109.731,96.78 115.565,99.28 123.5,97C 125.303,96.3632 126.636,95.1965 127.5,93.5C 124.367,92.0673 121.2,90.734 118,89.5C 117.808,86.0533 118.475,82.72 120,79.5C 120.347,77.8198 121.347,76.8198 123,76.5C 129.772,78.8685 136.605,81.0351 143.5,83C 148.224,85.4353 149.724,89.2686 148,94.5C 141.019,111.079 128.519,117.913 110.5,115C 91.3025,108.768 82.4691,95.6016 84,75.5C 87.5478,62.1268 95.7144,53.1268 108.5,48.5 Z"/></g>
<g><path style="opacity:1" fill="#fafdff" d="M 280.5,49.5 C 286.158,48.6794 287.825,50.846 285.5,56C 279.741,57.1387 278.074,54.972 280.5,49.5 Z"/></g>
<g><path style="opacity:1" fill="#18b6ff" d="M 348.5,48.5 C 350.028,48.5173 350.528,49.184 350,50.5C 347.333,53.1667 344.667,55.8333 342,58.5C 341.5,58 341,57.5 340.5,57C 343.371,54.2972 346.038,51.4639 348.5,48.5 Z"/></g>
<g><path style="opacity:1" fill="#4ec2ff" d="M 351.5,51.5 C 353.225,51.8425 353.725,52.8425 353,54.5C 351.677,57.0586 349.843,57.7253 347.5,56.5C 348.857,54.8144 350.19,53.1477 351.5,51.5 Z"/></g>
<g><path style="opacity:1" fill="#f6fcff" d="M 247.5,53.5 C 252.006,52.5272 254.172,54.1939 254,58.5C 247.645,62.2008 245.478,60.5342 247.5,53.5 Z"/></g>
<g><path style="opacity:1" fill="#2c88d7" d="M 54.5,54.5 C 60.6143,56.4725 66.4476,59.1392 72,62.5C 70.0677,71.5462 66.5677,80.0462 61.5,88C 69.0024,94.3321 76.6691,100.499 84.5,106.5C 80.842,111.991 76.342,116.658 71,120.5C 64.0613,115.899 57.3946,110.899 51,105.5C 46.362,113.451 41.0286,120.785 35,127.5C 30.892,125.529 26.7253,123.696 22.5,122C 21.6433,121.311 20.9767,120.478 20.5,119.5C 25.5688,111.085 30.2355,102.419 34.5,93.5C 26.542,87.5441 18.8753,81.2107 11.5,74.5C 15.5302,69.6357 20.0302,65.3023 25,61.5C 31.6038,65.7663 37.9372,70.433 44,75.5C 48.0383,68.7568 51.5383,61.7568 54.5,54.5 Z"/></g>
<g><path style="opacity:1" fill="#2d88d7" d="M 172.5,54.5 C 183.937,52.5923 193.77,55.5923 202,63.5C 206.888,71.1808 206.388,78.5141 200.5,85.5C 210.333,94.335 211,103.835 202.5,114C 190.944,121.721 178.277,124.388 164.5,122C 161.898,121.117 159.731,119.617 158,117.5C 155.135,98.5236 152.802,79.5236 151,60.5C 158.475,59.3109 165.642,57.3109 172.5,54.5 Z"/></g>
<g><path style="opacity:1" fill="#fbfdff" d="M 310.5,58.5 C 316.158,57.6794 317.825,59.846 315.5,65C 309.741,66.1387 308.074,63.972 310.5,58.5 Z"/></g>
<g><path style="opacity:1" fill="#2e89d7" d="M 379.5,57.5 C 384.809,59.1621 390.142,60.8287 395.5,62.5C 395.833,63.3333 396.167,64.1667 396.5,65C 395.343,68.1135 394.843,71.2802 395,74.5C 396.399,75.2266 397.899,75.7266 399.5,76C 400.022,76.5613 400.355,77.228 400.5,78C 398.803,82.0905 397.303,86.2571 396,90.5C 393.606,91.1359 391.106,91.1359 388.5,90.5C 388.334,94.5138 388.501,98.5138 389,102.5C 389.635,103.966 390.469,105.3 391.5,106.5C 389.197,110.27 386.531,113.77 383.5,117C 376.705,115.488 372.205,111.321 370,104.5C 369.081,98.0344 369.581,91.7011 371.5,85.5C 369.631,84.3764 367.631,83.5431 365.5,83C 364.978,82.4387 364.645,81.772 364.5,81C 365.936,76.8587 367.269,72.692 368.5,68.5C 370.805,68.3076 373.138,67.9743 375.5,67.5C 376.539,63.9721 377.872,60.6388 379.5,57.5 Z"/></g>
<g><path style="opacity:1" fill="#0c6ac7" d="M 229.5,64.5 C 243.821,61.9133 254.321,66.9133 261,79.5C 264.308,96.5364 257.474,107.036 240.5,111C 223.153,112.658 213.486,104.825 211.5,87.5C 213.044,76.295 219.044,68.6283 229.5,64.5 Z"/></g>
<g><path style="opacity:1" fill="#0c6ac7" d="M 339.5,64.5 C 341.857,64.3367 344.19,64.5034 346.5,65C 348.625,68.0823 350.625,71.2489 352.5,74.5C 350.488,76.1064 348.155,77.273 345.5,78C 344.978,78.5613 344.645,79.228 344.5,80C 347.284,83.787 350.451,87.287 354,90.5C 357.227,98.89 354.727,105.057 346.5,109C 341.136,111.555 335.636,112.722 330,112.5C 328.482,109.464 326.982,106.464 325.5,103.5C 328.239,101.421 330.906,99.254 333.5,97C 330.716,93.213 327.549,89.713 324,86.5C 320.39,81.3865 320.89,76.7198 325.5,72.5C 329.703,68.89 334.37,66.2233 339.5,64.5 Z"/></g>
<g><path style="opacity:1" fill="#f8fafd" d="M 172.5,69.5 C 177.081,68.9231 181.248,69.9231 185,72.5C 185.978,75.6693 185.478,78.5027 183.5,81C 180.392,82.7585 177.059,83.5919 173.5,83.5C 173.315,79.756 172.648,76.0894 171.5,72.5C 171.685,71.4163 172.018,70.4163 172.5,69.5 Z"/></g>
<g><path style="opacity:1" fill="#2c88d7" d="M 285.5,74.5 C 307.191,72.3659 317.691,82.0326 317,103.5C 313.69,112.807 307.19,118.64 297.5,121C 275.172,123.005 265.339,112.838 268,90.5C 271.503,82.4921 277.336,77.1588 285.5,74.5 Z"/></g>
<g><path style="opacity:1" fill="#f8fafd" d="M 234.5,78.5 C 243.649,78.1562 247.149,82.4896 245,91.5C 242.565,96.2238 238.731,97.7238 233.5,96C 229.797,92.604 228.631,88.4374 230,83.5C 231.025,81.313 232.525,79.6464 234.5,78.5 Z"/></g>
<g><path style="opacity:1" fill="#f9fbfd" d="M 289.5,88.5 C 299.203,88.3805 302.703,93.0472 300,102.5C 297.398,106.212 293.898,107.378 289.5,106C 284.845,103.103 283.345,98.9367 285,93.5C 286.193,91.5029 287.693,89.8362 289.5,88.5 Z"/></g>
<g><path style="opacity:1" fill="#f6f9fd" d="M 175.5,95.5 C 180.284,94.8392 184.618,95.8392 188.5,98.5C 190.105,101.58 189.438,104.08 186.5,106C 183.392,107.759 180.059,108.592 176.5,108.5C 176.073,104.176 175.739,99.8422 175.5,95.5 Z"/></g>
</svg>
