<?xml version="1.0" standalone="no"?>
<!DOCTYPE svg PUBLIC "-//W3C//DTD SVG 20010904//EN"
 "http://www.w3.org/TR/2001/REC-SVG-20010904/DTD/svg10.dtd">
<svg version="1.0" xmlns="http://www.w3.org/2000/svg"
 width="570.000000pt" height="1000.000000pt" viewBox="0 0 570.000000 1000.000000"
 preserveAspectRatio="xMidYMid meet">
<metadata>
Created by potrace 1.16, written by Peter Selinger 2001-2019
</metadata>
<g transform="translate(0.000000,1000.000000) scale(0.100000,-0.100000)"
fill="#000000" stroke="none">
<path d="M0 6993 c0 -2939 0 -3006 19 -2989 10 9 34 19 53 22 27 5 40 1 64
-19 l29 -25 -3 -189 c-1 -103 2 -194 7 -202 7 -11 15 -11 41 -2 47 16 58 14
86 -14 20 -20 29 -23 50 -15 42 16 64 12 94 -19 25 -25 28 -33 21 -59 -5 -16
-12 -70 -16 -118 -6 -72 -12 -92 -31 -111 -27 -27 -46 -29 -78 -8 -22 14 -24
13 -55 -25 -17 -22 -40 -40 -50 -40 -19 0 -63 41 -60 56 1 5 0 20 -1 34 -2 24
-2 24 -11 -5 -4 -16 -10 -42 -13 -56 -8 -36 -44 -79 -66 -79 -37 0 -47 25 -55
137 -4 59 -11 128 -15 153 -4 25 -8 -735 -9 -1687 l-1 -1733 2850 0 2850 0 0
5000 0 5000 -2850 0 -2850 0 0 -3007z m1203 2000 c67 -43 185 -123 262 -178
240 -173 748 -556 801 -604 86 -78 503 -381 525 -381 17 0 9 27 -16 50 -25 23
-32 40 -17 40 4 0 41 -22 82 -49 41 -27 78 -47 82 -45 5 3 8 19 8 37 0 24 -12
43 -52 85 -51 53 -52 54 -23 48 28 -7 26 -3 -32 56 -35 35 -63 67 -63 71 0 23
248 -167 261 -200 11 -31 12 -285 0 -391 -10 -99 -22 -117 -50 -80 -13 16 -35
28 -59 31 -43 7 -82 39 -82 67 0 32 33 24 83 -20 25 -22 48 -37 50 -33 8 13
-19 104 -35 120 -13 12 -19 12 -35 2 -23 -14 -30 -10 -106 57 -56 49 -61 73
-14 65 31 -5 -47 77 -143 150 -30 22 -82 54 -115 69 -65 30 -161 99 -265 190
-36 31 -184 143 -330 250 -146 106 -272 200 -280 208 -21 21 29 -13 235 -163
99 -72 216 -156 260 -188 44 -31 98 -71 120 -88 23 -18 15 -8 -20 26 -85 81
-617 479 -1045 783 -113 80 -128 92 -117 92 5 0 63 -35 130 -77z m3769 -353
c-13 -11 -18 -21 -12 -25 5 -3 10 -11 10 -16 0 -6 -4 -7 -10 -4 -5 3 -10 2
-10 -4 0 -16 18 -23 22 -9 3 9 10 8 22 -5 10 -10 16 -24 13 -31 -3 -8 -3 -17
0 -20 4 -3 8 -21 10 -38 4 -38 10 -81 13 -88 1 -3 2 -8 1 -12 0 -3 6 -29 15
-57 8 -27 13 -61 10 -73 -2 -13 2 -42 10 -63 43 -125 -16 -234 -136 -249 -19
-3 -47 -9 -62 -15 -16 -6 -28 -9 -28 -7 0 2 -23 -2 -52 -9 -28 -8 -55 -12 -59
-9 -5 2 -16 0 -26 -5 -19 -11 -183 -53 -294 -76 -45 -10 -77 -11 -98 -5 -17 5
-31 6 -31 2 0 -4 -10 8 -21 26 -16 24 -20 41 -15 70 3 20 8 51 10 68 1 17 7
37 11 44 5 9 4 11 -3 6 -7 -4 -12 -3 -12 3 0 5 4 12 9 15 4 3 11 27 14 53 3
27 8 58 11 71 15 57 17 70 20 107 1 22 8 50 14 61 6 12 8 24 5 28 -11 11 -15
56 -4 56 5 0 12 16 15 35 8 42 19 50 40 29 14 -13 16 -13 16 -1 0 8 -7 18 -16
21 -12 5 -13 8 -2 20 11 12 15 12 31 -2 17 -15 17 -15 11 3 -5 12 -4 16 4 11
6 -3 13 -2 17 4 4 6 11 7 17 4 7 -5 8 -2 2 7 -14 23 -13 38 2 32 8 -3 14 -13
14 -23 0 -13 6 -16 24 -13 16 3 25 -1 30 -13 6 -15 4 -15 -11 -3 -17 13 -17
13 -2 -10 15 -23 49 -46 36 -23 -4 5 2 12 14 15 15 4 18 2 10 -7 -22 -27 3
-24 30 4 33 32 35 40 14 40 -8 0 -15 7 -15 15 0 18 11 19 29 3 11 -11 12 -9 2
8 -8 17 -7 25 4 34 11 9 15 9 15 1 0 -6 -5 -11 -11 -11 -6 0 -3 -7 5 -16 9 -8
22 -12 28 -9 7 4 2 -2 -11 -12 -15 -13 -21 -27 -18 -39 4 -16 5 -16 6 4 1 12
7 22 16 22 11 0 14 -7 9 -25 -4 -15 -2 -25 5 -25 6 0 11 10 11 22 l0 21 25
-23 c14 -13 28 -20 31 -17 4 4 13 -1 21 -11 8 -9 12 -11 8 -4 -3 7 0 12 8 12
10 0 13 8 9 25 -4 25 11 35 23 15 3 -5 19 -10 35 -10 15 0 30 -5 32 -11 2 -6
12 0 23 12 13 14 15 20 5 15 -8 -4 -7 -1 4 8 12 10 17 23 13 36 -4 16 1 24 19
32 13 6 24 15 24 20 0 4 6 8 13 8 6 -1 2 -9 -11 -20z m-3369 -622 c4 -46 7
-104 7 -130 0 -27 4 -48 9 -48 5 0 12 -12 14 -27 2 -17 5 -10 6 20 1 59 25 65
35 10 9 -57 7 -163 -3 -163 -10 0 -339 177 -359 193 -9 7 -12 30 -10 71 3 66
20 83 27 26 l4 -35 6 30 c6 31 41 49 41 21 0 -9 5 -16 10 -16 6 0 10 11 10 25
0 18 5 25 20 25 17 0 20 -7 20 -44 0 -25 5 -48 12 -52 8 -5 9 11 5 64 -4 40
-5 72 -2 72 17 0 44 -40 48 -70 4 -34 4 -34 5 7 3 61 10 75 33 62 16 -8 19
-22 20 -92 1 -107 17 -64 18 51 1 45 5 82 10 82 4 0 11 -37 14 -82z m2127 -62
c0 -6 -5 -17 -11 -23 -8 -8 -3 -15 18 -25 15 -8 26 -21 25 -29 -5 -18 -15 -89
-16 -110 0 -9 -6 -15 -13 -12 -7 3 -15 -2 -19 -10 -3 -9 -14 -14 -25 -12 -11
2 -17 0 -14 -6 4 -5 -8 -9 -24 -9 -17 0 -31 4 -31 9 0 5 -9 7 -20 4 -14 -4
-20 0 -20 11 0 9 -5 16 -12 16 -9 0 -9 3 0 12 7 7 12 22 12 35 0 13 3 22 8 22
4 -1 16 -1 27 0 17 1 18 3 5 11 -13 9 -12 13 8 30 13 11 21 24 17 30 -3 5 -1
10 4 10 6 0 11 -4 11 -10 0 -5 4 -10 9 -10 4 0 7 14 5 32 -2 17 0 34 6 38 18
11 50 9 50 -4z m1299 -247 c17 -6 31 -15 31 -21 0 -5 4 -7 9 -4 9 6 32 -56 51
-144 19 -85 21 -211 4 -237 -8 -13 -12 -35 -10 -50 5 -34 15 -150 31 -353 3
-47 7 -197 7 -335 1 -269 -4 -302 -53 -363 -25 -31 -111 -77 -164 -87 -16 -3
-34 -7 -40 -9 -5 -1 -28 -6 -50 -10 -39 -7 -69 -16 -110 -32 -11 -4 -27 -9
-35 -10 -8 -2 -49 -12 -90 -23 -41 -11 -85 -21 -97 -21 -13 0 -23 -5 -23 -10
0 -6 -3 -9 -7 -9 -5 1 -10 0 -13 -1 -9 -5 -65 -9 -129 -10 -54 -1 -70 3 -103
26 -74 52 -83 73 -84 209 -1 66 3 174 7 240 5 66 11 174 13 240 3 66 9 174 13
240 5 66 8 153 8 193 0 39 2 72 5 72 3 0 4 19 3 42 -1 50 11 134 29 197 23 80
131 160 215 161 21 1 56 8 78 16 45 18 165 44 165 37 0 -3 6 -1 13 5 7 6 32
13 57 16 25 2 45 5 45 6 0 1 9 3 20 5 11 2 49 10 85 18 82 19 81 19 119 6z
m-2898 -84 c15 -22 29 -49 31 -60 2 -11 10 -25 18 -32 13 -11 13 -12 0 -13
-10 -1 -9 -4 5 -10 11 -5 15 -9 8 -9 -12 -1 -9 -40 9 -106 7 -22 12 -44 12
-48 1 -4 6 -11 11 -15 14 -9 38 -65 25 -57 -5 3 -10 1 -10 -4 0 -6 5 -11 10
-11 6 0 10 -6 10 -14 0 -8 7 -17 16 -20 8 -3 12 -11 8 -17 -4 -8 -3 -9 5 -5 6
4 9 11 7 15 -3 4 -1 13 5 21 7 12 9 12 9 1 0 -7 6 -11 15 -7 10 3 15 -1 15
-12 1 -16 1 -16 11 1 5 9 7 21 4 27 -8 12 5 60 16 60 5 0 9 -25 9 -55 0 -30 5
-55 10 -55 6 0 5 -8 -2 -20 -8 -13 -20 -19 -30 -16 -10 2 -18 0 -18 -6 0 -5 9
-12 20 -15 11 -3 20 -12 20 -19 0 -8 5 -14 10 -14 6 0 10 -4 10 -9 0 -15 -31
-42 -41 -36 -11 7 0 -23 18 -49 11 -17 10 -24 -2 -43 -14 -21 -14 -23 5 -23
11 0 20 5 20 10 0 6 6 10 14 10 7 0 16 9 19 21 8 30 32 18 30 -15 -1 -21 7
-32 38 -53 55 -36 36 -55 -25 -26 -30 15 -47 18 -54 11 -13 -13 -32 -2 -32 20
-1 15 -2 15 -11 -1 -13 -22 -2 -57 17 -57 19 0 77 -30 71 -36 -2 -3 -22 1 -44
9 l-40 14 9 -41 c5 -23 11 -48 13 -57 2 -9 8 -34 14 -55 6 -22 11 -54 11 -71
0 -28 6 -36 40 -53 22 -11 40 -22 40 -23 0 -2 -17 -1 -37 1 -36 3 -37 2 -19
-12 11 -9 25 -16 31 -16 7 0 24 -11 40 -25 21 -20 30 -23 41 -14 21 17 63 2
69 -24 4 -13 5 -45 3 -73 -4 -59 -18 -65 -81 -35 -23 11 -58 22 -77 23 -33 3
-35 2 -35 -32 -2 -51 4 -62 30 -56 12 3 25 3 28 0 8 -8 -25 -44 -40 -44 -7 0
-13 -1 -13 -2 -11 -72 -11 -77 10 -98 13 -13 18 -25 13 -29 -5 -3 -9 -17 -8
-31 0 -20 8 -27 45 -40 l44 -15 -3 -48 c-3 -52 10 -77 41 -77 11 0 18 -5 15
-12 -2 -9 -28 -13 -73 -14 -94 -2 -94 -2 -94 -21 0 -9 -3 -13 -7 -9 -5 4 -8
12 -8 17 0 5 -3 9 -7 9 -5 0 -15 0 -23 0 -8 0 -15 -8 -15 -17 0 -31 -16 -46
-40 -38 -19 6 -21 12 -15 41 5 31 4 34 -17 33 -29 -2 -87 -16 -70 -18 6 0 12
-10 12 -21 0 -15 -7 -20 -25 -20 -29 0 -45 28 -24 40 9 6 6 10 -14 15 -38 10
-57 0 -57 -30 0 -41 -45 -29 -51 14 -5 32 -27 38 -31 9 -2 -17 -11 -24 -30
-26 -16 -2 -28 1 -28 7 0 6 -9 11 -20 11 -11 0 -20 4 -20 9 0 5 -11 11 -25 13
-18 4 -26 0 -30 -13 -4 -11 -15 -19 -26 -19 -17 0 -24 17 -21 50 0 3 -8 17
-19 30 -15 20 -21 22 -28 11 -10 -16 -31 -6 -31 15 0 16 -45 20 -55 4 -4 -6
-11 -8 -16 -4 -5 3 -7 10 -4 15 4 5 -7 9 -24 9 -16 0 -32 -6 -35 -12 -3 -10
-8 -9 -18 3 -18 21 -85 34 -91 17 -3 -10 -9 -9 -24 5 -21 18 -83 24 -83 6 0
-5 -5 -7 -10 -4 -6 4 -8 10 -6 14 7 10 -126 35 -176 33 -28 -1 -38 3 -38 14 0
13 8 14 48 7 26 -4 70 -8 97 -8 l50 0 3 83 3 82 29 0 c20 0 31 -6 35 -19 4
-12 12 -18 21 -14 9 3 12 12 9 24 -5 14 -1 19 13 19 21 0 37 36 21 46 -14 8
-10 24 6 24 15 0 17 10 17 98 0 30 -6 48 -19 59 -10 8 -13 12 -6 9 6 -4 30 -3
53 0 34 6 41 10 38 27 -2 13 -16 25 -38 34 l-35 13 42 -6 c46 -6 46 -6 58 79
6 48 3 53 -37 61 -7 2 -24 8 -38 14 -32 14 -6 15 40 2 29 -8 38 -7 54 10 30
29 25 105 -9 140 -25 26 -32 68 -19 118 5 18 13 22 48 22 39 0 44 4 81 55 22
30 47 55 55 55 11 1 10 5 -5 17 -18 14 -18 15 -1 9 13 -5 28 3 52 28 18 18 46
40 62 47 l30 13 -24 19 c-28 22 -408 207 -426 207 -27 1 -131 67 -139 88 -5
13 -4 22 1 22 23 0 129 -56 133 -70 2 -8 62 -42 133 -74 71 -33 160 -74 197
-92 l69 -32 20 20 c13 13 23 17 27 10 4 -8 11 -8 21 -1 12 9 13 11 1 16 -10 4
-10 7 -1 13 8 5 -10 21 -54 46 -76 45 -90 68 -17 29 27 -15 54 -24 59 -21 6 3
13 0 15 -6 3 -8 6 -6 6 5 1 10 9 17 21 17 12 0 21 7 22 18 2 23 4 34 11 52 3
8 10 38 17 65 14 65 39 117 52 113 6 -2 23 -22 39 -43z m684 -129 c30 -20 58
-36 63 -36 4 0 23 -13 42 -28 19 -16 44 -34 56 -40 14 -8 25 -32 38 -85 22
-95 43 -116 108 -111 80 5 212 49 229 75 8 13 45 21 101 23 25 0 44 4 41 9 -2
4 8 7 24 7 15 0 42 9 58 20 17 11 38 20 47 20 9 0 18 5 20 10 2 6 13 12 26 13
12 0 22 4 22 7 0 3 16 4 37 2 70 -8 104 -89 103 -239 0 -37 2 -99 6 -138 10
-115 12 -151 18 -365 3 -113 8 -223 11 -245 9 -80 6 -331 -4 -358 -23 -60 -73
-116 -103 -117 -10 0 -18 -4 -18 -9 0 -8 -53 -17 -145 -26 -137 -13 -237 -29
-273 -42 l-42 -16 -53 37 c-28 20 -69 49 -91 66 -21 16 -61 38 -90 49 -49 19
-144 69 -261 140 l-57 34 4 552 c1 305 6 557 11 561 13 13 21 -6 19 -42 -4
-53 6 -78 24 -63 11 9 21 9 40 0 46 -20 47 -11 5 34 -23 25 -39 50 -36 55 3 5
24 0 48 -10 73 -33 94 -24 132 59 15 34 16 43 4 57 -26 31 -130 105 -142 101
-6 -2 -24 2 -39 9 -15 8 -34 11 -42 8 -13 -5 -16 3 -15 52 0 50 2 55 10 33 6
-15 34 -43 64 -63z m-1558 -341 l33 -14 0 -77 0 -76 -29 5 c-17 4 -46 13 -65
21 l-36 15 0 69 c0 38 3 72 7 76 8 8 42 1 90 -19z m263 -110 c7 -8 16 -12 21
-10 4 3 12 -2 17 -11 6 -11 12 -13 16 -6 4 6 13 9 21 5 11 -4 15 -23 15 -74 0
-39 -4 -69 -10 -69 -5 0 -10 5 -10 10 0 6 -11 10 -25 10 -14 0 -25 5 -25 11 0
6 -7 9 -15 5 -9 -3 -24 3 -34 13 -16 16 -20 17 -25 5 -9 -23 -28 -16 -24 9 2
12 9 21 16 20 7 -2 12 9 12 28 0 32 15 69 29 69 5 0 14 -7 21 -15z m-132 -156
c24 -9 24 -9 27 -87 2 -63 -7 -70 -66 -53 l-39 12 0 59 c0 94 3 97 78 69z
m3692 -954 c17 -9 42 -34 58 -57 l27 -42 -1 -200 c-2 -594 -8 -920 -15 -996
-5 -47 -11 -157 -14 -245 -3 -88 -5 -162 -5 -164 0 -3 -15 9 -32 26 -18 17
-67 55 -108 85 -41 31 -84 65 -95 78 -28 31 -68 50 -106 50 -24 0 -44 12 -86
50 -54 50 -106 83 -275 177 -135 74 -308 236 -292 272 10 20 13 107 17 466 3
323 2 318 75 392 81 82 174 105 482 119 80 3 146 7 148 9 11 9 197 -7 222 -20z
m-2295 -69 c25 -25 71 -59 103 -77 32 -18 95 -70 142 -118 68 -69 101 -94 164
-124 43 -21 76 -40 74 -42 -2 -2 -69 -1 -148 3 -162 9 -193 3 -219 -39 -9 -15
-53 -71 -96 -124 l-80 -97 -3 71 -3 70 -267 -2 -267 -2 -3 -773 c-2 -733 -1
-773 15 -770 17 3 18 22 14 283 -3 247 -2 282 12 293 9 8 24 12 34 10 15 -3
19 -17 24 -88 3 -54 6 -68 7 -37 2 39 6 49 25 56 34 13 47 2 47 -38 0 -20 5
-42 12 -49 9 -9 9 -12 0 -12 -9 0 -12 -48 -12 -184 0 -158 -2 -185 -16 -190
-44 -17 -44 -15 -44 173 0 109 -4 182 -10 186 -7 4 -10 -61 -10 -188 l0 -194
-43 -17 c-23 -9 -47 -16 -53 -16 -7 0 -13 69 -17 197 -10 287 -8 1356 2 1372
7 11 62 13 287 13 154 0 285 -1 292 -1 6 -1 12 -12 12 -26 0 -14 5 -25 10 -25
13 0 13 33 1 46 -5 5 -11 23 -13 39 -3 29 -6 30 -63 38 -33 5 -120 6 -194 4
-74 -2 -148 -1 -165 4 -17 4 -175 10 -351 14 -860 18 -894 21 -854 60 13 13
75 13 494 4 264 -6 559 -12 655 -14 96 -2 234 -7 306 -11 l131 -7 6 54 c4 30
7 114 7 187 0 72 2 132 5 132 2 0 25 -20 50 -44z m-1140 -10 c72 -8 168 -18
216 -21 82 -7 85 -6 97 16 12 24 12 24 9 -3 -3 -22 0 -28 14 -28 64 0 476 -43
484 -51 12 -12 -56 -12 -165 1 -47 5 -112 11 -145 14 -33 3 -100 10 -150 15
-49 6 -195 20 -322 32 -128 13 -233 26 -233 31 0 11 46 10 195 -6z m2182 -133
c19 -21 34 -50 39 -76 6 -37 13 -317 7 -317 -6 0 -122 179 -141 217 -26 50
-59 74 -132 98 -61 20 -170 72 -170 81 0 4 15 4 34 1 20 -3 45 0 60 8 15 8 43
17 64 20 80 11 132 22 138 28 11 10 67 -23 101 -60z m-1704 -312 l27 -11 -2
-792 -3 -792 -55 -23 c-216 -90 -891 -345 -897 -340 -2 2 104 45 234 96 131
51 345 133 475 184 l238 92 0 53 c0 28 -2 52 -4 52 -5 0 -287 -101 -645 -229
-204 -74 -271 -95 -231 -72 16 9 279 105 655 239 l220 79 -3 414 c-1 228 -2
479 -2 558 l0 144 -28 -6 c-16 -3 -75 -9 -131 -13 -98 -7 -103 -6 -99 12 3 20
58 30 178 33 30 1 61 5 67 9 15 10 24 141 16 231 l-6 61 -431 0 c-237 0 -449
4 -471 8 -23 4 102 9 290 12 182 3 386 6 455 8 71 2 137 -1 153 -7z m-635 -74
c-3 -21 -7 -22 -160 -24 -157 -3 -176 1 -164 32 4 12 36 14 166 14 160 0 161
0 158 -22z m-458 -2 c9 -11 11 -216 8 -922 -4 -951 -4 -953 -46 -953 -31 0
-42 22 -43 89 -1 61 -2 63 -11 31 -5 -19 -8 -50 -5 -70 6 -46 -17 -90 -46 -90
-13 0 -28 5 -33 10 -7 7 -17 0 -32 -20 -23 -30 -64 -41 -77 -20 -10 16 -19 12
-37 -20 -11 -20 -25 -30 -41 -30 -34 0 -47 19 -48 69 -1 80 -18 94 -18 16 -1
-83 -26 -135 -65 -135 -13 0 -28 6 -34 13 -9 11 -25 295 -39 693 l-6 182 26
26 c19 19 36 26 65 26 l40 0 4 69 c2 50 9 75 22 90 22 25 73 28 102 7 18 -13
19 -30 22 -275 l3 -261 46 0 46 0 -7 503 c-7 563 -9 547 60 547 l34 0 0 194
c0 107 4 206 10 220 8 22 16 26 49 26 22 0 44 -6 51 -15z m868 -43 l-3 -37
-115 -5 c-63 -3 -118 -1 -121 4 -4 5 -5 16 -4 25 2 9 4 23 4 31 1 12 23 15
122 17 l120 2 -3 -37z m770 -39 c-2 -13 -15 -19 -45 -21 -29 -2 -42 -8 -46
-21 -3 -14 -19 -20 -76 -25 -39 -4 -75 -5 -79 -2 -10 6 -14 65 -6 78 3 4 61 8
130 8 114 0 125 -2 122 -17z m-1042 -193 c6 -6 42 -6 99 0 123 13 125 13 125
-9 0 -17 -10 -20 -77 -26 -118 -10 -132 -13 -126 -34 7 -28 -16 -101 -34 -108
-25 -10 -53 33 -53 79 l0 40 -67 -4 c-56 -2 -68 0 -71 13 -3 17 40 29 109 29
20 0 42 7 49 15 14 17 32 19 46 5z m1039 0 c3 -5 -1 -23 -10 -39 -21 -41 -19
-66 8 -88 16 -13 21 -26 19 -50 -2 -18 1 -33 7 -33 5 0 11 14 13 32 2 25 9 33
32 39 16 5 54 32 83 61 58 57 63 54 33 -17 -17 -39 -18 -47 -5 -51 10 -4 15
-20 15 -48 0 -22 7 -68 14 -101 16 -67 44 -98 87 -93 22 2 41 -12 107 -80 95
-96 122 -105 159 -48 12 19 25 46 28 59 9 33 -21 90 -79 151 -58 61 -60 83 -7
88 37 3 42 0 96 -62 31 -36 78 -94 104 -130 130 -176 319 -331 447 -366 l62
-17 -4 -125 c-3 -109 -7 -129 -23 -146 -26 -26 -101 -31 -232 -16 -226 25
-211 26 -285 -9 l-68 -32 -111 10 c-60 6 -141 13 -180 15 -101 7 -155 17 -155
30 0 6 -12 19 -26 30 -29 21 -93 17 -143 -8 -20 -11 -31 -12 -39 -4 -7 7 -14
4 -22 -12 -17 -32 -53 -23 -61 15 l-7 30 -1 -35 c-1 -39 -16 -60 -42 -60 -21
0 -29 78 -29 303 l0 167 -27 0 -28 1 28 15 c24 13 27 20 27 69 0 30 4 55 8 55
5 0 17 7 28 15 18 15 16 16 -26 11 l-45 -5 46 15 c49 15 59 30 59 87 0 23 -4
27 -30 27 -17 0 -72 -9 -123 -19 -137 -29 -157 -31 -157 -22 0 5 21 12 48 16
74 11 244 45 278 56 37 12 54 44 54 106 l0 46 -62 -6 c-35 -3 -79 -9 -98 -12
-25 -5 -31 -4 -21 3 8 6 42 14 75 17 99 12 108 18 104 67 l-3 43 -59 -3 c-32
-2 -116 -12 -185 -22 -69 -10 -130 -14 -135 -10 -10 10 23 16 164 30 176 18
227 29 233 51 5 20 51 27 62 9z m-895 -482 c81 -88 55 -429 -34 -446 -62 -12
-109 151 -87 297 11 71 26 104 65 149 24 27 30 27 56 0z m2450 -525 c42 -43
87 -91 100 -107 l25 -28 -55 6 c-169 21 -187 35 -192 157 l-3 87 25 -18 c14
-10 59 -54 100 -97z m-2621 -404 c-7 -4 -92 -35 -188 -69 -97 -34 -184 -66
-193 -71 -10 -5 -27 -9 -39 -9 -15 0 -20 5 -17 22 2 15 17 26 53 39 28 10 127
47 220 82 l170 64 3 -25 c2 -14 -2 -28 -9 -33z"/>
</g>
</svg>
