<?xml version="1.0" standalone="no"?>
<!DOCTYPE svg PUBLIC "-//W3C//DTD SVG 20010904//EN"
 "http://www.w3.org/TR/2001/REC-SVG-20010904/DTD/svg10.dtd">
<svg version="1.0" xmlns="http://www.w3.org/2000/svg"
 width="640.000000pt" height="359.000000pt" viewBox="0 0 640.000000 359.000000"
 preserveAspectRatio="xMidYMid meet">
<metadata>
Created by potrace 1.16, written by Peter Selinger 2001-2019
</metadata>
<g transform="translate(0.000000,359.000000) scale(0.100000,-0.100000)"
fill="#000000" stroke="none">
<path d="M0 1795 l0 -1795 1930 0 c1537 0 1930 3 1930 13 0 6 8 21 17 32 16
20 16 16 -3 -30 -5 -13 6 -15 70 -15 44 0 76 4 76 10 0 6 5 10 11 10 5 0 7 -5
4 -10 -4 -7 149 -9 462 -8 l468 3 3 22 c3 23 27 37 44 27 5 -4 8 -17 5 -30
l-4 -24 203 0 204 0 0 23 c0 19 8 27 40 37 49 16 60 8 38 -31 l-17 -29 347 0
c289 1 350 3 366 15 25 19 55 19 80 0 12 -9 42 -15 73 -15 l53 0 0 1595 c0
1351 -2 1595 -14 1595 -12 0 -12 6 0 38 9 25 13 90 14 200 l0 162 -3200 0
-3200 0 0 -1795z m3660 1737 c0 -5 -9 -18 -20 -30 -13 -14 -16 -22 -8 -22 8 0
9 -3 3 -8 -5 -4 -18 -17 -28 -29 l-18 -21 33 7 c19 5 55 20 80 35 52 30 74 34
38 6 -30 -24 -16 -26 35 -4 20 8 47 13 59 11 19 -3 19 -4 -8 -17 l-29 -15 24
-6 c19 -6 17 -7 -15 -8 -31 -1 -36 -4 -27 -15 9 -11 6 -12 -14 -8 -35 6 -31
-15 4 -23 33 -7 111 -56 147 -92 13 -13 28 -23 34 -23 6 0 8 -5 4 -12 -5 -8
-2 -9 10 -5 9 4 15 3 11 -2 -3 -6 3 -14 12 -20 10 -6 14 -11 9 -11 -5 0 -31
14 -57 30 -26 17 -51 29 -55 28 -5 -2 -26 10 -46 25 -21 17 -42 26 -49 21 -8
-5 -9 -3 -5 5 5 8 0 14 -13 18 -12 3 -21 12 -21 19 0 9 -10 14 -27 13 l-28 -1
25 -8 c21 -7 18 -8 -20 -9 -61 -2 -91 -21 -32 -21 29 0 41 -4 36 -11 -4 -8 1
-9 16 -4 14 5 20 3 16 -3 -3 -6 8 -13 26 -17 47 -9 88 -26 88 -36 0 -5 -8 -6
-17 -2 -10 3 -15 3 -12 -1 4 -4 16 -8 28 -11 30 -6 81 -37 75 -46 -3 -5 9 -15
26 -24 16 -8 30 -20 30 -25 0 -15 -10 -12 -74 20 -32 16 -63 27 -69 23 -6 -3
-7 -1 -3 6 5 7 -4 15 -24 22 -17 6 -29 14 -26 17 6 5 -21 19 -121 62 l-42 19
11 -25 c6 -13 15 -24 20 -24 5 0 6 5 3 10 -4 6 5 5 19 -2 14 -6 26 -15 26 -20
0 -4 8 -8 18 -8 20 0 74 -33 74 -46 0 -11 118 -114 130 -114 4 0 8 -4 8 -10 0
-5 -7 -10 -15 -10 -9 0 -12 -6 -8 -17 6 -14 3 -14 -20 3 -14 10 -27 23 -27 28
0 6 5 5 12 -2 14 -14 28 -16 28 -3 0 15 -32 22 -45 11 -10 -9 -13 -7 -11 7 3
19 -79 102 -101 103 -7 0 -17 9 -23 20 -6 11 -17 20 -25 20 -8 0 -15 7 -15 15
0 8 -6 12 -14 9 -8 -3 -25 0 -38 7 -13 8 -43 19 -67 25 -42 11 -48 10 -100
-18 -31 -17 -78 -51 -104 -77 -26 -25 -58 -55 -70 -66 -19 -18 -20 -20 -4 -23
9 -2 17 -10 17 -19 0 -11 -4 -13 -12 -5 -8 5 -22 6 -33 1 -11 -4 -15 -8 -8 -8
7 -1 10 -8 7 -16 -4 -8 -1 -15 5 -15 6 0 10 3 9 8 -2 4 2 7 7 7 6 0 9 -5 9
-11 -1 -7 9 -18 23 -25 13 -7 21 -19 19 -26 -3 -7 0 -12 7 -10 13 2 13 -6 1
-37 -5 -14 -4 -17 4 -12 7 4 12 1 12 -7 0 -18 24 -28 48 -20 15 6 15 5 3 -11
-12 -14 -12 -19 -2 -26 8 -4 10 -13 7 -19 -4 -6 -2 -11 5 -11 8 0 8 -4 -1 -15
-9 -10 -9 -15 -1 -15 6 0 11 5 11 10 0 6 4 10 9 10 5 0 7 -9 4 -21 -4 -13 -11
-18 -21 -14 -12 4 -13 3 -2 -10 7 -9 10 -18 6 -22 -3 -3 -6 -2 -6 4 0 6 -6 13
-14 16 -10 4 -12 0 -9 -14 3 -10 13 -19 22 -20 11 0 9 -3 -6 -9 -13 -5 -23
-14 -23 -21 0 -6 -7 -9 -15 -5 -12 4 -13 2 -3 -13 6 -11 18 -17 25 -14 7 3 13
0 13 -5 0 -6 -12 -9 -26 -6 -27 5 -27 5 -10 -20 19 -30 20 -37 3 -30 -12 4
-45 -79 -39 -100 4 -14 -19 -66 -29 -66 -5 0 -9 -5 -9 -11 0 -5 4 -8 9 -5 10
7 61 -38 61 -54 0 -12 3 -12 -40 0 -34 9 -34 9 -15 -8 17 -14 20 -26 17 -69
-4 -52 -4 -53 25 -54 24 0 22 -3 -19 -17 -26 -9 -50 -21 -54 -25 -5 -4 0 -5
11 -1 16 6 18 5 8 -7 -18 -18 -16 -30 4 -22 11 4 14 3 9 -5 -8 -14 10 -35 39
-46 16 -6 17 -9 5 -16 -10 -6 -11 -10 -3 -10 7 0 10 -7 7 -15 -4 -8 -1 -22 5
-29 10 -12 8 -14 -11 -9 -14 3 -18 1 -12 -4 10 -7 11 -19 5 -69 -1 -14 -32
-14 -51 -1 -12 9 -13 9 -2 -3 15 -18 16 -54 0 -44 -7 4 -8 3 -4 -5 4 -6 16 -9
27 -6 13 5 19 2 19 -10 0 -12 -6 -15 -20 -10 -14 5 -20 2 -20 -9 0 -19 -16
-21 -23 -3 -3 6 -6 0 -6 -15 -1 -24 3 -28 28 -28 16 0 32 6 35 13 3 6 5 3 3
-8 -2 -17 -9 -20 -46 -18 -39 2 -42 1 -29 -14 12 -15 11 -15 -12 -3 -17 9 -25
10 -28 1 -2 -6 -11 -11 -20 -12 -11 0 -13 -2 -4 -6 7 -3 19 0 26 6 10 9 15 8
19 -3 4 -9 -1 -20 -11 -25 -16 -10 -16 -10 0 -11 9 0 18 4 20 9 5 16 41 17 45
1 3 -10 2 -11 -4 -4 -6 9 -11 8 -21 -2 -8 -9 -9 -14 -2 -14 6 0 9 -4 5 -9 -3
-6 -17 -6 -35 -1 -32 9 -32 9 -32 -20 0 -40 2 -46 11 -31 5 8 11 9 15 3 3 -5
-2 -13 -11 -17 -10 -3 -19 -1 -21 4 -5 16 -19 13 -19 -4 0 -8 4 -12 8 -9 4 2
10 0 14 -6 3 -5 -2 -11 -12 -11 -17 -1 -17 -2 0 -6 9 -2 17 -9 17 -14 0 -6 -5
-7 -10 -4 -6 4 -18 1 -26 -6 -12 -10 -17 -10 -23 0 -11 18 -33 -12 -25 -34 7
-16 6 -16 -14 1 -15 13 -18 21 -11 30 7 8 7 14 0 19 -16 9 10 44 28 38 13 -4
13 -3 2 5 -12 8 -11 13 2 32 8 12 13 29 10 38 -5 11 -3 13 7 7 8 -5 11 -4 6 3
-3 6 -2 21 3 35 7 17 5 32 -5 52 -8 15 -12 30 -9 33 3 3 1 10 -4 16 -36 43 -1
145 38 113 12 -10 14 -9 8 6 -4 10 -2 20 6 23 8 2 12 22 12 50 0 42 1 44 14
25 7 -12 17 -21 20 -21 4 0 7 35 6 78 -1 45 3 80 9 84 7 5 4 13 -9 23 -11 9
-14 14 -7 10 7 -4 12 0 12 9 0 8 -6 16 -12 19 -9 2 -13 25 -13 66 1 35 -1 58
-3 52 -5 -16 -22 -14 -22 3 0 7 -7 27 -16 42 l-15 29 3 -34 c2 -18 -1 -32 -7
-31 -5 1 -9 10 -8 20 2 13 -3 17 -17 13 -18 -5 -24 -21 -23 -60 1 -7 -7 -13
-16 -13 -14 0 -14 -2 -1 -10 9 -6 10 -10 3 -10 -6 0 -10 -9 -8 -19 2 -11 -5
-37 -16 -57 -10 -21 -16 -47 -13 -57 4 -13 2 -17 -5 -13 -6 4 -11 4 -11 -1 0
-4 -14 -24 -30 -43 -54 -63 -65 -76 -100 -122 -19 -24 -55 -59 -81 -76 -60
-39 -95 -105 -79 -148 6 -16 29 -46 53 -67 47 -43 21 -35 -31 10 -21 17 -36
42 -41 63 -7 33 -9 35 -47 33 l-39 -2 35 9 c19 4 38 7 41 4 4 -2 10 7 13 21 3
13 25 39 48 57 75 59 155 146 208 225 l51 78 -6 140 c-4 77 -8 142 -11 144 -2
2 -4 -8 -4 -22 0 -25 -4 -23 -60 34 -33 33 -60 64 -60 68 0 18 -31 19 -85 4
-30 -9 -58 -13 -62 -9 -8 8 34 53 70 74 34 20 35 32 2 32 -14 0 -25 -4 -25 -9
0 -5 -10 -11 -22 -14 -13 -3 -34 -9 -48 -13 l-25 -7 24 27 c14 14 50 42 80 62
31 20 71 56 89 81 19 25 51 52 75 63 36 16 77 31 84 31 2 0 16 4 33 9 21 6 30
5 30 -3 0 -6 7 -2 15 9 13 16 14 16 9 2 -12 -34 7 -17 42 39 48 73 71 100 182
209 50 50 92 94 92 99 0 4 -6 3 -12 -3 -7 -5 -24 -13 -38 -17 l-25 -7 29 30
c16 17 32 29 37 27 4 -3 21 6 37 20 16 13 33 21 37 17 5 -4 5 -2 2 4 -7 13 43
63 93 93 40 24 40 24 40 13z m-500 -227 c-13 -14 -18 -25 -12 -25 7 0 12 3 12
8 0 4 11 12 25 19 42 19 28 -1 -41 -58 -36 -30 -76 -62 -88 -73 -28 -25 -108
-76 -119 -76 -4 0 -5 5 -1 11 3 6 1 15 -6 19 -14 9 41 76 74 91 12 5 55 34 95
64 77 56 103 64 61 20z m3090 -146 c0 -4 -8 -9 -17 -11 -14 -2 -17 -12 -15
-49 4 -61 1 -64 -126 -86 -32 -5 -32 -4 -30 28 4 70 30 94 128 122 25 7 60 5
60 -4z m-3307 -1493 c-3 -17 -10 -36 -15 -42 -5 -7 -10 -21 -13 -32 -4 -24
-36 -63 -45 -57 -4 3 -5 -7 -2 -20 5 -31 10 -31 23 -2 9 20 9 20 4 -5 -5 -28
17 -50 43 -41 6 3 12 0 12 -7 0 -6 5 -8 10 -5 6 4 7 11 4 17 -4 5 5 2 19 -7
15 -9 31 -14 37 -10 5 3 10 2 10 -3 0 -5 -19 -17 -42 -27 -30 -12 -38 -19 -25
-22 9 -2 17 -10 17 -16 0 -11 -64 -77 -72 -74 -2 1 14 -14 35 -33 21 -19 44
-53 51 -74 12 -35 14 -37 21 -18 3 12 11 20 16 16 5 -3 7 -10 4 -15 -4 -5 -1
-17 4 -26 10 -17 10 -16 11 2 1 11 4 14 7 7 3 -7 -1 -19 -7 -27 -10 -12 -10
-15 1 -15 10 0 10 -3 2 -11 -6 -6 -9 -18 -6 -25 3 -8 -1 -14 -11 -14 -22 0
-20 -20 2 -21 9 -1 0 -6 -21 -13 -21 -6 -35 -15 -31 -19 4 -4 2 -7 -3 -7 -15
0 -9 -50 7 -60 6 -4 12 -11 11 -16 0 -5 14 -17 32 -26 18 -9 26 -17 19 -18 -7
0 -10 -4 -7 -10 3 -5 1 -10 -4 -10 -6 0 -11 4 -11 8 0 5 -11 14 -25 20 -30 14
-64 82 -65 127 0 17 10 57 22 91 19 54 20 65 8 93 -7 18 -27 39 -44 48 -17 9
-34 21 -38 27 -16 24 -7 66 22 99 34 39 36 47 14 47 -8 0 -29 13 -45 29 -23
24 -29 38 -29 75 0 27 5 48 14 53 21 13 39 55 38 90 -1 31 0 32 23 21 20 -9
23 -16 18 -42z m2278 -476 c50 0 90 -75 57 -108 -17 -17 -36 -15 -68 8 -19 14
-30 16 -32 8 -4 -11 -30 6 -69 46 -14 15 -15 21 -6 32 7 7 18 20 25 29 11 13
16 13 42 0 16 -8 39 -15 51 -15z"/>
</g>
</svg>
