<?xml version="1.0" standalone="no"?>
<!DOCTYPE svg PUBLIC "-//W3C//DTD SVG 20010904//EN"
 "http://www.w3.org/TR/2001/REC-SVG-20010904/DTD/svg10.dtd">
<svg version="1.0" xmlns="http://www.w3.org/2000/svg"
 width="667.000000pt" height="1000.000000pt" viewBox="0 0 667.000000 1000.000000"
 preserveAspectRatio="xMidYMid meet">
<metadata>
Created by potrace 1.16, written by Peter Selinger 2001-2019
</metadata>
<g transform="translate(0.000000,1000.000000) scale(0.100000,-0.100000)"
fill="#000000" stroke="none">
<path d="M0 5000 l0 -5000 2745 0 c1798 0 2745 3 2745 10 0 5 -57 126 -126
267 -230 471 -251 530 -61 173 63 -118 139 -260 169 -315 30 -55 57 -108 61
-117 6 -17 42 -18 572 -18 l565 0 0 5000 0 5000 -3335 0 -3335 0 0 -5000z
m1735 3109 c227 -61 668 -449 1190 -1044 268 -305 384 -448 669 -820 175 -228
217 -274 251 -275 11 0 74 18 140 39 117 37 121 39 153 86 32 47 42 53 21 12
-7 -13 -7 -18 -1 -12 19 19 225 416 317 613 273 584 408 1001 409 1269 1 113
11 128 15 21 11 -306 -237 -1000 -617 -1728 -54 -101 -99 -188 -101 -193 -4
-12 27 -5 244 54 99 27 186 47 195 43 8 -3 -60 -30 -155 -60 -215 -70 -307
-103 -323 -119 -7 -6 -46 -71 -87 -143 l-73 -131 44 -73 c42 -69 32 -65 -28
13 -26 33 -27 34 -42 14 -8 -11 -34 -53 -58 -94 -40 -70 -41 -75 -23 -85 10
-6 26 -18 36 -28 9 -9 20 -14 23 -10 3 3 6 -2 6 -10 0 -14 -7 -13 -50 5 -31
13 -53 17 -59 11 -5 -5 -45 -66 -89 -136 l-80 -126 76 -7 c270 -23 514 -31
947 -28 666 3 1152 81 1352 215 224 150 -12 371 -612 572 -84 28 -141 43 -143
37 -5 -15 -33 -13 -55 3 -15 11 -16 19 -8 34 7 13 7 22 -1 30 -7 7 -2 15 16
27 24 16 28 16 51 1 14 -9 25 -21 25 -26 0 -31 -5 -28 161 -86 576 -200 806
-424 612 -594 -118 -104 -417 -178 -898 -222 -221 -20 -961 -17 -1278 5 -142
11 -260 17 -261 15 -1 -1 -33 -50 -71 -108 -140 -216 -396 -572 -535 -745 -31
-38 -60 -76 -64 -83 -9 -16 269 -296 284 -287 24 15 99 -22 198 -97 58 -45
167 -120 242 -167 89 -56 165 -114 225 -171 50 -47 126 -111 171 -143 162
-113 240 -205 310 -366 42 -95 43 -117 4 -62 -48 66 -169 135 -317 181 -76 23
-73 23 -73 9 0 -5 6 -7 13 -3 6 4 9 3 4 -1 -14 -16 -51 -16 -86 1 -32 15 -34
18 -16 26 14 5 11 6 -12 2 -18 -3 -34 -1 -38 6 -6 9 -10 9 -16 -1 -6 -11 -11
-10 -26 2 -11 10 -81 27 -173 43 -85 14 -166 29 -180 32 -14 3 8 -11 48 -30
99 -48 203 -118 242 -164 18 -20 48 -46 69 -57 23 -13 37 -29 39 -44 5 -34 31
-71 51 -71 95 -1 204 -118 170 -182 -20 -37 -169 -13 -169 27 0 10 -10 15 -27
15 -26 0 -26 -1 -7 -15 19 -14 18 -14 -3 -15 -13 0 -23 -5 -23 -12 0 -25 -62
-107 -90 -118 -38 -16 -73 -7 -137 36 -29 19 -59 34 -66 34 -8 0 -17 3 -21 7
-4 5 -11 8 -14 8 -4 1 -16 6 -27 12 -12 6 -59 21 -105 32 -47 12 -96 27 -110
35 -14 7 -70 21 -125 31 -55 9 -109 21 -120 25 -11 5 -55 23 -98 41 -59 24
-84 39 -98 63 l-19 31 0 -69 c0 -58 -2 -67 -16 -62 -9 3 -33 9 -54 12 -28 5
-40 12 -44 28 -4 11 -25 34 -47 49 -42 29 -58 26 -59 -10 0 -6 -12 -26 -26
-43 -20 -23 -24 -34 -15 -43 6 -6 10 -20 10 -32 -1 -20 -1 -20 -6 0 -3 11 -10
26 -16 33 -5 7 -14 78 -18 159 -5 80 -10 147 -12 149 -3 3 -57 15 -74 16 -7 1
-13 7 -13 14 0 10 9 12 30 8 17 -4 36 -2 43 5 8 6 16 8 19 5 3 -3 15 7 27 22
22 28 28 78 11 89 -7 5 78 192 140 305 19 35 20 62 2 83 -19 21 -6 49 45 99
l34 33 19 -25 c11 -14 20 -36 20 -49 0 -35 9 -21 14 24 6 44 -9 78 -51 116
-56 53 -108 68 -136 40 -9 -10 -8 -15 7 -27 22 -15 10 -19 -14 -4 -11 7 -23 1
-47 -22 -18 -17 -29 -36 -26 -41 3 -6 1 -7 -5 -3 -6 3 -14 1 -18 -5 -3 -6 0
-15 7 -20 11 -7 9 -9 -7 -9 -15 0 -27 -11 -38 -35 -17 -35 -31 -49 -20 -20 10
26 -5 17 -69 -43 -34 -31 -86 -77 -115 -101 -28 -24 -64 -60 -78 -78 l-26 -34
22 -24 c14 -15 18 -25 11 -30 -15 -9 -14 -25 2 -25 25 0 137 -55 137 -67 0
-10 -5 -10 -17 -3 -37 21 -153 69 -153 63 0 -3 -9 2 -20 12 -11 10 -20 26 -20
36 0 32 -20 31 -84 -5 -68 -38 -84 -57 -105 -123 -20 -60 -59 -94 -117 -101
-38 -4 -50 -1 -62 14 -14 18 -14 18 -9 -4 5 -21 4 -21 -31 7 -64 50 -76 69
-78 118 -1 35 5 57 23 85 20 33 23 46 17 85 -5 33 -4 44 5 39 6 -4 11 -2 11 4
0 6 5 8 12 4 8 -5 9 0 6 14 -4 12 -2 20 3 16 5 -3 9 -11 9 -19 0 -32 22 -63
41 -58 10 3 16 9 13 14 -17 27 102 -18 126 -48 l19 -25 46 18 c52 19 130 72
121 81 -3 4 3 13 14 20 11 8 17 19 14 25 -4 6 -2 8 3 5 6 -4 17 1 24 10 10 12
10 14 2 9 -17 -9 -16 3 2 34 8 14 14 42 15 63 0 27 4 37 16 37 8 0 13 4 9 10
-6 9 36 83 53 94 5 3 7 17 4 31 -2 14 3 36 12 50 22 34 20 40 -9 21 -30 -20
-31 -16 -5 34 18 36 18 39 3 33 -12 -5 -7 7 15 32 17 22 32 43 32 47 0 5 32
54 90 138 2 3 -2 16 -9 29 -7 13 -8 21 -3 17 6 -3 12 0 15 6 3 9 12 6 29 -10
23 -21 26 -21 32 -6 3 9 0 22 -7 28 -24 19 -27 43 -8 60 23 21 29 20 50 -5 14
-17 21 -19 41 -11 14 6 33 13 43 16 23 7 15 22 -57 105 -31 36 -53 67 -50 70
3 3 14 -5 25 -19 12 -16 17 -19 13 -7 -5 12 0 23 15 33 11 8 21 22 21 31 0 13
-2 14 -17 2 -11 -10 -14 -10 -9 -1 9 15 -2 15 -60 1 -48 -12 -56 -30 -29 -65
24 -32 17 -35 -23 -9 -32 21 -44 24 -65 16 -15 -6 -27 -13 -27 -16 0 -4 4 -4
8 -1 12 7 115 -78 118 -97 1 -8 -6 -23 -15 -31 -16 -15 -22 -12 -80 43 l-63
58 -20 -33 c-11 -19 -24 -31 -29 -28 -5 3 -19 -5 -31 -18 -13 -13 -18 -17 -11
-8 9 11 8 22 -2 47 -7 17 -11 34 -8 37 4 3 1 6 -5 6 -7 0 -12 10 -13 23 0 13
-8 0 -20 -33 -51 -145 -99 -221 -206 -328 -57 -57 -108 -100 -113 -97 -15 9 7
35 29 35 13 0 14 2 2 9 -19 12 -7 40 43 100 57 68 108 169 133 261 13 47 23
94 23 106 0 22 -47 51 -60 37 -4 -4 -26 -57 -50 -118 -24 -60 -49 -122 -57
-137 -7 -15 -13 -30 -13 -34 2 -9 -34 -33 -41 -28 -4 2 -5 13 -2 24 3 11 9 18
13 15 5 -3 6 5 2 17 -3 14 -1 19 6 14 7 -4 10 -2 7 7 -8 18 94 277 109 277 6
-1 22 -7 36 -15 36 -21 40 -19 29 18 -5 17 -7 49 -3 70 3 22 2 37 -4 37 -6 0
-8 10 -4 22 3 14 2 19 -6 14 -7 -4 -12 -3 -12 3 0 6 16 21 36 35 19 13 31 26
24 29 -6 3 -5 4 2 3 17 -4 12 -63 -9 -96 l-16 -25 24 22 c25 23 70 43 95 43 8
0 23 -9 34 -20 16 -16 20 -17 20 -5 0 8 -5 15 -12 15 -6 0 -8 3 -5 6 3 4 2 15
-4 26 -9 17 -5 25 28 55 l38 36 -44 -31 c-45 -32 -64 -35 -41 -7 11 13 10 14
-4 9 -31 -12 -16 3 39 40 58 38 156 127 118 108 -12 -7 -25 -12 -29 -12 -11 0
56 49 76 55 9 3 16 15 17 27 1 11 8 25 14 29 10 6 10 11 -2 25 -11 13 -11 18
-1 21 6 3 12 9 12 14 0 5 -14 2 -30 -6 -17 -9 -36 -13 -42 -9 -6 4 -8 3 -5 -3
4 -6 0 -14 -9 -17 -10 -4 -13 -2 -8 6 4 7 -6 3 -22 -9 -16 -11 -40 -24 -53
-28 -18 -5 -37 -36 -80 -127 -50 -105 -59 -118 -71 -103 -12 14 -8 27 25 94
20 43 38 87 39 97 0 11 11 30 23 44 13 13 21 25 19 27 -1 2 -24 -8 -49 -23
-27 -14 -47 -21 -47 -14 0 22 29 65 67 101 77 72 150 97 202 70 20 -11 29 -9
72 21 40 27 46 34 32 40 -10 3 -108 23 -219 44 l-200 37 -215 -58 c-256 -69
-260 -70 -238 -56 22 15 297 107 343 115 29 6 36 10 25 17 -10 6 -6 9 16 9 17
0 122 29 235 65 181 57 208 68 233 97 26 31 27 31 18 7 l-9 -26 96 27 c147 41
158 42 158 20 0 -10 -3 -17 -7 -14 -4 2 -9 0 -11 -5 -3 -9 -212 -81 -236 -81
-8 0 -31 -17 -50 -37 -23 -25 -31 -30 -23 -15 7 13 11 26 8 28 -3 3 -69 -13
-148 -35 -78 -23 -150 -41 -158 -41 -48 -1 34 -22 216 -54 201 -35 203 -35
235 -17 43 24 99 34 130 22 14 -5 35 -25 46 -43 l21 -34 223 -27 c298 -37 491
-57 542 -57 34 0 45 5 60 28 12 18 16 21 12 7 -4 -15 1 -12 19 10 14 17 23 36
20 43 -3 7 -1 11 3 8 4 -3 14 5 22 17 12 20 12 21 -3 8 -26 -21 -21 -8 37 86
51 84 52 89 35 101 -25 17 -15 34 16 26 19 -5 28 1 49 33 15 21 32 38 39 38 6
0 12 9 12 20 0 11 11 41 24 66 l24 46 -40 59 c-50 73 -64 86 -103 89 -40 3
-64 23 -49 42 9 10 9 20 -2 41 -7 15 -13 32 -14 39 -1 29 -329 450 -598 768
-294 346 -735 803 -947 981 -216 181 -406 295 -486 292 -25 -1 -52 -7 -60 -15
-65 -65 10 -341 191 -704 48 -96 76 -141 110 -172 35 -33 45 -49 45 -73 0 -31
-21 -60 -33 -47 -4 3 -7 -1 -7 -9 0 -11 -7 -14 -24 -11 -41 8 -63 38 -71 95
-5 35 -33 106 -81 205 -41 84 -74 155 -74 158 0 2 -11 28 -24 57 -13 29 -41
105 -61 168 -29 91 -38 136 -42 215 -4 89 -2 104 17 133 19 31 67 61 100 62 8
0 33 -5 55 -11z m1698 -2036 c37 -18 67 -37 67 -42 0 -6 6 -11 13 -11 7 0 21
-13 30 -29 10 -17 26 -33 37 -36 11 -4 20 -11 20 -17 0 -5 11 -19 25 -30 14
-11 23 -23 21 -27 -2 -3 -7 -25 -10 -47 -4 -22 -8 -50 -11 -62 -7 -40 -8 -137
-1 -154 6 -13 1 -17 -21 -20 -22 -2 -29 -9 -33 -33 -4 -22 -8 -26 -14 -16 -5
7 -11 9 -15 4 -9 -14 -111 -84 -111 -77 0 4 -6 1 -14 -6 -23 -18 -147 -41
-191 -34 -52 8 -127 29 -156 45 -24 12 -84 64 -130 112 -15 15 -41 32 -58 38
-36 13 -39 23 -10 43 12 8 22 26 23 40 0 14 4 26 7 26 4 0 6 10 5 23 -1 12 4
51 11 85 7 35 11 68 8 72 -3 5 -1 11 5 15 5 3 7 17 4 31 -5 19 -2 24 14 24 11
0 27 7 36 15 8 8 19 15 25 15 5 0 14 6 18 14 4 7 31 23 58 35 28 12 59 26 70
31 25 12 107 17 165 10 25 -3 75 -20 113 -37z m-1938 -378 c42 -72 67 -209 81
-452 6 -96 5 -116 -10 -138 -14 -22 -15 -32 -7 -57 6 -17 11 -48 11 -68 0 -20
13 -88 30 -151 29 -114 63 -386 48 -395 -4 -2 -30 -39 -58 -81 -39 -58 -51
-84 -48 -105 5 -31 1 -33 -24 -14 -14 10 -15 15 -5 26 10 10 7 11 -15 6 -16
-3 -28 -3 -28 1 -1 5 -3 44 -5 88 -3 44 -10 114 -16 155 -6 41 -12 86 -14 100
-4 51 -17 100 -25 95 -8 -5 -17 70 -12 98 2 9 25 26 52 39 49 23 78 62 67 90
-3 8 -6 6 -6 -5 -1 -10 -5 -15 -11 -12 -6 4 -7 -1 -3 -11 5 -13 3 -15 -7 -9
-8 5 -11 4 -7 -2 4 -6 0 -16 -8 -23 -8 -7 -15 -10 -15 -6 0 4 -10 0 -22 -8
-13 -8 -45 -16 -72 -18 -47 -3 -51 -1 -73 31 -13 19 -23 49 -23 66 0 20 -6 35
-15 39 -8 3 -15 12 -15 21 0 18 5 19 30 5 13 -7 21 -7 25 0 3 5 13 10 21 10
12 0 12 -4 -2 -24 -8 -14 -14 -35 -11 -48 4 -21 4 -21 6 4 1 30 52 78 82 78
18 0 19 5 13 53 -12 89 -18 102 -47 105 -31 4 -36 18 -9 26 27 9 40 42 45 109
2 33 9 62 17 67 7 4 9 13 5 20 -5 9 -4 11 3 6 8 -5 12 1 13 16 0 13 2 40 5 60
5 41 -18 97 -39 99 -8 0 -7 2 2 6 41 16 48 33 39 91 -5 31 -13 70 -18 87 l-10
29 31 -29 c17 -17 41 -48 54 -70z m580 -785 l26 -50 -38 -36 -38 -35 -42 48
c-24 26 -42 55 -40 63 3 18 64 60 88 60 12 0 27 -17 44 -50z m2200 -2009 c34
-31 83 -74 108 -95 26 -22 47 -44 47 -50 0 -6 21 -33 48 -60 l47 -49 -48 34
c-27 18 -51 37 -53 41 -3 5 -11 8 -17 8 -7 0 2 -11 18 -25 17 -13 26 -24 22
-25 -9 0 -68 39 -77 51 -3 4 -23 15 -45 25 -29 14 -42 28 -49 52 -5 18 -25 47
-45 64 -40 35 -60 64 -61 91 0 25 27 9 105 -62z m422 -310 c23 -18 54 -51 69
-73 18 -25 46 -48 79 -64 55 -26 80 -55 130 -154 27 -54 30 -96 10 -166 -5
-17 0 -22 34 -32 60 -18 138 -97 202 -203 87 -146 687 -1163 726 -1231 2 -5 2
-8 -1 -8 -2 0 -21 28 -42 62 -43 73 -175 268 -181 268 -2 0 0 -8 5 -17 5 -10
7 -24 4 -32 -3 -9 0 -11 8 -6 9 5 11 4 6 -4 -4 -6 -2 -18 4 -26 7 -8 10 -15 7
-15 -4 0 -23 26 -43 57 -55 88 -163 184 -197 175 -5 -1 -5 2 -2 9 4 6 -3 20
-15 31 l-22 21 7 -23 c5 -16 -14 -2 -59 43 -36 37 -70 67 -75 67 -6 0 -21 10
-34 23 -80 77 -109 97 -123 86 -8 -6 -14 -10 -15 -8 0 2 -2 15 -5 28 -5 29
-22 51 -38 51 -7 0 -29 17 -50 39 -34 34 -40 37 -62 27 -13 -6 -24 -17 -24
-24 0 -23 -18 -3 -25 29 -6 25 -9 28 -18 16 -14 -18 -201 -40 -188 -22 4 5 15
30 24 55 9 25 33 74 52 110 83 157 99 195 103 256 2 35 -1 70 -7 80 -9 16 -10
14 -11 -17 0 -34 -24 -109 -35 -109 -3 0 -2 19 1 43 l7 42 -33 -30 c-23 -21
-16 -9 22 40 30 39 60 79 65 90 17 35 15 197 -2 225 l-16 25 6 -35 c4 -23 3
-30 -3 -22 -7 10 -11 4 -16 -22 -13 -66 -186 -293 -186 -243 0 12 -8 17 -26
17 -25 0 -25 0 -8 29 16 27 16 32 -1 85 -23 74 -79 137 -147 166 -44 19 -65
22 -138 18 -114 -5 -178 -36 -254 -120 -54 -59 -86 -71 -86 -33 0 23 94 120
144 148 106 62 240 78 346 42 74 -25 163 -112 182 -180 l14 -48 21 49 c12 27
27 72 33 99 7 28 14 57 17 65 12 31 10 38 -25 76 -20 21 -33 32 -30 23 5 -13
2 -16 -12 -12 -19 5 -59 43 -45 43 4 0 1 8 -6 18 -12 15 -12 16 1 5 9 -6 28
-17 43 -22 l28 -11 -33 46 c-18 26 -63 73 -101 105 -37 32 -107 100 -155 151
-87 93 -87 93 33 -22 66 -63 139 -130 162 -149z m-2129 129 l33 -21 18 23 18
22 47 -28 c32 -19 87 -36 166 -51 113 -23 192 -50 325 -109 71 -33 65 -25 -35
44 -41 29 -66 49 -55 45 11 -4 50 -17 87 -30 36 -13 99 -45 140 -73 40 -27
161 -95 268 -152 107 -57 231 -122 275 -145 l80 -42 -2 -54 c-1 -37 4 -60 14
-71 9 -10 13 -18 9 -18 -5 0 -74 31 -155 69 -253 119 -396 178 -641 263 -158
55 -355 154 -457 229 -28 21 -77 52 -110 70 -32 17 -62 35 -67 40 -18 16 8 10
42 -11z m1831 -93 c73 -39 90 -59 30 -38 -43 15 -69 14 -69 -3 0 -16 -21 -26
-55 -26 -26 0 -79 55 -71 75 2 7 8 33 11 59 l7 47 37 -38 c20 -21 69 -55 110
-76z m-977 -92 c43 -14 101 -29 130 -34 29 -5 103 -30 163 -55 61 -25 148 -55
195 -67 47 -13 87 -24 88 -25 7 -4 -36 -91 -48 -99 -7 -4 -33 2 -59 13 -25 11
-75 32 -110 47 -58 23 -331 169 -421 224 -45 27 -33 26 62 -4z m1388 -528 c0
-25 -79 -134 -133 -184 -62 -56 -90 -68 -112 -47 -13 13 -13 18 0 38 8 12 12
26 8 30 -5 4 -3 6 2 5 18 -5 56 21 114 79 31 31 47 50 36 42 -19 -14 -19 -14
-6 3 8 9 16 15 18 13 3 -3 19 4 36 15 38 23 37 22 37 6z"/>
<path d="M3970 5954 c-46 -13 -86 -28 -88 -33 -2 -6 -10 -11 -18 -11 -13 0
-12 -5 2 -30 10 -16 32 -47 50 -70 l32 -40 45 72 c56 91 69 117 65 127 -2 4
-41 -3 -88 -15z"/>
<path d="M2804 5218 c-1 -96 -48 -172 -168 -267 l-65 -52 23 -47 c13 -26 34
-75 47 -109 13 -35 30 -63 37 -63 10 0 117 53 295 147 16 8 45 17 65 20 48 6
88 -24 102 -76 23 -85 -41 -195 -193 -337 l-87 -80 34 -33 33 -32 38 45 c20
25 42 43 48 39 6 -3 7 -1 3 5 -4 7 16 41 46 79 57 72 181 239 288 386 46 65
66 85 73 75 6 -9 7 -8 3 5 -7 22 87 167 108 167 8 0 21 11 30 25 20 31 11 33
-16 3 -11 -13 -5 -2 12 25 24 36 27 47 15 47 -36 0 -500 52 -625 70 -74 11
-138 20 -141 20 -3 0 -5 -28 -5 -62z"/>
<path d="M2170 4743 c-24 -9 -49 -34 -64 -64 -13 -26 -12 -31 6 -54 29 -37 71
-34 115 10 30 30 35 40 29 67 -9 44 -39 58 -86 41z"/>
</g>
</svg>
