<?xml version="1.0" standalone="no"?>
<!DOCTYPE svg PUBLIC "-//W3C//DTD SVG 20010904//EN"
 "http://www.w3.org/TR/2001/REC-SVG-20010904/DTD/svg10.dtd">
<svg version="1.0" xmlns="http://www.w3.org/2000/svg"
 width="3000.000000pt" height="2000.000000pt" viewBox="0 0 3000.000000 2000.000000"
 preserveAspectRatio="xMidYMid meet">
<metadata>
Created by potrace 1.16, written by Peter Selinger 2001-2019
</metadata>
<g transform="translate(0.000000,2000.000000) scale(0.100000,-0.100000)"
fill="#000000" stroke="none">
<path d="M0 10000 l0 -10000 10205 0 c9414 0 10208 1 10231 16 27 18 106 14
112 -5 3 -8 1396 -11 4728 -11 l4724 0 -3 4263 c-2 2344 -4 4267 -4 4272 0 6
2 432 4 948 l3 938 -20 -6 c-31 -10 -86 12 -99 41 -19 42 -13 124 13 180 27
58 43 68 80 49 l26 -14 0 260 c0 211 -3 259 -13 259 -32 0 -96 60 -121 113
-22 48 -26 70 -28 169 l-2 113 48 95 c27 52 52 97 56 100 4 3 19 23 34 44 l26
39 0 728 -1 727 -22 6 c-23 6 -57 -23 -57 -50 0 -8 -4 -14 -10 -14 -5 0 -10
-9 -10 -19 0 -11 -6 -26 -13 -33 -7 -7 -16 -21 -20 -31 -14 -37 -41 -14 -57
48 -25 91 -71 186 -90 183 -8 -2 -16 -16 -18 -31 -2 -15 -7 -27 -12 -27 -15 0
-23 47 -11 68 8 15 8 23 -1 28 -7 4 -8 3 -4 -4 12 -19 -9 -14 -28 7 -13 14
-15 29 -10 74 8 72 15 82 43 68 17 -10 25 -8 43 9 33 31 71 23 79 -15 3 -19
10 -29 20 -27 8 2 15 7 17 10 1 4 11 22 22 39 19 31 22 32 67 27 27 -4 54 -13
61 -22 10 -13 12 13 12 136 0 128 -2 152 -15 152 -8 0 -16 7 -16 15 -1 8 -2
21 -3 28 -1 6 7 11 17 9 16 -3 17 44 17 858 0 557 -4 868 -10 880 -7 13 -7 21
0 25 6 4 10 176 10 486 0 277 -4 478 -9 475 -15 -10 -28 17 -35 69 -6 46 -5
52 19 69 l25 19 0 922 0 923 -21 5 c-24 7 -20 33 5 31 14 -2 16 27 16 315 0
215 -4 321 -11 328 -8 8 -8 13 0 17 7 5 7 11 1 19 -55 67 -94 125 -104 155 -7
21 -23 42 -37 49 -37 18 -88 87 -104 140 -8 25 -27 59 -42 74 -15 16 -35 37
-44 47 -9 11 -21 21 -26 23 -5 2 -13 19 -16 38 -6 29 -5 32 8 21 22 -19 19 9
-4 37 l-19 23 -571 0 c-557 0 -571 -1 -571 -20 0 -10 5 -22 10 -25 6 -3 10
-15 10 -26 0 -11 -4 -17 -10 -14 -5 3 -10 1 -10 -4 0 -6 4 -11 10 -11 5 0 -15
-25 -45 -57 -30 -31 -55 -59 -55 -64 0 -4 -17 -17 -37 -30 -31 -18 -56 -23
-138 -27 -75 -3 -105 -8 -120 -21 -30 -25 -77 -26 -99 -2 -23 25 -23 76 -2
100 21 23 20 34 -5 57 -26 23 -58 90 -59 121 l0 23 -1692 -1 c-931 -1 -1685
-3 -1675 -6 25 -6 21 -20 -7 -25 -29 -6 -51 5 -42 21 5 8 -170 11 -648 11
-578 0 -655 -2 -650 -15 4 -10 0 -15 -11 -15 -11 0 -15 5 -11 15 5 13 -50 15
-459 15 -355 0 -465 -3 -465 -12 0 -9 -3 -9 -12 0 -8 8 -49 12 -120 12 -98 0
-107 -2 -101 -17 4 -10 11 -21 16 -24 11 -8 27 -99 17 -99 -14 0 -30 25 -30
48 0 14 -9 40 -21 58 l-21 34 -249 0 c-219 0 -249 -2 -249 -16 0 -8 -5 -12
-10 -9 -6 4 -8 11 -5 16 4 5 -23 9 -64 9 -39 0 -71 -3 -71 -7 0 -3 7 -15 17
-25 9 -10 14 -21 11 -24 -3 -3 -12 1 -19 9 -12 12 -15 12 -26 -2 -11 -14 -14
-14 -23 -1 -15 22 -12 38 8 43 9 3 -2159 5 -4819 6 -4829 1 -4837 1 -4842 -19
-4 -15 -14 -20 -41 -20 -29 0 -36 4 -36 20 0 20 -7 20 -5780 20 l-5780 0 0
-10000z m22319 9931 c8 -15 7 -20 -5 -25 -13 -5 -14 -9 -4 -21 14 -16 20 -139
9 -157 -9 -14 -29 -1 -29 19 0 20 -39 63 -56 63 -18 0 -28 63 -15 88 7 13 17
18 30 15 13 -3 23 2 30 16 14 26 27 27 40 2z m5281 -221 c30 -30 26 -78 -11
-120 -20 -22 -33 -30 -36 -22 -2 6 -12 12 -22 12 -20 0 -51 58 -51 95 0 50 82
73 120 35z m-5266 -106 c3 -9 6 -23 6 -32 0 -9 11 -39 25 -66 14 -27 25 -62
25 -78 0 -15 9 -37 20 -48 20 -20 40 -61 40 -81 0 -5 -15 -9 -34 -9 -29 0 -40
8 -75 51 -42 53 -47 72 -32 125 6 20 4 48 -4 79 -9 36 -9 52 -1 62 15 17 23
16 30 -3z m3340 -387 c19 -52 -39 -116 -87 -98 -36 14 -63 67 -45 89 43 56
114 60 132 9z m1995 -432 c18 -8 36 -15 40 -16 8 0 71 -131 93 -194 9 -27 17
-78 18 -112 0 -43 7 -79 23 -115 31 -69 40 -167 21 -220 -17 -49 -17 -48 -1
-48 8 0 30 -12 50 -27 58 -45 48 -114 -19 -127 -27 -6 -33 -3 -55 31 -14 22
-32 37 -42 37 -9 -1 -17 4 -17 11 0 8 -23 14 -71 17 -63 5 -74 9 -106 39 -47
45 -78 96 -87 141 -4 24 -14 39 -26 43 -25 8 -26 35 -1 35 16 0 19 9 23 58 2
36 14 80 31 114 19 39 27 71 27 109 0 30 4 59 8 65 5 5 14 28 22 51 11 37 11
45 -4 68 -12 18 -15 36 -11 56 7 29 8 29 28 15 12 -9 37 -23 56 -31z m-12159
-18 c0 -8 11 -24 25 -37 20 -18 24 -30 20 -59 -3 -20 -13 -42 -22 -49 -10 -7
-25 -18 -34 -26 -29 -24 -83 -46 -91 -38 -13 13 -13 73 -1 80 19 13 42 69 36
91 -3 11 0 28 7 36 15 19 60 20 60 2z m12788 -131 c22 -20 45 -36 51 -36 6 0
12 -6 12 -12 3 -28 5 -34 18 -57 10 -18 12 -47 8 -109 -9 -125 -40 -159 -101
-111 -36 29 -76 93 -76 123 0 15 -11 33 -26 45 -17 13 -27 32 -29 53 -1 18 -7
54 -12 80 -6 26 -9 49 -7 50 1 2 30 4 63 6 56 3 62 1 99 -32z m-1820 -282 c40
-28 50 -62 43 -141 -6 -67 -10 -76 -46 -113 -46 -47 -85 -54 -85 -15 0 15 -6
25 -14 25 -19 0 -37 25 -41 57 -2 15 -5 35 -6 43 -8 52 3 82 42 120 44 43 72
49 107 24z m-1684 -179 c8 -8 18 -15 23 -15 13 0 85 -70 81 -78 -2 -4 -11 -23
-20 -42 -26 -56 -53 -75 -108 -75 -37 0 -54 6 -74 24 -56 53 -17 201 54 201
16 0 35 -7 44 -15z m-12195 -69 c7 -8 14 -29 17 -48 13 -79 -47 -127 -93 -74
-44 52 -18 135 43 136 12 0 27 -6 33 -14z m11127 -46 c24 -10 26 -14 21 -52
-10 -76 -68 -90 -129 -33 -21 18 -38 39 -38 44 0 6 19 16 43 22 23 7 46 16 52
21 12 10 18 10 51 -2z m5396 -427 c14 -13 21 -14 30 -5 16 16 38 15 38 0 0 -7
14 -26 30 -42 17 -16 30 -33 30 -38 0 -4 12 -8 26 -8 26 0 27 -1 20 -46 -3
-26 -6 -60 -6 -75 0 -20 -5 -29 -16 -29 -13 0 -15 -8 -12 -37 5 -42 -10 -78
-41 -99 -12 -9 -21 -21 -21 -29 0 -7 -11 -23 -25 -34 l-26 -20 -48 21 c-60 24
-91 57 -119 125 -29 69 -28 134 3 201 14 30 25 60 25 67 0 7 9 24 21 39 24 30
63 34 91 9z m-4471 -25 c41 -45 45 -69 26 -167 -20 -102 -42 -131 -99 -131
-30 0 -47 8 -79 37 l-41 37 6 66 c10 92 39 148 90 171 55 25 62 24 97 -13z
m3498 -57 c58 -58 91 -190 82 -327 -1 -6 -17 -8 -43 -5 -41 6 -43 8 -46 42 -3
32 -8 39 -43 55 -78 34 -109 154 -59 223 26 37 78 43 109 12z m-9929 -128 c0
-46 -14 -70 -69 -121 -78 -73 -97 -84 -111 -67 -10 12 -6 27 20 77 36 70 62
103 102 128 43 26 58 22 58 -17z m-1932 -19 c58 -38 50 -113 -18 -185 -34 -36
-43 -41 -70 -35 -49 9 -100 64 -107 113 -5 39 -2 45 33 78 22 20 48 40 59 45
25 11 73 3 103 -16z m6753 -84 c14 -8 19 -21 18 -53 -1 -23 -4 -53 -8 -67 -4
-14 -4 -35 0 -47 5 -13 4 -25 -1 -28 -6 -4 -10 -31 -10 -61 0 -44 5 -60 23
-78 12 -12 23 -32 24 -44 4 -47 -107 -70 -131 -27 -6 10 -17 26 -24 33 -14 15
-8 68 9 87 16 17 10 33 -11 28 -22 -6 -23 -3 -21 72 1 28 -3 56 -8 64 -14 22
13 66 61 101 45 33 51 35 79 20z m-3627 -42 c3 -13 6 -33 6 -45 0 -12 9 -27
20 -33 13 -7 20 -21 20 -40 0 -15 4 -30 8 -32 4 -1 18 -25 31 -53 17 -37 20
-54 13 -66 -8 -12 -7 -20 1 -28 16 -16 16 -156 1 -171 -25 -25 -55 148 -33
185 8 14 -18 75 -32 75 -7 0 -9 10 -7 25 3 14 1 25 -4 25 -5 0 -7 9 -3 19 4
13 -1 26 -14 38 -26 24 -52 88 -45 107 9 23 31 19 38 -6z m975 -54 c17 -14 31
-32 31 -40 0 -27 -54 -75 -92 -80 -52 -9 -64 17 -43 91 15 50 19 55 45 55 16
0 42 -11 59 -26z m-1108 -4 c23 0 59 -34 59 -55 0 -29 -38 -55 -82 -55 -50 0
-78 22 -78 61 0 21 8 32 28 43 15 9 33 13 40 11 8 -3 22 -5 33 -5z m-392 -106
c-1 -113 -4 -157 -11 -170 -4 -5 -9 -30 -12 -54 -4 -31 -15 -53 -38 -77 -18
-19 -34 -29 -36 -23 -2 5 -11 10 -20 11 -11 0 -12 2 -4 6 17 7 15 23 -3 23
-28 0 -16 42 25 86 22 24 40 50 40 57 0 8 -18 32 -39 54 -45 46 -46 77 -2 121
33 34 84 62 94 53 4 -4 7 -43 6 -87z m10929 -21 c11 -21 23 -60 26 -86 7 -43
5 -49 -13 -54 -12 -3 -22 -17 -26 -34 -11 -51 -31 -33 -44 41 -13 70 -5 124
22 158 13 17 14 16 35 -25z m-490 -37 c37 -20 95 -83 89 -99 -2 -6 4 -30 14
-52 17 -40 16 -95 -3 -95 -5 0 -16 -7 -25 -16 -11 -10 -19 -12 -26 -5 -12 12
-37 -4 -37 -25 0 -20 -17 -26 -38 -13 -14 9 -19 26 -22 73 -8 159 -3 246 15
246 3 0 18 -6 33 -14z m-3754 -102 c18 -17 22 -74 5 -74 -5 0 -8 -4 -5 -9 3
-4 -1 -17 -9 -27 -31 -42 -18 -58 55 -66 23 -3 25 -7 28 -66 2 -36 -2 -69 -8
-77 -14 -17 -29 -236 -20 -286 5 -27 3 -39 -6 -43 -13 -5 -15 0 -29 59 -10 40
-6 129 6 133 12 5 12 42 -1 42 -5 0 -10 9 -10 19 0 11 -8 26 -18 33 -22 15
-48 59 -43 73 20 65 13 175 -11 175 -4 0 -8 16 -8 35 0 19 5 35 10 35 6 0 10
9 10 20 0 15 20 37 37 40 1 0 9 -7 17 -16z m-10086 -151 c34 -37 27 -81 -16
-106 -29 -17 -39 -18 -73 -8 -79 24 -90 98 -19 133 41 21 77 15 108 -19z
m13645 -20 c16 -19 17 -21 17 -53 0 -17 4 -19 28 -14 26 7 27 6 10 -13 -22
-24 -23 -33 -3 -33 8 0 15 7 15 15 0 38 48 1 66 -51 15 -42 10 -74 -10 -74
-18 0 -59 47 -52 58 8 14 -4 43 -15 36 -5 -3 -9 -15 -9 -27 -1 -24 -22 -57
-37 -57 -5 0 -20 -11 -33 -25 -13 -14 -30 -25 -38 -25 -20 0 -52 -29 -52 -46
0 -24 -33 -84 -46 -84 -7 0 -26 11 -41 24 -22 20 -26 27 -15 37 6 7 12 25 12
40 0 18 10 36 31 53 28 24 30 29 20 57 -9 26 -8 36 9 59 11 16 20 30 20 33 0
3 5 18 12 34 6 15 12 32 12 38 1 12 45 35 67 35 9 0 23 -8 32 -17z m-8936
-178 c33 -23 55 -73 42 -96 -5 -10 -14 -19 -19 -19 -6 0 -10 -8 -10 -19 0 -20
-25 -31 -71 -31 -31 0 -59 36 -59 73 0 25 22 86 36 100 12 12 58 8 81 -8z
m3556 -35 l54 -49 -3 -57 c-2 -42 -9 -63 -25 -80 l-22 -23 -50 25 c-49 25 -50
25 -82 8 -18 -9 -40 -14 -49 -11 -22 9 -20 54 3 66 20 11 45 67 36 81 -8 12
14 63 32 78 29 21 50 14 106 -38z m3110 -186 c44 -50 77 -140 65 -175 -22 -65
-94 -77 -146 -26 -47 48 -37 182 17 224 24 18 29 16 64 -23z m-13589 -49 c34
-18 63 -19 68 -3 3 8 17 0 36 -20 18 -18 30 -38 26 -44 -8 -13 14 -28 44 -28
15 0 22 -6 22 -18 0 -10 3 -22 7 -25 3 -4 7 -19 9 -34 1 -16 5 -40 9 -56 6
-22 2 -33 -20 -55 -36 -37 -105 -122 -105 -130 0 -4 -7 -16 -15 -26 -14 -19
-15 -19 -32 2 -11 13 -35 23 -63 26 -77 10 -110 18 -110 26 0 4 -9 10 -20 13
-12 3 -20 14 -20 26 0 12 -7 24 -16 28 -10 4 -14 13 -10 28 4 14 0 28 -9 35
-10 8 -15 31 -15 66 0 52 1 54 71 128 76 80 92 87 143 61z m1511 -150 c3 -11
2 -33 -3 -50 -7 -25 -14 -30 -44 -33 -31 -3 -40 2 -67 35 -36 43 -40 81 -11
106 11 9 20 29 20 44 0 25 2 24 50 -27 28 -30 53 -63 55 -75z m10609 67 c22
-35 22 -39 9 -80 -18 -50 -43 -60 -97 -38 -41 17 -44 32 -17 92 19 42 57 77
73 68 5 -3 19 -22 32 -42z m-10081 3 c32 -6 67 -57 67 -96 0 -65 -93 -79 -152
-22 -24 23 -28 34 -26 68 3 41 31 66 66 59 10 -1 30 -5 45 -9z m12471 -175
c-19 -42 -15 -78 13 -120 15 -24 36 -54 45 -69 10 -14 18 -36 18 -48 0 -12 5
-25 10 -28 6 -4 10 10 10 34 0 34 5 44 35 67 19 14 35 33 35 40 0 22 17 16 38
-13 28 -40 38 -127 19 -157 -21 -32 -63 -41 -93 -21 -13 8 -24 14 -24 12 0
-29 26 -128 42 -158 17 -34 19 -50 14 -108 -4 -37 -13 -87 -21 -112 -17 -55
-61 -140 -78 -151 -22 -14 -57 -9 -64 10 -13 37 -56 72 -89 72 -24 0 -38 8
-58 34 -14 19 -26 40 -26 47 0 7 -5 27 -12 45 -9 26 -8 49 7 121 9 48 21 106
26 128 17 84 22 100 35 116 8 8 16 29 18 45 2 16 17 53 33 82 25 44 29 61 25
102 -6 61 13 94 35 64 7 -10 10 -25 7 -34z m-4244 -40 c15 -11 30 -51 30 -81
0 -36 -24 -69 -49 -69 -21 1 -56 29 -71 58 -10 21 -7 30 26 78 33 47 39 52 48
37 5 -10 12 -20 16 -23z m5938 -14 c23 -52 -11 -176 -51 -184 -11 -2 -20 9
-28 39 -10 31 -20 45 -41 53 -15 6 -28 17 -28 24 0 12 3 12 15 2 18 -15 20 1
3 18 -9 9 -8 12 8 12 10 0 35 14 54 30 43 36 54 37 68 6z m-1014 -9 c-2 -7 2
-27 11 -43 36 -70 6 -175 -46 -159 -17 6 -21 4 -16 -9 5 -11 -8 -71 -17 -82
-6 -8 -44 -12 -53 -6 -10 6 -8 19 6 57 10 28 21 71 25 96 4 25 18 61 31 80 14
18 25 38 25 44 0 13 20 35 32 35 4 0 5 -6 2 -13z m-1529 -37 c3 -5 1 -19 -6
-31 -10 -20 -9 -21 10 -16 23 6 24 5 15 -17 -3 -9 -14 -16 -23 -16 -12 0 -10
-5 9 -20 57 -44 22 -230 -44 -230 -9 0 -16 4 -16 10 0 5 -13 24 -29 42 -37 43
-55 99 -48 155 4 36 13 53 48 89 43 42 71 54 84 34z m-5808 -187 c65 -70 55
-123 -25 -123 -16 0 -41 9 -55 20 -28 22 -51 76 -36 85 5 4 9 15 9 25 0 10 6
21 13 23 23 10 72 -6 94 -30z m4473 -12 c38 -36 40 -40 29 -67 -14 -33 -74
-94 -92 -94 -39 1 -71 70 -57 121 11 36 47 79 66 79 7 0 32 -17 54 -39z
m-1980 -1 c28 -28 57 -92 52 -118 -4 -23 -5 -23 -57 -6 -5 2 -22 -14 -37 -36
-32 -46 -88 -64 -116 -36 -14 14 -15 24 -5 81 14 81 25 95 73 95 29 0 39 4 43
20 7 25 22 25 47 0z m-8999 -12 c55 -58 75 -125 47 -160 -17 -21 -68 -29 -109
-18 -30 8 -37 18 -58 69 -13 33 -21 67 -18 75 8 21 67 56 94 56 12 0 32 -10
44 -22z m5966 -7 c20 -13 34 -31 38 -53 9 -39 36 -98 45 -98 10 0 5 -32 -8
-57 -7 -12 -12 -31 -12 -42 0 -11 -8 -24 -17 -29 -22 -11 -113 -21 -130 -15
-7 3 -34 36 -59 74 -56 82 -68 146 -31 151 12 2 26 12 31 24 12 26 65 64 91
64 11 0 34 -9 52 -19z m1391 -83 c13 -13 5 -95 -11 -116 -5 -7 -17 -27 -26
-45 -12 -24 -27 -35 -61 -46 -25 -7 -52 -17 -61 -22 -18 -8 -59 22 -59 44 0
14 182 197 196 197 6 0 15 -5 22 -12z m4379 -23 c3 -9 1 -39 -5 -68 -7 -35 -7
-56 0 -64 13 -16 -8 -79 -32 -96 -12 -8 -36 -11 -71 -7 l-54 5 -32 60 c-33 62
-42 118 -21 131 7 5 50 8 95 7 81 0 83 1 83 23 0 27 27 33 37 9z m2668 -214
c8 -49 26 -65 65 -59 28 4 40 -5 22 -16 -5 -3 -9 -26 -11 -53 -1 -26 -8 -57
-15 -68 -10 -15 -36 -108 -36 -128 0 -2 17 -2 38 -1 47 1 102 -39 102 -75 l0
-24 23 20 c16 15 34 20 69 19 51 -1 66 -9 51 -28 -6 -7 -13 -25 -17 -40 -5
-23 -12 -28 -36 -28 -17 0 -33 -7 -39 -17 -13 -23 -44 -6 -49 26 -4 23 -22 30
-22 8 0 -8 -9 -22 -21 -33 -12 -10 -27 -30 -35 -44 -30 -55 -40 -62 -66 -49
-12 7 -30 15 -38 20 -8 4 -13 13 -11 21 2 7 3 40 2 73 -2 59 -15 90 -32 79 -5
-3 -9 2 -9 10 0 8 -13 31 -30 49 -26 30 -29 40 -26 86 4 55 23 80 60 81 17 0
18 5 11 53 -13 85 -11 124 9 146 24 26 33 20 41 -28z m-16794 -1 c23 -13 25
-59 4 -99 -16 -31 -61 -54 -96 -49 -18 2 -25 -2 -27 -19 -4 -24 -82 -113 -100
-113 -16 0 -15 15 8 89 30 96 68 149 85 121 10 -17 33 -11 40 9 8 26 44 71 56
71 6 0 19 -5 30 -10z m11629 -131 c0 7 5 9 10 6 6 -3 10 -26 10 -50 0 -24 5
-47 10 -50 6 -4 21 -24 35 -44 13 -21 31 -45 40 -55 12 -12 15 -25 10 -44 -17
-68 -17 -92 -2 -92 8 0 18 -7 21 -16 13 -34 3 -94 -15 -94 -14 0 -49 33 -49
46 0 12 -65 99 -101 135 -21 21 -34 78 -25 112 3 13 1 39 -5 58 -21 71 -21 77
8 93 25 13 29 13 41 -1 7 -11 12 -12 12 -4z m4084 -178 c13 -20 8 -123 -5
-137 -8 -7 -39 -15 -70 -16 -45 -2 -58 -6 -65 -23 -14 -31 -39 -29 -63 3 -17
25 -19 35 -10 60 6 18 19 32 34 36 13 3 25 16 29 31 5 20 13 25 36 25 30 0 48
-14 30 -25 -5 -3 -10 -13 -10 -22 0 -12 6 -14 28 -8 36 9 43 17 44 54 1 30 11
40 22 22z m1540 -89 c-5 -4 -9 -16 -9 -27 0 -11 -11 -25 -25 -32 -15 -8 -19
-13 -10 -14 10 0 11 -2 3 -6 -7 -2 -13 -11 -13 -20 0 -21 -28 -46 -45 -39 -8
3 -20 17 -27 31 -9 20 -8 28 5 43 10 10 17 35 17 56 0 40 21 57 49 39 12 -8
20 -6 31 5 12 14 15 13 24 -7 6 -14 6 -25 0 -29z m-14078 -129 l42 -5 0 -115
c-1 -140 -4 -155 -32 -151 -11 1 -27 -1 -34 -6 -29 -18 -102 26 -102 62 0 8
-9 25 -20 39 -28 36 -26 84 5 113 14 13 25 31 25 40 0 26 23 42 50 35 14 -4
44 -9 66 -12z m14212 -31 c19 -15 24 -28 25 -75 1 -46 -5 -68 -33 -121 -18
-36 -42 -68 -52 -72 -41 -13 -78 55 -78 144 0 46 11 71 49 115 28 31 56 34 89
9z m-6596 -24 c18 -15 68 -106 68 -125 0 -7 7 -13 15 -13 8 0 15 4 15 10 0 5
11 16 24 25 24 16 56 11 56 -8 0 -6 9 -21 21 -33 14 -15 24 -47 32 -99 9 -57
18 -81 33 -93 36 -28 45 -56 35 -107 -10 -51 -10 -52 -31 -55 -30 -4 -50 0
-50 11 0 16 -48 59 -65 59 -7 0 -16 8 -19 18 -8 25 -65 82 -81 82 -8 0 -13 9
-12 23 2 28 -19 87 -31 87 -17 0 -72 63 -72 82 0 10 -7 29 -15 42 -12 18 -13
29 -5 52 21 54 48 68 82 42z m1326 -98 c26 -53 24 -67 -20 -167 -10 -24 -18
-48 -18 -54 0 -6 -10 -29 -22 -50 l-22 -39 24 -25 c13 -13 31 -27 40 -30 19
-6 46 -74 34 -84 -5 -3 -9 -10 -10 -16 -1 -29 -18 -65 -30 -65 -8 0 -14 -4
-14 -9 0 -5 -12 -8 -27 -8 -56 0 -121 78 -93 112 7 8 10 21 7 30 -4 8 8 30 30
52 35 37 35 39 23 78 -6 22 -13 56 -14 75 -2 19 -6 54 -10 78 -6 30 -4 47 5
58 7 9 12 31 11 49 -2 25 3 38 20 49 40 28 61 20 86 -34z m2190 -15 c6 -14 26
-26 54 -34 70 -20 98 -53 98 -117 0 -65 -66 -125 -123 -110 -36 9 -77 45 -77
67 0 11 -6 22 -14 25 -8 3 -16 14 -19 25 -3 11 -14 23 -25 26 -27 7 -18 38 19
65 15 12 32 33 37 48 12 32 37 35 50 5z m2562 0 c20 -21 25 -39 28 -98 3 -51
9 -75 21 -84 15 -11 15 -12 0 -13 -16 0 -36 -46 -25 -57 5 -6 -16 -27 -72 -70
-33 -27 -45 -31 -64 -24 -29 12 -70 56 -60 65 4 4 7 31 7 59 0 84 86 245 131
247 6 0 21 -11 34 -25z m-15014 -11 c8 -31 -4 -124 -18 -141 -6 -7 -19 -13
-29 -13 -13 0 -19 -7 -19 -22 0 -13 -9 -38 -20 -56 -11 -18 -20 -41 -20 -51 0
-13 -10 -20 -32 -24 -18 -3 -41 -8 -50 -12 -13 -5 -15 -2 -11 14 4 15 1 21
-11 21 -15 0 -15 3 -1 37 9 21 22 41 30 46 27 15 65 93 65 132 0 49 40 95 82
95 21 0 29 -6 34 -26z m8651 20 c25 -7 26 -40 3 -84 -24 -46 -45 -51 -62 -15
-15 34 -21 32 -38 -17 -12 -34 -21 -44 -49 -52 -30 -8 -36 -7 -52 13 -26 32
-24 51 11 89 29 32 30 32 66 17 37 -15 54 -13 54 7 0 12 29 48 39 48 3 0 16
-3 28 -6z m4290 -23 c31 -29 37 -103 13 -152 -17 -32 -19 -46 -11 -75 10 -36
0 -84 -18 -84 -4 0 -14 7 -21 15 -8 9 -21 13 -32 9 -29 -9 -48 23 -46 76 1 29
-5 55 -17 73 -23 36 -15 114 16 140 28 23 90 22 116 -2z m-1922 -125 c39 -28
12 -166 -32 -166 -36 0 -96 25 -114 48 -28 36 -24 65 13 93 57 42 99 50 133
25z m-11620 -257 c-4 -5 3 -9 14 -9 18 0 33 -14 71 -69 8 -11 21 -22 30 -22
11 -1 11 -2 -2 -6 -29 -7 -21 -21 30 -50 53 -30 53 -30 33 -118 -6 -27 -14
-66 -17 -85 -4 -19 -14 -43 -22 -53 -21 -23 -70 -47 -99 -47 -12 0 -23 -4 -23
-10 0 -5 -4 -10 -10 -10 -5 0 -10 9 -10 19 0 11 -9 22 -20 26 -11 3 -29 19
-40 36 -13 18 -30 29 -45 29 -15 0 -25 7 -28 21 -3 11 -15 23 -27 26 -20 5
-21 10 -16 46 6 33 3 44 -15 63 -13 13 -17 24 -11 24 7 0 12 9 12 20 0 32 22
70 42 70 11 0 18 7 18 20 0 29 19 65 43 79 15 10 22 11 25 2 6 -17 52 -14 52
5 0 8 5 12 10 9 6 -4 8 -11 5 -16z m16123 -151 c22 -22 13 -68 -19 -110 -26
-32 -36 -38 -56 -33 -15 3 -34 0 -48 -9 -27 -18 -95 -32 -95 -20 0 17 18 36
27 31 6 -4 16 6 23 21 7 15 16 34 20 42 4 8 16 14 26 13 69 -9 68 -10 82 35
15 45 21 49 40 30z m-14772 -70 c-4 -18 -11 -35 -16 -36 -6 -2 -17 -10 -24
-18 -8 -8 -19 -14 -25 -14 -15 0 -14 -17 1 -26 7 -5 40 -9 73 -10 94 -2 108
-9 126 -59 13 -36 14 -49 4 -79 -18 -51 -29 -62 -80 -76 -74 -21 -175 7 -175
49 0 6 -8 23 -17 37 -23 36 -19 139 8 167 10 11 19 25 19 30 0 5 9 22 21 38
16 23 28 29 56 29 35 0 35 -1 29 -32z m5384 -183 c36 -19 53 -49 44 -78 -17
-56 -65 -77 -119 -51 -31 14 -35 21 -35 54 0 43 32 90 61 90 11 0 33 -7 49
-15z m-7163 -23 c7 -12 8 -34 3 -63 -6 -30 -5 -46 3 -51 7 -4 14 -3 15 2 5 13
42 13 42 0 0 -5 -9 -10 -19 -10 -11 0 -23 -5 -26 -11 -4 -6 -19 -7 -36 -4 -22
5 -29 3 -29 -9 0 -9 -4 -16 -10 -16 -5 0 -10 5 -10 10 0 6 -8 10 -18 10 -27 0
-42 20 -42 58 0 27 8 42 37 68 41 38 72 43 90 16z m13461 -71 c12 -11 22 -26
22 -35 0 -9 4 -16 8 -16 11 0 32 -103 22 -113 -13 -14 0 -45 21 -50 21 -6 27
-51 9 -62 -6 -4 -8 -14 -5 -24 4 -14 -1 -17 -32 -16 -21 1 -48 7 -60 13 -23
13 -49 12 -71 -2 -10 -6 -13 -3 -11 10 1 11 -1 31 -5 45 -5 19 -1 39 13 67 22
44 33 136 19 164 -6 12 -3 20 9 27 25 14 35 13 61 -8z m-3914 -35 c23 -10 37
-25 48 -52 20 -51 31 -118 23 -143 -7 -23 -38 -20 -101 10 -32 15 -45 29 -57
62 -26 70 -25 88 5 117 26 24 38 25 82 6z m-4387 -27 c25 -16 32 -26 27 -38
-4 -9 -10 -39 -13 -67 -8 -57 -26 -81 -69 -90 -25 -5 -32 -1 -51 29 -32 52
-28 92 17 142 20 24 41 44 46 44 5 1 24 -9 43 -20z m890 -95 c-3 -4 8 -20 25
-38 41 -40 66 -99 69 -159 3 -54 -7 -67 -54 -67 -37 0 -121 64 -142 108 -22
44 -13 95 22 122 14 11 32 20 39 20 8 0 14 5 14 10 0 6 8 10 17 10 9 0 14 -3
10 -6z m-1894 -75 c43 -12 54 -25 72 -82 9 -29 23 -65 31 -80 11 -20 13 -32 5
-40 -5 -7 -8 -22 -5 -34 7 -27 -17 -35 -76 -25 -43 7 -45 9 -45 40 -1 18 -7
37 -15 42 -11 7 -15 29 -16 74 0 37 -6 72 -13 80 -18 21 -6 50 17 41 9 -4 30
-11 45 -16z m4937 -105 c11 -25 23 -64 26 -87 4 -23 11 -49 15 -59 7 -12 -1
-25 -31 -52 l-40 -36 -41 20 c-46 24 -56 45 -65 132 -5 55 -3 67 15 90 20 25
39 33 84 37 12 1 24 -13 37 -45z m-9673 11 c8 -13 12 -13 37 0 16 9 37 13 48
9 15 -5 18 -12 12 -42 -9 -52 -50 -94 -89 -90 -25 2 -31 8 -35 33 -5 26 -9 30
-33 27 -43 -5 -31 40 18 66 27 15 33 15 42 -3z m13936 -145 c45 0 66 -28 69
-88 2 -50 -24 -86 -51 -72 -9 5 -42 12 -73 15 -51 6 -58 9 -58 28 -1 12 -6 38
-13 57 -7 19 -11 43 -9 52 5 25 62 39 83 22 8 -8 32 -14 52 -14z m-1205 -82
c5 -7 12 -44 15 -83 3 -38 8 -79 12 -90 5 -17 -2 -26 -31 -45 -22 -14 -41 -36
-44 -50 -8 -36 -121 -93 -136 -68 -6 10 6 85 28 178 6 25 20 55 32 66 12 12
36 40 54 63 35 43 52 50 70 29z m1936 -74 c0 -51 -4 -68 -17 -76 -21 -11 -22
-28 -3 -28 24 0 29 -19 13 -44 -9 -13 -18 -38 -22 -57 -8 -44 -30 -73 -49 -66
-17 7 -41 -17 -32 -32 3 -5 -3 -7 -14 -4 -24 6 -25 11 -6 32 7 9 16 28 20 43
5 22 3 25 -14 21 -11 -3 -31 2 -44 10 -13 9 -33 13 -45 10 -21 -5 -22 -3 -17
46 6 68 30 88 97 84 42 -2 50 1 60 20 7 12 22 31 34 43 16 15 21 29 18 48 -4
19 -2 25 8 21 10 -4 14 -24 13 -71z m885 2 c9 -11 8 -23 -3 -51 -17 -39 -14
-55 10 -55 9 0 14 10 14 27 0 19 3 24 11 16 14 -14 7 -59 -9 -55 -6 1 -12 -6
-12 -15 0 -13 -3 -14 -12 -5 -17 17 -39 15 -32 -3 4 -8 12 -15 19 -15 21 0 29
-22 12 -31 -8 -5 -18 -23 -22 -39 -5 -24 -12 -30 -34 -30 -22 0 -29 7 -39 33
-15 43 -15 47 4 47 8 0 13 4 9 9 -3 5 2 16 10 25 9 9 18 24 20 33 2 10 8 30
14 45 12 33 5 58 -18 59 -12 0 -12 2 4 9 29 13 41 12 54 -4z m-15763 -34 c14
-9 35 -72 24 -72 -5 0 -11 -8 -15 -18 -6 -22 -47 -43 -91 -48 -27 -4 -33 -1
-38 22 -10 40 2 81 31 104 26 20 69 26 89 12z m11510 -70 c20 -13 64 -107 66
-142 4 -47 -19 -50 -65 -5 -20 19 -45 35 -57 35 -16 0 -20 6 -20 31 0 46 27
89 55 89 6 0 15 -4 21 -8z m-5753 -69 c95 -81 88 -77 94 -54 3 12 14 22 24 23
53 4 54 4 54 -30 1 -29 -3 -34 -28 -39 -16 -3 -31 -12 -34 -19 -3 -8 -11 -14
-19 -14 -8 0 -14 -7 -14 -16 0 -11 6 -15 20 -11 14 3 24 -1 31 -14 5 -11 31
-30 55 -42 54 -26 88 -72 64 -87 -8 -5 -18 -6 -22 -4 -4 3 -8 1 -8 -4 0 -5 -3
-23 -6 -40 -5 -25 -2 -31 17 -38 l24 -8 -25 -7 c-51 -15 -70 -11 -70 15 0 14
-10 30 -23 38 -27 19 -67 96 -67 132 0 22 -7 30 -37 43 -21 9 -46 16 -55 15
-33 -2 -58 50 -58 120 0 93 13 99 83 41z m8187 27 c0 -5 6 -10 14 -10 7 0 25
-11 40 -25 15 -14 38 -25 52 -25 33 0 32 -36 -3 -79 -44 -53 -76 -65 -134 -50
-48 13 -50 14 -65 66 -16 54 -13 73 11 73 7 0 23 14 35 30 21 29 50 41 50 20z
m-190 -35 c11 4 17 1 17 -7 -1 -7 4 -45 11 -85 13 -69 13 -72 -9 -97 -17 -19
-25 -23 -31 -14 -11 19 -40 -1 -58 -40 -9 -19 -23 -32 -34 -32 -14 0 -16 3 -7
14 21 26 14 136 -10 136 -5 0 -9 10 -9 23 0 51 99 152 108 110 2 -8 11 -12 22
-8z m-189 -121 c8 -43 -9 -123 -33 -152 -7 -8 -13 -27 -13 -41 0 -16 -8 -29
-22 -36 l-21 -11 23 -22 c27 -26 34 -27 50 -5 32 44 70 -47 43 -104 -11 -23
-20 -28 -53 -29 -22 -1 -53 -7 -68 -13 -35 -14 -57 -14 -57 -1 0 6 -11 28 -25
50 -27 43 -26 79 3 113 12 14 13 20 4 26 -13 8 -11 179 3 200 3 6 19 18 36 26
16 9 29 21 29 29 0 12 27 29 60 39 19 5 31 -16 41 -69z m-13693 35 c19 -17 22
-29 19 -70 -3 -35 -11 -56 -26 -70 -11 -11 -21 -24 -21 -29 0 -14 -52 -12 -72
4 -10 7 -14 16 -8 22 5 5 3 25 -5 48 -15 43 -12 48 49 94 37 27 37 27 64 1z
m16570 -175 c29 -45 23 -95 -16 -139 -47 -52 -112 -68 -112 -27 0 8 -7 23 -16
33 -13 14 -13 24 -4 58 6 22 20 45 30 51 11 6 27 26 35 45 13 32 16 34 37 25
13 -6 33 -27 46 -46z m-339 5 c-20 -15 -21 -19 -8 -24 9 -3 24 -24 34 -45 16
-35 16 -40 1 -61 -9 -13 -16 -38 -16 -55 0 -32 -22 -60 -38 -50 -5 3 -12 -12
-16 -34 -5 -30 -12 -43 -30 -50 -13 -5 -27 -14 -31 -19 -3 -6 -13 -11 -21 -11
-12 0 -13 4 -4 21 15 27 7 34 -15 13 -9 -9 -14 -25 -12 -35 3 -12 0 -16 -9
-12 -18 7 -18 37 2 102 11 39 23 57 47 71 40 25 48 47 30 83 -15 30 -10 49 11
41 7 -3 16 3 19 13 4 10 11 25 16 33 5 8 12 23 15 32 3 11 12 15 27 11 l22 -6
-24 -18z m-15963 -29 c14 0 17 -17 14 -85 -2 -49 -15 -75 -37 -75 -9 0 -24 -7
-33 -15 -24 -21 -40 -12 -73 40 -38 59 -28 79 78 151 28 19 30 19 33 2 2 -10
10 -18 18 -18z m954 -5 c6 -17 17 -25 33 -25 37 0 73 -35 107 -104 19 -38 40
-66 51 -69 22 -6 26 -27 4 -27 -10 0 -15 -11 -15 -35 0 -19 5 -35 10 -35 6 0
10 -9 10 -20 0 -13 -7 -20 -19 -20 -11 0 -38 -16 -61 -35 -40 -34 -44 -35
-113 -31 -46 3 -75 9 -82 19 -5 8 -21 17 -33 22 -32 10 -62 77 -62 142 0 48
10 84 45 153 7 14 11 31 9 38 -1 7 0 8 3 2 10 -20 31 -10 42 20 13 40 57 43
71 5z m9345 -25 c19 0 19 -30 0 -57 -14 -19 -14 -27 -2 -55 13 -30 71 -88 88
-88 11 0 29 -53 30 -85 0 -17 -9 -70 -20 -120 -11 -49 -21 -91 -21 -91 0 -1
-12 -5 -27 -9 -15 -3 -39 -15 -54 -26 -15 -10 -39 -19 -52 -19 -34 0 -57 -34
-57 -82 0 -31 5 -41 24 -49 30 -14 38 -42 20 -66 -19 -26 -17 -50 6 -56 11 -3
20 -12 20 -21 0 -21 -16 -20 -29 2 -6 9 -11 13 -11 9 0 -17 -40 15 -40 33 0
11 -9 24 -21 30 -19 11 -19 13 -5 29 23 25 20 33 -18 73 -44 45 -67 134 -45
174 13 25 12 28 -24 58 -20 17 -37 38 -37 46 0 8 -10 31 -22 50 -30 49 -30 85
-2 157 39 101 148 192 212 179 15 -3 34 -2 42 4 10 6 17 5 23 -5 4 -8 15 -15
22 -15z m-5576 -40 c12 -21 27 -40 33 -42 9 -3 9 -14 2 -39 -8 -30 -14 -34
-46 -37 -61 -5 -74 8 -81 84 -4 37 -5 70 -2 73 2 4 19 5 38 3 28 -3 39 -12 56
-42z m1307 -153 c21 -19 45 -32 53 -29 10 3 12 -1 8 -18 -3 -13 -2 -31 3 -40
10 -20 -8 -92 -22 -84 -4 3 -8 -4 -8 -15 0 -17 -4 -19 -30 -11 -63 18 -130
132 -97 165 17 16 37 2 37 -27 0 -10 7 -18 15 -18 8 0 20 -9 27 -20 7 -11 16
-20 20 -20 16 0 7 33 -19 68 -35 46 -55 63 -70 57 -7 -2 -10 2 -6 11 9 24 47
16 89 -19z m7844 -18 c4 -14 13 -23 23 -23 21 2 21 -10 0 -42 -66 -102 -127
-97 -121 8 3 46 6 53 25 56 12 2 27 10 34 18 16 20 32 13 39 -17z m-1398 -13
c27 -39 -7 -119 -57 -140 -22 -10 -35 -22 -35 -34 0 -32 -39 -65 -68 -57 -33
8 -82 43 -82 58 0 7 -7 4 -15 -6 -13 -18 -14 -18 -25 3 -15 27 -5 37 40 43 19
3 37 6 39 6 2 1 -2 8 -9 16 -11 13 -5 18 34 35 25 12 57 35 70 53 21 27 32 33
63 33 21 0 41 -4 45 -10z m-12791 -158 c1 -7 1 -19 0 -25 -1 -7 8 -26 20 -42
21 -28 21 -31 5 -55 -21 -33 -20 -48 2 -44 12 2 17 -4 17 -22 0 -18 -9 -29
-33 -42 -21 -10 -42 -32 -54 -57 -11 -23 -24 -41 -28 -41 -5 0 -18 13 -29 29
-28 39 -27 104 3 167 12 27 31 70 41 97 12 33 23 47 36 47 11 0 20 -6 20 -12z
m17186 -103 c32 -22 36 -59 13 -105 -12 -23 -30 -50 -40 -60 -20 -20 -20 -20
0 -57 24 -45 24 -52 5 -89 -8 -16 -15 -39 -15 -50 0 -16 -12 -28 -45 -43 -90
-42 -135 -19 -135 70 0 56 27 100 88 144 41 29 42 31 37 77 -5 40 -1 54 21 88
29 44 39 47 71 25z m-14315 -14 c27 -22 55 -114 45 -152 -3 -13 -10 -40 -14
-59 -12 -47 -51 -67 -95 -49 -39 16 -113 116 -122 164 -8 40 5 65 33 65 10 0
32 11 51 25 41 30 69 32 102 6z m9592 -7 c9 -3 16 -15 16 -26 0 -11 5 -29 11
-41 17 -31 21 -120 6 -140 -10 -14 -17 -15 -47 -4 -19 7 -42 17 -51 22 -18 12
-34 101 -19 110 6 3 10 13 10 22 0 17 37 63 51 63 4 0 14 -3 23 -6z m-795
-141 c8 -4 7 -69 -1 -85 -5 -10 -27 -22 -49 -28 -39 -11 -43 -10 -69 15 -35
34 -44 72 -19 85 25 14 39 12 39 -5 0 -20 12 -19 38 4 26 22 29 41 6 41 -8 0
-12 5 -9 11 5 7 17 2 34 -13 14 -13 28 -24 30 -25z m-5944 15 c24 -16 45 -43
66 -88 l31 -64 -27 -53 c-30 -60 -28 -58 -78 -67 -34 -6 -41 -4 -68 25 -16 17
-27 34 -24 37 3 3 -2 13 -10 22 -13 14 -13 26 3 99 17 78 27 94 70 110 1 1 18
-9 37 -21z m-919 -119 c33 -20 64 -68 64 -98 0 -9 7 -29 15 -45 19 -36 19 -72
1 -79 -34 -13 -73 6 -128 64 -63 64 -75 102 -37 114 11 4 18 12 16 18 -4 11
20 47 31 47 2 0 20 -9 38 -21z m-3808 -21 c22 -19 7 -86 -26 -115 -33 -28 -56
-29 -83 -2 -30 30 -24 108 11 127 27 14 75 9 98 -10z m15672 -86 c16 -58 12
-82 -15 -104 -14 -11 -25 -26 -25 -33 0 -8 -13 -23 -30 -35 l-30 -21 -29 20
c-15 11 -31 18 -35 14 -19 -19 11 136 36 184 7 15 22 23 47 25 50 5 69 -7 81
-50z m-8902 -115 c31 -20 30 -107 -1 -107 -8 0 -20 -7 -27 -15 -30 -36 -90 3
-90 58 0 51 22 75 68 72 22 -1 44 -5 50 -8z m8037 -137 c5 -8 11 -7 21 1 12 9
20 9 39 -1 21 -11 23 -19 21 -64 -3 -44 0 -54 20 -69 14 -10 25 -13 29 -7 8
14 86 1 107 -17 9 -9 20 -35 24 -59 3 -24 15 -56 26 -69 28 -36 47 -120 59
-255 23 -260 23 -237 -3 -263 -20 -20 -78 -113 -123 -196 -7 -13 -24 -31 -38
-39 -25 -15 -28 -15 -55 5 -18 14 -37 19 -54 16 -29 -6 -94 38 -104 70 -7 23
-29 22 -45 -4 l-14 -21 -27 21 c-38 31 -48 26 -48 -21 0 -41 -2 -44 -48 -66
-63 -30 -85 -26 -117 23 -23 36 -25 46 -19 100 8 74 13 82 84 126 l58 37 0 68
c0 38 1 81 3 95 1 16 -9 40 -24 61 -15 20 -27 48 -27 65 0 34 39 77 62 68 20
-8 75 50 84 89 9 45 32 86 48 86 17 0 40 45 32 65 -11 29 4 65 28 66 14 0 16
2 6 6 -30 11 -50 37 -50 65 0 21 5 28 19 28 11 0 23 -5 26 -10z m-4352 -26
c-1 -10 -5 -33 -9 -51 -6 -33 11 -63 36 -63 6 0 10 -6 7 -12 -2 -7 -15 -13
-30 -13 -14 0 -29 -3 -33 -7 -4 -5 -2 -8 5 -8 7 0 10 -4 7 -9 -8 -12 3 -41 15
-41 5 0 9 6 9 13 1 14 83 55 120 59 24 3 25 0 25 -47 0 -43 -3 -51 -25 -62
-17 -8 -28 -9 -37 -1 -7 6 -28 7 -46 4 -18 -3 -37 -3 -41 1 -8 8 -13 9 -42 12
-10 1 -14 7 -10 17 3 8 0 27 -8 42 -10 20 -12 40 -5 77 4 28 8 55 8 60 1 17
35 55 46 51 6 -2 9 -12 8 -22z m-2579 -86 c-3 -4 1 -5 9 -2 25 9 29 -42 10
-102 -19 -56 -36 -65 -41 -23 -4 26 -27 49 -50 49 -9 0 -13 -7 -9 -19 6 -25
-10 -51 -33 -51 -10 0 -28 12 -39 26 -17 21 -18 30 -9 48 17 32 18 32 14 -2
-3 -26 0 -32 15 -32 17 0 26 27 20 62 0 4 13 15 29 23 17 9 30 21 30 28 0 7 8
23 17 37 l17 24 12 -30 c7 -16 10 -32 8 -36z m8045 8 c12 -26 12 -36 0 -70
-14 -41 -14 -41 -59 -37 -25 1 -47 4 -48 6 -2 2 -6 21 -9 42 -11 80 83 127
116 59z m-9804 -31 c22 -44 44 -66 70 -73 19 -6 31 -18 40 -45 10 -31 10 -37
-1 -37 -7 0 -22 12 -31 27 -17 26 -60 73 -67 73 -2 0 -1 -10 1 -22 2 -13 -1
-30 -6 -38 -8 -12 -18 -7 -58 26 -58 50 -67 84 -26 101 39 16 66 11 78 -12z
m-3295 -19 c0 -7 11 -21 25 -30 32 -21 105 -134 105 -162 0 -33 -10 -54 -26
-54 -8 0 -14 4 -14 9 0 5 -16 16 -36 26 -20 9 -54 33 -75 53 -32 30 -37 41
-33 66 11 61 54 135 54 92z m280 -124 c51 -62 35 -112 -35 -109 -29 2 -74 40
-75 63 0 7 -7 15 -16 18 -13 5 -11 11 10 39 34 44 74 40 116 -11z m-3315 12
c9 -9 42 -27 73 -40 53 -21 57 -25 60 -58 3 -32 1 -36 -20 -36 -29 0 -45 -13
-82 -62 -25 -35 -31 -38 -77 -38 -68 0 -99 32 -99 102 0 67 22 105 73 128 53
23 52 23 72 4z m2200 2 c18 -8 37 -11 40 -8 4 4 5 -18 2 -48 -5 -48 -2 -60 20
-92 25 -36 25 -39 9 -63 -25 -38 -60 -31 -64 13 -2 17 1 32 6 32 5 0 6 14 4
31 -4 30 -6 31 -43 26 -31 -4 -43 0 -64 19 -31 29 -33 68 -3 88 28 20 49 20
93 2z m9082 -10 c4 -7 30 -28 58 -45 52 -33 63 -49 64 -92 1 -19 -7 -29 -34
-42 -32 -15 -39 -15 -71 -2 -19 8 -42 28 -52 45 -9 16 -24 30 -34 30 -12 0
-16 9 -15 38 3 58 62 107 84 68z m-2423 -20 c15 6 66 -60 66 -85 0 -15 -47
-90 -65 -103 -5 -4 -28 -8 -49 -8 -59 0 -86 30 -86 94 1 54 9 71 50 97 17 12
32 14 47 8 13 -5 29 -6 37 -3z m-5273 -79 c-17 -43 9 -87 50 -87 5 0 9 9 9 20
0 29 23 110 31 110 4 0 14 -7 23 -15 8 -8 24 -15 36 -15 12 0 31 -5 43 -11 16
-9 22 -9 25 0 6 18 23 13 20 -6 -2 -10 6 -22 17 -27 23 -10 75 -80 75 -100 0
-7 7 -31 16 -52 36 -84 8 -219 -55 -263 -36 -26 -58 -19 -103 32 -14 17 -35
31 -46 32 -10 0 -31 11 -47 23 -15 12 -34 22 -42 22 -24 0 -77 71 -95 127 -22
71 -11 219 18 240 24 18 37 2 25 -30z m-3861 -2 c34 -41 17 -265 -20 -265 -10
0 -23 -7 -30 -15 -15 -17 -46 -20 -56 -4 -3 6 -15 9 -25 6 -16 -4 -19 1 -20
31 -3 140 8 187 56 235 31 30 75 36 95 12z m8123 -75 c28 -29 29 -50 2 -50
-24 0 -28 -21 -7 -43 48 -51 53 -108 15 -167 -28 -43 -103 -87 -125 -74 -22
14 -35 66 -27 113 4 25 4 66 -1 90 -6 32 -4 44 6 48 8 3 14 9 14 14 0 8 81 98
90 99 3 0 18 -13 33 -30z m2800 -153 c51 -22 62 -41 47 -79 -8 -18 -20 -41
-28 -51 -8 -9 -20 -27 -26 -40 -10 -19 -20 -22 -87 -25 -89 -3 -114 11 -122
70 -4 27 -1 42 14 59 10 12 19 25 19 29 0 12 93 49 123 50 15 0 42 -6 60 -13z
m1541 -93 c3 -9 6 -26 6 -38 0 -12 5 -27 11 -33 8 -8 6 -20 -7 -43 -18 -30
-18 -32 -1 -41 19 -11 23 -39 6 -56 -6 -6 -9 -21 -7 -34 2 -19 9 -24 30 -23
15 1 26 -2 26 -5 -1 -3 2 -17 6 -30 8 -23 10 -22 31 23 13 26 32 54 43 62 17
12 22 11 37 -6 16 -18 16 -18 -7 -13 -15 3 -19 2 -11 -4 13 -9 17 -31 15 -70
-1 -12 -17 -38 -36 -58 -23 -24 -32 -42 -29 -55 3 -11 1 -26 -5 -33 -9 -11 1
-57 12 -57 3 0 19 14 36 30 36 35 56 38 65 10 10 -30 18 -25 38 25 11 25 25
45 33 45 20 0 17 -26 -8 -77 -16 -32 -30 -45 -52 -51 -21 -6 -32 -15 -34 -30
-2 -12 -8 -22 -14 -22 -6 0 -19 -6 -27 -14 -26 -22 -71 -29 -71 -11 0 8 -8 15
-19 15 -19 0 -21 -3 -44 -75 -12 -39 -33 -53 -63 -41 -16 6 -6 31 31 74 16 19
17 25 5 32 -18 11 2 37 33 42 15 2 22 10 23 28 1 14 5 33 9 42 5 13 2 15 -15
11 -20 -5 -21 -4 -11 15 7 13 7 23 1 27 -5 3 -7 12 -3 20 4 11 -3 15 -25 15
-17 0 -32 -6 -35 -12 -3 -12 21 -54 50 -86 17 -18 4 -43 -20 -40 -14 2 -23 -3
-25 -15 -2 -11 -15 -35 -28 -54 -17 -25 -24 -48 -22 -78 1 -37 -4 -46 -42 -83
-35 -33 -41 -44 -31 -55 9 -12 7 -16 -15 -21 -35 -9 -44 1 -49 55 -3 24 -5 49
-6 54 -4 32 11 186 20 203 15 28 14 31 -11 42 l-23 9 23 7 c20 6 23 12 18 36
-3 16 0 41 8 56 14 28 14 62 2 100 -8 23 -8 23 -24 3 -10 -11 -25 -32 -35 -46
-17 -24 -20 -25 -36 -11 -10 9 -21 13 -24 9 -4 -3 -7 5 -7 18 0 14 9 32 21 42
13 12 18 24 14 37 -7 23 6 26 35 8 30 -19 68 7 97 64 13 26 44 64 68 85 34 28
45 44 45 65 0 30 14 38 24 12z m-644 -9 c0 -23 -31 -107 -49 -132 -24 -33 -76
-46 -113 -27 -26 13 -29 19 -23 47 11 51 33 66 100 69 59 3 60 4 57 31 -3 19
1 27 12 27 9 0 16 -7 16 -15z m-3229 -88 c15 -12 29 -35 33 -50 5 -23 11 -27
29 -23 12 3 16 3 10 0 -10 -4 -10 -10 2 -27 17 -24 20 -67 5 -67 -5 0 -10 -7
-10 -15 0 -22 -41 -34 -102 -31 -57 4 -87 13 -89 27 -2 10 -2 11 -13 49 -9 32
15 100 39 114 11 6 28 19 39 29 25 21 25 21 57 -6z m-461 -9 c12 -13 28 -30
36 -40 21 -22 15 -64 -8 -60 -12 2 -16 -2 -12 -11 3 -10 -4 -13 -31 -12 -36 1
-74 33 -75 62 0 7 -8 16 -17 22 -20 11 -21 9 32 38 51 27 51 27 75 1z m-5796
-104 c26 -27 35 -75 18 -102 -14 -22 -74 -25 -112 -5 -38 20 -44 40 -23 85 25
53 76 63 117 22z m7196 5 c0 -5 14 -27 30 -48 26 -31 29 -42 21 -62 -5 -13
-10 -18 -10 -11 -1 6 -13 12 -28 12 l-28 -1 30 -24 30 -25 -42 0 c-35 0 -49 7
-87 42 -42 37 -45 43 -31 58 8 9 15 22 15 28 0 21 32 42 66 42 19 0 34 -5 34
-11z m-574 -5 c14 -4 25 -19 34 -47 6 -23 16 -50 21 -60 13 -25 -6 -56 -44
-71 -39 -16 -117 -9 -117 9 0 7 -7 16 -16 19 -9 3 -14 15 -13 28 2 13 0 29 -4
35 -10 17 19 66 47 80 24 12 62 15 92 7z m7954 -44 c27 -27 34 -64 18 -96 -17
-36 -39 -48 -71 -40 -51 12 -80 101 -47 141 18 22 76 19 100 -5z m-5958 -73
c5 -36 45 -34 77 4 20 24 32 31 46 26 10 -4 15 -10 12 -14 -4 -3 3 -17 13 -31
23 -29 26 -46 7 -39 -8 3 -20 1 -28 -4 -11 -6 -8 -9 9 -9 13 0 30 -7 39 -15 9
-10 23 -13 35 -9 14 4 18 2 14 -5 -4 -6 -36 -11 -75 -11 -49 0 -72 -4 -81 -15
-7 -8 -20 -15 -30 -15 -16 0 -40 -37 -40 -62 0 -6 -11 -26 -25 -44 -14 -18
-25 -35 -25 -37 0 -3 11 -8 25 -11 14 -4 25 -12 25 -19 0 -8 -11 -24 -25 -37
-14 -13 -25 -29 -25 -35 0 -6 -10 -16 -22 -22 -27 -13 -122 -43 -136 -43 -12
0 -21 80 -9 87 4 2 -3 20 -17 38 -31 40 -32 45 -7 45 12 0 23 12 32 33 7 17
17 35 22 38 17 12 -3 107 -28 131 -27 26 -24 38 9 38 32 0 113 37 119 54 7 17
56 26 74 13 6 -5 13 -18 15 -30z m5122 -54 c-10 -95 -17 -118 -40 -121 -27 -4
-49 24 -62 78 -13 54 4 90 43 90 13 0 27 5 30 10 3 6 13 10 21 10 12 0 13 -12
8 -67z m-6571 -163 c4 0 7 -7 7 -15 0 -8 5 -15 10 -15 17 0 -19 -74 -45 -93
-14 -10 -23 -22 -20 -27 11 -18 -45 -2 -73 21 -35 28 -44 70 -24 111 12 26 16
27 75 23 34 -2 65 -5 70 -5z m-3311 -124 c15 -12 47 -36 72 -55 25 -18 46 -37
46 -42 0 -5 -12 -15 -27 -23 -16 -8 -35 -24 -43 -35 -8 -12 -20 -21 -27 -21
-7 0 -13 -4 -13 -10 0 -36 -130 34 -130 70 0 8 -7 24 -15 34 -30 40 -6 96 41
96 13 0 25 4 29 10 7 12 32 3 67 -24z m2555 -12 l48 -46 -27 -22 c-16 -12 -28
-25 -28 -29 0 -13 20 -7 39 12 17 17 22 17 31 6 9 -11 7 -20 -7 -39 -10 -14
-23 -26 -29 -26 -12 0 -54 46 -54 60 0 6 -6 10 -14 10 -9 0 -12 -7 -9 -20 3
-11 1 -20 -5 -20 -13 0 -37 68 -34 95 4 26 23 65 34 65 4 0 29 -21 55 -46z
m3359 -29 c3 -14 3 -38 -1 -53 -4 -15 -7 -44 -7 -64 0 -34 -5 -41 -49 -70 -48
-31 -89 -43 -89 -26 0 4 6 8 13 9 9 0 9 2 -1 6 -9 4 -6 14 13 39 14 19 21 34
16 34 -6 0 -11 -4 -11 -10 0 -5 -8 -9 -17 -8 -36 3 -54 -2 -52 -14 3 -29 -2
-38 -24 -38 -13 0 -28 -5 -34 -11 -6 -6 -26 -9 -44 -7 -29 2 -34 7 -34 28 0
17 -6 26 -20 28 -31 6 -39 19 -16 27 33 10 25 28 -9 20 l-30 -7 16 36 c10 19
21 33 25 31 4 -3 23 2 42 10 23 9 38 11 42 5 8 -13 55 -13 75 0 10 6 22 3 39
-13 l24 -22 -12 22 c-13 25 -14 34 -3 31 4 -2 17 6 30 18 15 14 37 21 67 22
40 2 45 0 51 -23z m4905 -74 c13 -10 34 -21 47 -25 20 -7 22 -13 22 -80 0 -63
5 -82 36 -145 35 -71 36 -75 35 -186 -1 -95 -6 -129 -32 -216 -47 -160 -81
-201 -197 -238 -81 -26 -117 -16 -172 47 -63 70 -81 114 -88 204 -6 94 19 252
50 315 11 23 40 61 64 85 31 30 46 56 54 89 7 26 21 56 32 66 11 10 29 34 39
55 27 52 67 63 110 29z m-15336 -38 c11 -14 28 -33 38 -41 9 -9 17 -29 17 -45
0 -15 7 -39 16 -52 13 -20 20 -81 15 -140 -2 -18 -45 -62 -78 -79 -63 -32
-110 -19 -177 49 -56 58 -59 92 -16 180 16 33 30 68 30 78 0 20 34 69 42 61 3
-2 16 0 29 5 39 16 63 12 84 -16z m13648 -27 c24 -18 21 -56 -8 -88 -13 -16
-27 -28 -31 -28 -4 0 -16 -8 -26 -17 -17 -15 -19 -15 -33 3 -24 32 -29 89 -10
118 14 20 25 26 54 26 20 0 44 -7 54 -14z m-15476 -135 c47 -34 88 -86 127
-160 22 -41 30 -70 31 -119 3 -85 -16 -167 -48 -200 -13 -15 -32 -43 -41 -62
-9 -19 -39 -51 -66 -70 -27 -19 -50 -38 -50 -42 0 -5 -21 -8 -47 -8 -48 0
-113 29 -113 50 0 5 -14 29 -30 53 -45 63 -66 198 -50 322 16 129 15 128 62
158 24 15 63 45 88 67 54 47 83 50 137 11z m10409 -55 c37 -37 44 -49 44 -84
0 -26 -5 -42 -15 -46 -19 -7 -20 -26 -1 -26 17 0 30 -59 16 -75 -6 -7 -24 -18
-40 -25 -24 -10 -32 -9 -54 7 -14 10 -26 24 -26 31 0 14 -32 16 -45 3 -30 -29
-123 -10 -165 34 l-33 34 24 37 c13 21 30 45 39 54 22 21 126 70 149 70 10 0
24 7 31 15 19 23 29 19 76 -29z m1893 17 c12 -16 25 -33 31 -40 5 -7 10 -19
10 -28 0 -8 9 -15 20 -15 24 0 26 -13 5 -30 -8 -7 -15 -19 -15 -27 0 -16 -15
-32 -45 -49 -24 -13 -31 -34 -11 -34 25 0 27 -17 11 -79 -8 -32 -14 -67 -13
-78 3 -39 -2 -53 -22 -53 -18 0 -30 -20 -12 -20 4 0 13 -4 21 -9 19 -12 -7
-49 -62 -88 -42 -30 -92 -50 -81 -32 3 5 1 9 -5 9 -5 0 -13 -5 -16 -10 -4 -6
-37 -9 -76 -8 -72 2 -110 -13 -79 -32 10 -6 20 -5 29 5 10 10 20 11 39 4 13
-5 46 -6 73 -3 34 5 49 3 49 -5 0 -6 -6 -12 -12 -12 -7 -1 -20 -3 -28 -4 -8
-1 -29 -3 -47 -4 -17 0 -45 -12 -61 -26 -34 -29 -42 -31 -42 -10 0 11 -8 13
-30 9 -19 -4 -30 -2 -30 5 0 6 7 11 16 11 26 0 9 25 -19 28 -15 2 -27 9 -27
16 0 17 51 63 74 68 25 4 31 22 12 41 -19 18 -10 86 13 104 9 6 16 15 17 20 0
4 4 15 8 24 10 23 2 69 -13 78 -21 13 4 22 31 12 13 -5 30 -16 37 -25 26 -31
102 -8 88 27 -3 9 0 23 8 31 29 29 7 66 -26 45 -8 -5 -23 -6 -34 -3 -21 6 -65
51 -65 66 0 16 25 7 46 -17 19 -23 25 -24 48 -14 29 13 34 36 11 45 -8 4 -12
10 -9 16 3 5 14 2 24 -7 17 -16 20 -15 37 6 10 12 28 33 41 46 12 13 22 28 22
34 0 11 22 38 32 39 4 0 16 -12 27 -27z m-7929 -32 c24 -46 3 -116 -49 -169
-18 -18 -41 -32 -52 -32 -39 0 -19 150 28 202 21 24 60 23 73 -1z m279 -4 c6
-8 8 -16 5 -19 -3 -3 4 -21 15 -39 27 -44 26 -64 -1 -84 -16 -12 -19 -19 -10
-22 20 -8 14 -67 -9 -92 -32 -34 -44 -13 -47 82 -1 45 -3 98 -4 119 -2 33 14
68 32 68 4 0 13 -6 19 -13z m-901 -49 c28 -35 31 -64 9 -109 -16 -33 -33 -49
-64 -64 -24 -11 -43 -24 -43 -30 0 -21 -60 -105 -75 -105 -24 0 -29 47 -12
108 9 32 18 88 21 126 3 38 10 74 15 79 4 4 26 14 47 22 41 14 75 5 102 -27z
m12932 -6 c25 -25 27 -34 23 -78 -11 -100 -45 -127 -101 -79 -52 43 -53 116
-4 167 25 25 50 22 82 -10z m-3868 -54 c-4 -17 -2 -20 12 -15 10 4 28 10 41
13 20 5 23 3 18 -16 -3 -12 -1 -25 5 -29 6 -4 8 -23 5 -49 -5 -38 -8 -42 -33
-42 -15 0 -39 -11 -54 -25 -25 -23 -96 -45 -96 -29 0 4 7 16 17 26 17 19 5 26
-13 8 -11 -11 -44 -3 -44 10 0 5 -8 16 -17 26 -16 15 -16 17 2 30 15 11 21 11
26 2 6 -9 10 -8 14 4 4 10 22 26 41 37 19 11 34 26 34 32 0 12 29 38 42 39 3
0 4 -10 0 -22z m-8853 -244 c18 -20 31 -39 29 -42 -46 -95 -48 -98 -78 -100
-23 -2 -38 5 -59 29 -38 41 -44 76 -20 111 17 23 31 29 85 37 7 0 26 -15 43
-35z m5284 24 c15 -7 28 -20 28 -28 1 -8 3 -20 3 -27 1 -6 9 -20 19 -30 9 -11
17 -26 17 -35 0 -16 -36 -52 -62 -61 -25 -9 -22 -27 5 -28 27 -1 -46 -27 -80
-28 -29 -1 -31 29 -3 36 11 3 20 9 20 14 0 5 -9 9 -20 9 -11 0 -20 -5 -20 -11
0 -5 -5 -7 -11 -3 -8 4 -8 9 0 17 15 15 14 27 -3 21 -17 -7 -33 39 -28 83 2
23 10 34 33 43 16 7 29 19 29 26 0 17 37 18 73 2z m-2480 -23 c13 -12 12 -19
-5 -55 l-20 -40 31 -55 c34 -61 39 -96 15 -119 -21 -22 -85 -25 -92 -5 -2 5
-19 25 -38 44 -25 26 -34 44 -34 70 0 39 36 85 67 85 15 0 22 9 27 32 5 27 22
58 32 58 1 0 9 -7 17 -15z m-3260 -157 c17 -23 18 -27 2 -64 -23 -56 -43 -74
-82 -74 -75 0 -93 31 -61 107 18 43 28 55 52 62 39 10 65 1 89 -31z m6906 10
c5 -13 18 -32 30 -42 11 -11 21 -27 21 -38 0 -10 5 -18 10 -18 6 0 10 -17 10
-38 0 -41 -27 -74 -82 -101 -37 -19 -103 -7 -151 26 -50 35 -60 56 -52 109 5
37 13 48 53 78 67 48 147 60 161 24z m-769 -41 c0 -18 34 -49 43 -40 4 3 7 1
7 -5 0 -7 -4 -12 -10 -12 -14 0 -12 -19 4 -35 9 -10 12 -28 9 -59 -5 -43 -4
-46 23 -57 26 -9 27 -12 12 -23 -12 -9 -14 -16 -7 -23 8 -8 3 -16 -19 -27 -17
-9 -32 -25 -34 -37 -3 -24 -37 -33 -120 -32 -27 0 -48 -4 -48 -8 0 -5 -7 -9
-15 -9 -8 0 -15 6 -15 13 0 9 -2 9 -9 -1 -7 -12 -13 -11 -37 2 -44 24 -64 42
-64 58 0 8 -7 23 -15 34 -19 26 -19 63 3 106 17 36 71 88 91 88 6 0 28 15 48
34 41 36 58 43 116 45 25 1 37 -3 37 -12z m1080 -38 c0 -5 11 -9 24 -9 13 0
45 -9 71 -20 36 -15 46 -17 42 -6 -4 10 0 12 14 9 26 -7 33 -21 19 -38 -16
-19 -5 -100 18 -127 8 -11 9 -17 0 -26 -8 -8 -7 -17 6 -36 9 -14 16 -27 16
-30 0 -2 -18 -23 -39 -45 -35 -36 -45 -41 -85 -41 -24 0 -48 5 -51 10 -3 6
-15 10 -25 10 -10 0 -25 9 -34 21 -10 15 -20 19 -35 14 -15 -5 -30 3 -56 30
-20 19 -40 33 -45 30 -5 -3 -14 14 -20 37 -6 24 -13 49 -15 55 -5 15 28 25 70
22 61 -5 135 1 135 11 0 6 -25 10 -56 10 -34 0 -53 4 -49 10 3 6 2 10 -3 10
-6 0 -12 -7 -16 -15 -5 -13 -9 -12 -26 5 -11 11 -27 20 -35 20 -24 0 -17 18 8
22 14 2 23 11 25 25 5 37 142 77 142 42z m1015 -199 c21 -16 42 -30 46 -30 18
0 8 -22 -21 -51 -16 -17 -34 -28 -40 -24 -5 3 -19 1 -30 -5 -16 -8 -20 -8 -20
4 0 15 -101 42 -119 32 -12 -8 -41 3 -41 15 0 5 15 9 33 9 22 0 41 8 53 21 22
25 74 59 90 59 6 0 28 -13 49 -30z m3603 -113 c6 -5 12 -17 12 -28 0 -12 7
-19 19 -19 17 0 35 -31 32 -53 -1 -4 6 -10 14 -13 8 -4 24 -26 34 -50 17 -38
19 -55 11 -126 -6 -59 -13 -85 -25 -94 -11 -8 -50 -12 -111 -12 -86 1 -94 3
-94 20 0 11 -13 33 -30 50 -16 16 -31 42 -32 56 -3 45 3 106 12 117 7 10 22
64 25 95 1 8 2 22 3 31 4 31 92 49 130 26z m-1600 -44 c25 -28 29 -72 10 -133
-9 -26 -19 -40 -30 -40 -10 0 -33 -7 -52 -16 -33 -16 -35 -16 -63 5 -35 28
-41 44 -42 101 -1 69 7 87 51 109 47 23 89 14 126 -26z m-4148 -215 c11 -12
33 -23 48 -25 25 -3 26 -2 9 11 -11 8 -26 12 -35 9 -13 -4 -12 -2 2 9 16 12
26 13 49 5 22 -7 31 -7 38 4 7 11 9 11 9 -3 0 -9 -10 -24 -22 -32 -26 -19 -24
-19 20 -7 38 11 38 9 8 -44 -25 -44 -56 -65 -99 -65 -15 0 -37 -6 -48 -12 -17
-11 -23 -10 -39 10 -21 25 -60 30 -60 7 0 -8 -9 -15 -20 -15 -11 0 -23 -7 -26
-15 -8 -20 -23 -19 -46 2 -24 21 -23 29 5 37 17 5 19 8 8 15 -8 5 -20 7 -27 4
-18 -6 -27 14 -19 44 4 19 9 23 18 14 22 -22 55 -12 88 29 29 35 37 40 75 40
32 0 49 -6 64 -22z m750 -107 c0 -23 -7 -46 -16 -55 -10 -11 -12 -16 -3 -16 7
0 21 -8 32 -17 18 -17 18 -18 -20 -34 l-38 -17 32 -7 c40 -9 53 -40 26 -61
-10 -8 -28 -13 -40 -10 -34 5 -28 -13 10 -30 l32 -15 -35 7 -35 6 19 -21 c11
-11 25 -21 33 -21 7 0 13 -6 13 -14 0 -23 -65 -30 -96 -10 -25 17 -25 18 -6
28 16 9 18 13 7 23 -9 8 -15 9 -17 2 -2 -6 -12 -7 -21 -3 -13 5 -17 13 -13 28
3 13 -3 29 -17 45 -15 16 -18 25 -9 28 17 6 15 30 -3 37 -19 7 -22 87 -3 84 7
-2 14 7 16 19 2 12 12 25 23 28 10 4 19 11 19 16 0 15 22 10 35 -8 11 -15 15
-15 41 5 16 12 30 22 32 22 1 0 2 -18 2 -39z m-8556 -212 c18 -16 10 -69 -12
-85 -12 -8 -19 -21 -16 -29 8 -19 -5 -19 -30 0 -13 10 -24 11 -37 4 -28 -15
-23 -29 11 -29 25 0 30 -4 30 -26 0 -19 -8 -28 -35 -40 -19 -8 -35 -20 -35
-28 0 -20 -31 -29 -47 -13 -12 12 -10 17 11 38 37 35 33 49 -11 46 l-38 -2 -3
44 c-4 60 13 88 71 116 49 23 118 25 141 4z m7523 -11 c13 -12 23 -32 23 -44
0 -13 5 -26 10 -29 6 -4 10 -28 10 -53 -1 -26 -1 -54 0 -62 2 -21 -48 -152
-66 -171 -8 -8 -14 -20 -14 -26 0 -6 -11 -8 -23 -6 -19 4 -26 15 -35 55 -15
61 -15 161 -2 202 5 17 12 52 15 78 6 47 25 78 48 78 6 0 21 -10 34 -22z m328
-84 c33 -31 20 -47 -27 -33 l-30 8 28 -26 c18 -17 38 -26 52 -24 28 3 39 -23
19 -44 -9 -8 -35 -16 -59 -16 -24 -1 -49 -6 -55 -12 -33 -25 -103 21 -103 69
0 33 31 71 49 59 6 -3 11 0 11 8 0 9 8 13 23 10 14 -3 29 2 36 11 18 21 23 20
56 -10z m-8883 -45 c27 -15 36 -40 33 -94 -4 -73 -11 -85 -54 -85 -29 0 -46 9
-84 43 -55 51 -60 80 -21 127 25 29 30 31 68 24 23 -3 49 -10 58 -15z m11154
6 c-55 -19 -68 -35 -29 -35 18 0 33 6 37 15 7 19 30 19 48 2 7 -8 18 -12 24
-10 6 2 17 -3 24 -12 7 -8 21 -15 32 -15 25 0 34 -26 20 -63 -14 -36 -6 -50
13 -24 13 18 14 18 24 -2 9 -16 8 -22 -6 -30 -17 -9 -17 -10 0 -16 10 -5 17
-18 17 -35 0 -17 -7 -30 -17 -35 -17 -6 -17 -7 0 -20 13 -9 16 -20 11 -39 -3
-15 -2 -26 2 -25 24 4 25 -3 5 -20 -13 -11 -28 -18 -35 -15 -17 6 -40 -22 -33
-40 3 -8 1 -16 -6 -19 -6 -2 -3 -6 7 -10 10 -4 15 -3 11 3 -6 9 1 11 45 15 8
0 21 4 28 8 7 5 12 3 12 -5 0 -15 -64 -40 -100 -39 -79 2 -107 12 -138 52 -23
29 -23 29 -3 29 12 0 21 5 21 10 0 6 -8 10 -17 10 -15 0 -16 2 -3 10 8 5 10
10 5 10 -10 0 -22 24 -43 91 -14 41 -15 52 -4 46 4 -3 16 -1 27 4 19 7 19 8
-1 8 -24 1 -54 40 -54 69 0 10 -7 27 -15 38 -19 25 -19 34 3 35 10 0 12 3 5 6
-7 2 -13 9 -13 13 0 13 80 48 110 49 20 0 17 -3 -14 -14z m4935 -53 c30 -26
31 -32 32 -107 2 -86 -8 -116 -57 -167 -20 -23 -34 -28 -70 -28 -37 0 -48 5
-70 30 -62 75 -55 180 19 256 52 55 97 60 146 16z m-15788 -94 c23 -1 61 2 84
6 35 6 43 5 52 -12 11 -21 5 -79 -10 -88 -5 -3 4 -29 20 -57 31 -56 48 -117
33 -117 -8 0 -23 -30 -53 -109 -8 -19 -14 -22 -37 -16 -15 3 -47 10 -72 14
-78 14 -86 21 -81 72 1 9 -10 34 -24 55 -14 21 -23 44 -21 51 7 17 -19 120
-35 139 -6 7 -9 23 -7 36 2 18 11 24 38 29 19 3 43 4 53 2 10 -3 37 -5 60 -5z
m10789 -284 c37 -24 53 -55 46 -91 -2 -10 -10 -19 -18 -19 -8 -1 -21 -2 -27
-3 -21 -2 -15 -18 8 -24 24 -6 17 -26 -9 -26 -9 0 -52 -3 -95 -6 l-79 -5 6 70
c8 88 16 108 46 124 32 17 76 10 122 -20z m4486 -119 c7 -14 12 -43 12 -65 0
-31 -6 -43 -29 -59 -35 -25 -67 -27 -75 -5 -10 26 -7 101 6 129 16 36 70 36
86 0z m-5217 -73 c3 -43 -5 -66 -28 -88 -14 -13 -30 -24 -34 -24 -5 0 -9 -7
-9 -16 0 -10 -6 -14 -14 -11 -8 3 -17 1 -20 -6 -3 -9 -8 -8 -15 3 -15 21 -14
30 6 30 15 0 15 2 -1 19 -19 21 -12 45 18 71 9 7 16 21 16 31 0 11 7 19 16 19
11 0 14 5 10 16 -4 11 2 10 24 -6 17 -12 30 -29 31 -38z m-1452 -228 c8 -16
29 -50 47 -75 38 -52 40 -59 19 -59 -8 0 -15 -4 -15 -10 0 -5 6 -7 13 -5 14 6
38 -60 30 -81 -4 -10 -11 -9 -31 4 -14 9 -23 11 -19 5 6 -9 2 -13 -12 -13 -12
0 -21 -4 -21 -10 0 -5 9 -10 20 -10 11 0 20 5 20 11 0 5 5 7 10 4 16 -10 12
-23 -11 -36 -18 -9 -25 -7 -46 15 -13 14 -30 26 -37 26 -24 0 -49 37 -38 56 8
14 4 24 -18 45 -31 31 -46 98 -30 129 15 28 60 49 85 40 11 -4 26 -20 34 -36z
m-2769 -269 c21 -11 30 -24 32 -43 0 -15 2 -34 3 -42 2 -23 -6 -34 -15 -20 -4
7 -15 10 -23 7 -16 -6 -13 -34 9 -71 11 -19 13 -19 39 -2 29 19 43 16 23 -5
-7 -8 -13 -21 -13 -29 0 -11 -14 -16 -52 -18 -34 -2 -53 1 -53 8 0 6 -4 9 -9
6 -4 -3 -17 1 -27 9 -17 13 -18 14 -1 15 18 0 24 25 7 35 -5 3 -10 17 -10 30
0 13 -4 27 -10 30 -18 11 -11 52 15 79 28 30 44 32 85 11z m8004 -178 c18 -25
21 -42 21 -134 0 -98 -2 -106 -24 -124 -50 -41 -131 -12 -169 61 -18 36 -22
57 -18 101 6 91 46 131 125 126 35 -1 48 -8 65 -30z m-10184 -168 c14 -11 32
-22 41 -25 19 -7 42 -51 34 -65 -4 -5 -1 -9 4 -9 6 0 11 -4 11 -10 0 -5 -7
-10 -16 -10 -13 0 -14 -3 -4 -15 10 -12 9 -20 -4 -40 -18 -27 -32 -32 -38 -14
-3 8 -16 8 -46 -1 -23 -7 -39 -17 -36 -21 6 -11 1 -11 -20 -3 -9 3 -16 12 -16
20 0 8 -4 14 -9 14 -5 0 -12 17 -16 39 -6 38 16 130 38 159 12 15 43 8 77 -19z
m5826 1 c13 0 26 -4 29 -10 11 -17 50 -11 63 10 16 26 26 25 62 -7 22 -19 30
-34 28 -52 -6 -43 -23 -65 -47 -58 -11 3 -21 1 -21 -4 0 -5 9 -9 20 -9 12 0
25 -10 32 -25 6 -13 15 -22 21 -18 5 3 18 -5 28 -18 l19 -24 0 32 c0 17 -4 35
-10 38 -5 3 -10 13 -10 21 0 19 59 84 76 84 22 0 51 -80 57 -157 6 -70 5 -73
-25 -102 -23 -23 -40 -30 -66 -29 l-34 1 5 50 c5 42 4 48 -9 43 -11 -4 -15 -2
-11 8 3 8 -1 22 -8 33 -14 17 -14 17 -15 -2 -1 -18 -2 -17 -11 4 -7 18 -14 22
-34 17 -18 -5 -25 -2 -25 9 0 8 -17 26 -39 40 -34 23 -42 25 -82 16 -24 -6
-53 -11 -64 -11 -30 0 -56 49 -48 93 5 33 9 36 42 39 20 2 40 0 46 -4 5 -5 19
-8 31 -8z m-1212 -106 c14 -15 25 -34 24 -42 -2 -9 8 -21 20 -28 13 -6 29 -17
35 -24 9 -10 7 -11 -10 -5 -14 4 -23 2 -23 -4 0 -6 5 -11 10 -11 6 0 10 -7 10
-15 0 -18 16 -20 26 -3 6 9 10 5 14 -12 7 -28 -24 -70 -52 -70 -21 0 -48 37
-48 65 1 19 1 19 14 3 15 -20 36 -24 36 -6 0 6 -3 9 -6 5 -4 -3 -13 0 -21 8
-8 8 -25 15 -38 15 -13 0 -30 7 -39 15 -8 8 -22 15 -30 15 -18 0 -20 7 -17 65
4 62 48 75 95 29z m-5066 -90 c18 -20 32 -39 32 -43 0 -4 13 -12 30 -18 42
-16 58 -54 36 -88 -23 -36 -70 -34 -105 4 -20 21 -34 28 -52 24 -35 -6 -50 16
-51 76 -1 40 3 55 18 66 31 23 58 17 92 -21z m7676 -469 c11 -8 28 -15 38 -15
32 0 43 -20 40 -69 -3 -37 -2 -44 9 -33 21 19 29 14 29 -18 0 -24 -6 -33 -26
-40 -14 -6 -29 -8 -34 -5 -5 3 -12 0 -15 -6 -8 -12 -78 -4 -113 14 -19 9 -25
8 -32 -3 -11 -17 -24 12 -34 77 -7 45 -6 46 54 87 41 29 58 31 84 11z m-4633
-164 c22 -20 18 -41 -7 -41 -12 0 -12 -4 3 -25 10 -13 24 -22 31 -20 16 6 16
-14 -1 -21 -9 -3 -13 -23 -12 -61 0 -48 4 -57 23 -64 29 -11 28 -16 -3 -16
-15 0 -27 7 -31 19 -5 18 -7 18 -24 3 -10 -9 -21 -27 -24 -41 -4 -13 -10 -24
-15 -24 -9 0 -31 68 -31 97 0 10 -5 24 -11 30 -15 15 -23 80 -10 88 6 3 11 0
12 -7 0 -7 4 -4 9 7 4 11 6 29 4 40 -5 25 10 50 25 41 6 -4 11 -19 11 -34 0
-29 14 -20 25 17 5 16 4 21 -4 17 -6 -4 -11 -2 -11 3 0 17 19 13 41 -8z m9490
-1 c45 -25 64 -114 32 -160 -23 -33 -33 -40 -65 -40 -65 0 -83 149 -23 194 24
18 31 19 56 6z m-10287 -155 c8 -21 26 -19 27 3 1 41 20 -37 20 -85 l0 -52 45
-7 c29 -4 48 -13 55 -25 5 -11 13 -18 17 -15 4 2 17 0 29 -5 54 -20 59 -184 8
-295 -17 -37 -22 -63 -18 -87 8 -51 -48 -164 -85 -173 -38 -9 -110 -42 -117
-54 -11 -18 -24 -10 -27 18 -4 32 -44 44 -63 18 -7 -9 -23 -17 -36 -18 -21 -3
-25 3 -36 46 -13 53 -66 118 -88 110 -7 -3 -13 1 -12 8 1 36 -4 50 -17 45 -18
-7 -22 5 -25 71 -2 43 5 66 34 126 22 46 49 84 70 100 18 14 48 51 65 82 18
30 38 58 46 61 7 2 10 11 7 19 -3 8 0 14 6 14 19 0 51 39 51 63 0 38 32 61 44
32z m5198 -192 c25 -23 23 -59 -9 -120 -25 -50 -43 -67 -43 -42 0 8 -5 7 -15
-1 -22 -18 -25 -12 -32 64 -6 65 -3 72 29 67 4 0 15 10 25 24 22 29 22 29 45
8z m-1392 -143 c8 -5 11 -10 6 -10 -5 0 -3 -7 4 -15 13 -16 6 -51 -17 -77 -11
-12 -14 -28 -9 -49 4 -23 3 -30 -7 -26 -7 3 -13 -3 -13 -13 0 -10 4 -16 8 -14
4 3 8 0 8 -5 0 -6 -9 -11 -20 -11 -11 0 -20 -6 -20 -13 0 -17 -51 -46 -70 -39
-26 9 -64 42 -66 58 -1 9 -5 18 -8 21 -9 9 13 43 28 43 7 0 29 8 49 18 28 13
34 21 27 32 -5 8 -10 29 -10 46 0 35 18 48 90 63 3 0 12 -4 20 -9z m-2500
-590 c0 -12 7 -31 15 -43 22 -33 3 -90 -40 -123 -33 -25 -35 -25 -53 -7 -26
24 -52 77 -52 104 0 12 11 37 26 56 21 28 31 33 65 33 33 0 39 -3 39 -20z
m-2678 -147 c21 -21 38 -47 38 -59 0 -12 11 -35 24 -51 32 -39 49 -73 85 -180
30 -89 43 -203 23 -203 -5 0 -15 -11 -22 -25 -7 -14 -21 -25 -29 -25 -9 0 -41
-18 -70 -40 -30 -22 -61 -38 -70 -36 -9 2 -30 7 -47 11 -22 4 -35 15 -45 38
-11 25 -22 33 -54 39 -61 12 -81 27 -93 67 -30 100 -21 185 28 288 17 34 28
68 25 75 -3 8 5 26 19 41 13 14 27 36 31 47 5 15 15 20 45 20 24 0 40 5 44 15
9 24 27 18 68 -22z m11613 -30 c20 -19 35 -57 41 -98 2 -16 9 -55 15 -85 17
-80 3 -207 -33 -318 -30 -92 -74 -162 -103 -162 -6 0 -43 -21 -81 -46 -74 -49
-101 -52 -149 -17 -49 36 -70 185 -41 288 8 28 22 77 31 109 25 91 127 279
166 308 48 36 129 47 154 21z m-11094 -104 c19 -19 21 -29 15 -75 -12 -106
-41 -135 -65 -66 -8 20 -22 48 -32 61 -51 65 24 138 82 80z m-2924 -61 c17
-14 27 -75 16 -91 -6 -6 -13 -23 -16 -37 -6 -24 -61 -70 -84 -70 -7 0 -20 11
-31 25 -11 14 -25 25 -31 25 -6 0 -19 16 -28 34 -12 27 -14 43 -7 68 8 28 16
34 49 41 22 5 47 13 55 18 17 9 59 3 77 -13z m4954 -92 c5 -17 2 -43 -7 -68
-8 -22 -14 -64 -14 -92 0 -70 -9 -96 -31 -96 -11 0 -36 -9 -56 -20 -21 -11
-32 -20 -24 -20 11 0 11 -3 1 -15 -7 -8 -19 -15 -26 -15 -18 0 -18 44 0 63 26
25 56 91 56 121 0 35 68 178 83 173 6 -2 14 -16 18 -31z m3306 -610 c19 -40 7
-82 -28 -104 -54 -34 -124 29 -98 89 14 36 34 48 77 49 27 0 35 -5 49 -34z
m-614 -1250 c52 -83 12 -167 -65 -135 -42 17 -73 90 -49 115 5 5 11 18 13 29
3 16 29 31 63 34 6 1 23 -19 38 -43z m-4671 -397 c29 -15 50 -72 39 -103 -10
-24 -69 -76 -88 -76 -6 0 -25 13 -42 29 -77 72 0 199 91 150z m118 -379 c11
-7 12 -12 4 -20 -8 -8 -10 -40 -7 -93 5 -74 3 -85 -19 -117 -16 -24 -35 -38
-61 -44 -44 -11 -74 2 -129 57 -33 32 -38 43 -38 84 0 41 5 50 38 83 34 32 48
38 113 46 41 6 76 11 79 12 3 1 12 -3 20 -8z m-1999 -83 c86 -56 117 -132 107
-262 -6 -72 -37 -137 -81 -169 -63 -47 -172 -10 -235 78 -19 26 -58 62 -87 81
-45 28 -55 40 -61 71 -7 36 -4 40 43 83 28 25 67 67 88 93 58 74 137 83 226
25z m1038 -38 c30 -18 33 -23 26 -52 -19 -94 -20 -91 31 -146 59 -64 65 -74
81 -131 15 -54 16 -87 4 -94 -5 -4 -7 4 -4 16 3 17 2 19 -5 9 -8 -11 -10 -11
-14 0 -4 11 -8 12 -20 2 -8 -7 -17 -10 -21 -7 -8 9 -29 -36 -23 -51 7 -19 -26
-45 -57 -45 -18 0 -28 7 -33 22 -3 12 -12 28 -19 34 -7 7 -10 24 -8 38 3 16
-3 36 -17 55 -12 17 -18 31 -14 31 3 0 2 6 -4 13 -20 24 -33 94 -22 122 5 14
11 53 11 85 2 65 27 120 56 120 10 0 33 -9 52 -21z m1541 -84 c9 -8 22 -15 28
-15 7 0 12 -6 12 -12 0 -7 7 -26 15 -42 10 -20 12 -33 5 -41 -5 -6 -7 -14 -4
-18 12 -12 -8 -45 -31 -51 -14 -4 -25 -11 -25 -16 0 -6 -5 -10 -11 -10 -6 0
-9 9 -6 20 3 13 -1 21 -15 25 -15 6 -17 9 -7 21 10 12 9 18 -4 31 -14 14 -17
14 -32 -1 -21 -21 -44 -20 -52 2 -4 9 -10 19 -13 22 -4 3 -10 17 -13 32 -6 22
-2 30 20 46 16 10 35 22 43 25 22 9 71 -1 90 -18z m-2073 -510 c34 -34 35 -38
31 -90 -6 -66 -28 -95 -73 -95 -61 0 -115 65 -115 137 0 50 8 61 55 72 62 14
65 13 102 -24z m1497 -115 c34 -41 42 -87 22 -133 -20 -50 -53 -64 -108 -48
-59 18 -98 60 -98 107 0 29 7 43 36 70 29 28 43 34 79 34 36 0 48 -5 69 -30z"/>
</g>
</svg>
