<?xml version="1.0" standalone="no"?>
<!DOCTYPE svg PUBLIC "-//W3C//DTD SVG 20010904//EN"
 "http://www.w3.org/TR/2001/REC-SVG-20010904/DTD/svg10.dtd">
<svg version="1.0" xmlns="http://www.w3.org/2000/svg"
 width="3000.000000pt" height="2000.000000pt" viewBox="0 0 3000.000000 2000.000000"
 preserveAspectRatio="xMidYMid meet">
<metadata>
Created by potrace 1.16, written by Peter Selinger 2001-2019
</metadata>
<g transform="translate(0.000000,2000.000000) scale(0.100000,-0.100000)"
fill="#000000" stroke="none">
<path d="M0 10000 l0 -10000 15000 0 15000 0 0 10000 0 10000 -15000 0 -15000
0 0 -10000z m20373 7764 c347 -202 646 -374 666 -383 45 -21 122 -77 115 -84
-3 -3 0 -8 7 -13 8 -4 10 -3 5 4 -10 17 -2 15 40 -10 31 -18 34 -23 21 -33
-15 -11 -183 8 -287 34 -25 6 -71 11 -103 11 -37 0 -67 6 -83 17 -22 14 -27
14 -35 2 -7 -11 -12 -12 -29 -1 -11 6 -33 12 -50 12 -16 0 -30 4 -30 9 0 12
-43 22 -50 11 -3 -5 -26 -6 -50 -2 l-45 6 35 8 c27 5 22 6 -18 3 -58 -5 -92 3
-71 15 7 5 3 8 -12 7 -13 0 -36 3 -51 7 -19 6 -28 4 -28 -3 0 -6 9 -11 19 -11
10 0 21 -7 25 -15 3 -8 17 -20 31 -25 14 -5 24 -15 23 -21 -3 -13 108 -97 130
-98 6 -1 12 -5 12 -11 0 -5 4 -10 8 -10 9 0 170 -92 188 -108 5 -5 21 -15 35
-22 13 -7 65 -39 115 -72 96 -64 139 -117 163 -203 14 -50 14 -325 0 -385 -15
-64 -52 -100 -104 -100 -42 0 -46 2 -391 196 -76 43 -204 114 -284 159 -167
93 -154 86 -283 161 -214 122 -248 184 -261 468 -6 114 -10 142 -23 152 -15
10 -15 14 -4 28 11 13 10 17 -13 26 l-26 10 1 282 c0 156 3 302 6 325 5 40 6
41 30 32 14 -5 309 -174 656 -375z m-436 -996 c26 -11 99 -53 292 -169 40 -24
115 -69 167 -99 187 -109 500 -295 529 -315 50 -32 92 -91 114 -158 20 -61 20
-73 13 -750 l-7 -689 -29 -25 c-40 -34 -87 -27 -184 30 l-77 44 -6 224 c-4
169 -9 234 -21 265 -46 119 -122 230 -196 286 -26 20 -189 118 -362 218 -173
100 -331 192 -351 205 l-36 23 -7 415 c-7 368 -6 418 8 445 30 58 89 78 153
50z m1498 -96 c88 -52 174 -103 190 -114 17 -10 88 -54 158 -96 142 -85 164
-109 153 -165 -6 -33 -10 -37 -37 -37 -36 0 -56 10 -389 198 -146 83 -280 163
-298 180 -29 27 -33 35 -30 73 3 48 31 71 71 61 12 -3 94 -48 182 -100z
m-3512 -292 c82 -49 158 -90 167 -90 30 0 40 -23 40 -95 0 -127 -12 -126 -255
5 -116 62 -157 91 -182 129 -48 70 -17 160 49 147 17 -3 98 -46 181 -96z
m3753 -119 c34 -16 352 -201 534 -311 25 -15 90 -53 145 -85 55 -32 134 -79
175 -104 41 -24 100 -59 130 -76 30 -18 118 -69 195 -115 140 -83 220 -130
305 -179 71 -40 167 -97 344 -202 l161 -96 3 -46 c2 -26 1 -47 -3 -47 -16 0
-130 62 -390 212 -189 108 -361 207 -625 356 -109 61 -150 85 -245 140 -22 12
-56 30 -75 38 -19 9 -42 22 -50 29 -8 7 -73 46 -145 86 -143 79 -176 98 -232
131 -21 12 -58 32 -83 46 -168 90 -240 144 -240 176 0 27 23 66 39 66 9 0 35
-9 57 -19z m-7821 -30 c33 -12 101 -45 150 -74 l90 -53 1 -114 c0 -127 16
-185 69 -254 15 -20 26 -38 24 -40 -2 -2 -18 -11 -36 -20 -53 -27 -58 -46 -54
-186 2 -69 4 -161 5 -206 l1 -80 85 4 c47 2 86 5 88 7 4 4 10 33 11 53 1 8 18
12 53 12 l51 0 -6 110 c-6 93 -4 110 8 110 8 0 37 14 65 31 l50 31 0 73 c0 73
0 74 -35 101 -50 38 -85 101 -85 152 0 23 2 42 4 42 3 0 118 -66 258 -147 139
-80 318 -184 398 -230 79 -46 155 -94 168 -106 39 -36 62 -91 62 -148 0 -61
-21 -109 -65 -147 -18 -16 -176 -112 -351 -214 -175 -102 -464 -269 -640 -372
-366 -212 -402 -226 -574 -226 -125 0 -230 27 -330 83 -735 420 -1222 705
-1248 730 -49 46 -62 78 -62 149 0 69 23 119 70 156 32 25 749 445 780 457 12
4 18 -8 27 -56 26 -137 122 -262 254 -333 l54 -28 50 29 50 29 3 86 3 86 -36
22 c-19 12 -48 43 -63 68 -24 42 -27 56 -26 132 2 145 5 152 82 198 170 100
216 113 402 108 107 -3 148 -8 195 -25z m7450 -9 c128 -72 153 -87 202 -118
67 -43 86 -72 78 -118 -7 -33 -10 -35 -34 -30 -31 8 -169 80 -267 140 -76 47
-97 77 -88 124 8 39 41 40 109 2z m1059 -102 c92 -55 170 -100 172 -100 3 0
17 -8 32 -19 15 -10 72 -45 127 -77 55 -32 166 -97 247 -146 81 -48 149 -88
151 -88 3 0 36 -19 73 -42 111 -67 452 -269 562 -331 112 -64 305 -179 395
-234 l87 -55 0 -44 c0 -24 -3 -44 -8 -44 -7 0 -148 77 -257 140 -22 13 -69 40
-105 60 -36 20 -218 123 -405 229 -187 107 -396 225 -465 264 -69 39 -162 92
-206 119 -45 26 -85 48 -88 48 -4 0 -24 11 -46 25 -22 14 -64 38 -92 54 -79
42 -146 80 -202 114 -28 16 -76 43 -106 59 -94 51 -126 99 -100 149 20 36 60
22 234 -81z m-4572 -22 c86 -46 108 -76 108 -148 0 -50 -3 -60 -20 -65 -29 -9
-157 62 -181 101 -21 35 -26 113 -7 132 18 18 35 15 100 -20z m3523 -143 c54
-29 182 -103 600 -350 271 -160 347 -203 555 -324 217 -125 230 -135 230 -177
0 -18 -5 -36 -10 -39 -11 -7 -103 35 -175 78 -22 14 -114 67 -205 119 -91 52
-239 137 -330 190 -91 52 -290 165 -442 251 -152 87 -291 169 -307 183 -26 22
-31 33 -31 70 0 43 1 44 28 38 15 -4 54 -21 87 -39z m550 -63 c28 -13 61 -32
75 -42 14 -9 45 -28 70 -42 142 -80 782 -458 838 -495 49 -34 52 -38 52 -79 0
-24 -2 -44 -5 -44 -9 0 -112 50 -155 76 -47 28 -74 44 -325 186 -82 47 -211
120 -285 163 -74 42 -160 91 -190 108 -161 88 -180 105 -180 164 0 42 1 43 28
37 15 -4 50 -18 77 -32z m-12131 -138 c432 -248 446 -258 446 -309 0 -17 -6
-39 -12 -48 -14 -18 -99 -70 -392 -237 l-200 -115 -75 1 c-62 0 -85 5 -126 26
-121 64 -522 299 -542 318 -13 12 -23 33 -23 46 0 61 7 66 407 296 96 55 189
105 206 109 18 4 61 6 96 4 59 -4 77 -12 215 -91z m9060 76 c42 -11 105 -34
139 -52 l62 -33 3 -182 2 -182 -62 26 c-91 37 -192 43 -252 13 -58 -28 -120
-97 -141 -158 -41 -121 -26 -303 41 -476 19 -49 31 -92 27 -96 -9 -8 -214 -80
-226 -80 -26 0 -137 312 -162 456 -34 198 -13 422 52 553 95 188 292 269 517
211z m2457 -102 c19 -6 88 -44 154 -83 66 -39 181 -106 255 -149 74 -43 144
-83 155 -89 50 -30 94 -56 135 -79 56 -32 135 -78 265 -153 55 -32 170 -99
255 -148 85 -49 183 -106 217 -126 34 -20 109 -62 165 -95 57 -32 131 -76 166
-98 61 -39 62 -41 62 -84 0 -24 -2 -44 -5 -44 -12 0 -210 104 -230 120 -10 8
-383 223 -590 340 -55 31 -144 82 -197 113 -54 32 -142 82 -195 113 -133 77
-335 193 -353 204 -8 5 -66 37 -128 72 -157 87 -182 109 -182 159 0 43 2 44
51 27z m26 -267 c66 -32 172 -92 211 -119 15 -10 34 -21 42 -24 8 -3 34 -20
58 -37 37 -28 42 -36 42 -71 0 -22 -4 -40 -9 -40 -20 0 -102 41 -229 114 -185
106 -192 112 -192 156 0 32 6 50 17 50 1 0 29 -13 60 -29z m-22 -242 c26 -12
88 -45 138 -75 49 -30 91 -54 93 -54 1 0 107 -61 236 -136 128 -75 251 -146
273 -159 22 -12 80 -45 129 -74 49 -28 91 -51 93 -51 3 0 17 -9 33 -20 25 -18
110 -67 305 -178 130 -74 147 -89 143 -131 -3 -32 -6 -36 -28 -33 -14 1 -104
48 -200 104 -96 55 -209 120 -250 142 -41 23 -136 78 -210 121 -74 43 -162 94
-195 112 -33 19 -69 39 -80 46 -99 61 -126 77 -129 77 -3 0 -44 23 -93 51 -48
28 -104 61 -123 71 -184 105 -190 110 -190 164 0 24 2 44 4 44 2 0 25 -10 51
-21z m-12159 -196 c143 -83 274 -158 291 -167 47 -24 115 -30 170 -17 58 15
556 301 596 342 28 31 37 18 12 -18 -15 -22 -531 -326 -585 -345 -18 -6 -64
-8 -104 -6 -72 5 -73 5 -341 159 -148 85 -282 164 -297 177 -20 17 -28 33 -28
55 l1 32 13 -31 c11 -26 58 -57 272 -181z m12864 48 c70 -40 136 -71 152 -71
18 0 33 -9 47 -28 18 -26 85 -70 209 -139 26 -14 76 -43 111 -65 34 -21 65
-38 68 -38 2 0 66 -37 141 -82 75 -44 153 -90 172 -101 47 -26 575 -332 720
-417 63 -37 207 -120 320 -185 317 -182 300 -169 300 -221 0 -24 -3 -44 -7
-44 -8 0 -88 43 -173 92 -160 93 -228 128 -246 128 -11 0 -36 15 -55 33 -19
18 -88 64 -154 101 -66 38 -133 76 -150 86 -16 9 -48 28 -70 40 -22 13 -88 52
-146 87 -59 35 -109 63 -112 63 -2 0 -82 46 -178 101 -96 56 -214 124 -264
152 -49 28 -227 130 -395 227 -168 97 -336 194 -375 215 -110 61 -135 84 -135
126 0 20 3 38 6 42 9 8 75 -23 214 -102z m-1773 -16 c72 -41 93 -72 93 -138 0
-72 -19 -79 -99 -35 -77 42 -111 84 -111 139 0 81 21 87 117 34z m2878 -119
c66 -38 161 -93 210 -121 50 -29 125 -73 168 -98 43 -26 81 -47 83 -47 2 0 23
-11 45 -26 22 -14 55 -33 72 -43 233 -134 482 -279 520 -303 40 -25 47 -35 47
-62 0 -17 -4 -37 -8 -43 -6 -9 -149 68 -508 273 -274 158 -562 323 -639 367
-192 110 -184 103 -185 159 l0 48 37 -18 c21 -9 92 -48 158 -86z m-13980 -208
c138 -81 269 -156 293 -168 54 -27 137 -36 188 -20 59 19 571 318 594 347 23
30 28 9 5 -24 -15 -21 -503 -311 -573 -340 -25 -10 -60 -14 -111 -11 l-76 3
-270 154 c-148 85 -282 165 -297 179 -17 15 -28 36 -28 51 l0 26 13 -25 c8
-17 94 -73 262 -172z m2986 45 c19 -17 104 -72 189 -121 85 -49 308 -178 495
-287 711 -412 684 -399 850 -412 89 -6 218 14 291 46 39 18 1092 626 1242 718
71 44 112 85 131 133 10 25 10 25 10 -5 1 -43 -37 -114 -79 -146 -63 -49
-1263 -742 -1326 -765 -137 -51 -308 -52 -447 -5 -30 11 -191 98 -358 194
-167 96 -455 261 -639 367 -184 105 -349 206 -367 223 -41 39 -63 85 -63 134
l0 38 19 -40 c10 -22 34 -54 52 -72z m8099 -54 c87 -46 105 -69 105 -136 0
-77 -15 -86 -89 -47 -82 42 -108 73 -114 133 -4 50 7 81 30 81 6 0 36 -14 68
-31z m1123 -26 c40 -20 112 -61 160 -90 48 -29 90 -53 92 -53 2 0 51 -27 107
-61 57 -34 132 -78 168 -99 166 -96 273 -158 363 -212 99 -59 124 -67 144 -47
19 19 43 2 43 -28 0 -25 15 -37 163 -125 89 -53 191 -113 227 -133 36 -20 92
-52 125 -72 33 -19 79 -45 101 -58 109 -61 114 -66 114 -118 l0 -49 -92 50
c-51 27 -160 89 -243 137 -82 48 -206 119 -275 158 -69 38 -158 90 -199 115
-41 24 -95 56 -120 70 -57 31 -299 170 -571 327 -113 65 -234 135 -270 155
-116 64 -130 78 -130 127 0 24 5 43 11 43 5 0 42 -17 82 -37z m-12483 -3 c0
-5 -13 -16 -29 -25 -35 -18 -71 -61 -71 -86 0 -32 43 -66 190 -152 80 -46 220
-127 311 -180 92 -53 188 -101 213 -108 63 -16 152 -6 207 21 105 54 596 345
622 368 47 44 32 95 -43 138 -29 18 -39 34 -22 34 16 0 91 -59 101 -79 18 -33
12 -69 -16 -100 -38 -42 -638 -387 -697 -402 -58 -15 -163 -6 -208 17 -138 71
-629 361 -650 385 -48 51 -29 114 46 160 35 21 46 23 46 9z m14458 -129 c31
-15 98 -52 147 -81 85 -49 187 -108 470 -272 66 -39 140 -81 165 -95 111 -63
155 -98 158 -125 6 -52 -7 -59 -58 -34 -55 28 -336 186 -370 209 -14 9 -44 26
-67 39 -87 48 -322 184 -413 239 l-95 57 -3 46 c-2 25 0 46 3 46 3 0 32 -13
63 -29z m-11268 -44 c0 -31 -5 -36 -74 -75 -170 -97 -206 -211 -103 -318 31
-32 233 -153 782 -470 421 -243 770 -439 810 -453 64 -24 83 -26 235 -26 148
0 172 3 230 23 79 28 1519 862 1573 911 51 46 67 80 67 140 0 70 -41 121 -150
187 -76 46 -85 55 -88 84 l-3 33 33 -21 c18 -11 58 -34 88 -52 188 -109 230
-270 102 -396 -34 -34 -234 -155 -742 -451 -742 -432 -785 -456 -869 -485
-138 -47 -350 -45 -497 5 -42 14 -249 127 -524 286 -250 145 -585 338 -743
429 -159 92 -306 181 -327 199 -48 42 -90 124 -90 178 0 48 38 129 77 167 21
20 193 132 211 137 1 1 2 -14 2 -32z m10162 -76 c24 -10 159 -87 302 -170 142
-83 260 -151 261 -151 2 0 41 -23 87 -51 46 -28 92 -55 103 -60 11 -5 27 -13
35 -19 38 -24 272 -160 277 -160 3 0 17 -8 31 -19 26 -18 43 -28 162 -95 115
-65 213 -122 258 -151 43 -28 47 -34 47 -70 0 -32 -4 -40 -17 -39 -15 2 -88
42 -496 275 -105 60 -535 307 -807 464 -93 54 -185 107 -204 117 -75 42 -101
69 -101 103 0 27 6 45 16 45 1 0 22 -8 46 -19z m-1975 -78 c66 -39 93 -77 93
-131 0 -44 -9 -62 -33 -62 -34 0 -146 69 -162 100 -15 29 -21 111 -8 123 14
15 52 5 110 -30z m2708 -91 c62 -34 439 -251 585 -338 45 -26 208 -120 295
-170 85 -48 385 -223 403 -234 18 -12 22 -24 22 -63 l0 -48 -72 39 c-40 22
-98 54 -128 72 -70 41 -370 215 -430 248 -25 14 -112 64 -195 112 -82 47 -231
133 -330 190 -246 141 -235 132 -235 186 0 24 3 44 8 44 4 0 39 -18 77 -38z
m-2718 -248 c35 -19 71 -46 79 -60 24 -35 29 -105 10 -129 -15 -20 -16 -20
-83 16 -83 44 -113 84 -113 149 0 73 13 77 107 24z m-1 -344 c62 -35 91 -69
100 -117 8 -41 -9 -83 -32 -83 -26 0 -120 58 -148 91 -20 23 -26 42 -26 78 0
26 3 51 7 54 14 14 50 6 99 -23z m3285 -241 c147 -86 177 -103 249 -142 30
-17 67 -38 82 -49 14 -10 29 -18 32 -18 3 0 67 -37 143 -82 76 -44 147 -86
158 -92 67 -37 75 -47 75 -92 0 -24 -2 -44 -5 -44 -12 0 -136 66 -245 130
-121 71 -267 156 -515 299 -214 124 -195 108 -195 164 l0 47 49 -24 c26 -14
104 -57 172 -97z m82 -300 c23 -12 75 -41 114 -65 40 -24 74 -44 77 -44 2 0
56 -32 121 -70 178 -107 170 -104 194 -79 30 32 55 18 47 -25 -6 -32 -4 -35
49 -67 53 -32 55 -35 55 -76 0 -26 -5 -43 -12 -43 -13 0 -129 62 -234 125 -38
24 -106 62 -150 86 -43 23 -98 55 -121 71 -23 15 -45 28 -49 28 -4 0 -40 21
-81 46 -70 43 -73 47 -73 83 0 34 6 51 17 51 2 0 23 -10 46 -21z m-1482 -252
c39 -25 89 -116 89 -159 0 -49 -16 -68 -57 -68 -75 0 -160 133 -132 207 18 49
48 55 100 20z m-3651 -67 c805 -34 1523 -178 2170 -435 144 -57 448 -200 484
-228 19 -14 17 -17 -37 -95 -31 -44 -57 -85 -57 -90 0 -6 9 -14 20 -17 11 -4
17 -11 14 -17 -4 -6 -2 -8 4 -5 13 9 42 -2 42 -15 0 -5 -8 -8 -17 -6 -10 2
-19 -5 -21 -15 -3 -16 -1 -17 17 -5 17 10 23 10 29 1 5 -7 33 25 76 87 79 114
58 111 196 22 588 -379 964 -867 1066 -1387 13 -65 18 -140 18 -265 1 -199 -6
-347 -15 -322 -4 11 -8 3 -13 -23 -16 -84 -70 -235 -126 -351 -123 -254 -308
-488 -560 -707 -385 -334 -823 -565 -1369 -721 l-55 -16 -459 231 c-252 127
-461 228 -464 226 -2 -3 -7 -23 -9 -44 l-5 -38 403 -204 c221 -113 396 -207
388 -209 -8 -3 -34 -10 -57 -16 l-42 -11 123 -64 122 -65 153 47 c425 132 752
297 1086 547 508 382 812 844 874 1325 l8 70 2 -70 c2 -132 -44 -292 -144
-502 -109 -229 -241 -408 -452 -614 -126 -125 -240 -218 -390 -322 -316 -218
-588 -348 -991 -473 l-142 -44 -123 51 c-67 28 -142 61 -166 74 l-45 22 -108
-23 c-263 -57 -871 -150 -1085 -166 -18 -1 -33 -5 -33 -9 0 -3 -12 -5 -27 -3
-43 5 -93 -7 -93 -22 0 -7 -11 -16 -25 -20 -14 -3 -25 -11 -24 -18 4 -19 -19
-63 -35 -69 -9 -4 -16 -13 -16 -22 0 -8 -6 -15 -12 -15 -9 0 -8 -3 2 -10 9 -6
20 -5 29 3 12 10 13 9 6 -2 -6 -11 -4 -13 8 -8 10 3 17 2 17 -3 0 -6 14 -10
31 -10 27 0 30 2 19 15 -7 9 -8 15 -2 15 5 0 13 -7 16 -16 4 -10 12 -14 23
-10 10 4 49 9 88 12 93 6 429 48 635 80 168 26 587 106 649 124 25 7 38 6 53
-4 18 -13 7 -17 -109 -44 -773 -183 -1855 -281 -3403 -308 -201 -3 -366 -7
-366 -7 -5 -5 -17 -214 -24 -422 -4 -132 -11 -250 -14 -263 -3 -13 -10 -56
-15 -95 -38 -265 -117 -573 -213 -837 -83 -229 -275 -573 -395 -708 l-38 -44
-57 42 c-64 45 -71 45 -121 -7 l-27 -29 49 -40 c66 -53 65 -73 -9 -145 -187
-183 -403 -323 -765 -495 -1097 -522 -2621 -689 -3995 -438 -517 95 -995 245
-1413 443 -167 80 -302 157 -286 164 12 5 11 7 -1 16 -13 9 -13 10 0 15 14 4
132 34 156 39 7 2 18 8 26 15 8 6 19 8 23 4 5 -4 5 -2 1 5 -3 6 -16 10 -29 7
-33 -8 -70 -11 -204 -19 l-122 -7 -73 48 c-210 135 -476 368 -624 546 -198
236 -339 516 -394 781 -23 109 -45 390 -44 557 4 597 370 1170 1034 1619 276
187 496 295 824 407 88 30 160 53 161 52 2 -2 30 -158 64 -348 35 -190 65
-355 68 -366 3 -17 19 -26 65 -39 33 -9 62 -15 64 -13 2 3 -17 87 -42 189 -46
182 -46 185 -42 317 3 86 0 157 -8 200 -23 117 -40 103 179 155 617 149 1424
250 2377 297 118 6 249 12 290 15 41 2 307 9 590 16 483 10 550 15 535 38 -2
4 2 19 9 32 7 14 13 31 14 39 0 8 8 47 16 85 8 39 18 81 20 95 18 80 28 151
41 280 64 615 213 1110 456 1515 l62 102 101 7 c90 6 104 10 129 33 15 15 27
30 27 35 0 4 -44 9 -97 10 l-97 3 76 90 c207 248 427 419 768 600 657 347
1501 568 2390 625 307 20 471 22 760 10z m-14299 -205 c254 -145 408 -237 424
-255 28 -31 29 -74 3 -103 -12 -15 -129 -88 -258 -163 -285 -165 -314 -179
-366 -188 -83 -12 -127 6 -414 169 -151 86 -283 166 -292 177 -20 22 -23 69
-8 98 5 10 58 48 117 83 221 131 447 260 472 268 14 5 58 7 97 5 69 -3 76 -6
225 -91z m18424 -4 c58 -49 91 -120 81 -176 -13 -67 -75 -66 -137 2 -38 41
-50 69 -52 120 -3 75 51 102 108 54z m444 -255 c95 -49 145 -206 76 -238 -61
-28 -165 88 -165 185 0 17 41 67 55 67 3 0 19 -7 34 -14z m-14637 -108 c1 -57
2 -112 3 -123 1 -11 3 -48 4 -82 l1 -62 58 -32 c31 -18 59 -34 62 -36 3 -3 -6
-13 -20 -25 -14 -11 -20 -17 -14 -14 7 3 22 -5 36 -18 13 -13 53 -34 88 -46
36 -12 70 -26 77 -32 8 -6 18 -6 29 0 15 8 12 15 -25 55 l-42 46 40 23 c23 13
43 30 45 38 3 8 7 96 11 195 7 203 10 219 33 210 17 -6 227 -126 588 -335 589
-340 537 -307 564 -360 12 -23 20 -59 20 -87 0 -70 -32 -111 -132 -171 -262
-158 -1021 -592 -1063 -608 -74 -28 -299 -27 -370 2 -27 11 -291 159 -585 328
-367 210 -547 319 -572 346 -35 37 -38 43 -38 100 0 34 6 73 14 88 27 52 18
46 591 379 127 74 236 141 243 151 7 9 21 17 31 18 9 1 78 36 151 78 74 42
142 76 152 76 16 0 18 -11 20 -102z m-4867 -316 c132 -76 258 -148 280 -160
57 -28 120 -35 180 -19 50 13 562 304 597 339 13 13 18 14 18 5 0 -8 -10 -23
-22 -34 -30 -27 -522 -313 -568 -330 -45 -16 -127 -16 -171 -1 -46 16 -547
303 -576 330 -13 12 -23 30 -23 40 0 17 3 16 23 -6 12 -13 130 -87 262 -164z
m-139 -95 c76 -46 208 -123 293 -172 147 -85 156 -88 225 -93 58 -3 82 0 117
15 56 25 528 299 552 321 16 14 19 14 27 2 16 -25 11 -49 -17 -80 -29 -30
-511 -314 -573 -336 -45 -17 -125 -17 -170 -1 -46 17 -548 304 -577 330 -16
14 -23 32 -23 59 0 21 1 38 3 38 2 0 66 -37 143 -83z m163 -341 c147 -86 284
-161 302 -166 45 -13 109 -13 150 1 37 13 514 287 567 326 37 28 44 12 8 -20
-14 -12 -145 -92 -292 -177 -256 -147 -271 -154 -331 -158 -34 -3 -78 -1 -96
2 -33 6 -563 301 -599 334 -10 8 -18 26 -18 40 l0 25 20 -25 c11 -14 141 -96
289 -182z m-309 55 c0 -5 -9 -12 -19 -16 -11 -3 -34 -19 -50 -35 -40 -37 -41
-77 -3 -112 40 -37 619 -369 671 -385 56 -17 116 -17 172 1 58 17 647 359 677
392 12 14 22 34 22 46 0 20 -47 73 -85 94 -11 7 -17 15 -13 19 8 8 66 -25 91
-53 27 -29 30 -73 9 -107 -24 -38 -631 -392 -707 -413 -61 -16 -151 -9 -208
17 -90 40 -624 354 -649 382 -30 31 -36 75 -18 110 20 36 110 85 110 60z
m4025 -445 c22 -16 275 -164 562 -330 346 -201 543 -309 585 -322 95 -29 251
-25 338 8 60 22 990 556 1107 635 33 22 59 49 72 76 20 40 21 41 21 14 0 -43
-28 -94 -69 -125 -74 -58 -1082 -634 -1143 -655 -92 -29 -240 -29 -333 1 -102
32 -1148 635 -1188 685 -20 24 -31 50 -34 84 l-5 48 24 -45 c12 -25 41 -58 63
-74z m-85 -200 c0 -18 -12 -31 -47 -52 -116 -66 -162 -128 -149 -197 13 -69
62 -104 466 -337 212 -122 491 -283 620 -358 309 -179 327 -186 500 -186 106
-1 147 3 190 18 72 24 1292 731 1341 776 95 90 63 191 -88 278 -48 28 -63 42
-63 59 0 13 3 23 6 23 11 0 143 -80 172 -105 38 -32 72 -101 72 -146 -1 -46
-30 -107 -71 -145 -19 -18 -185 -119 -369 -226 -184 -107 -465 -271 -624 -363
-347 -201 -388 -218 -556 -218 -122 0 -208 16 -284 55 -75 38 -1221 701 -1261
730 -58 41 -88 90 -93 152 -7 90 33 147 158 225 36 22 68 40 73 40 4 1 7 -10
7 -23z m17580 0 c34 -11 363 -198 644 -365 136 -80 156 -102 156 -165 0 -25
-8 -45 -27 -65 -26 -27 -688 -417 -758 -446 -50 -21 -128 -27 -196 -15 -55 10
-111 38 -399 202 -423 242 -434 249 -449 287 -18 42 -7 92 27 123 25 23 424
261 658 392 55 31 120 61 145 66 51 10 147 4 199 -14z m-1007 -808 c31 -33
731 -438 785 -455 60 -18 161 -17 217 3 26 8 178 92 338 186 436 255 430 251
449 289 16 29 18 31 18 11 0 -48 -29 -80 -123 -135 -202 -120 -594 -345 -632
-364 -81 -41 -208 -48 -291 -15 -70 28 -723 404 -761 440 -27 24 -33 36 -32
68 1 21 4 29 6 17 2 -12 14 -32 26 -45z m2327 38 c50 -13 223 -109 675 -374
124 -72 155 -103 155 -154 0 -67 -11 -77 -250 -215 -85 -49 -235 -136 -333
-193 -98 -56 -195 -109 -215 -116 -49 -17 -178 -18 -233 0 -24 7 -208 108
-409 224 -262 151 -370 218 -382 238 l-18 29 0 -56 0 -57 -137 -79 c-76 -44
-155 -86 -177 -93 -57 -19 -182 -15 -238 7 -25 10 -207 110 -403 223 -387 222
-400 232 -391 303 6 50 12 55 39 30 25 -24 656 -394 731 -429 27 -12 77 -26
111 -29 95 -11 163 12 325 106 123 72 140 85 140 108 0 50 32 82 150 151 423
250 629 366 669 376 62 17 126 17 191 0z m-20745 -376 c489 -82 796 -382 695
-680 -12 -36 -37 -86 -56 -113 -19 -26 -34 -50 -34 -53 0 -4 16 -32 37 -62 67
-102 89 -224 59 -327 -8 -26 -13 -60 -10 -74 4 -22 0 -29 -28 -45 -18 -10 -46
-34 -62 -53 -33 -38 -30 -52 16 -86 25 -18 29 -19 131 -2 75 11 112 13 125 6
19 -10 82 -130 82 -156 0 -21 -25 -31 -115 -45 -106 -16 -115 -22 -115 -70 0
-48 12 -55 111 -71 90 -13 119 -24 119 -44 0 -29 -58 -143 -78 -154 -16 -8
-47 -7 -122 4 -76 11 -106 12 -122 4 -26 -14 -67 -60 -68 -75 0 -7 32 -30 70
-53 39 -23 70 -48 70 -56 0 -18 -188 -125 -220 -125 -13 0 -56 18 -96 40 -82
45 -100 47 -167 22 -69 -27 -72 -32 -48 -87 27 -60 26 -74 -1 -84 -40 -14
-257 -43 -281 -37 -16 4 -31 22 -47 56 -31 66 -41 73 -108 75 -92 3 -117 -8
-141 -66 -31 -71 -43 -74 -199 -50 -73 11 -136 23 -142 26 -15 9 -12 35 11 84
23 52 20 57 -48 83 -69 26 -93 23 -169 -22 -41 -24 -81 -40 -99 -40 -42 1
-209 99 -213 125 -2 15 11 27 53 50 31 17 64 38 72 48 15 16 14 20 -13 48 -47
50 -55 52 -169 34 -57 -9 -113 -14 -123 -11 -17 6 -43 51 -78 133 -20 46 -4
57 102 72 116 17 124 22 124 71 0 49 -9 54 -122 70 -48 6 -95 18 -104 25 -16
11 -15 18 18 88 20 41 45 80 56 86 15 8 48 7 122 -4 112 -15 132 -11 164 32
l19 26 -41 36 c-22 20 -53 46 -69 58 -24 19 -26 24 -16 42 10 16 10 28 -2 62
-36 100 -11 234 61 339 l35 51 -40 63 c-58 92 -74 151 -69 244 10 174 130 321
353 431 256 126 595 167 930 111z m18436 -246 c41 -36 732 -431 774 -443 56
-15 142 -14 201 4 41 12 162 77 292 157 30 19 32 19 32 1 0 -13 -40 -41 -133
-95 -73 -43 -153 -84 -176 -93 -50 -17 -169 -20 -225 -4 -56 16 -767 425 -793
457 -15 17 -23 40 -23 62 l1 35 13 -30 c7 -16 24 -39 37 -51z m1337 -197 c25
-24 693 -417 757 -446 45 -20 162 -25 220 -9 74 20 780 434 806 473 l21 30 -7
-30 c-3 -16 -18 -42 -33 -56 -37 -36 -727 -434 -777 -448 -50 -14 -158 -14
-206 -1 -55 15 -771 427 -796 458 -15 18 -22 39 -22 62 1 21 3 26 6 14 2 -12
16 -33 31 -47z m-1344 -36 c32 -29 713 -422 760 -439 57 -20 191 -19 241 2 22
9 100 51 172 93 116 67 133 80 133 102 0 14 5 33 10 41 8 12 12 11 32 -6 33
-30 713 -423 760 -440 52 -18 184 -18 237 1 49 17 726 408 759 439 20 17 24
18 32 6 20 -32 11 -79 -22 -115 -49 -52 -749 -452 -805 -461 -75 -11 -184 1
-231 25 -42 21 -590 334 -688 393 -28 17 -58 42 -67 57 l-16 26 -1 -55 0 -56
-122 -71 c-68 -39 -139 -79 -158 -89 -43 -22 -188 -31 -246 -15 -31 8 -651
355 -770 431 -43 27 -65 90 -48 134 8 20 13 20 38 -3z m2 -333 c26 -23 667
-395 733 -426 30 -14 80 -27 116 -30 108 -8 139 4 413 164 38 22 42 23 42 7 0
-23 -264 -176 -333 -194 -26 -6 -82 -10 -125 -7 -84 5 -84 5 -311 133 -69 39
-114 58 -133 57 -22 -2 -28 2 -28 17 0 15 -38 41 -152 106 -258 147 -269 156
-268 223 l1 27 13 -30 c7 -16 22 -37 32 -47z m1342 -201 c23 -21 391 -240 671
-398 123 -70 207 -84 311 -53 76 22 735 406 784 456 38 40 39 40 32 12 -4 -16
-17 -39 -29 -51 -21 -21 -623 -376 -731 -431 -62 -31 -188 -41 -258 -19 -61
19 -752 413 -789 450 -22 22 -29 37 -28 65 1 21 4 28 6 16 2 -12 16 -33 31
-47z m-1335 -41 c55 -41 708 -417 750 -432 49 -17 190 -18 238 0 20 7 98 48
173 92 117 68 136 83 136 104 1 48 14 55 51 28 67 -50 725 -426 764 -437 55
-15 163 -14 216 3 43 13 692 384 758 434 38 28 51 20 51 -35 0 -51 -39 -84
-227 -194 -98 -56 -259 -150 -358 -207 -99 -58 -200 -111 -224 -119 -57 -17
-155 -17 -213 1 -66 19 -763 422 -793 458 l-25 30 0 -54 0 -54 -143 -82 c-79
-45 -159 -87 -178 -92 -48 -14 -177 -12 -220 4 -53 19 -739 414 -771 444 -30
27 -44 77 -33 111 8 26 9 26 48 -3z m-1309 -286 c0 -165 -3 -211 -22 -297
-113 -521 -457 -969 -1044 -1359 -293 -196 -587 -330 -973 -445 l-100 -30
-341 173 c-200 101 -337 176 -331 180 32 20 85 -1 373 -148 l305 -156 152 47
c502 155 929 394 1292 722 327 296 539 638 627 1012 16 67 21 130 24 281 2
107 7 218 10 245 l7 50 10 -40 c6 -22 11 -128 11 -235z m1302 -41 c27 -23 705
-416 750 -435 20 -8 66 -18 103 -21 90 -7 155 16 316 110 100 59 131 73 133
61 2 -9 2 -17 0 -18 -45 -32 -294 -167 -323 -175 -55 -15 -152 -14 -207 3 -67
20 -747 411 -785 452 -24 24 -33 43 -33 66 l1 33 13 -30 c7 -16 22 -37 32 -46z
m-46 -144 c0 -8 -20 -26 -45 -41 -92 -53 -111 -118 -52 -175 32 -32 739 -446
854 -501 44 -21 83 -31 135 -35 109 -8 176 13 333 106 130 77 134 78 139 55 4
-13 21 -34 39 -47 58 -44 721 -424 762 -438 53 -17 170 -16 221 3 71 26 751
427 778 459 29 34 34 24 11 -20 -17 -34 -27 -40 -435 -277 -323 -187 -381
-214 -465 -214 -89 0 -150 28 -506 231 -195 111 -363 209 -373 218 -10 9 -26
28 -35 42 l-16 27 -110 -66 c-160 -95 -191 -105 -310 -105 -66 0 -114 6 -142
16 -47 17 -828 464 -881 504 -45 34 -65 77 -59 126 6 45 33 77 97 118 51 33
60 35 60 14z m1396 -66 c26 -22 704 -416 752 -436 24 -11 68 -17 124 -17 84
-1 89 0 175 45 191 100 680 391 711 424 37 40 43 24 10 -25 -17 -24 -116 -86
-383 -241 -198 -115 -382 -216 -409 -224 -61 -18 -136 -19 -201 -2 -59 16
-745 405 -792 450 -26 24 -33 39 -33 66 l1 36 13 -30 c7 -16 22 -37 32 -46z
m-21370 -277 c-69 -102 -96 -185 -96 -296 0 -44 7 -103 15 -129 51 -168 208
-337 419 -451 740 -403 1931 -242 2288 309 59 91 81 176 76 293 -3 86 -7 106
-39 172 -20 41 -52 96 -72 123 -26 32 -37 57 -37 80 l1 32 44 -50 c57 -64 120
-185 140 -266 44 -190 -24 -389 -190 -548 -202 -194 -471 -316 -840 -382 -171
-31 -511 -38 -696 -15 -409 52 -752 196 -959 405 -246 248 -265 542 -52 805
l47 58 3 -30 c2 -22 -10 -49 -52 -110z m23163 0 c1 -23 -8 -41 -31 -66 -28
-28 -592 -362 -736 -435 -54 -28 -159 -38 -231 -22 -63 13 -756 405 -808 457
-34 33 -44 81 -23 114 8 12 11 12 27 -2 33 -29 726 -428 770 -443 56 -19 170
-19 226 0 50 17 742 417 772 446 18 18 20 18 27 2 3 -10 7 -33 7 -51z m-1839
-435 c0 -7 -15 -21 -32 -31 -18 -10 -48 -33 -65 -49 -41 -38 -45 -88 -10 -129
12 -15 216 -139 454 -276 344 -198 443 -251 489 -260 155 -32 177 -23 664 260
228 132 423 248 434 257 10 9 25 31 33 49 20 48 -3 89 -72 133 -30 19 -55 40
-55 48 0 17 17 10 79 -30 57 -37 81 -74 81 -122 0 -73 -18 -86 -470 -350 -234
-136 -447 -254 -474 -262 -64 -19 -198 -19 -264 0 -47 14 -865 478 -906 514
-27 24 -46 66 -46 103 0 52 40 101 115 141 37 20 45 21 45 4z m-6755 -552
c257 -39 490 -145 614 -281 28 -31 51 -60 51 -65 0 -5 17 -9 39 -9 44 0 55
-10 65 -60 22 -106 13 -225 -20 -277 -8 -12 -14 -34 -14 -47 0 -41 18 -42 315
-17 141 12 227 26 467 73 l157 31 -1 28 c-1 26 -14 34 -227 140 -124 61 -255
125 -290 141 -47 22 -61 32 -50 38 35 20 76 12 154 -26 214 -107 581 -298 593
-309 11 -10 2 -15 -45 -28 -107 -30 -539 -118 -795 -162 -43 -7 -92 -18 -110
-23 -18 -6 -57 -14 -87 -17 -86 -11 -100 -35 -76 -125 18 -69 8 -184 -21 -241
-9 -18 -10 -29 -2 -37 7 -7 4 -16 -13 -29 -59 -48 -109 -97 -109 -108 0 -21
49 -58 77 -58 15 0 63 6 105 13 100 16 123 10 148 -40 11 -22 24 -40 29 -40
15 0 18 -71 5 -85 -7 -7 -50 -18 -96 -25 -110 -17 -118 -22 -118 -70 0 -49 9
-54 118 -71 120 -18 120 -19 78 -111 -41 -90 -50 -94 -146 -79 -112 18 -140
15 -177 -21 -18 -18 -33 -37 -33 -44 0 -7 29 -29 65 -50 35 -21 67 -43 69 -51
9 -23 -168 -126 -215 -125 -15 0 -54 16 -86 34 -32 19 -66 37 -75 41 -20 7
-139 -28 -149 -45 -4 -6 2 -31 12 -55 24 -55 24 -70 2 -81 -28 -14 -250 -45
-276 -38 -16 4 -30 20 -42 48 -32 74 -39 78 -124 78 -42 0 -81 -4 -88 -8 -7
-4 -22 -29 -33 -55 -30 -68 -41 -71 -178 -52 -175 25 -178 27 -144 107 11 24
17 49 15 55 -3 7 -34 22 -69 33 -72 22 -81 20 -163 -30 -30 -19 -65 -32 -84
-32 -44 1 -219 99 -215 121 2 8 32 33 68 53 36 21 67 43 69 49 2 6 -12 27 -30
46 l-34 35 -80 -7 c-44 -5 -102 -9 -130 -9 l-50 -1 -37 75 -37 75 0 -42 c-1
-29 -8 -50 -21 -63 -11 -11 -20 -24 -20 -29 0 -5 -6 -11 -14 -14 -22 -9 -46
-100 -46 -175 0 -81 23 -158 70 -236 43 -71 130 -166 155 -170 11 -2 20 -7 19
-12 -1 -24 189 -133 321 -184 110 -42 248 -79 385 -102 151 -26 459 -35 612
-19 394 43 736 182 933 379 125 126 179 243 180 387 0 105 -25 179 -92 278
-36 53 -53 88 -53 109 l0 32 31 -30 c40 -38 113 -156 134 -219 23 -66 31 -212
15 -284 -63 -283 -390 -535 -840 -645 -535 -130 -1180 -55 -1565 184 -38 24
-86 52 -105 62 -19 10 -35 22 -34 26 0 4 -11 16 -24 26 -152 120 -258 285
-278 434 -3 26 -12 61 -19 79 -10 24 -11 33 -2 36 24 9 -5 21 -44 18 -24 -1
-50 -10 -62 -21 -24 -23 -37 -25 -37 -7 0 7 -3 8 -8 2 -12 -16 -71 -47 -81
-41 -4 3 -17 -3 -29 -14 -14 -14 -22 -16 -25 -7 -4 7 -6 6 -6 -4 -1 -17 -41
-39 -72 -39 -24 0 -69 -46 -69 -71 0 -10 -4 -20 -9 -24 -5 -3 -24 -42 -41 -88
-63 -169 -79 -204 -217 -496 -91 -194 -238 -428 -329 -528 l-39 -42 -142 111
c-113 88 -141 114 -132 125 6 7 18 13 25 13 7 0 64 -40 126 -90 61 -49 115
-90 120 -90 11 0 108 131 172 234 54 85 153 280 161 314 2 9 16 51 31 92 14
41 28 86 29 100 6 46 31 155 38 167 4 6 3 14 -3 18 -6 4 -4 18 6 38 9 18 13
29 9 25 -5 -4 -13 0 -20 8 -10 15 -16 12 -49 -20 -20 -21 -33 -42 -30 -48 4
-7 2 -8 -5 -4 -6 4 -8 13 -4 19 4 7 8 18 9 25 1 7 8 20 15 29 7 8 14 20 15 27
1 6 23 64 48 130 157 401 243 876 253 1394 l6 272 336 0 c185 0 387 3 449 7
111 6 112 6 118 32 15 61 70 145 139 209 123 115 319 202 542 241 136 24 377
27 518 6z m4450 -1382 c-138 -442 -146 -473 -125 -473 6 0 10 -6 10 -14 0 -8
28 -31 63 -50 57 -33 63 -34 75 -19 6 9 12 14 12 10 0 -4 18 2 40 13 l39 20
60 187 c33 104 79 252 102 331 48 158 36 148 127 115 40 -15 42 -18 42 -57 1
-39 8 -49 127 -176 241 -257 384 -413 381 -415 -2 -2 -77 3 -168 11 -214 17
-242 17 -266 -2 -10 -8 -13 -13 -6 -9 6 3 12 1 12 -4 0 -6 0 -14 0 -18 0 -4
-18 -6 -40 -4 l-40 3 0 -101 0 -101 73 0 c39 -1 95 -3 122 -5 56 -4 197 -12
416 -21 l146 -7 51 29 52 29 0 85 0 85 -144 160 c-80 88 -143 161 -141 163 1
2 97 -52 211 -119 115 -67 279 -162 364 -212 85 -49 168 -101 183 -116 73 -67
90 -183 40 -259 -16 -22 -40 -49 -54 -61 -14 -11 -160 -98 -325 -193 -164 -96
-460 -268 -658 -383 -197 -114 -386 -217 -420 -228 -93 -31 -324 -31 -418 0
-61 21 -1352 754 -1418 805 -14 11 -37 38 -52 60 -23 33 -28 52 -28 100 0 33
7 75 15 92 33 70 16 58 753 488 150 87 279 161 286 164 11 4 78 -65 204 -210
l33 -37 46 28 c56 34 62 52 55 156 -5 76 -5 77 -58 136 l-54 59 43 25 c74 43
141 74 187 85 65 16 85 19 88 11 2 -4 -18 -74 -43 -156z m-15086 -593 c-6
-337 2 -408 67 -608 55 -169 185 -403 313 -562 132 -165 361 -375 561 -516
151 -107 107 -101 362 -45 145 32 244 60 282 79 l60 29 80 -34 c76 -32 250
-98 289 -110 39 -12 12 -21 -63 -22 -114 -1 -160 -8 -394 -57 -222 -47 -251
-58 -219 -82 32 -24 228 -120 372 -181 1272 -545 2989 -630 4416 -220 311 89
584 194 860 329 289 142 491 273 656 429 66 61 72 70 60 85 -8 9 -66 57 -130
107 -64 50 -117 94 -119 98 -1 3 7 12 18 19 18 11 34 0 162 -104 79 -63 144
-119 146 -123 4 -10 -170 -176 -243 -232 -437 -334 -1155 -624 -1913 -774
-284 -55 -522 -88 -857 -117 -226 -19 -901 -16 -1140 6 -744 67 -1369 215
-1938 457 -224 96 -535 258 -510 266 6 2 120 28 253 58 194 43 247 58 264 75
l21 23 -22 -6 c-13 -3 -23 -2 -23 2 0 22 -284 -23 -583 -93 -21 -5 -158 85
-317 208 -139 107 -367 336 -462 463 -281 375 -405 786 -358 1183 16 136 21
145 36 75 7 -33 13 -80 13 -105z m13607 -798 c19 -15 73 -50 121 -78 49 -28
345 -199 659 -381 336 -195 597 -340 635 -353 133 -45 349 -37 475 19 23 11
332 187 686 393 659 383 717 421 737 490 l9 33 1 -35 c1 -44 -28 -107 -65
-142 -31 -29 -60 -46 -809 -481 -275 -159 -522 -300 -550 -313 -88 -41 -185
-57 -309 -51 -186 9 -99 -34 -1131 560 -247 142 -460 268 -473 280 -39 37 -60
80 -67 137 l-6 55 26 -53 c15 -29 42 -65 61 -80z m3536 -361 c64 -57 91 -111
91 -181 0 -106 -64 -181 -239 -281 -55 -31 -169 -97 -254 -147 -85 -49 -384
-223 -665 -386 -586 -341 -596 -345 -796 -353 -135 -6 -243 9 -340 48 -43 16
-584 325 -1384 788 -282 164 -330 212 -329 336 1 102 52 169 197 253 96 57
107 61 102 35 -2 -10 -4 -23 -4 -30 -1 -6 -29 -28 -63 -49 -97 -58 -135 -91
-157 -137 -53 -110 -6 -192 172 -295 912 -530 1464 -844 1518 -862 149 -51
358 -49 501 3 60 22 1537 873 1606 925 45 34 83 102 84 150 1 81 -52 144 -182
218 -64 36 -70 42 -70 71 l0 32 81 -47 c45 -26 104 -67 131 -91z"/>
<path d="M17750 12779 c-928 -48 -1825 -280 -2515 -652 -170 -91 -268 -154
-390 -252 -102 -81 -254 -228 -313 -303 l-34 -42 82 0 82 0 72 63 c367 326
988 615 1711 796 1026 256 2218 266 3270 25 262 -60 651 -177 780 -234 22 -10
74 -32 115 -48 42 -17 129 -55 194 -86 66 -31 120 -56 122 -56 6 0 94 132 94
140 0 6 -49 35 -110 65 -852 427 -2019 643 -3160 584z"/>
<path d="M21145 11927 c-39 -55 -75 -110 -82 -122 -25 -45 -306 -441 -321
-452 -9 -7 -25 -13 -37 -13 -15 0 -36 -21 -70 -67 -43 -58 -49 -72 -47 -110 1
-32 -2 -43 -13 -43 -9 0 -15 -9 -15 -24 0 -13 -8 -27 -17 -31 -17 -7 -16 -8 2
-15 17 -7 17 -9 3 -9 -10 -1 -18 -7 -18 -14 0 -7 -9 -18 -20 -24 -10 -7 -22
-28 -25 -47 -4 -20 -14 -36 -24 -39 -10 -2 -21 -18 -24 -36 -4 -18 -13 -31
-22 -31 -9 0 -15 -9 -15 -21 0 -11 -6 -26 -12 -33 -7 -8 -20 -24 -28 -36 -8
-12 -21 -28 -27 -36 -7 -7 -13 -19 -13 -27 0 -8 -9 -17 -20 -20 -15 -4 -20
-14 -20 -37 0 -23 -5 -33 -20 -37 -11 -3 -20 -13 -20 -23 0 -23 -67 -93 -80
-85 -6 3 -10 1 -10 -4 0 -6 3 -11 8 -11 4 0 6 -18 4 -40 -2 -22 0 -40 4 -40 5
0 8 -25 7 -55 -1 -40 2 -53 10 -48 7 4 4 -6 -7 -21 -11 -17 -13 -25 -5 -20 11
6 12 5 2 -7 -7 -8 -15 -35 -19 -59 -3 -25 -28 -92 -56 -150 -76 -160 -147
-253 -293 -379 -101 -87 -240 -182 -297 -202 -25 -9 -38 -19 -38 -31 0 -16 6
-17 43 -12 67 9 73 12 51 28 -10 8 -16 18 -12 22 12 12 91 13 129 2 30 -8 42
-7 75 10 22 11 46 28 53 36 11 13 17 14 29 4 12 -11 6 -20 -42 -63 l-56 -50
270 -138 c159 -82 277 -136 287 -133 175 50 223 68 223 85 0 10 8 25 18 34 16
15 21 15 46 2 16 -8 33 -15 38 -15 23 0 253 96 368 154 613 308 1088 774 1279
1252 l19 49 11 -29 c11 -27 6 -41 -48 -150 -149 -304 -398 -589 -728 -837
-325 -245 -670 -419 -1090 -549 l-155 -49 -291 145 c-266 133 -328 157 -314
121 3 -8 -1 -14 -9 -14 -7 0 -11 5 -7 10 3 5 -4 4 -16 -2 -11 -7 -21 -15 -21
-19 0 -4 115 -66 255 -137 140 -72 255 -133 255 -136 0 -13 -543 -130 -676
-145 -30 -4 -58 -12 -62 -18 -11 -17 -31 -150 -23 -158 3 -3 210 -111 460
-238 l454 -232 176 57 c437 141 711 282 1056 541 727 547 1018 1275 785 1964
-135 400 -480 808 -940 1114 -69 46 -130 85 -135 89 -6 3 -42 -40 -80 -96z"/>
<path d="M14339 11308 c-56 -87 -190 -363 -233 -480 -74 -201 -191 -664 -160
-635 4 4 9 13 10 20 6 41 83 290 121 392 54 143 162 367 236 485 52 84 53 85
96 88 24 2 54 10 67 19 30 19 32 53 4 53 -28 0 -23 45 8 88 l24 32 -66 0 -67
0 -40 -62z"/>
<path d="M17790 11229 c-376 -39 -782 -157 -1044 -303 -74 -42 -175 -131 -232
-206 -21 -28 -42 -50 -47 -50 -4 0 -24 12 -43 26 l-34 26 -25 -53 -24 -54 24
-25 c14 -15 25 -35 25 -46 0 -11 -18 -61 -39 -111 -79 -182 -130 -349 -177
-577 -28 -140 -29 -165 -7 -181 17 -13 10 -35 -12 -35 -20 0 -23 -17 -34 -177
-6 -81 -13 -178 -16 -214 -6 -81 -8 -79 120 -79 l94 0 41 86 c38 82 40 92 40
182 l0 94 36 -27 c20 -15 39 -23 44 -19 4 5 31 38 59 74 80 100 142 146 306
226 297 144 630 230 1020 263 132 12 472 15 462 4 -4 -3 -30 -7 -59 -7 -29 -1
-58 -4 -63 -8 -6 -4 -17 -3 -24 1 -16 10 -51 2 -51 -11 0 -6 -8 -8 -19 -5 -10
2 -26 0 -35 -5 -11 -6 -16 -5 -16 4 0 9 -3 9 -12 0 -15 -15 -31 -16 -22 0 5 8
3 8 -7 2 -8 -5 -25 -10 -39 -10 -14 -1 -27 -3 -30 -4 -3 -1 -14 -3 -25 -4 -11
0 -19 -6 -18 -13 2 -7 -7 -11 -20 -10 -34 3 -161 -15 -167 -23 -5 -7 -116 -38
-158 -44 -36 -5 -48 -22 -28 -41 32 -32 17 -85 -24 -85 -33 0 -47 15 -52 54
-4 36 -20 43 -44 19 -9 -10 -20 -17 -23 -15 -11 6 -71 -9 -71 -17 0 -5 25 -25
55 -46 53 -35 73 -54 38 -36 -119 59 -170 70 -191 39 -15 -21 -132 -78 -161
-78 -17 0 -36 -25 -33 -42 1 -3 -12 -9 -27 -13 -16 -3 -32 -13 -35 -21 -3 -8
-10 -14 -17 -14 -12 0 -69 -51 -69 -62 0 -5 -9 -17 -20 -28 -11 -11 -20 -18
-20 -15 0 3 -10 -3 -22 -15 -12 -11 -28 -20 -35 -20 -7 0 -10 -6 -7 -13 2 -7
-9 -30 -25 -51 -30 -38 -32 -56 -7 -56 6 0 17 5 24 12 12 12 23 16 77 24 16 2
34 9 39 14 6 6 20 10 33 10 13 0 31 4 41 9 38 19 161 55 218 65 16 2 29 5 29
6 0 1 7 3 15 5 8 1 71 14 140 28 123 25 234 40 277 38 12 0 26 5 30 12 6 8 42
12 118 13 344 2 416 4 410 15 -10 15 3 56 20 62 22 9 46 -20 39 -47 -5 -23 -3
-23 98 -30 285 -20 606 -82 827 -160 24 -9 52 -16 63 -16 11 0 26 -7 34 -15 9
-8 32 -15 52 -15 35 1 36 1 17 16 -19 15 -17 16 27 12 45 -3 47 -2 53 28 5 27
13 35 60 54 102 42 264 157 370 264 145 145 225 284 254 438 9 49 7 66 -10
114 -23 68 -79 172 -122 229 -92 122 -271 272 -457 384 -32 19 -33 21 -11 21
23 0 24 1 6 14 -16 12 -13 14 34 20 34 4 51 11 48 19 -6 19 -67 27 -167 21
-95 -6 -96 -6 -221 39 -229 83 -456 135 -713 162 -159 16 -560 19 -706 4z"/>
<path d="M15680 11174 c6 -6 6 -15 2 -19 -4 -5 -2 -5 5 -1 7 3 14 -2 18 -14 3
-11 9 -19 13 -17 8 2 38 -23 90 -74 21 -20 98 -86 172 -147 146 -120 148 -120
149 -35 l1 43 -150 107 c-201 145 -249 173 -282 171 -19 -2 -24 -6 -18 -14z"/>
<path d="M16161 10826 c-6 -25 -11 -49 -11 -53 0 -11 135 -123 148 -123 6 0
12 6 15 13 3 6 12 29 21 49 l16 37 -83 60 c-45 33 -85 61 -88 61 -4 0 -12 -20
-18 -44z"/>
<path d="M17853 9543 c-19 -2 -33 -10 -33 -18 0 -11 -6 -12 -30 -4 -21 8 -50
7 -99 -1 -39 -6 -81 -13 -93 -15 -13 -1 -43 -8 -68 -14 -25 -6 -52 -13 -60
-15 -80 -20 -221 -61 -245 -71 -16 -7 -59 -23 -95 -35 -77 -27 -300 -139 -300
-151 0 -5 -12 -15 -27 -23 -31 -16 -69 -16 492 4 619 23 1189 75 1590 145 194
33 246 45 240 55 -6 9 -197 63 -305 85 -214 45 -340 57 -640 60 -162 2 -310 1
-327 -2z"/>
<path d="M19110 9344 c-114 -25 -399 -72 -575 -94 -93 -11 -186 -23 -205 -25
-220 -28 -943 -73 -1307 -82 -276 -6 -303 -10 -303 -42 0 -6 12 -14 26 -17 14
-4 21 -10 15 -13 -6 -4 -7 -12 0 -21 8 -13 11 -13 23 3 14 18 32 24 21 7 -4
-7 3 -9 22 -5 21 5 24 4 13 -4 -22 -15 -3 -26 48 -27 26 0 119 -7 207 -14 197
-16 821 -8 1105 14 215 17 375 36 378 45 2 5 18 7 36 4 58 -9 529 68 553 91 9
9 43 154 43 187 0 12 -21 10 -100 -7z"/>
<path d="M19237 9260 c-10 -57 -12 -91 -5 -103 5 -10 8 -69 7 -130 -2 -98 -1
-112 14 -115 26 -5 20 -26 -11 -38 -26 -10 -31 -20 -51 -104 -12 -51 -18 -97
-14 -101 10 -9 129 -69 139 -69 3 0 4 13 1 29 -3 16 -1 33 6 40 9 10 8 15 -7
26 -24 18 -22 37 48 414 20 107 36 204 36 216 0 22 -4 23 -74 22 l-74 -1 -15
-86z"/>
<path d="M19543 9278 c-4 -7 -8 -15 -8 -18 -1 -3 -8 -18 -16 -34 -13 -23 -17
-26 -22 -12 -4 10 -1 19 8 22 8 4 12 11 8 17 -4 6 -1 7 7 2 9 -6 11 -4 5 5 -6
10 -10 10 -19 -2 -6 -8 -21 -17 -32 -20 -17 -4 -20 -2 -17 13 7 24 -14 25 -21
2 -12 -41 -18 -116 -9 -110 5 3 9 -8 8 -24 0 -16 -3 -29 -7 -29 -5 0 -8 -5 -8
-11 0 -5 6 -7 13 -3 10 6 10 4 0 -7 -7 -7 -13 -17 -13 -22 0 -4 6 -5 13 -2 6
4 5 0 -4 -7 -9 -7 -20 -32 -23 -54 l-7 -42 188 33 c173 31 360 68 408 82 14 4
-29 30 -159 94 -97 49 -182 86 -188 83 -6 -4 -8 -3 -5 3 3 5 -14 19 -39 31
-52 26 -51 26 -61 10z"/>
<path d="M12960 9170 c-1186 -31 -2077 -117 -2800 -271 -232 -49 -360 -82
-361 -92 -3 -17 24 -168 30 -172 4 -2 56 9 117 24 60 15 150 36 201 46 51 10
90 22 87 27 -5 8 12 11 56 10 50 -1 212 31 198 39 -15 10 -15 10 97 13 39 1
169 16 290 34 181 25 454 56 780 87 233 22 260 26 276 41 13 12 27 14 51 9 48
-11 138 -12 216 -4 124 13 369 33 542 44 47 3 108 8 135 10 28 2 102 6 165 10
294 16 540 50 540 75 0 4 14 13 30 19 17 5 30 14 30 19 0 6 11 13 25 16 105
27 -106 31 -705 16z"/>
<path d="M16106 9124 c-12 -11 -16 -36 -16 -99 l0 -83 71 -4 c40 -2 74 1 78 7
15 20 65 184 59 191 -4 4 -21 1 -37 -5 -21 -9 -35 -10 -49 -2 -30 16 -88 13
-106 -5z"/>
<path d="M19077 8715 c-12 -26 -13 -35 -4 -36 6 0 3 -4 -8 -9 -17 -7 -17 -9
-2 -9 9 -1 17 -6 17 -12 0 -6 -9 -8 -20 -4 -16 5 -20 2 -20 -18 0 -16 -7 -26
-18 -30 -11 -2 -22 -17 -25 -36 -4 -18 -13 -31 -22 -31 -9 0 -15 -9 -15 -21 0
-11 -6 -26 -12 -33 -7 -8 -20 -24 -28 -36 -8 -12 -21 -28 -27 -36 -7 -7 -13
-19 -13 -27 0 -8 -9 -17 -20 -20 -15 -4 -20 -14 -20 -37 0 -23 -5 -33 -20 -37
-15 -4 -20 -14 -20 -37 0 -23 -6 -34 -22 -41 -13 -6 -27 -24 -32 -42 -5 -18
-13 -33 -17 -33 -5 0 -9 -10 -9 -22 0 -12 -15 -35 -34 -52 -46 -41 -51 -70
-13 -74 16 -2 35 2 43 9 9 8 14 8 14 0 0 -7 8 -8 24 -1 13 5 26 7 29 4 18 -19
1067 145 1067 166 0 11 -186 95 -226 102 -10 1 -21 6 -24 9 -8 10 -80 21 -80
12 0 -5 19 -21 42 -36 74 -48 24 -29 -144 54 -178 88 -174 86 -165 95 3 4 25
-1 47 -10 44 -18 63 -14 54 9 -4 8 -11 12 -17 8 -6 -3 -7 -1 -3 5 4 6 0 25 -9
41 -8 17 -15 45 -15 63 0 31 -5 36 -74 73 -41 22 -78 37 -82 33 -3 -4 -7 -46
-8 -93 -1 -66 -4 -84 -14 -80 -8 3 -16 5 -18 5 -2 0 -4 7 -4 16 0 9 -5 12 -12
8 -7 -4 -5 2 5 13 18 21 23 43 8 43 -5 0 -12 -6 -14 -12 -4 -8 -6 -7 -6 3 -1
9 8 19 19 22 15 4 19 12 16 36 -2 17 1 28 5 25 5 -3 9 2 9 10 0 9 -13 22 -29
30 -29 15 -33 34 -16 85 10 32 1 25 -18 -14z"/>
<path d="M9395 8691 c-281 -104 -416 -168 -630 -300 -578 -356 -964 -810
-1094 -1283 -22 -81 -52 -248 -50 -283 0 -11 5 -5 10 15 92 337 263 623 534
895 229 230 555 461 857 608 135 65 361 156 475 190 l83 25 9 -36 c5 -21 15
-70 22 -110 7 -39 14 -70 16 -68 2 2 -10 92 -28 200 -30 183 -33 196 -53 196
-12 -1 -79 -23 -151 -49z"/>
<path d="M19320 8523 c0 -26 634 -349 661 -337 16 7 -48 44 -321 182 -270 138
-340 169 -340 155z"/>
<path d="M9687 8015 c11 -73 42 -161 65 -182 26 -23 79 -43 116 -43 25 0 25 0
19 74 -3 41 -10 83 -15 93 -7 12 -43 29 -96 47 -46 15 -87 33 -90 39 -3 7 -3
-6 1 -28z"/>
<path d="M13025 7633 c-709 -20 -1393 -75 -1844 -147 -68 -10 -94 -11 -140 -1
-76 17 -294 72 -358 91 -43 12 -60 13 -93 3 l-41 -13 145 -50 c150 -53 176
-66 135 -67 l-24 0 25 -11 c22 -9 11 -14 -96 -43 -201 -56 -304 -105 -456
-217 -184 -136 -333 -326 -384 -491 -17 -54 -17 -60 0 -132 39 -167 149 -333
315 -479 l44 -38 -17 -34 c-9 -19 -16 -39 -16 -44 0 -5 37 17 83 49 144 103
253 154 422 197 33 8 77 20 98 25 l37 10 0 63 0 64 123 -40 122 -39 140 20
c167 25 340 46 490 61 144 14 165 16 405 35 270 21 764 42 1215 51 171 3 313
9 316 12 13 13 79 230 108 352 52 219 84 441 97 688 l7 132 -384 -2 c-211 -1
-424 -3 -474 -5z"/>
<path d="M13927 7633 c-4 -3 -7 -16 -7 -28 l0 -22 323 -2 c315 -1 1024 -16
1282 -26 72 -2 214 -7 317 -11 l187 -7 7 27 c3 15 5 28 3 30 -2 2 -202 9 -444
15 -1127 30 -1655 38 -1668 24z"/>
<path d="M13841 6905 c-18 -90 -80 -311 -107 -383 l-24 -63 27 3 c23 2 29 11
40 48 14 48 53 238 73 356 16 88 7 121 -9 39z"/>
<path d="M9861 6450 c-1 -101 48 -246 122 -362 40 -62 144 -188 155 -188 4 0
22 28 39 63 l31 63 -68 62 c-111 100 -220 257 -266 382 l-13 35 0 -55z"/>
<path d="M10917 5749 l-26 -27 27 -11 c49 -20 255 -69 382 -90 216 -36 590
-62 590 -42 0 6 -11 11 -24 11 -13 0 -29 7 -36 15 -7 8 -21 15 -31 15 -25 0
-33 17 -12 24 10 3 6 4 -9 2 -16 -2 -33 3 -39 10 -6 8 -17 14 -24 14 -7 0 -18
7 -25 15 -7 8 -22 15 -34 15 -12 0 -26 4 -32 9 -9 10 -55 23 -144 42 -24 5
-89 7 -145 4 -55 -3 -129 -7 -164 -9 -35 -2 -89 3 -120 10 -91 23 -105 22
-134 -7z"/>
<path d="M14720 5720 c-33 -18 -34 -21 -10 -24 5 0 45 -33 87 -73 96 -88 213
-183 225 -183 5 0 11 6 14 14 12 32 64 28 64 -4 0 -10 -7 -26 -16 -35 -10 -9
-13 -20 -8 -25 33 -32 160 -130 169 -130 19 0 80 69 69 78 -32 29 -214 161
-364 263 -58 39 -114 79 -125 89 -53 46 -67 50 -105 30z"/>
<path d="M10725 5671 c-76 -21 -85 -27 -85 -55 0 -19 14 -30 73 -58 67 -34
229 -93 272 -101 11 -2 38 -9 60 -15 88 -25 174 -42 245 -48 41 -3 78 -8 81
-10 12 -7 202 -16 331 -15 104 1 248 16 328 36 8 2 28 4 44 4 20 1 27 5 23 15
-3 8 -1 16 5 18 15 5 -68 61 -112 76 -19 7 -95 12 -185 12 -292 0 -602 46
-883 130 -110 34 -115 34 -197 11z"/>
<path d="M10161 5389 c-79 -171 -96 -199 -118 -199 -10 0 -34 -5 -53 -10 -30
-8 -40 -19 -68 -75 -18 -37 -32 -81 -32 -101 l0 -36 42 7 c121 21 116 16 186
170 51 114 60 141 49 150 -20 14 -9 35 17 35 31 0 48 55 44 137 l-3 62 -64
-140z"/>
<path d="M4800 9730 c-284 -39 -516 -141 -647 -284 -121 -132 -142 -281 -60
-416 48 -79 52 -80 132 -26 170 117 359 181 615 207 343 35 730 -55 949 -220
30 -23 58 -41 63 -41 4 0 23 24 43 53 162 245 -10 523 -409 659 -61 20 -151
45 -201 54 -105 18 -390 27 -485 14z"/>
<path d="M4773 9159 c-97 -14 -245 -55 -337 -92 -91 -37 -224 -120 -234 -145
-13 -36 163 -144 323 -197 78 -27 82 -27 182 -15 56 6 110 9 120 6 10 -3 26
-19 35 -36 l17 -30 119 0 120 0 12 30 c7 16 21 32 31 35 11 4 68 1 127 -6 107
-12 109 -12 192 16 94 31 184 73 245 115 48 33 85 65 85 73 0 14 -135 100
-212 137 -176 82 -374 121 -614 119 -82 -1 -177 -5 -211 -10z"/>
<path d="M4110 8828 c-44 -60 -74 -166 -66 -230 6 -43 18 -80 31 -96 2 -2 32
13 67 33 36 19 75 35 88 35 12 0 55 -18 95 -40 83 -46 103 -48 180 -19 61 23
66 35 35 87 -11 18 -20 43 -20 56 0 20 -10 27 -62 46 -78 27 -177 80 -245 131
-29 22 -57 39 -63 39 -5 0 -24 -19 -40 -42z"/>
<path d="M5785 8829 c-53 -43 -202 -119 -273 -141 -23 -7 -40 -18 -38 -24 2
-6 -7 -35 -20 -64 -29 -62 -24 -71 46 -94 71 -23 91 -20 168 24 38 22 82 40
98 40 16 -1 58 -19 94 -40 l65 -40 12 27 c22 53 25 119 8 185 -17 66 -76 169
-98 167 -6 0 -34 -18 -62 -40z"/>
<path d="M4824 8386 c-145 -24 -306 -88 -383 -153 l-34 -29 41 -18 40 -18 39
30 c107 86 282 136 473 135 190 0 323 -36 447 -119 63 -42 68 -44 99 -32 19 7
34 15 34 19 0 16 -78 72 -147 105 -161 78 -417 112 -609 80z"/>
<path d="M4895 8261 c-80 -13 -136 -31 -195 -62 -66 -34 -96 -57 -87 -65 12
-13 136 -34 264 -45 145 -13 315 -2 445 27 68 16 69 16 52 35 -24 27 -127 76
-198 94 -73 18 -215 26 -281 16z"/>
<path d="M4350 8128 c-162 -263 216 -546 700 -525 360 16 633 185 634 392 0
56 -16 109 -42 143 -17 22 -18 22 -58 6 l-41 -16 18 -38 c41 -86 10 -203 -74
-276 -54 -47 -161 -98 -262 -125 -105 -28 -325 -31 -430 -6 -174 42 -282 107
-346 206 -36 56 -40 145 -10 204 l19 38 -35 14 c-48 20 -50 20 -73 -17z"/>
<path d="M4551 8059 c-55 -158 120 -300 399 -325 85 -7 203 8 287 37 163 56
253 178 209 283 -11 27 -20 36 -31 32 -121 -46 -552 -57 -732 -18 -55 12 -106
22 -111 22 -6 0 -15 -14 -21 -31z"/>
<path d="M17835 6869 c-175 -21 -359 -81 -493 -161 -77 -45 -174 -142 -206
-205 -35 -70 -34 -83 7 -83 156 0 786 34 1132 61 263 20 295 23 418 35 47 5
67 4 67 -5 0 -6 7 -11 16 -11 12 0 14 3 6 13 -9 10 -3 14 29 15 22 2 49 6 60
10 18 7 17 10 -17 50 -99 117 -303 217 -534 263 -113 23 -369 32 -485 18z"/>
<path d="M18813 6433 c-7 -2 -13 -9 -13 -14 0 -9 -9 -21 -38 -55 -8 -8 -11
-21 -8 -30 5 -14 8 -13 23 2 17 16 18 16 21 1 2 -9 -4 -27 -12 -39 -21 -29
-20 -38 2 -39 10 0 12 -3 5 -6 -8 -3 -2 -14 17 -30 25 -20 32 -22 43 -11 23
22 49 146 28 134 -5 -4 -7 3 -4 14 3 11 0 27 -7 35 -10 12 -10 15 1 15 9 1 8
5 -5 15 -20 15 -32 17 -53 8z"/>
<path d="M18795 5943 c-16 -9 -43 -26 -60 -39 -30 -22 -175 -94 -198 -98 -7
-1 -18 -5 -26 -10 -8 -5 -16 -4 -20 3 -4 7 -14 -3 -24 -24 -25 -52 -22 -74 11
-81 15 -3 40 -10 56 -15 49 -15 71 -10 142 31 38 22 78 40 89 40 11 -1 49 -16
85 -35 l65 -35 12 40 c20 69 -4 177 -49 215 -34 29 -43 30 -83 8z"/>
<path d="M17891 5569 c-102 -12 -212 -44 -291 -83 -68 -33 -140 -83 -140 -96
0 -9 46 -30 66 -30 8 0 32 13 52 30 98 78 254 122 437 122 193 1 328 -34 449
-116 l61 -43 39 17 39 16 -49 36 c-163 119 -425 177 -663 147z"/>
<path d="M17908 5440 c-116 -21 -269 -94 -253 -119 3 -5 49 -17 103 -28 132
-25 409 -25 537 1 49 9 93 20 98 23 24 14 -82 77 -183 107 -64 20 -234 29
-302 16z"/>
<path d="M17406 5331 c-48 -53 -60 -165 -25 -237 32 -68 115 -145 207 -193
366 -190 940 -93 1077 182 37 75 31 176 -15 236 -16 22 -20 23 -54 11 -41 -13
-41 -15 -21 -63 49 -117 -22 -245 -178 -324 -115 -58 -201 -76 -362 -76 -198
0 -314 29 -445 113 -29 19 -53 27 -67 24 -24 -7 -39 11 -24 30 7 9 3 26 -14
61 -30 59 -32 123 -6 181 l19 42 -38 15 c-35 14 -40 13 -54 -2z"/>
<path d="M16815 5190 c0 -94 1 -97 20 -89 11 5 60 15 109 23 93 14 106 23 106
68 0 38 -29 53 -129 67 -46 6 -89 15 -95 20 -8 7 -11 -18 -11 -89z"/>
<path d="M17600 5265 c-18 -22 -24 -88 -11 -128 44 -132 316 -232 537 -197
243 38 392 174 332 306 -14 29 4 29 -188 -1 -82 -13 -145 -16 -290 -12 -162 5
-226 13 -346 42 -12 3 -27 -1 -34 -10z"/>
</g>
</svg>
