<?xml version="1.0" standalone="no"?>
<!DOCTYPE svg PUBLIC "-//W3C//DTD SVG 20010904//EN"
 "http://www.w3.org/TR/2001/REC-SVG-20010904/DTD/svg10.dtd">
<svg version="1.0" xmlns="http://www.w3.org/2000/svg"
 width="5616.000000pt" height="3744.000000pt" viewBox="0 0 5616.000000 3744.000000"
 preserveAspectRatio="xMidYMid meet">
<metadata>
Created by potrace 1.16, written by Peter Selinger 2001-2019
</metadata>
<g transform="translate(0.000000,3744.000000) scale(0.100000,-0.100000)"
fill="#000000" stroke="none">
<path d="M0 18720 l0 -18720 28080 0 28080 0 0 18720 0 18720 -28080 0 -28080
0 0 -18720z m26427 -9940 c-3 -10 0 -21 5 -22 6 -2 13 -27 16 -56 4 -43 2 -52
-12 -53 -64 -5 -83 -14 -102 -50 -19 -38 -41 -37 -46 2 -3 20 2 39 14 55 11
13 24 40 30 60 7 26 17 38 38 45 16 6 31 17 34 25 8 22 29 17 23 -6z m-201
-44 c1 0 5 -11 8 -23 5 -15 3 -23 -4 -23 -8 0 -10 -13 -6 -42 13 -93 12 -111
-12 -119 -15 -6 -21 -5 -17 1 10 16 -14 50 -30 44 -8 -4 -24 -26 -34 -50 -21
-47 -45 -64 -63 -46 -8 8 -7 16 3 28 12 14 10 19 -14 40 -15 12 -23 26 -17 29
5 3 17 21 25 39 9 18 28 39 43 47 32 17 71 59 72 77 0 9 7 11 23 6 12 -3 23
-7 23 -8z m300 -81 c7 -39 -8 -93 -37 -129 -24 -30 -82 -36 -97 -10 -16 28 -1
68 31 89 18 11 40 37 50 57 22 44 44 41 53 -7z m-1383 -337 c30 -23 46 -68 36
-97 -16 -40 -39 -61 -68 -61 -42 0 -73 12 -67 25 2 7 0 17 -4 21 -12 12 18
116 31 109 5 -4 17 -1 26 4 23 13 26 13 46 -1z m-1907 -22 c35 -8 74 -54 74
-89 0 -28 -50 -87 -73 -87 -9 0 -21 -9 -27 -20 -10 -19 -39 -28 -41 -12 -1 4
-3 33 -5 64 -1 31 -8 66 -13 77 -6 11 -11 28 -11 39 0 23 40 53 55 42 6 -4 24
-11 41 -14z"/>
</g>
</svg>
