<?xml version="1.0" standalone="no"?>
<!DOCTYPE svg PUBLIC "-//W3C//DTD SVG 20010904//EN"
 "http://www.w3.org/TR/2001/REC-SVG-20010904/DTD/svg10.dtd">
<svg version="1.0" xmlns="http://www.w3.org/2000/svg"
 width="1024.000000pt" height="639.000000pt" viewBox="0 0 1024.000000 639.000000"
 preserveAspectRatio="xMidYMid meet">
<metadata>
Created by potrace 1.16, written by Peter Selinger 2001-2019
</metadata>
<g transform="translate(0.000000,639.000000) scale(0.100000,-0.100000)"
fill="#000000" stroke="none">
<path d="M0 5010 c0 -913 3 -1380 10 -1380 6 0 10 -5 10 -11 0 -5 -4 -7 -10
-4 -6 4 -10 -618 -10 -1805 l0 -1810 5120 0 5120 0 0 601 c0 596 0 601 -20
596 -16 -4 -20 0 -20 19 0 22 3 23 20 14 20 -11 20 -8 20 380 0 388 0 391 -20
380 -16 -9 -20 -8 -20 5 0 8 9 15 20 15 19 0 20 7 20 251 0 224 -2 253 -17
264 -24 18 -25 46 -2 52 17 5 19 15 19 113 0 104 -1 108 -31 149 -16 23 -34
52 -39 64 -7 17 -9 18 -9 5 -1 -12 -9 -18 -25 -18 -36 0 -41 17 -12 44 l26 23
-26 26 c-14 14 -23 30 -20 35 12 20 -30 41 -84 41 -30 1 -62 1 -70 2 -123 5
-280 8 -297 4 -16 -4 -23 -15 -28 -45 -4 -25 -12 -40 -21 -40 -9 0 -24 -19
-35 -42 -11 -24 -36 -65 -55 -93 -19 -27 -37 -61 -41 -74 -7 -30 -43 -72 -54
-65 -8 4 8 -32 33 -76 4 -8 12 -25 17 -36 7 -16 16 -20 35 -17 30 6 36 -18 11
-44 -18 -17 -17 -18 -36 17 l-13 25 -7 -30 -7 -30 -1 28 c-1 37 -15 60 -46 81
l-26 17 17 -32 c9 -18 23 -39 30 -47 8 -7 14 -20 14 -29 0 -26 -24 1 -50 57
-19 40 -27 49 -42 44 -11 -3 -18 0 -18 8 0 10 -3 9 -10 -2 -8 -12 -10 -11 -10
8 l0 22 -204 0 c-172 0 -205 -2 -210 -15 -3 -8 -16 -15 -29 -15 -34 0 -61 -33
-53 -64 5 -21 1 -28 -25 -41 -30 -16 -31 -16 -24 5 4 13 20 41 35 63 21 31 25
45 17 57 -6 11 -7 23 0 35 8 14 0 36 -39 104 -27 47 -55 93 -62 101 -7 8 -26
42 -42 74 -22 46 -30 55 -32 38 -4 -29 -42 -31 -42 -2 0 13 7 20 20 20 24 0
25 4 4 36 -10 14 -23 23 -30 20 -7 -3 -18 2 -25 10 -11 14 -14 13 -21 -6 -11
-29 -43 -23 -42 8 1 21 -3 22 -67 22 -61 0 -69 -2 -69 -19 0 -23 -29 -36 -36
-16 -3 8 -3 19 1 25 4 7 -33 10 -114 10 -74 0 -121 -4 -121 -10 0 -5 -9 -10
-20 -10 -13 0 -25 -11 -33 -27 -6 -16 -22 -43 -34 -62 -24 -35 -30 -71 -13
-71 6 0 10 -9 10 -20 0 -13 -7 -20 -20 -20 -11 0 -20 7 -20 16 0 25 -14 9 -38
-43 -26 -53 -25 -52 -65 -111 -15 -23 -27 -55 -27 -72 0 -38 -23 -49 -50 -25
-15 14 -23 15 -34 6 -9 -8 -16 -9 -21 -2 -4 7 -78 10 -203 9 -163 0 -200 -3
-215 -16 -16 -14 -19 -14 -34 1 -14 14 -15 20 -4 40 20 37 11 81 -17 85 -22 3
-23 2 -12 -20 l12 -23 -21 22 c-11 12 -21 29 -21 37 0 8 -4 18 -10 21 -6 3
-10 11 -10 17 0 6 11 -1 25 -16 13 -14 31 -26 40 -26 18 0 18 4 4 33 -7 15 -2
12 15 -8 14 -16 25 -36 26 -42 0 -7 10 -19 23 -27 18 -13 62 -15 229 -15 113
1 210 4 215 8 16 10 34 51 28 61 -3 5 4 15 15 22 23 14 60 77 60 103 0 8 4 15
9 15 12 0 61 84 61 104 0 9 5 16 10 16 6 0 10 11 10 25 0 14 5 25 10 25 12 0
14 37 3 42 -5 2 -25 37 -46 80 -21 42 -44 79 -52 82 -8 3 -15 13 -15 22 0 29
-40 84 -62 84 -17 0 -20 5 -15 30 11 55 1 58 -237 58 -244 1 -222 9 -277 -98
-19 -35 -39 -69 -46 -75 -6 -5 -27 -40 -46 -76 -19 -36 -42 -77 -51 -91 -21
-33 -18 -105 5 -111 9 -2 18 -14 22 -26 3 -11 1 -19 -4 -15 -5 3 -9 -3 -10
-13 0 -10 -5 -3 -10 14 -9 30 -44 61 -56 50 -7 -8 48 -99 77 -126 l25 -23 -25
3 c-14 2 -25 9 -25 14 0 6 -9 22 -18 37 -10 15 -28 46 -40 70 -15 28 -30 44
-44 46 -36 5 -28 51 10 65 9 3 17 13 17 22 0 8 9 24 21 36 13 13 19 29 16 41
-3 11 0 21 9 25 26 10 27 -5 4 -42 l-23 -37 24 4 c22 3 24 7 22 58 0 30 2 57
6 60 9 6 61 87 61 95 0 3 -7 5 -15 5 -9 0 -15 9 -15 21 0 17 5 20 25 17 16 -4
25 -1 25 8 0 7 6 17 14 21 19 11 36 47 36 76 0 29 23 41 50 27 11 -6 74 -10
142 -10 68 0 167 1 222 1 71 0 105 4 122 15 24 17 57 66 69 105 4 13 17 34 28
47 l20 22 -21 0 c-17 0 -22 6 -22 25 0 20 5 25 25 25 17 0 25 -6 25 -17 0 -12
7 -7 20 15 11 18 20 46 20 62 0 20 5 30 15 30 26 0 66 75 59 110 -4 18 -1 36
6 45 18 21 58 19 72 -5 12 -18 24 -20 150 -20 l138 0 0 25 c0 21 5 25 30 25
25 0 30 -4 30 -25 0 -23 4 -25 43 -25 30 0 48 6 60 20 33 38 68 16 73 -46 4
-50 23 -94 43 -95 9 -1 23 -2 31 -3 14 -1 15 -20 7 -70 -3 -12 54 -27 76 -20
14 4 17 -1 17 -25 0 -22 -5 -31 -16 -31 -8 0 -22 -7 -30 -15 -22 -22 -42 -19
-69 11 -28 30 -32 54 -10 54 10 0 6 16 -18 63 -26 50 -38 63 -60 65 -19 2 -27
9 -27 23 0 10 -4 19 -9 19 -5 0 -13 9 -16 20 -6 19 -15 20 -217 20 l-210 0
-20 -25 c-11 -14 -28 -25 -39 -25 -13 0 -18 -4 -13 -12 4 -7 3 -10 -1 -5 -9 8
-45 -40 -45 -60 0 -7 -15 -34 -34 -60 -44 -63 -66 -107 -66 -133 0 -13 -8 -24
-18 -27 -27 -7 -62 -82 -59 -125 3 -36 48 -108 68 -108 6 0 7 -5 3 -11 -10
-17 57 -136 83 -148 16 -7 23 -19 23 -38 0 -16 9 -43 20 -60 21 -34 34 -44 24
-18 -4 10 0 15 14 15 26 0 39 -19 21 -30 -10 -7 -10 -11 0 -24 12 -14 45 -16
229 -16 l215 0 26 28 c14 15 26 32 26 37 0 6 10 11 23 13 22 3 23 2 18 -64
l-5 -68 69 -117 c64 -106 72 -116 95 -111 20 3 25 0 25 -17 0 -12 -6 -24 -14
-27 -22 -9 23 -84 51 -84 12 0 28 -9 36 -20 13 -19 24 -20 216 -18 152 1 204
5 213 15 6 7 17 13 24 13 8 0 14 5 14 10 0 20 3 25 26 53 13 15 33 47 44 70
11 23 32 62 47 86 17 29 22 45 15 50 -17 10 -2 51 18 51 26 0 52 35 61 85 7
37 5 53 -12 88 -12 24 -31 47 -43 53 -12 5 -20 17 -18 26 3 17 -33 98 -44 98
-3 0 -2 -10 2 -22 3 -13 3 -20 -1 -16 -4 4 -15 3 -24 -2 -22 -11 -44 3 -39 26
2 12 13 20 31 22 28 3 28 4 10 24 -10 11 -16 21 -15 22 7 3 -22 56 -30 56 -5
0 -7 3 -5 8 3 4 -1 13 -9 19 -7 7 -15 9 -18 5 -3 -5 -15 -8 -28 -7 -18 2 -23
8 -23 28 1 26 -1 27 -63 27 -53 0 -63 -3 -58 -15 3 -8 1 -15 -5 -15 -6 0 -7
-5 -4 -10 4 -6 -7 -10 -25 -10 -17 0 -29 4 -26 8 8 14 -28 10 -42 -4 -7 -7
-19 -11 -27 -8 -19 8 -19 43 0 50 8 4 15 15 15 25 0 27 41 44 69 30 11 -7 21
-16 21 -21 0 -6 34 -10 75 -10 58 0 77 4 81 15 4 8 13 15 21 15 9 0 13 6 9 15
-3 8 -1 15 3 15 5 0 11 -7 15 -15 8 -21 23 -19 29 5 3 11 12 20 20 20 8 0 17
7 21 15 4 11 -2 15 -20 15 -22 0 -25 4 -22 28 3 23 8 27 33 27 24 0 31 -5 33
-23 2 -13 -2 -29 -8 -37 -8 -10 -8 -19 -1 -34 15 -27 4 -51 -24 -51 -35 0 -38
-50 -7 -108 14 -26 29 -50 34 -53 5 -3 10 -10 10 -15 1 -21 22 -53 30 -48 5 3
8 0 7 -7 -4 -16 18 -59 36 -74 7 -5 15 -22 19 -37 3 -15 12 -33 20 -40 7 -8
16 -23 20 -33 9 -31 53 -43 158 -44 l97 0 -6 35 c-6 34 -5 35 23 32 23 -2 29
-8 29 -28 0 -15 -5 -24 -13 -22 -8 1 -11 -2 -7 -8 8 -13 125 -13 125 0 0 5 6
8 13 6 6 -1 9 -1 5 1 -5 3 -8 15 -8 28 0 20 7 25 35 31 42 8 46 24 6 24 -21 0
-32 6 -36 20 -8 25 -27 27 -23 3 2 -14 -4 -18 -32 -18 -31 0 -35 3 -35 25 0
16 8 28 22 35 28 12 29 21 3 28 -12 3 -24 -1 -30 -11 -12 -22 -13 -6 -1 17 6
10 6 23 0 32 -9 14 -9 13 -13 -23 0 -8 -15 -13 -36 -13 l-35 0 0 49 c0 35 -4
50 -15 53 -12 4 -12 3 -2 -5 21 -15 -6 -21 -46 -10 -28 8 -33 13 -30 35 4 31
39 41 62 18 19 -19 36 -19 36 0 0 25 -4 30 -18 27 -7 -2 -20 2 -27 8 -8 7 -24
9 -36 5 -20 -7 -21 -4 -18 39 l4 46 -42 0 c-43 0 -43 0 -43 36 0 31 3 35 20
29 11 -4 20 -2 20 4 0 11 -13 15 -36 12 -6 -1 -10 14 -9 34 1 41 -12 47 -17 8
-3 -25 -7 -28 -38 -28 -35 0 -35 0 -32 42 2 42 -11 64 -29 46 -5 -5 -23 -7
-40 -5 -24 4 -28 8 -23 24 4 14 2 19 -7 16 -7 -2 -16 -13 -19 -24 -3 -10 -12
-18 -20 -18 -8 1 -21 2 -27 3 -7 0 -13 10 -13 21 0 13 -5 18 -15 14 -8 -4 -15
-12 -15 -20 0 -19 -34 -18 -50 1 -9 10 -9 15 -1 15 6 0 11 5 11 10 0 6 -5 10
-11 10 -13 0 -40 -26 -33 -32 3 -3 -7 -3 -21 0 -30 5 -34 11 -39 49 -7 56 -36
90 -36 42 0 -16 -5 -20 -27 -17 -36 4 -46 46 -14 55 23 6 26 19 11 58 -6 16
-14 23 -22 19 -7 -4 -8 -3 -4 5 4 6 -2 24 -14 39 -12 15 -28 41 -35 59 -7 17
-23 34 -35 38 -16 5 -19 10 -10 15 9 6 8 14 -6 36 -24 37 -32 43 -55 37 -15
-4 -19 0 -19 24 0 25 29 83 30 59 0 -5 7 -3 15 4 12 10 13 16 3 29 -7 9 -9 13
-4 9 11 -9 27 8 58 64 14 26 20 44 13 42 -7 -3 -16 -1 -20 5 -3 7 0 8 9 5 15
-6 63 50 58 67 -1 5 2 9 8 9 5 0 10 7 10 15 0 8 5 15 12 15 9 0 9 3 0 12 -7 7
-12 20 -12 31 0 10 -4 16 -9 12 -6 -3 -14 3 -20 12 -11 20 -15 9 -12 -33 3
-27 -29 -41 -44 -20 -10 13 -14 11 -28 -13 -9 -16 -14 -31 -11 -34 13 -13 -7
-57 -25 -57 -30 0 -44 -25 -36 -69 6 -34 3 -41 -14 -51 -12 -6 -20 -15 -18
-21 1 -6 -5 -16 -15 -22 -20 -13 -55 10 -39 26 6 6 7 17 2 26 -13 25 -1 81 18
82 9 1 23 2 31 3 8 0 22 21 30 46 9 25 22 44 28 43 7 -2 9 4 5 14 -4 11 -3 14
5 9 8 -5 10 -2 6 9 -5 12 -9 13 -20 4 -11 -9 -14 -6 -14 15 0 21 5 26 24 26
13 0 26 -6 29 -12 5 -13 32 40 29 55 -1 4 3 7 8 7 6 0 8 11 4 26 -5 19 -4 25
5 20 7 -4 11 0 11 11 0 14 2 15 9 5 6 -11 10 -10 15 4 3 9 4 19 1 22 -3 3 -5
1 -5 -4 0 -5 -11 -9 -24 -9 -13 0 -22 5 -19 11 2 7 0 15 -6 19 -6 3 -9 0 -6
-7 3 -8 -4 -23 -15 -35 -11 -12 -20 -29 -20 -37 0 -7 -6 -16 -13 -19 -25 -10
-70 -112 -65 -151 4 -38 -6 -48 -41 -41 -23 4 -33 -17 -25 -49 7 -29 -12 -43
-56 -43 -19 0 -29 2 -22 5 6 2 9 8 6 13 -3 6 -12 5 -21 -2 -10 -9 -17 -9 -21
-2 -9 14 -172 18 -172 4 0 -6 -13 -11 -30 -11 -16 0 -30 4 -30 9 0 5 -39 9
-87 9 -68 0 -90 -3 -99 -16 -9 -13 -18 -14 -45 -6 -40 11 -52 43 -20 51 l21 5
-22 32 c-12 17 -25 33 -29 36 -4 3 -8 14 -10 25 -3 11 -17 26 -33 33 -24 12
-27 19 -23 42 4 20 1 33 -13 45 -11 10 -18 21 -15 25 2 4 -15 38 -38 76 -36
59 -48 70 -80 78 -30 8 -37 14 -35 30 2 12 9 20 15 19 25 -5 63 17 63 36 0 11
6 24 13 28 22 14 57 70 57 92 0 12 4 21 9 21 9 0 81 115 81 131 0 5 14 28 30
51 17 24 28 49 25 58 -8 26 21 46 48 32 32 -16 464 -13 478 4 5 6 19 10 29 7
15 -4 20 -14 20 -40 0 -38 41 -89 63 -78 6 4 4 0 -6 -8 -15 -13 -16 -15 -2
-21 8 -3 15 -12 15 -21 0 -24 29 -75 61 -109 16 -17 27 -37 24 -45 -3 -8 0
-11 8 -8 8 3 14 -1 14 -9 0 -7 -4 -11 -9 -8 -4 3 -5 -2 -2 -10 3 -9 10 -14 14
-11 5 3 11 -8 15 -24 7 -34 25 -51 53 -54 14 -1 18 -6 14 -20 -4 -14 -1 -18 9
-15 8 3 13 11 11 17 -1 6 6 11 15 11 13 0 14 3 5 12 -15 15 -15 28 -1 28 5 0
7 -4 4 -10 -3 -5 -1 -10 4 -10 6 0 11 3 11 6 0 9 -41 66 -60 84 -9 8 -14 24
-13 35 3 17 1 16 -12 -5 l-16 -25 6 29 c6 29 -20 96 -37 96 -5 0 -8 8 -8 18 0
11 -9 27 -19 36 -11 10 -22 28 -25 41 -4 14 -17 41 -31 61 -14 20 -25 41 -25
46 0 5 -5 6 -12 2 -7 -4 -8 -3 -4 5 9 14 -12 43 -25 35 -5 -3 -9 -1 -9 5 0 6
-11 22 -25 36 l-26 25 -268 0 c-230 0 -270 -2 -275 -15 -3 -8 -16 -15 -28 -15
-22 0 -48 -36 -48 -67 0 -7 -4 -13 -10 -13 -10 0 -53 -76 -54 -95 -1 -6 -11
-21 -23 -34 -26 -28 -73 -114 -73 -134 0 -7 -11 -24 -25 -37 -14 -13 -25 -28
-25 -33 0 -5 -9 -22 -21 -38 -14 -20 -19 -38 -15 -54 4 -17 0 -31 -14 -45 -26
-26 -60 -27 -60 0 0 23 -4 24 -31 9 -11 -5 -17 -14 -14 -20 4 -5 -4 -9 -15 -9
-13 0 -24 8 -27 20 -5 19 -13 20 -162 18 -130 -3 -156 -5 -156 -18 0 -8 -8
-16 -17 -18 -11 -2 -18 3 -18 11 0 27 -119 38 -140 12 -7 -8 -18 -15 -25 -15
-7 0 -18 -7 -25 -15 -7 -8 -21 -15 -31 -15 -16 0 -28 -21 -35 -56 -1 -7 -11
-21 -22 -32 -26 -26 -53 -78 -45 -86 3 -3 -7 -18 -22 -33 -28 -28 -75 -116
-75 -141 0 -7 -7 -15 -15 -19 -9 -3 -23 -19 -31 -35 -9 -16 -18 -27 -21 -25
-3 3 2 16 11 29 21 29 20 38 -1 39 -15 0 -14 2 3 9 15 6 23 21 28 50 11 71 -5
68 -44 -10 -12 -25 -26 -53 -31 -62 -10 -20 -12 -98 -3 -98 4 0 13 8 20 18 12
15 12 13 6 -13 -16 -61 -6 -147 22 -199 14 -27 35 -55 46 -63 11 -8 20 -21 20
-29 0 -24 41 -98 48 -87 12 17 42 11 42 -8 0 -12 -5 -16 -15 -13 -23 9 -19
-24 5 -38 11 -7 20 -20 20 -28 0 -8 19 -49 43 -90 41 -73 44 -75 85 -78 57 -4
56 -29 -3 -66 -25 -16 -45 -36 -45 -46 0 -9 -12 -27 -26 -41 -14 -13 -33 -37
-41 -52 -8 -16 -17 -27 -19 -24 -3 3 4 21 16 41 25 46 25 46 -6 46 -27 0 -27
0 -21 -61 5 -60 5 -62 -43 -132 -27 -39 -46 -75 -43 -79 2 -5 -10 -23 -28 -41
-18 -18 -27 -24 -20 -15 7 10 11 24 8 32 -3 7 -2 17 3 22 4 5 10 32 14 59 6
50 6 50 -11 26 -10 -13 -28 -42 -41 -63 l-23 -38 23 0 23 0 -25 -13 c-20 -10
-26 -22 -30 -62 l-5 -50 -7 60 c-6 45 -4 63 6 70 23 17 76 111 76 134 0 12 7
24 15 27 15 6 75 106 75 125 0 6 11 24 25 41 37 44 31 95 -17 141 -10 10 -16
22 -13 27 3 5 -4 24 -15 43 -16 28 -25 33 -45 29 -20 -3 -25 0 -25 16 0 11 6
23 13 26 9 3 7 9 -5 19 -10 8 -18 22 -18 32 0 20 -31 75 -42 75 -4 0 -8 5 -8
10 0 6 -9 20 -20 32 -11 12 -20 30 -20 40 0 20 -33 58 -51 58 -5 0 -8 -4 -4
-9 3 -5 0 -13 -6 -17 -7 -4 -9 -3 -5 4 11 18 -19 20 -266 21 l-236 0 -25 -25
c-23 -22 -26 -23 -29 -7 -4 22 21 48 54 56 14 4 36 16 49 27 l24 19 -42 1
c-31 0 -46 -5 -55 -19 -6 -11 -18 -17 -27 -14 -49 16 -81 36 -87 56 -3 12 -14
31 -23 42 -16 20 -16 20 5 2 32 -26 77 3 57 36 -4 7 -1 7 9 -1 13 -10 17 -10
21 0 4 11 6 10 6 0 2 -23 21 -2 21 23 0 28 24 25 40 -5 8 -15 6 -17 -9 -13
-10 3 -22 0 -25 -5 -9 -15 4 -43 18 -35 6 3 3 -3 -7 -14 -14 -16 -15 -22 -5
-31 14 -11 588 -15 588 -3 -1 21 -20 33 -46 28 -33 -6 -54 1 -54 18 0 18 -44
45 -72 45 -27 -1 -120 -49 -98 -50 8 -1 4 -6 -9 -11 -28 -11 -55 -4 -46 11 10
15 -5 50 -20 50 -21 0 -87 -31 -112 -54 -19 -16 -25 -17 -38 -6 -22 19 -18 33
8 26 14 -3 41 4 70 19 l48 24 -38 4 c-37 4 -37 4 8 5 25 1 49 6 55 11 5 6 16
4 28 -5 11 -8 14 -14 8 -14 -16 0 -15 -25 2 -39 11 -9 24 -6 61 14 27 14 44
25 39 26 -14 1 29 18 49 18 9 1 17 -5 17 -13 0 -14 41 -46 60 -46 12 0 40 24
40 34 0 3 -8 6 -17 6 -12 0 -7 6 12 15 37 19 55 42 55 70 0 11 9 26 19 32 11
7 35 45 55 85 20 40 43 79 50 88 21 26 56 90 56 105 0 8 11 25 25 39 30 30 31
40 6 52 -17 8 -17 11 -5 22 12 11 16 9 23 -10 9 -21 10 -21 10 -3 1 24 -34 85
-49 85 -5 0 -10 9 -10 20 0 11 -12 38 -26 60 -15 22 -24 43 -21 46 3 3 15 -13
27 -36 11 -22 27 -43 35 -47 8 -3 15 -10 15 -17 0 -13 89 -91 96 -84 6 6 -79
158 -88 158 -4 0 -9 -10 -11 -22 -3 -17 -5 -15 -6 9 0 17 -8 38 -16 46 -11 11
-11 17 -3 19 8 3 5 16 -11 41 -12 20 -20 37 -17 37 3 0 17 -20 32 -45 14 -25
30 -45 35 -45 5 0 9 -8 10 -17 0 -26 84 -168 101 -171 19 -4 38 40 38 88 0 31
-4 40 -17 40 -14 0 -15 2 -4 9 16 10 9 36 -22 79 l-24 32 -1 -37 c-1 -21 5
-44 14 -54 9 -10 13 -22 10 -28 -4 -6 3 -28 14 -51 26 -50 19 -52 -10 -2 -12
20 -28 41 -36 45 -8 4 -14 15 -14 23 0 18 -68 144 -86 159 -15 13 -26 57 -12
49 9 -6 6 70 -5 116 -8 37 -32 71 -54 76 -39 10 -40 -6 -3 -37 26 -23 28 -26
8 -14 -16 10 -28 14 -28 10 0 -4 16 -36 36 -71 20 -35 34 -64 31 -64 -3 0 -24
34 -48 75 -28 50 -49 75 -61 75 -22 0 -23 -21 -3 -60 9 -17 13 -30 11 -30 -3
0 -12 13 -21 30 -8 16 -19 29 -23 29 -20 -3 -32 3 -42 22 -13 24 2 49 30 49
10 0 20 7 24 15 3 8 15 15 26 15 15 0 22 8 27 30 7 39 35 36 39 -4 4 -38 11
-43 29 -20 20 26 35 81 35 129 l0 40 -21 -25 -21 -25 17 28 c9 16 14 31 11 34
-10 10 16 33 36 33 17 0 18 -3 8 -15 -6 -8 -8 -20 -4 -26 5 -8 3 -9 -6 -4 -11
7 -12 -5 -7 -58 3 -37 2 -67 -2 -67 -13 0 -44 -51 -46 -74 -1 -23 17 -66 37
-88 7 -8 31 -48 52 -90 22 -43 45 -79 53 -82 7 -3 13 -11 13 -19 0 -20 60
-127 71 -127 5 0 9 -9 9 -20 0 -12 11 -32 24 -45 l24 -24 268 1 267 1 23 24
22 24 -5 -40 c-4 -29 -2 -41 7 -41 13 0 10 70 -5 103 -6 13 -3 19 11 23 20 5
98 137 87 147 -3 4 4 14 15 24 23 19 72 108 72 129 0 7 9 18 20 24 30 16 42
73 23 111 -8 17 -21 33 -29 36 -8 3 -14 10 -14 17 0 21 -70 144 -86 150 -8 3
-14 11 -12 18 3 19 -40 97 -69 124 -22 21 -25 28 -15 47 13 27 13 75 0 83 -7
4 -9 -9 -6 -34 3 -41 3 -41 -17 -22 -15 14 -37 19 -90 20 -38 1 -74 1 -80 0
-5 -1 -96 -1 -202 -1 -187 1 -192 1 -213 -21 -19 -21 -21 -21 -14 -3 6 16 5
18 -7 8 -7 -7 -18 -13 -23 -13 -6 0 2 12 17 26 29 27 27 39 -8 46 -25 4 -27
46 -3 61 13 9 21 7 35 -5 15 -13 43 -16 150 -16 73 -1 135 4 138 9 4 5 13 5
25 -1 30 -16 262 -10 282 7 29 25 53 12 54 -29 1 -21 -3 -35 -7 -32 -11 6 -12
-76 -1 -93 4 -6 20 -15 35 -18 24 -6 26 -5 20 11 -4 11 -15 34 -26 52 -10 17
-16 32 -13 32 3 0 12 -13 21 -29 8 -17 26 -42 40 -57 19 -20 22 -31 15 -45
-12 -21 -13 -89 -2 -105 7 -11 45 -34 56 -34 13 0 4 26 -25 72 -16 28 -28 52
-26 54 2 3 23 -27 47 -66 23 -38 46 -70 51 -70 5 0 9 -8 9 -18 0 -10 8 -28 18
-42 9 -13 28 -47 42 -74 14 -27 31 -52 39 -54 9 -3 11 0 7 9 -4 8 4 2 18 -13
l25 -28 263 1 c156 0 255 4 243 9 -12 5 -14 9 -6 9 11 1 10 5 -5 16 -19 14
-19 14 2 15 14 0 24 -8 27 -21 l6 -21 31 22 c17 12 35 33 40 45 5 13 13 24 17
26 14 6 63 96 56 103 -3 3 -1 6 5 6 7 0 12 9 12 20 0 11 6 20 13 20 7 0 18 12
25 28 6 15 25 50 41 77 16 28 30 58 30 68 1 9 8 17 16 17 14 0 19 14 18 47 -1
7 2 11 6 9 4 -3 12 4 19 14 7 12 8 21 2 25 -6 3 -10 18 -10 32 0 15 3 24 6 20
3 -3 16 -2 29 3 16 6 29 4 41 -5 23 -18 64 -19 64 -3 0 9 3 9 11 1 13 -13 59
3 59 21 0 5 6 3 12 -5 7 -8 12 -12 11 -10 -2 2 2 10 8 18 13 14 13 14 -16 18
-42 6 -77 25 -71 40 3 8 0 15 -7 16 -7 0 -1 5 12 10 23 9 23 10 6 29 -18 20
-18 21 2 48 20 28 21 29 2 40 -25 16 -24 46 2 63 13 9 18 20 14 32 -7 16 -238
17 -4666 17 l-4659 0 0 -1380z m7521 616 c11 -42 38 -66 72 -66 37 0 77 35 77
67 0 46 29 38 91 -23 32 -32 59 -64 59 -70 0 -7 -31 -22 -69 -34 -69 -21 -70
-21 -50 -41 32 -32 21 -54 -37 -74 -45 -15 -53 -29 -25 -45 25 -13 28 -61 6
-80 -20 -16 -80 -17 -99 -1 -9 8 -16 24 -16 38 0 13 -5 33 -10 44 -14 25 3 57
35 65 16 4 25 13 25 25 0 21 -4 22 -37 13 -14 -4 -20 -11 -16 -21 8 -20 -17
-35 -34 -21 -17 14 -16 38 3 59 14 16 10 18 -55 38 -41 13 -71 27 -71 35 0 18
118 128 132 124 7 -3 15 -17 19 -32z m-824 -649 c46 -24 103 -76 103 -94 0 -8
-11 -29 -25 -48 -61 -79 -220 -105 -321 -53 -46 24 -104 78 -104 97 0 16 78
81 120 101 36 17 59 20 120 17 44 -2 88 -11 107 -20z m628 -226 c7 -12 465
-11 465 0 0 5 11 9 25 9 20 0 25 -5 25 -25 0 -29 23 -80 50 -110 10 -11 21
-31 25 -45 10 -33 55 -102 77 -118 10 -7 18 -19 18 -25 0 -26 50 -118 67 -124
24 -9 33 -23 33 -55 0 -24 -4 -28 -30 -28 -19 0 -30 -5 -30 -14 0 -7 -7 -19
-15 -26 -8 -7 -15 -21 -15 -31 0 -11 -4 -19 -9 -19 -6 0 -16 -11 -23 -24 -7
-13 -26 -44 -41 -70 -16 -25 -30 -52 -31 -59 -1 -8 -10 -23 -20 -33 -20 -19
-49 -79 -52 -104 0 -8 -2 -25 -3 -37 -1 -29 -46 -33 -54 -4 -4 17 -19 18 -231
19 -124 0 -226 -3 -226 -8 0 -12 -28 -20 -45 -14 -8 4 -15 17 -15 31 0 23 -26
83 -40 93 -4 3 -21 35 -39 72 -17 37 -34 69 -39 72 -4 2 -28 43 -52 90 -31 60
-50 86 -65 88 -32 5 -32 46 -1 58 16 6 26 17 26 30 0 11 4 20 8 20 17 0 30 44
18 63 -13 20 7 39 31 30 7 -3 13 0 13 5 0 6 13 30 29 54 16 24 37 61 47 83 11
22 27 47 36 57 9 9 20 34 24 55 4 21 9 41 11 46 6 10 41 9 48 -2z m-1715 -172
c0 -6 -4 -18 -9 -28 -8 -15 4 -25 81 -69 l91 -53 20 22 c14 15 22 18 31 9 8
-8 3 -25 -19 -66 -44 -82 -81 -122 -124 -135 l-38 -11 10 -43 c9 -38 7 -50
-16 -97 -42 -84 -66 -118 -83 -118 -12 0 -14 6 -9 28 6 27 2 32 -80 80 -48 29
-89 52 -92 52 -2 0 -13 -10 -23 -22 -16 -20 -19 -21 -25 -6 -9 21 57 140 93
169 15 11 39 23 54 26 27 5 28 7 22 58 -6 49 -3 59 37 134 29 54 50 81 62 81
9 0 17 -5 17 -11z m1029 -649 c53 -15 108 -74 121 -132 10 -41 9 -57 -5 -101
-9 -28 -27 -63 -39 -77 -13 -14 -43 -52 -67 -85 -42 -58 -58 -75 -70 -75 -6 0
-96 124 -144 198 -68 107 -21 229 105 275 24 9 63 8 99 -3z m2036 -350 c6 -10
-29 -50 -44 -50 -6 0 -9 -27 -8 -61 2 -51 6 -63 27 -79 32 -25 51 -25 84 1 23
18 26 28 26 80 0 46 -3 59 -15 59 -8 0 -15 -4 -15 -9 0 -4 -11 -6 -26 -3 -18
3 -24 10 -22 24 4 25 56 58 66 41 4 -6 23 -13 42 -15 23 -2 34 -8 32 -16 -1
-8 1 -12 5 -10 4 2 20 10 36 18 26 12 29 11 57 -15 17 -16 30 -37 30 -47 0
-13 8 -18 25 -18 20 0 25 -5 25 -25 0 -20 -5 -25 -25 -25 -18 0 -25 5 -25 20
0 18 -2 17 -24 -5 -20 -20 -25 -34 -24 -72 3 -103 -62 -168 -143 -144 -40 12
-79 52 -79 81 0 10 -16 27 -35 39 -45 26 -56 58 -53 145 3 65 5 71 26 74 12 2
22 8 22 13 0 12 27 12 35 -1z m-1039 -302 c7 -7 16 -30 19 -51 7 -37 6 -39
-85 -127 -79 -76 -98 -90 -126 -90 -35 0 -73 30 -75 59 -3 44 7 59 109 165 64
66 68 68 105 63 22 -3 46 -11 53 -19z m-2056 -43 l0 -55 60 0 60 0 0 -50 0
-50 -60 0 -60 0 0 -55 0 -55 -50 0 -50 0 0 55 0 55 -55 0 -55 0 0 50 0 50 55
0 55 0 0 55 0 55 50 0 50 0 0 -55z m1308 1 c-21 -47 17 -77 49 -38 8 9 11 10
7 2 -5 -8 -8 -31 -9 -50 0 -40 -25 -52 -53 -27 -14 13 -62 15 -285 15 -148 0
-271 3 -274 6 -4 3 8 6 27 6 29 0 31 2 19 18 -13 15 -12 16 3 4 9 -7 56 -16
107 -19 98 -6 109 0 69 37 -19 17 -35 20 -125 20 -69 0 -102 -4 -98 -10 4 -6
3 -10 -2 -9 -22 4 -33 -3 -33 -21 0 -11 5 -20 12 -20 6 0 3 -9 -7 -20 -21 -24
-38 -25 -55 -5 -16 20 -3 53 23 57 13 2 23 11 25 23 3 20 10 20 288 18 272 -2
286 -1 302 17 22 26 24 25 10 -4z m-3118 -91 c11 -13 92 -15 616 -15 391 0
605 4 609 10 11 19 33 10 48 -18 13 -28 13 -28 -15 -24 -15 2 -31 8 -34 13 -3
5 -269 9 -606 9 -536 0 -603 -2 -619 -16 -24 -22 -59 -10 -59 20 0 12 3 26 7
29 11 12 40 8 53 -8z m6134 -294 c80 -82 113 -171 95 -258 -8 -41 -17 -57 -46
-79 -53 -40 -107 -42 -164 -5 -76 49 -89 138 -34 243 15 28 36 60 47 72 11 11
27 31 35 44 9 12 18 22 22 22 4 0 24 -18 45 -39z m-1536 -71 c2 -18 12 -29 32
-37 19 -7 34 -24 44 -48 16 -36 22 -74 11 -63 -3 3 -28 -16 -54 -43 -50 -50
-71 -60 -71 -34 0 8 -9 15 -21 15 -11 0 -29 5 -40 10 -16 9 -19 7 -19 -9 0
-25 -14 -34 -40 -26 -16 5 -20 15 -20 47 0 54 22 78 71 78 47 0 73 29 58 67
-5 13 -9 36 -9 49 0 22 4 25 28 22 20 -2 28 -9 30 -28z m-1622 -139 c28 -43
25 -74 -5 -47 -15 14 -19 14 -40 0 -21 -15 -21 -17 -7 -40 20 -29 20 -34 2
-34 -7 0 -21 10 -29 23 -15 21 -16 21 -16 2 -1 -30 -122 -98 -159 -90 -19 4
-43 -2 -77 -19 -27 -14 -51 -24 -53 -21 -2 2 9 10 25 18 45 24 77 57 78 79 0
12 6 23 13 25 6 3 12 -2 12 -11 0 -9 5 -16 11 -16 5 0 9 10 7 23 -2 18 1 22
24 20 19 -1 25 2 22 12 -8 19 14 29 31 15 12 -10 15 -9 15 10 0 19 2 20 15 10
12 -10 15 -10 15 3 0 9 -4 19 -10 22 -15 10 -12 35 5 35 8 0 15 -4 15 -8 0 -5
6 -16 13 -26 11 -16 17 -17 36 -6 14 7 20 17 17 27 -6 14 0 33 9 33 3 0 16
-18 31 -39z m-271 -264 c15 -12 16 -15 4 -23 -8 -5 -30 -9 -49 -9 -54 0 -52
-29 4 -54 52 -22 71 -56 56 -95 -17 -46 -75 -59 -132 -30 -27 14 -29 17 -15
31 12 12 19 13 37 3 27 -14 70 -5 70 16 0 8 -14 23 -31 32 -56 31 -79 53 -79
77 0 50 90 84 135 52z m566 -9 c1 -13 2 -39 2 -59 l2 -37 31 24 c17 13 44 24
59 24 l29 0 -39 -40 c-40 -41 -40 -45 -4 -64 12 -6 20 -14 18 -17 -2 -4 5 -16
15 -28 19 -21 19 -21 -17 -21 -29 0 -41 6 -59 30 -12 17 -25 30 -30 30 -4 0
-8 -13 -8 -30 0 -23 -4 -30 -20 -30 -19 0 -20 7 -20 120 0 113 1 120 20 120
14 0 20 -7 21 -22z m2174 -32 c-1 -14 4 -26 11 -26 21 0 36 -29 30 -55 -7 -27
-33 -33 -64 -14 -14 9 -30 4 -82 -27 -67 -38 -82 -52 -74 -66 10 -16 -17 -48
-41 -48 -27 0 -48 30 -39 53 3 10 -2 18 -14 21 -24 8 -35 32 -27 56 8 26 28
31 59 14 26 -13 32 -11 97 28 59 35 69 45 69 69 0 16 7 32 18 38 25 14 57 -10
57 -43z m-2635 4 c0 -15 7 -20 25 -20 18 0 25 -5 25 -20 0 -15 -7 -20 -26 -20
-23 0 -25 -3 -22 -42 2 -36 7 -44 26 -46 35 -5 30 -42 -6 -42 -44 0 -62 19
-69 78 -5 42 -9 52 -24 52 -12 0 -19 7 -19 20 0 13 7 20 20 20 13 0 20 7 20
20 0 15 7 20 25 20 18 0 25 -5 25 -20z m189 -35 c50 -25 57 -90 15 -132 -22
-22 -32 -25 -67 -20 -66 9 -94 59 -66 121 20 43 70 56 118 31z m191 -3 c20
-16 20 -19 7 -31 -11 -8 -21 -9 -34 -3 -28 15 -63 -3 -63 -32 0 -33 32 -51 61
-35 17 9 25 8 37 -5 15 -14 14 -17 -3 -31 -33 -24 -88 -19 -119 11 -35 36 -34
77 3 115 34 34 77 38 111 11z m-1425 -137 c34 -24 39 -25 55 -10 78 70 200 9
200 -100 -1 -54 -10 -69 -119 -185 -63 -68 -97 -98 -106 -93 -7 5 -55 55 -106
112 -91 101 -93 104 -97 160 -3 47 0 61 19 85 22 28 70 55 100 56 9 0 33 -11
54 -25z m2405 -155 c24 -24 26 -67 4 -98 -9 -13 -13 -31 -9 -42 5 -16 2 -20
-16 -20 -18 0 -20 3 -11 12 21 21 13 28 -33 28 l-45 0 0 70 0 70 45 0 c32 0
51 -6 65 -20z m308 -22 c7 -7 12 -28 13 -47 0 -34 1 -35 11 -13 7 13 24 26 40
29 15 3 26 9 23 13 -2 4 -16 5 -31 2 -20 -4 -25 -1 -22 9 2 8 20 15 38 17 39
4 60 -16 60 -58 0 -17 8 -29 23 -35 17 -8 22 -19 23 -49 1 -30 8 -45 28 -61
25 -20 27 -27 24 -81 -3 -65 -3 -65 -85 -48 -40 8 -58 53 -48 120 5 36 3 44
-9 44 -13 0 -16 -13 -16 -69 0 -43 -5 -72 -12 -78 -21 -15 -95 -36 -106 -29
-27 17 -15 152 19 208 20 31 10 102 -13 106 -15 3 -18 -4 -18 -37 0 -34 -3
-41 -20 -41 -18 0 -20 7 -20 55 l0 55 43 0 c24 0 48 -5 55 -12z m-1726 -985
l3 -58 53 -3 52 -3 0 60 0 61 40 0 41 0 -3 -157 -3 -158 -37 -3 -37 -3 -3 68
-3 68 -50 0 -50 0 -3 -67 -3 -68 -34 0 -35 0 0 160 0 160 35 0 34 0 3 -57z
m-6074 -760 c-22 -5 -24 -23 -3 -23 7 0 18 -6 22 -13 11 -18 41 -28 48 -17 3
5 -3 13 -12 19 -10 6 -12 11 -5 11 6 0 12 4 12 10 0 5 -7 7 -15 4 -8 -4 -15
-1 -15 5 0 6 11 11 25 11 20 0 25 -5 26 -27 l1 -28 11 28 c14 34 31 36 23 2
-4 -14 -2 -25 4 -25 5 0 10 9 10 20 0 11 5 20 11 20 7 0 9 -9 6 -21 -3 -13 -1
-19 6 -16 7 2 12 12 12 23 0 14 8 20 29 22 25 3 28 1 23 -17 -3 -12 -2 -23 3
-26 4 -3 11 6 14 20 8 32 51 35 61 5 15 -46 -22 -78 -54 -47 -11 10 -14 10
-18 0 -6 -16 -49 -17 -59 -2 -4 8 -9 7 -16 -2 -7 -11 -11 -11 -15 -1 -5 14
-53 17 -53 3 0 -5 -27 -9 -60 -9 -33 0 -60 4 -60 9 0 6 6 9 14 7 8 -2 15 2 15
7 0 6 -7 9 -15 7 -9 -2 -14 6 -14 23 0 21 4 25 28 24 16 -1 20 -3 10 -6z"/>
<path d="M6509 4941 c-49 -49 -30 -129 35 -151 68 -22 126 19 126 90 0 85 -99
123 -161 61z"/>
<path d="M7338 4664 c-3 -2 -16 -7 -29 -9 -38 -8 -71 -48 -67 -81 l4 -29 16
35 c9 19 15 37 13 40 -2 3 5 12 17 19 18 11 19 10 12 -11 -4 -13 -17 -39 -30
-58 -13 -19 -24 -38 -24 -41 0 -4 -15 -30 -34 -58 -19 -28 -40 -67 -47 -86 -7
-19 -16 -35 -20 -35 -13 0 -31 -60 -25 -83 7 -29 51 -82 68 -82 8 0 13 -14 13
-37 1 -20 7 -45 16 -55 8 -10 21 -31 29 -47 8 -16 23 -31 33 -34 9 -2 17 -12
17 -22 0 -9 5 -31 11 -49 10 -29 14 -31 45 -25 22 4 34 2 34 -5 0 -14 33 -14
47 0 7 7 19 8 30 4 28 -13 143 -15 143 -3 0 6 13 8 33 4 129 -27 149 -21 163
50 2 12 17 36 33 53 17 18 33 42 37 54 3 12 14 30 22 40 15 17 15 19 -1 28
-27 16 -22 49 8 49 14 0 25 -6 26 -12 0 -7 6 -2 12 12 7 14 20 36 30 50 22 31
22 55 -2 88 -10 15 -27 47 -38 72 -11 25 -30 55 -42 67 -11 12 -21 25 -21 29
0 19 -47 104 -57 104 -7 0 -13 11 -13 25 0 13 -8 29 -18 34 -18 10 -435 15
-444 5z m142 -229 c10 -39 25 -54 46 -49 16 4 20 11 16 30 -3 16 1 26 12 30
24 9 47 -14 40 -41 -4 -17 0 -24 15 -28 12 -3 22 1 25 9 7 19 45 18 53 -3 4
-10 -1 -22 -13 -32 -28 -23 -19 -51 17 -51 16 0 29 -4 29 -10 0 -5 6 -10 13
-10 7 0 14 -12 15 -26 2 -24 -1 -26 -26 -21 -15 3 -35 9 -44 12 -24 10 -34
-20 -14 -40 19 -20 19 -25 2 -47 -20 -27 -56 -23 -56 6 0 19 -4 23 -19 19 -14
-3 -19 -13 -18 -31 2 -23 -2 -27 -23 -27 -21 0 -25 5 -25 27 1 37 -29 47 -53
19 -19 -23 -36 -17 -46 16 -5 16 -2 25 13 32 29 16 17 48 -20 48 -21 0 -29 -5
-29 -19 0 -13 -7 -18 -26 -18 -21 0 -25 4 -22 23 2 14 11 23 24 25 12 2 24 12
27 24 5 16 12 19 32 16 32 -7 56 26 32 45 -16 13 -28 63 -20 84 8 20 36 12 43
-12z"/>
<path d="M6560 3871 c-57 -14 -90 -57 -90 -117 0 -106 124 -152 201 -74 56 56
31 153 -47 186 -19 8 -35 13 -36 13 -2 -1 -14 -4 -28 -8z m58 -58 c2 -14 11
-23 25 -25 17 -2 22 -10 22 -33 0 -25 -4 -30 -22 -27 -17 2 -22 -3 -25 -25 -2
-22 -9 -29 -29 -31 -22 -3 -29 2 -37 27 -8 22 -18 31 -32 31 -31 0 -24 54 8
58 13 2 22 10 22 21 0 25 10 32 40 29 17 -2 26 -10 28 -25z"/>
<path d="M8809 3431 c-9 -9 -20 -27 -24 -39 -6 -22 -5 -23 17 -17 l23 7 -20
-20 c-11 -11 -24 -16 -29 -12 -12 12 -66 -10 -66 -26 0 -24 47 -64 75 -64 14
0 37 11 50 25 21 20 25 34 25 82 0 45 -4 61 -17 69 -14 8 -22 7 -34 -5z"/>
<path d="M7305 6012 c-3 -3 -5 -11 -5 -18 0 -22 32 -24 65 -4 18 11 36 20 41
20 5 0 -7 -10 -26 -23 l-35 -22 65 -3 c58 -3 78 2 132 29 24 12 37 11 16 -2
-10 -5 -18 -14 -18 -19 0 -16 124 -11 163 5 32 13 36 13 31 0 -5 -12 5 -15 56
-15 67 0 74 10 27 38 -24 15 -30 15 -50 3 -20 -13 -21 -13 -9 1 11 14 -10 16
-217 15 -127 0 -233 -2 -236 -5z"/>
<path d="M9280 5939 c0 -6 -10 -9 -22 -7 -14 2 -29 -5 -39 -17 -26 -33 -77
-132 -81 -157 -2 -12 -9 -22 -16 -21 -6 2 -18 -12 -26 -30 -7 -18 -26 -53 -42
-78 -16 -24 -27 -48 -26 -52 1 -5 -11 -26 -28 -47 -38 -48 -38 -71 0 -127 17
-24 30 -49 30 -54 0 -6 11 -27 25 -47 14 -20 25 -41 25 -47 0 -6 9 -17 20 -25
11 -8 20 -22 20 -32 0 -22 19 -33 33 -19 18 18 31 13 16 -6 -12 -15 -12 -16 4
-10 22 8 22 -11 0 -35 -9 -11 -11 -18 -5 -18 7 0 12 -7 12 -16 0 -8 5 -12 10
-9 6 3 10 -2 10 -12 0 -16 3 -15 18 5 18 23 18 23 42 4 23 -18 24 -18 42 0 23
23 23 31 -2 23 -11 -3 -20 -3 -20 2 0 4 -15 8 -32 8 -30 0 -33 3 -36 31 -3 27
1 32 22 36 29 6 46 -8 46 -36 0 -15 3 -17 12 -8 8 8 8 15 -1 26 -7 8 -10 20
-6 26 7 11 76 14 74 3 -4 -23 3 -31 21 -26 24 6 27 23 4 23 -8 0 -12 5 -9 10
4 6 -8 10 -29 10 -47 0 -72 10 -54 21 11 8 11 10 0 18 -11 6 -9 10 7 14 24 6
29 37 5 37 -11 0 -13 6 -9 19 4 14 0 21 -12 24 -17 4 -17 5 0 6 16 1 18 8 16
47 -2 31 1 48 11 54 24 15 50 11 50 -7 0 -16 1 -16 18 0 11 12 13 20 6 25 -6
4 -14 16 -17 26 -6 16 -5 17 8 6 21 -18 31 -5 11 15 -9 9 -16 22 -16 28 0 7
-4 6 -10 -3 -8 -13 -10 -12 -10 3 0 10 -8 17 -19 17 -31 0 -42 22 -26 54 14
26 13 28 -5 33 -11 3 -20 9 -20 14 0 14 11 11 32 -8 19 -17 68 -26 68 -13 0
17 -27 60 -37 60 -7 0 -13 5 -13 11 0 6 7 9 14 6 10 -4 13 -1 9 9 -3 8 -16 17
-28 20 -13 3 -26 16 -29 29 -3 13 -9 30 -12 39 -6 14 -1 16 35 10 l41 -7 0 52
c0 30 4 50 9 46 5 -3 13 0 17 6 4 8 -2 9 -22 5 -17 -4 -40 0 -56 8 -16 9 -28
10 -28 5z"/>
<path d="M8335 5262 c-18 -12 -55 -69 -55 -84 0 -8 -18 -40 -40 -71 -22 -30
-40 -59 -40 -64 0 -4 -9 -19 -20 -33 -11 -14 -20 -33 -20 -42 0 -10 -4 -18 -8
-18 -4 0 -15 -13 -25 -29 -15 -26 -15 -32 -2 -65 8 -20 20 -36 25 -36 6 0 10
-6 10 -14 0 -19 51 -109 67 -119 7 -4 13 -15 13 -22 0 -8 9 -24 20 -35 11 -11
20 -29 20 -39 0 -10 7 -21 15 -25 8 -3 14 -11 13 -17 -2 -6 3 -14 10 -16 6 -3
12 0 12 6 0 6 9 11 20 11 15 0 20 -7 20 -26 0 -21 4 -25 23 -22 12 2 23 9 23
16 1 6 2 17 3 22 0 6 10 10 21 10 11 0 21 -4 21 -10 1 -5 2 -16 3 -22 1 -9 22
-14 63 -15 57 -2 62 0 67 23 11 40 52 31 47 -11 0 -6 26 -10 62 -10 57 0 62 2
65 23 2 12 10 22 18 22 8 0 14 6 14 14 0 8 6 16 13 19 6 2 22 23 35 47 25 47
27 54 12 45 -7 -4 -8 3 -4 22 9 36 11 38 37 38 15 0 23 7 25 24 2 14 0 21 -6
17 -6 -4 -13 -2 -17 3 -3 6 4 8 15 6 15 -3 23 3 30 19 5 13 15 26 22 29 10 4
11 7 1 18 -18 18 -17 53 1 46 11 -5 12 0 3 24 -6 16 -14 29 -18 29 -4 0 -10
12 -14 28 -9 38 -36 67 -47 50 -6 -10 -8 -10 -8 0 0 7 -4 10 -10 7 -8 -5 -12
26 -10 80 1 9 -30 65 -36 65 -3 0 -4 -6 -3 -12 3 -27 -2 -36 -18 -34 -21 3
-30 26 -10 26 9 0 17 5 19 12 5 15 -21 69 -41 85 -20 16 -131 17 -131 2 0 -8
-4 -8 -13 -1 -14 12 -276 16 -292 4z m331 -236 c31 -9 50 -60 36 -91 -11 -24
-6 -30 21 -26 4 0 7 -12 7 -28 0 -23 -4 -28 -22 -27 -16 1 -24 8 -26 24 -3 20
-13 13 -90 -63 -58 -57 -93 -85 -109 -85 -18 0 -23 -6 -23 -25 0 -18 -5 -25
-20 -25 -22 0 -29 35 -8 42 8 3 4 12 -10 26 -26 26 -28 65 -7 106 8 15 12 32
9 37 -3 5 1 6 9 3 13 -5 114 82 176 149 13 15 18 15 26 4 6 -8 20 -17 31 -21z"/>
<path d="M9270 4854 c0 -12 -3 -14 -12 -6 -15 12 -68 11 -68 -1 0 -5 -5 -5
-12 -1 -8 5 -9 2 -5 -10 5 -13 3 -17 -7 -13 -11 4 -13 1 -9 -10 5 -12 3 -14
-7 -8 -8 5 -11 4 -6 -3 3 -5 -5 -24 -19 -41 -14 -16 -28 -40 -30 -53 -3 -13
-10 -27 -17 -33 -7 -5 -19 -18 -26 -27 -11 -14 -11 -16 2 -14 9 1 22 11 30 21
13 18 13 18 24 -1 6 -10 12 -13 12 -6 0 10 3 10 13 0 8 -7 12 -21 9 -32 -3
-13 -1 -17 6 -12 7 4 12 13 12 21 0 8 7 18 16 23 21 11 7 21 -35 24 -17 1 -31
3 -31 4 0 0 7 15 15 31 12 24 20 30 37 25 17 -4 20 -2 15 11 -4 10 -2 17 3 17
6 0 10 7 10 16 0 8 4 12 10 9 6 -3 7 1 4 9 -3 9 -1 16 5 16 6 0 11 -9 11 -20
0 -15 7 -20 24 -20 14 0 28 -4 31 -10 7 -12 81 -12 110 0 12 5 -5 6 -45 4 -49
-3 -60 -2 -45 6 19 10 19 10 -2 6 -29 -5 -29 7 -1 34 16 15 18 20 6 20 -18 0
-51 -34 -41 -43 3 -4 -1 -7 -11 -7 -14 0 -15 4 -6 20 14 26 48 43 68 34 9 -4
19 -8 22 -8 3 -1 11 -5 18 -9 7 -5 12 -4 12 2 0 8 -73 51 -87 51 -2 0 -3 -7
-3 -16z"/>
<path d="M9234 4578 c-5 -13 -8 -27 -9 -31 0 -4 -4 -11 -10 -15 -11 -7 -35
-48 -35 -57 0 -4 6 -3 13 1 6 4 2 -3 -10 -15 -13 -12 -23 -26 -23 -32 0 -6 -4
-7 -10 -4 -6 3 -7 -1 -4 -10 6 -14 8 -14 19 1 11 16 12 15 17 -3 5 -20 -14
-25 -39 -10 -7 5 -16 -1 -23 -13 -8 -14 -8 -20 0 -20 6 0 4 -7 -5 -16 -9 -9
-14 -23 -11 -30 3 -9 0 -11 -11 -7 -13 5 -15 2 -9 -18 4 -13 10 -36 13 -51 3
-16 9 -28 14 -28 5 0 9 -6 9 -13 0 -9 9 -12 29 -9 23 3 30 -1 36 -17 4 -12 1
-28 -5 -36 -6 -8 -10 -24 -7 -37 l4 -23 8 23 c6 18 10 20 16 10 12 -18 11 -31
-1 -23 -5 3 -10 2 -10 -3 0 -6 8 -13 17 -16 13 -5 14 -9 5 -15 -17 -10 36 -94
55 -87 10 4 11 1 3 -14 -7 -13 -7 -21 0 -25 6 -4 8 -10 5 -15 -3 -4 2 -10 10
-14 8 -3 14 0 12 6 -1 6 11 14 27 19 23 6 29 5 33 -12 6 -23 19 -25 27 -3 4
11 17 15 47 13 35 -3 43 0 50 17 7 19 5 21 -29 15 -44 -8 -82 -3 -82 9 0 5 17
9 38 8 56 -1 60 2 22 16 -46 17 -70 10 -70 -20 0 -20 -5 -23 -26 -22 -17 2
-29 11 -35 27 -13 32 -1 43 52 47 23 2 44 6 47 9 10 10 -41 54 -67 58 -14 2
-6 3 19 3 36 -1 45 3 48 18 3 14 0 17 -12 13 -12 -5 -16 0 -17 16 -1 17 -2 18
-6 5 -2 -10 -12 -18 -21 -17 -23 1 -70 17 -55 18 6 1 13 11 15 23 2 14 12 25
28 28 14 4 24 12 23 18 -2 7 2 12 8 12 6 0 9 -9 6 -20 -3 -11 -1 -20 3 -20 5
0 11 -10 13 -22 4 -22 4 -21 6 2 0 14 -6 38 -14 53 -8 16 -15 43 -17 60 -2 29
-5 32 -32 32 -23 0 -31 4 -30 18 1 9 -4 17 -12 17 -7 0 -11 -6 -8 -14 6 -17
-25 -29 -50 -20 -11 4 -16 15 -14 33 3 22 8 26 34 26 22 0 30 5 32 19 1 14 -2
16 -11 7 -14 -14 -30 -15 -22 -1 3 6 2 10 -4 10 -5 0 -12 -6 -14 -12 -3 -7 -6
-2 -6 12 -1 34 10 47 37 45 12 -1 22 4 22 12 0 23 20 14 21 -9 l0 -23 10 24
c7 18 5 26 -8 37 -10 7 -19 8 -21 3 -2 -5 -8 -9 -13 -9 -4 0 -5 8 -2 17 5 13
2 15 -11 10 -19 -8 -19 1 -1 61 5 13 3 22 -3 22 -6 0 -14 -10 -18 -22z"/>
<path d="M6420 4246 c-19 -7 -48 -20 -65 -29 -30 -16 -30 -16 54 -17 l84 0
-19 23 -19 22 24 -20 c21 -18 39 -20 196 -22 181 -3 216 5 202 41 -9 24 -64
20 -120 -9 -27 -13 -43 -18 -37 -10 6 8 9 19 5 25 -11 17 -107 11 -155 -11
-25 -11 -39 -15 -32 -8 6 7 12 17 12 21 0 12 -91 9 -130 -6z"/>
</g>
</svg>
