<?xml version="1.0" standalone="no"?>
<!DOCTYPE svg PUBLIC "-//W3C//DTD SVG 20010904//EN"
 "http://www.w3.org/TR/2001/REC-SVG-20010904/DTD/svg10.dtd">
<svg version="1.0" xmlns="http://www.w3.org/2000/svg"
 width="3000.000000pt" height="2000.000000pt" viewBox="0 0 3000.000000 2000.000000"
 preserveAspectRatio="xMidYMid meet">
<metadata>
Created by potrace 1.16, written by Peter Selinger 2001-2019
</metadata>
<g transform="translate(0.000000,2000.000000) scale(0.100000,-0.100000)"
fill="#000000" stroke="none">
<path d="M0 10000 l0 -10000 6046 0 6046 0 -3 48 c-3 38 0 47 13 47 20 0 33
11 16 13 -7 0 -22 2 -33 4 -14 2 -19 -2 -16 -12 13 -50 13 -63 2 -56 -7 5 -11
-1 -11 -16 0 -18 -2 -20 -10 -8 -5 8 -9 29 -9 45 1 17 3 22 6 12 2 -9 9 -17
14 -17 11 0 11 7 0 29 -16 29 11 50 75 58 60 8 114 -71 85 -126 -12 -21 -10
-21 89 -21 96 0 100 1 90 19 -25 48 -4 112 44 129 48 18 71 15 105 -14 26 -21
31 -33 31 -68 0 -23 -5 -47 -12 -54 -9 -9 3 -12 57 -12 65 0 67 1 52 18 -11
12 -13 22 -7 32 13 20 13 33 0 25 -17 -11 -10 9 14 39 15 18 28 26 36 21 8 -5
11 -4 7 2 -4 7 21 13 69 18 61 5 79 4 100 -10 41 -27 52 -74 29 -128 -6 -15
-1 -17 48 -17 l55 0 -11 35 c-15 51 9 99 58 115 20 6 42 9 50 6 9 -3 26 -1 39
4 33 12 91 -5 111 -33 17 -25 20 -79 5 -108 -10 -18 -7 -19 49 -19 l59 0 -15
31 c-13 26 -13 35 -1 67 18 48 46 60 140 64 69 3 79 1 102 -21 34 -32 43 -83
22 -116 l-16 -25 61 0 c48 0 59 3 51 12 -25 31 -17 94 14 123 24 22 36 25 111
25 80 0 86 -2 114 -29 31 -31 38 -75 19 -112 -10 -18 -7 -19 45 -19 51 0 69
10 45 25 -15 9 -12 68 6 93 8 12 25 27 37 34 24 13 168 18 161 6 -3 -4 -1 -8
5 -8 5 0 13 5 16 10 4 7 17 1 32 -14 22 -22 25 -32 20 -68 -2 -24 -8 -51 -12
-60 -6 -16 -1 -18 44 -18 47 0 65 10 41 25 -17 11 -11 61 11 89 27 35 70 56
111 56 18 -1 49 2 69 5 29 6 41 2 67 -20 26 -22 32 -34 32 -65 0 -21 -5 -42
-10 -45 -6 -3 -10 -15 -10 -26 0 -16 7 -19 45 -19 45 0 54 7 34 27 -27 27 34
131 79 135 48 4 80 8 113 13 24 5 46 2 67 -9 23 -12 31 -13 35 -3 2 6 8 9 12
5 4 -4 2 -15 -5 -24 -8 -9 -10 -18 -4 -22 12 -9 11 -46 -2 -63 -6 -8 -14 -24
-17 -36 -5 -21 -2 -23 39 -23 45 0 57 12 27 29 -15 8 -15 11 -3 27 8 10 10 15
4 11 -7 -4 -14 0 -18 8 -3 8 -1 15 4 15 6 0 10 5 10 11 0 5 -4 8 -9 5 -5 -3
-12 1 -15 10 -9 24 -7 28 8 15 10 -9 16 -9 21 -1 4 6 4 14 1 17 -3 4 -6 0 -6
-8 -1 -11 -2 -11 -10 2 -28 48 19 75 70 39 24 -17 39 -21 70 -16 22 3 58 9 80
12 26 4 46 2 55 -6 13 -11 20 -9 38 8 37 34 88 33 121 -3 25 -27 61 -29 103
-7 28 15 76 15 90 1 9 -9 20 -5 43 15 43 36 75 33 117 -9 34 -34 66 -45 78
-26 9 16 67 41 78 34 5 -3 7 -1 3 5 -3 6 -2 13 4 17 5 3 10 0 10 -8 0 -8 7
-20 15 -27 12 -10 20 -7 46 14 39 33 78 33 109 1 l24 -26 16 33 c30 65 106 62
150 -5 23 -37 24 -38 40 -18 18 24 66 43 90 36 10 -3 26 -15 36 -26 18 -20 18
-20 34 13 8 18 27 37 41 42 53 18 117 -18 124 -69 2 -16 4 -32 4 -35 2 -11 41
62 40 73 -1 7 -1 21 0 32 1 16 3 17 11 5 6 -9 5 -17 -2 -21 -7 -4 -6 -9 2 -14
7 -4 16 -2 20 5 4 7 14 9 21 6 8 -4 6 -1 -3 7 -27 22 -24 41 5 26 18 -9 20 -9
10 2 -21 21 -15 32 6 12 11 -10 23 -31 27 -48 11 -50 44 -77 44 -37 0 50 80
81 125 48 18 -13 21 -11 37 15 46 75 157 45 150 -40 -1 -17 5 -31 18 -39 18
-11 20 -10 20 8 0 12 11 32 24 45 20 20 31 24 58 18 18 -3 41 -10 51 -15 13
-7 19 -4 26 15 14 36 40 52 84 51 53 -2 81 -33 73 -82 -3 -24 0 -38 14 -52 18
-18 18 -18 25 8 4 18 2 28 -9 34 -12 7 -14 14 -6 28 5 10 10 30 10 44 0 18 5
26 18 25 10 0 12 -3 4 -6 -6 -2 -12 -12 -11 -21 0 -11 2 -12 6 -4 2 6 8 10 13
7 21 -13 0 31 -24 50 -21 16 -25 25 -16 30 9 6 11 4 5 -5 -5 -9 -2 -10 12 -6
28 9 63 -28 63 -65 0 -20 -4 -28 -12 -23 -7 4 -8 3 -4 -4 4 -7 17 -12 30 -12
12 0 31 -7 42 -15 26 -20 34 -19 34 5 0 31 36 60 74 60 25 0 38 6 50 25 22 34
52 47 87 40 44 -10 65 -47 51 -91 -10 -33 -9 -34 17 -34 14 0 37 -7 49 -16 21
-14 22 -14 22 6 0 34 44 70 85 70 22 0 35 5 35 13 0 22 44 57 71 57 14 0 31 6
38 13 10 10 11 8 5 -7 -6 -15 -4 -18 9 -13 9 3 16 3 15 -1 -2 -13 14 -42 22
-37 4 3 1 -14 -7 -38 -17 -50 -45 -77 -83 -77 -19 0 -30 -7 -38 -24 -9 -20 -7
-26 19 -45 l29 -22 0 24 c0 32 33 73 66 81 15 4 38 1 56 -9 39 -19 38 -20 38
10 0 36 33 65 75 65 22 0 35 5 35 13 0 7 9 22 19 34 11 11 21 31 23 43 1 13
15 32 30 43 22 17 31 18 58 8 60 -21 75 -63 40 -116 -11 -16 -20 -38 -20 -47
0 -28 -37 -58 -70 -58 -23 0 -33 -6 -40 -24 -5 -13 -14 -27 -20 -31 -8 -5 -1
-13 18 -22 34 -16 57 -62 49 -94 -5 -17 -1 -20 26 -17 36 4 47 24 17 33 -31
10 -53 66 -40 101 6 15 18 33 28 40 23 18 73 17 100 -2 21 -15 22 -14 22 14 0
38 37 72 78 72 20 0 32 5 32 14 0 7 9 25 20 39 11 14 20 35 20 47 0 11 11 31
24 43 13 12 22 30 20 40 -1 9 2 17 7 17 4 0 6 7 3 15 -4 8 -10 12 -15 9 -5 -3
-6 2 -3 10 5 14 8 14 22 -1 10 -9 17 -28 17 -42 0 -17 8 -29 25 -38 49 -24 65
-79 35 -119 -8 -10 -15 -27 -15 -37 0 -31 -57 -80 -85 -74 -16 3 -25 0 -25 -9
0 -7 -12 -26 -26 -43 -25 -30 -25 -31 -4 -31 29 0 70 -44 70 -75 0 -22 4 -25
38 -25 l37 1 -27 15 c-80 43 -55 154 33 154 62 0 99 -65 68 -122 -12 -23 -12
-23 19 -32 15 -5 22 -3 22 7 0 26 45 57 81 57 38 0 79 -33 79 -63 0 -9 7 -17
16 -17 14 0 14 2 0 22 -37 53 -2 128 60 128 48 0 70 -14 83 -51 9 -25 8 -38
-3 -60 -24 -49 18 -56 52 -9 19 25 30 30 62 30 39 0 80 -26 80 -50 0 -5 5 -10
10 -10 7 0 7 7 0 21 -26 47 17 109 75 109 63 0 102 -59 75 -111 -16 -29 20
-25 67 7 42 28 73 26 111 -8 l22 -21 0 35 c0 46 34 78 82 78 43 0 78 -36 78
-81 0 -34 20 -38 70 -12 33 16 36 16 103 -12 13 -5 17 -2 17 13 0 27 39 70 65
73 55 4 95 -24 95 -67 0 -22 3 -23 95 -21 91 2 96 4 108 27 32 64 122 59 148
-7 5 -13 17 -23 28 -23 19 0 18 2 -4 25 -24 24 -31 57 -19 90 9 22 61 47 83
40 15 -4 20 1 25 29 4 20 16 42 27 50 14 10 19 21 15 34 -4 11 -2 31 3 46 9
22 8 26 -9 26 -27 0 -60 39 -60 72 0 66 88 94 130 41 16 -21 20 -35 15 -60 -4
-24 -2 -33 8 -33 7 0 23 -9 35 -20 29 -27 29 -80 1 -106 -14 -12 -18 -25 -14
-41 6 -27 -17 -78 -40 -87 -9 -3 -27 -6 -40 -6 -17 0 -24 -7 -28 -30 -4 -16
-16 -39 -27 -50 l-22 -22 54 3 c29 1 59 7 66 12 8 6 16 6 25 -1 18 -15 29 -15
38 0 6 8 1 19 -14 30 -21 17 -21 18 -2 15 30 -4 46 -17 38 -30 -4 -8 -1 -7 9
1 14 12 16 10 11 -10 -4 -18 -3 -20 6 -8 7 10 11 11 11 3 0 -7 5 -13 10 -13 7
0 7 6 0 19 -17 33 -11 61 20 93 25 25 36 29 60 24 27 -5 30 -3 30 21 0 15 8
36 19 47 10 12 21 42 23 68 5 44 4 47 -22 58 -76 32 -51 140 33 140 47 0 84
-68 57 -110 -7 -11 -2 -17 23 -25 19 -6 37 -21 46 -39 12 -25 11 -33 -3 -62
-8 -19 -20 -34 -25 -34 -5 0 -7 -15 -4 -33 7 -46 -27 -87 -73 -87 -28 0 -34
-4 -34 -21 0 -11 -5 -29 -10 -40 -10 -18 -6 -19 99 -19 l109 0 -1 36 c-1 47
41 88 85 82 24 -4 28 -1 28 19 0 13 10 34 23 46 14 15 22 36 23 57 0 19 4 43
8 52 7 15 3 18 -16 18 -34 0 -58 30 -58 72 0 44 25 68 72 68 58 0 87 -56 58
-111 -9 -16 -7 -19 10 -19 29 0 70 -44 70 -75 0 -14 -10 -36 -22 -48 -17 -17
-22 -32 -20 -56 5 -45 -29 -81 -75 -81 -30 0 -33 -3 -33 -30 l0 -30 99 0 99 0
6 35 c4 22 13 35 22 35 8 0 12 5 9 10 -3 6 -1 10 4 10 6 0 11 -6 11 -14 0 -7
7 -19 15 -26 8 -7 15 -17 15 -23 0 -6 -7 -2 -15 9 -14 18 -14 18 -13 -8 l2
-28 3933 0 3933 0 0 10000 0 10000 -15000 0 -15000 0 0 -10000z m17244 7449
c50 -40 21 -119 -44 -119 -29 0 -70 29 -70 50 0 6 -85 10 -236 10 -221 0 -236
1 -223 17 10 11 10 14 2 9 -7 -4 -13 -2 -13 3 0 8 77 11 236 11 221 0 237 1
261 20 33 25 54 25 87 -1z m-2024 -370 c52 -6 164 -17 249 -25 688 -67 1364
-309 1946 -697 393 -262 697 -544 1030 -955 28 -34 57 -62 66 -62 29 0 52 -26
51 -58 0 -22 17 -58 55 -119 127 -201 132 -210 120 -222 -9 -9 -8 -11 4 -6 9
3 19 0 22 -7 3 -9 -3 -14 -14 -15 -10 -1 -19 2 -19 6 0 11 -125 207 -168 264
-20 26 -43 47 -53 47 -24 0 -52 36 -46 60 7 26 -67 127 -220 300 -634 720
-1502 1212 -2443 1384 -191 35 -364 56 -520 63 -129 5 -136 5 -154 -16 -24
-26 -50 -27 -73 -2 -25 26 -79 30 -271 19 -774 -41 -1515 -289 -2163 -724
-175 -117 -266 -190 -273 -220 -4 -16 -17 -26 -44 -33 -62 -17 -298 -235 -511
-471 -108 -121 -239 -288 -335 -430 -32 -46 -66 -90 -75 -98 -9 -7 -10 -10 -3
-7 8 4 3 -8 -9 -28 -17 -26 -26 -31 -35 -23 -10 9 -9 15 5 31 9 11 25 36 35
55 32 58 179 262 283 393 108 135 361 398 502 522 60 53 91 87 91 101 0 28 34
58 60 51 14 -4 48 15 118 66 480 348 960 579 1495 717 336 86 726 139 1037
140 47 0 92 5 100 10 8 6 26 8 40 4 14 -3 68 -10 120 -15z m435 -1704 c316
-33 600 -112 875 -242 115 -54 284 -153 370 -217 39 -29 92 -53 185 -84 462
-153 867 -486 1090 -894 40 -74 53 -120 33 -116 -8 2 -14 -9 -16 -25 -2 -15
-7 -25 -12 -22 -4 3 -6 15 -2 27 3 14 1 19 -6 14 -6 -4 -16 4 -23 16 -12 24
-120 188 -123 188 -1 0 -19 -9 -41 -20 -45 -23 -64 -24 -118 -9 -110 30 -163
192 -91 278 l24 29 -82 77 c-164 155 -418 300 -665 381 -97 32 -149 55 -186
83 -129 97 -336 209 -532 288 -97 39 -339 113 -370 113 -6 0 -16 -20 -22 -43
-9 -40 -8 -45 11 -53 29 -12 33 -59 7 -73 -26 -14 -50 -4 -57 25 -6 22 -8 23
-27 9 -26 -18 -93 -19 -127 -2 -13 7 -35 28 -48 47 -20 29 -23 44 -19 86 l5
52 -41 6 c-96 14 -418 18 -560 7 -289 -24 -605 -85 -857 -167 l-115 -37 85
-17 c160 -33 268 -89 382 -198 90 -86 180 -235 202 -338 7 -30 10 -32 89 -47
241 -47 441 -227 521 -469 14 -42 26 -86 26 -97 0 -12 4 -21 9 -21 5 0 13 -13
19 -28 11 -33 -6 -75 -38 -92 -78 -42 -153 65 -83 119 26 21 26 22 14 76 -49
219 -258 410 -491 450 -47 9 -90 17 -96 19 -6 2 -23 42 -37 88 -36 114 -88
198 -179 290 -63 63 -94 85 -170 122 -127 60 -139 62 -160 26 -13 -24 -24 -30
-49 -30 -40 0 -69 25 -69 58 0 24 -1 25 -75 20 -75 -5 -105 -18 -105 -45 0
-24 -40 -74 -67 -84 -24 -9 -25 -11 -9 -28 25 -27 21 -77 -8 -97 -33 -21 -65
-15 -89 18 -18 24 -18 30 -7 57 7 17 17 31 23 31 6 0 -6 9 -28 20 -22 11 -43
27 -48 36 -13 23 -56 13 -222 -53 -581 -229 -1018 -619 -1290 -1151 -26 -51
-51 -95 -56 -98 -5 -3 -7 -9 -5 -13 3 -4 -4 -8 -15 -8 -10 -1 -19 3 -19 8 0 6
6 7 13 3 8 -5 7 -2 -2 9 -11 14 -17 15 -28 5 -23 -19 18 79 82 194 354 637
895 1042 1675 1254 85 23 220 65 300 94 253 90 573 163 835 189 61 6 124 13
140 15 88 10 442 4 570 -9z m834 -338 c59 -30 83 -103 56 -173 -13 -34 -25
-47 -59 -63 -54 -27 -85 -26 -127 2 -78 51 -88 152 -22 215 29 27 42 32 81 32
26 0 58 -6 71 -13z m-967 -283 c88 -81 33 -224 -87 -224 -114 0 -170 131 -93
217 39 43 136 46 180 7z m599 -70 c31 -30 45 -78 35 -121 -9 -34 -68 -93 -94
-93 -25 0 -53 -64 -77 -174 -24 -107 -17 -291 15 -391 42 -133 96 -222 195
-320 119 -119 223 -179 380 -220 66 -17 155 -20 155 -5 0 19 44 50 72 50 60 0
93 -85 48 -125 -19 -17 -27 -17 -108 -5 -219 31 -340 73 -465 160 -195 134
-321 330 -357 553 -19 115 -8 291 24 399 l26 87 -25 37 c-45 66 -26 161 38
190 46 20 103 11 138 -22z m-2965 -75 c69 -65 15 -189 -83 -189 -15 0 -42 9
-60 19 -26 16 -33 29 -38 66 -11 71 20 124 80 137 30 6 75 -9 101 -33z m898
-179 c78 -29 79 -153 2 -185 -40 -17 -73 -10 -108 23 -45 42 -35 121 20 155
31 19 51 21 86 7z m2782 -35 c13 -14 55 -33 107 -49 273 -83 490 -267 602
-510 66 -142 79 -209 79 -419 1 -178 2 -189 21 -199 47 -24 95 -62 95 -73 0
-7 -6 -18 -13 -24 -11 -8 -28 -3 -71 20 -53 29 -58 30 -70 14 -18 -26 -60 -11
-53 18 49 202 52 222 45 317 -19 227 -111 425 -269 576 -117 111 -268 195
-401 224 l-57 13 -36 -32 c-27 -23 -45 -31 -74 -31 -93 0 -125 133 -44 182 34
20 110 6 139 -27z m-4168 -358 c23 -18 43 -67 37 -88 -4 -11 -17 -26 -30 -35
-21 -14 -26 -14 -53 0 -45 23 -62 44 -62 75 0 56 63 83 108 48z m886 -318 c14
-11 26 -29 26 -38 0 -13 24 -30 83 -58 45 -22 106 -60 136 -84 61 -50 161
-171 200 -241 23 -43 30 -48 61 -48 48 0 98 -33 116 -76 14 -34 18 -36 47 -30
74 15 233 36 341 46 278 24 540 -38 729 -174 67 -47 124 -103 96 -93 -9 3 -21
1 -27 -5 -8 -8 -30 4 -74 37 -83 63 -223 129 -328 155 -178 44 -446 36 -686
-20 -76 -18 -93 -25 -105 -46 -16 -31 -77 -64 -116 -64 -35 0 -87 31 -109 65
-23 35 -22 103 2 144 l19 32 -32 62 c-89 170 -269 312 -394 309 -63 -1 -99 25
-99 73 0 36 36 75 70 75 10 0 29 -9 44 -21z m-731 -270 c12 -7 25 -17 29 -23
13 -19 8 -74 -8 -90 -13 -14 -14 -26 -4 -91 12 -80 9 -95 -19 -95 -14 0 -22
16 -34 69 -10 38 -17 74 -17 79 0 6 -11 22 -25 36 -32 32 -32 70 0 101 27 28
45 31 78 14z m-906 -357 c10 -6 10 -26 -2 -92 -14 -81 -14 -84 5 -97 25 -17
50 -65 50 -93 0 -39 -32 -91 -66 -107 -35 -17 -47 -56 -39 -120 3 -29 1 -33
-18 -33 -65 1 -68 6 -66 95 1 63 -2 88 -15 106 -26 37 -20 83 15 124 24 26 35
55 50 120 10 47 21 90 24 95 7 12 45 13 62 2z m4311 -168 c13 -9 31 -28 40
-44 12 -21 41 -38 120 -70 76 -32 102 -46 98 -57 -3 -8 -6 -19 -6 -24 0 -14
-22 -11 -86 14 -103 41 -110 41 -130 7 -24 -40 -76 -64 -123 -56 -46 7 -101
64 -101 105 0 26 -4 29 -42 35 -24 3 -78 6 -120 7 -43 1 -75 6 -72 10 3 5 0 9
-7 9 -7 0 -2 9 11 20 20 18 37 20 141 20 75 0 120 4 125 11 12 20 68 39 98 34
17 -3 41 -12 54 -21z m160 -1100 c16 -11 22 -25 22 -54 0 -53 -26 -69 -104
-66 -50 1 -60 5 -67 23 -6 16 -2 23 17 32 13 6 24 19 24 30 0 23 36 51 65 51
11 0 31 -7 43 -16z m-1416 -561 c10 -9 18 -30 18 -48 0 -17 6 -37 13 -44 10
-10 8 -15 -8 -27 -11 -8 -26 -12 -35 -8 -8 4 -26 9 -40 12 -37 7 -60 31 -60
64 0 57 70 89 112 51z m4670 -2367 c58 -44 29 -136 -43 -136 -28 0 -69 44 -69
75 0 54 71 93 112 61z m-1043 -741 c72 -36 42 -135 -41 -135 -28 0 -70 31 -79
58 -3 9 -223 12 -918 12 -724 0 -912 3 -902 13 9 9 220 13 915 17 814 5 906 7
922 21 36 31 63 35 103 14z m-3065 -86 c57 -45 18 -129 -61 -129 -27 0 -37 6
-51 30 -9 16 -23 30 -29 30 -7 0 -13 9 -13 20 0 12 7 20 16 20 9 0 29 11 46
25 36 30 57 31 92 4z m-4539 -524 c49 -48 23 -115 -46 -115 -64 0 -90 61 -48
114 26 33 62 34 94 1z m5339 -196 c34 -27 35 -71 1 -104 -33 -34 -70 -32 -105
5 -15 17 -37 30 -49 30 -29 0 -26 26 4 34 13 3 35 17 49 31 31 30 65 32 100 4z
m-4060 -210 c34 -27 35 -71 1 -104 -30 -30 -54 -31 -89 -4 -19 15 -26 30 -26
54 0 36 36 75 70 75 10 0 29 -9 44 -21z m4904 -1065 c49 -34 12 -144 -48 -144
-21 0 -63 35 -72 60 -3 11 -47 15 -209 20 -112 4 -196 7 -186 8 9 1 17 7 17
12 0 6 69 10 186 10 186 0 187 0 210 25 27 29 68 33 102 9z m3142 -5354 c24
-24 26 -57 5 -87 -13 -18 -12 -22 5 -38 43 -39 10 -115 -50 -115 -58 0 -91 68
-56 116 13 16 12 21 -1 36 -55 61 39 146 97 88z m352 3 c24 -28 26 -45 12 -81
-12 -29 -12 -36 1 -49 20 -19 19 -72 -2 -95 -22 -24 -77 -24 -103 2 -24 24
-26 57 -4 88 15 21 15 25 0 41 -37 41 -4 111 52 111 16 0 36 -8 44 -17z m353
-8 c29 -28 31 -51 9 -83 -14 -21 -14 -24 5 -48 26 -34 26 -54 0 -88 -24 -30
-63 -34 -97 -10 -26 18 -31 84 -7 104 13 11 12 15 -5 37 -11 14 -20 34 -20 45
0 25 44 68 70 68 12 0 32 -11 45 -25z m357 -2 c22 -20 24 -70 2 -94 -14 -16
-14 -19 5 -38 27 -27 27 -69 -1 -98 -60 -64 -153 22 -102 95 14 20 14 24 0 38
-21 20 -20 73 1 96 20 22 70 23 95 1z m352 -8 c31 -31 27 -84 -8 -107 -7 -5
-3 -13 12 -23 31 -22 31 -87 0 -109 -34 -24 -73 -20 -97 10 -26 33 -26 54 -1
86 19 25 19 26 0 43 -24 22 -26 62 -4 93 18 26 74 30 98 7z m356 -17 c25 -28
26 -58 0 -91 -17 -21 -18 -27 -7 -34 8 -4 20 -19 26 -31 24 -46 -29 -112 -76
-95 -53 19 -72 83 -34 117 18 17 18 18 -5 41 -29 30 -30 54 -3 89 26 33 70 35
99 4z m344 -9 c32 -25 35 -70 5 -100 l-20 -20 25 -20 c51 -40 21 -119 -44
-119 -62 0 -92 71 -48 117 l22 23 -22 16 c-15 10 -22 25 -22 47 0 37 7 49 35
65 28 16 39 15 69 -9z m357 -17 c30 -25 31 -78 1 -102 l-21 -17 25 -22 c32
-28 33 -83 2 -105 -34 -24 -73 -20 -97 10 -28 35 -26 59 4 90 l26 26 -26 20
c-34 27 -34 70 1 97 33 26 55 26 85 3z m354 -27 c32 -31 32 -59 -1 -92 -20
-20 -23 -28 -12 -34 7 -5 16 -9 19 -9 4 0 12 -14 19 -31 11 -27 11 -33 -7 -57
-26 -35 -81 -42 -107 -13 -26 29 -23 71 6 96 l24 21 -28 26 c-15 14 -28 35
-28 47 0 28 43 71 70 71 12 0 32 -11 45 -25z m358 -23 c26 -23 22 -69 -9 -97
-15 -14 -21 -25 -15 -25 7 0 11 -8 10 -17 -3 -33 1 -42 22 -48 15 -5 18 -10 9
-15 -6 -4 -11 -10 -11 -14 3 -20 0 -26 -11 -20 -6 4 -16 0 -23 -9 -12 -17 -55
-13 -55 5 0 5 5 6 12 2 7 -4 8 -3 4 5 -4 6 -12 8 -18 5 -6 -4 -14 0 -19 7 -16
25 -10 59 15 84 l23 23 -25 19 c-34 25 -33 70 3 100 29 25 55 24 88 -5z
m-3537 -5 c35 -31 38 -82 5 -109 -75 -60 -160 46 -87 109 15 12 33 23 41 23 8
0 26 -11 41 -23z m-497 -123 c12 -15 21 -37 21 -50 0 -13 6 -24 13 -24 19 0
44 -30 52 -60 4 -18 0 -34 -14 -52 -12 -14 -21 -36 -21 -49 0 -35 -38 -69 -77
-69 -27 0 -33 -4 -33 -20 0 -27 -43 -70 -69 -70 -57 0 -99 51 -85 104 8 34 40
56 81 56 26 0 33 4 33 20 0 11 9 28 20 37 23 20 27 63 6 63 -18 0 -56 47 -56
70 0 34 39 70 75 70 24 0 39 -7 54 -26z m351 6 c11 -11 20 -33 20 -50 0 -16 5
-30 10 -30 20 0 60 -49 60 -73 0 -13 -9 -36 -20 -50 -11 -14 -20 -37 -20 -51
0 -35 -33 -66 -69 -66 -25 0 -31 -6 -41 -35 -28 -85 -150 -70 -150 19 0 49 29
80 74 80 27 0 36 4 36 17 0 9 9 28 20 42 22 27 27 77 8 77 -47 0 -67 96 -26
124 31 22 74 20 98 -4z m351 1 c16 -13 23 -29 23 -55 0 -23 5 -36 13 -36 46 0
71 -91 34 -124 -11 -10 -17 -24 -14 -32 15 -41 -51 -106 -92 -90 -11 4 -15 -1
-15 -20 0 -66 -98 -100 -139 -48 -43 55 -14 127 52 128 30 1 36 5 41 27 3 15
13 34 22 44 29 29 25 67 -10 90 -23 15 -32 29 -34 54 -7 66 67 105 119 62z
m360 -12 c15 -15 20 -30 17 -54 -3 -28 0 -34 24 -43 46 -17 60 -92 22 -123 -8
-6 -14 -25 -14 -42 0 -42 -35 -77 -77 -77 -29 0 -33 -3 -33 -27 0 -92 -138
-97 -156 -6 -5 27 -1 37 25 64 26 26 37 30 61 25 28 -5 30 -3 30 24 0 17 9 39
20 50 24 24 28 90 6 90 -18 0 -56 47 -56 70 0 10 9 29 21 44 26 33 79 36 110
5z m352 -7 c14 -12 18 -27 15 -55 -3 -33 0 -39 19 -44 51 -12 69 -82 33 -121
-12 -13 -20 -35 -20 -57 0 -46 -29 -75 -75 -75 -31 0 -35 -3 -35 -27 0 -64
-85 -97 -127 -50 -29 32 -33 49 -17 85 14 35 54 56 85 47 15 -5 19 -1 19 21 0
15 8 37 19 48 24 27 35 106 15 106 -26 0 -54 39 -54 73 0 67 71 95 123 49z
m1409 -59 c25 -28 29 -56 13 -85 -13 -26 -12 -28 6 -28 30 0 69 -44 69 -78 0
-16 -9 -37 -21 -48 -14 -12 -18 -25 -14 -41 6 -27 -17 -78 -40 -87 -33 -12
-75 -6 -82 12 -4 9 -13 23 -20 30 -20 21 -15 50 12 78 17 17 24 32 20 44 -3
11 1 33 10 50 15 29 15 30 -7 30 -31 0 -68 38 -68 70 0 58 85 95 122 53z m357
-29 c23 -30 27 -64 9 -82 -6 -6 -10 -13 -7 -14 2 -2 17 -10 34 -18 41 -21 56
-54 43 -92 -12 -34 -32 -45 -52 -29 -10 8 -16 9 -21 1 -3 -5 -2 -10 4 -10 5 0
8 -8 6 -18 -2 -11 3 -19 10 -19 8 0 12 4 9 9 -3 4 0 8 5 8 19 0 12 -48 -9 -63
-11 -8 -17 -17 -12 -22 4 -4 -3 -5 -15 -2 -13 3 -26 1 -29 -4 -8 -14 -34 -11
-34 4 0 8 -11 24 -24 36 -21 20 -23 27 -14 51 5 16 16 31 24 34 9 3 14 20 14
45 0 22 5 43 10 46 18 11 10 25 -14 25 -27 0 -66 42 -66 70 0 34 39 70 75 70
24 0 39 -7 54 -26z m348 -16 c25 -23 29 -57 12 -91 -7 -11 -8 -22 -3 -24 5 -2
8 -23 6 -47 -4 -41 -6 -44 -37 -48 -33 -4 -38 4 -21 31 6 10 5 12 -2 7 -7 -4
-12 -2 -12 3 0 6 4 11 8 11 18 0 8 30 -12 36 -37 11 -56 36 -56 71 0 65 69 96
117 51z"/>
</g>
</svg>
