<?xml version="1.0" standalone="no"?>
<!DOCTYPE svg PUBLIC "-//W3C//DTD SVG 20010904//EN"
 "http://www.w3.org/TR/2001/REC-SVG-20010904/DTD/svg10.dtd">
<svg version="1.0" xmlns="http://www.w3.org/2000/svg"
 width="1000.000000pt" height="571.000000pt" viewBox="0 0 1000.000000 571.000000"
 preserveAspectRatio="xMidYMid meet">
<metadata>
Created by potrace 1.16, written by Peter Selinger 2001-2019
</metadata>
<g transform="translate(0.000000,571.000000) scale(0.100000,-0.100000)"
fill="#000000" stroke="none">
<path d="M0 4660 l0 -1050 25 0 c33 0 33 -28 0 -36 l-25 -6 0 -393 0 -392 23
4 c17 3 26 -2 35 -21 10 -23 9 -26 -13 -32 -13 -3 -29 -3 -34 1 -8 4 -11 -404
-11 -1364 l0 -1371 1600 0 1600 0 0 24 c0 56 69 63 85 9 l9 -33 3353 0 3353 0
0 2855 0 2855 -5000 0 -5000 0 0 -1050z m7798 441 c46 -44 67 -81 44 -81 -4 0
-24 -27 -43 -59 -30 -52 -39 -61 -76 -70 -65 -17 -97 -13 -121 12 -54 58 -53
149 4 208 30 31 41 36 87 37 49 2 55 -1 105 -47z m-1523 -825 c22 -23 35 -69
35 -121 0 -103 -34 -129 -130 -101 -28 8 -57 13 -65 9 -14 -5 -20 9 -15 32 17
75 46 154 62 172 31 33 86 37 113 9z m-4535 -41 c22 -11 35 -12 56 -5 20 8 34
7 57 -5 16 -8 52 -15 78 -15 26 0 59 -4 73 -10 54 -20 190 -11 291 20 92 28
159 35 174 16 7 -8 11 -25 9 -38 -3 -20 -9 -23 -44 -24 -23 0 -56 -6 -73 -14
-26 -11 -35 -10 -57 4 -24 16 -28 16 -76 0 -39 -13 -77 -16 -172 -13 -106 4
-121 2 -118 -12 3 -22 -26 -45 -72 -58 -46 -12 -60 -7 -44 18 15 24 4 51 -22
51 -12 0 -29 -15 -45 -40 -13 -21 -49 -58 -79 -80 -56 -43 -79 -45 -119 -15
-40 30 15 80 75 68 19 -4 30 1 42 18 22 33 20 48 -9 59 -27 10 -30 21 -14 51
8 16 34 34 57 38 2 1 16 -6 32 -14z m3897 -120 c31 -35 30 -79 -2 -111 -21
-20 -32 -24 -56 -19 -21 5 -42 0 -70 -14 -51 -27 -72 -26 -105 2 -59 51 -11
143 89 168 58 15 119 4 144 -26z m-4402 -184 c9 -15 -43 -50 -98 -66 -33 -10
-62 -27 -83 -50 -35 -38 -81 -47 -104 -20 -10 12 -4 22 32 55 50 48 83 67 135
79 51 12 111 13 118 2z m6763 -524 c18 -12 15 -41 -8 -67 -11 -13 -20 -30 -20
-40 0 -43 -78 -56 -124 -19 -34 27 -36 80 -3 112 18 19 33 23 82 22 33 0 66
-4 73 -8z m-1353 -153 c20 -8 45 -56 45 -88 0 -48 -80 -75 -113 -38 -8 9 -19
29 -22 44 -6 22 -1 33 23 58 32 31 40 34 67 24z m-2515 -29 c26 -23 51 -75 44
-87 -3 -5 2 -18 12 -29 17 -19 17 -19 -19 -4 -36 15 -118 21 -130 9 -3 -4 1
-17 10 -30 15 -23 14 -24 -3 -18 -11 4 -28 13 -38 20 -17 12 -18 14 -3 19 8 4
13 13 10 21 -3 8 0 14 6 14 6 0 11 5 11 11 0 7 -12 9 -34 5 -30 -6 -34 -4 -38
18 -5 26 7 46 28 46 6 0 18 7 25 16 17 21 92 14 119 -11z m1194 -722 c8 -25
15 -31 35 -30 23 2 26 -2 26 -32 0 -26 6 -38 27 -50 23 -14 24 -19 13 -34 -13
-17 -14 -17 -20 2 -7 22 -52 51 -80 51 -8 0 -15 9 -15 20 0 13 -7 20 -20 20
-11 0 -20 5 -20 10 0 19 -29 10 -48 -15 -27 -34 -36 -32 -17 4 17 34 6 48 -25
31 -11 -6 -20 -7 -20 -3 0 4 -5 2 -12 -5 -7 -7 -16 -12 -20 -12 -5 0 5 13 22
30 16 16 30 35 30 41 0 9 3 9 14 0 10 -8 20 -8 40 3 40 20 79 7 90 -31z
m-4220 -1083 c37 -14 52 -51 36 -90 -25 -60 -85 -78 -127 -38 -34 32 -31 79 8
112 34 29 45 31 83 16z m1734 -42 c28 -28 -1 -108 -40 -108 -35 0 -87 23 -113
50 -23 24 -26 32 -16 44 19 23 149 34 169 14z m6591 -934 c11 -14 21 -30 23
-36 2 -5 30 -12 63 -15 73 -6 113 -25 121 -60 5 -20 2 -31 -16 -45 -27 -22
-39 -22 -88 -3 -27 11 -46 29 -61 55 -18 33 -28 40 -52 40 -57 0 -89 33 -69
71 15 27 55 24 79 -7z"/>
</g>
</svg>
